<?xml version="1.0" encoding="UTF-8"?>
<svg version="1.1" xmlns="http://www.w3.org/2000/svg" viewBox="-10 -10 440 348">
	<title xml:lang="tn">Folaga ya Botswana</title>
	<title xml:lang="en">Flag of Botswana</title>
	<metadata>
		<rdf:RDF xmlns:rdf="http://www.w3.org/1999/02/22-rdf-syntax-ns#" xmlns:dc="http://purl.org/dc/elements/1.1/" xmlns:cc="http://creativecommons.org/ns#">
			<cc:Work rdf:about="">
				<dc:title xml:lang="tn">Folaga ya Botswana</dc:title>
				<dc:title xml:lang="en">Flag of Botswana</dc:title>
				<dc:format>image/svg+xml</dc:format>
				<dc:type rdf:resource="http://purl.org/dc/dcmitype/StillImage" />
				<dc:creator>
					<cc:Agent>
						<dc:title>Frank Bruder</dc:title>
					</cc:Agent>
				</dc:creator>
				<cc:license rdf:resource="http://creativecommons.org/publicdomain/zero/1.0/"/>
				<cc:attributionName>Frank Bruder</cc:attributionName>
				<cc:attributionURL rdf:resource="http://frabru.de/"/>
			</cc:Work>
		</rdf:RDF>
	</metadata>
	<path fill="#c0c0c0" d="M20 34q95 -27 190 0t190 0v260q-95 27 -190 0t-190 0z"/>
	<path fill="#007fff" d="M30 44q90 -27 180 0t180 0v90l-30 30l30 30v90q-90 27 -180 0t-180 0v-90l30 -30l-30 -30z"/>
	<path fill="#fff" d="M30 134q90 -27 180 0t180 0v10l-20 20l20 20v10q-90 27 -180 0t-180 0v-10l20 -20l-20 -20z"/>
	<path fill="#000" d="M30 144q90 -27 180 0t180 0v40q-90 27 -180 0t-180 0z"/>
</svg>
