<?xml version="1.0" encoding="UTF-8"?>
<svg version="1.1" xmlns="http://www.w3.org/2000/svg" viewBox="-10 -10 440 348">
	<title xml:lang="de">Schweizerfahne</title>
	<title xml:lang="fr">Drapeau de la Suisse</title>
	<metadata>
		<rdf:RDF xmlns:rdf="http://www.w3.org/1999/02/22-rdf-syntax-ns#" xmlns:dc="http://purl.org/dc/terms/" xmlns:voc="http://www.w3.org/1999/xhtml/vocab#" xmlns:cc="http://web.resource.org/cc/">
			<cc:Work rdf:about="">
				<dc:title xml:lang="de">Schweizerfahne</dc:title>
				<dc:title xml:lang="fr">Drapeau de la Suisse</dc:title>
				<dc:format>image/svg+xml</dc:format>
				<dc:type rdf:resource="http://purl.org/dc/dcmitype/StillImage" />
				<dc:creator>
					<dc:Agent rdf:about="http://purl.org/net/2008,frankbruder/id">
						<dc:title>Frank Bruder</dc:title>
					</dc:Agent>
				</dc:creator>
				<voc:license rdf:resource="http://creativecommons.org/publicdomain/zero/1.0/"/>
				<voc:license rdf:resource="http://web.resource.org/cc/PublicDomain" />
			</cc:Work>
		</rdf:RDF>
	</metadata>
	<path fill="#c0c0c0" d="M50 4q80 -27 160 0t160 0v320q-80 27 -160 0t-160 0z"/>
	<path fill="#f00" d="M60 14q75 -27 150 0t150 0v300q-75 27 -150 0t-150 0z"/>
	<path fill="#fff" d="M116.25 123.21875q46.875 -4.21875 93.75 12.65625t93.75 12.65625v56.25q-46.875 4.21875 -93.75 -12.65625t-93.75 -12.65625z"/>
	<path fill="#fff" d="M181.875 62.0234375q14.0625 3.1640625 28.125 8.2265625t28.125 8.2265625v187.5q-14.0625 -3.1640625 -28.125 -8.2265625t-28.125 -8.2265625z"/>
</svg>
