<?xml version="1.0" encoding="UTF-8"?>
<svg version="1.1" xmlns="http://www.w3.org/2000/svg" viewBox="-10 -10 440 348">
	<title xml:lang="fr">Drapeau du Cameroun</title>
	<metadata>
		<rdf:RDF xmlns:rdf="http://www.w3.org/1999/02/22-rdf-syntax-ns#" xmlns:dc="http://purl.org/dc/elements/1.1/" xmlns:cc="http://creativecommons.org/ns#">
			<cc:Work rdf:about="">
				<dc:title xml:lang="fr">Drapeau du Cameroun</dc:title>
				<dc:format>image/svg+xml</dc:format>
				<dc:type rdf:resource="http://purl.org/dc/dcmitype/StillImage" />
				<dc:creator>
					<cc:Agent>
						<dc:title>Frank Bruder</dc:title>
					</cc:Agent>
				</dc:creator>
				<cc:license rdf:resource="http://creativecommons.org/publicdomain/zero/1.0/"/>
				<cc:attributionName>Frank Bruder</cc:attributionName>
				<cc:attributionURL rdf:resource="http://frabru.de/"/>
			</cc:Work>
		</rdf:RDF>
	</metadata>
	<path fill="#c0c0c0" d="M20 34q95 -27 190 0t190 0v260q-95 27 -190 0t-190 0z"/>
	<path fill="#090" d="M30 44q60 -18 120 -12l60 120l-60 120q-60 -6 -120 12z"/>
	<path fill="#c00" d="M150 32q30 3 60 12t60 12l60 120l-60 120q-30 -3 -60 -12t-60 -12z"/>
	<path fill="#ee0" d="M270 56q60 6 120 -12v240q-60 18 -120 12z"/>
	<path fill="#ee0" transform="matrix(1 0.15 0 1 210 164)" d="M0 -40L8.98056 -12.36068L38.04226 -12.36068L14.53085 4.72136L23.51141 32.36068L0 15.27864L-23.51141 32.36068L-14.53085 4.72136L-38.04226 -12.36068L-8.98056 -12.36068z"/>
</svg>
