<?xml version="1.0" encoding="UTF-8"?>
<svg version="1.1" xmlns="http://www.w3.org/2000/svg" viewBox="-10 -10 440 348">
	<title xml:lang="de">Flagge von Berlin</title>
	<metadata>
		<rdf:RDF xmlns:rdf="http://www.w3.org/1999/02/22-rdf-syntax-ns#" xmlns:dc="http://purl.org/dc/elements/1.1/" xmlns:cc="http://creativecommons.org/ns#">
			<cc:Work rdf:about="">
				<dc:title xml:lang="de">Flagge von Berlin</dc:title>
				<dc:format>image/svg+xml</dc:format>
				<dc:type rdf:resource="http://purl.org/dc/dcmitype/StillImage" />
				<dc:creator>
					<cc:Agent>
						<dc:title>Frank Bruder</dc:title>
					</cc:Agent>
				</dc:creator>
				<cc:license rdf:resource="http://creativecommons.org/publicdomain/zero/1.0/"/>
				<cc:attributionName>Frank Bruder</cc:attributionName>
				<cc:attributionURL rdf:resource="http://frabru.de/"/>
			</cc:Work>
		</rdf:RDF>
	</metadata>
	<path fill="#c0c0c0" d="M12.5 41.5q98.75 -27 197.5 0t197.5 0v245q-98.75 27 -197.5 0t-197.5 0z"/>
	<path fill="#f00" d="M22.5 51.5q93.75 -27 187.5 0t187.5 0v45l-93.75 30h-187.5l-93.75 -30z"/>
	<path fill="#fff" d="M22.5 96.5q93.75 -27 187.5 0t187.5 0v135l-93.75 30h-187.5l-93.75 -30z"/>
	<path fill="#f00" d="M22.5 231.5q93.75 -27 187.5 0t187.5 0v45q-93.75 27 -187.5 0t-187.5 0z"/>
	<g transform="translate(210 164) matrix(1 0.2388 0 1 -12.5 -3.36)">
		<path fill="#000" stroke="#fff" stroke-width="1" stroke-linejoin="round" d="M-23 -14c-7 -4 -16 -10 -18 -12s-7 -12 -7 -14s2 -5 4 -6s4 0 5 2s1 6 3 8s12 6 18 7"/>
		<path fill="#f00" d="M-43 -50q2 2 2 4q-1 -0.5 -2 -0.5q1 -0.5 0 -3.5zM-45.5 -49.5q2.5 2 2.5 3q-0.5 0 -1.5 0.5q0 -2 -1 -3.5zM-47.5 -48q2 0.5 3 2q-1 0.5 -1.5 1.5q0 -1.5 -1.5 -3.5zM-49.5 -46q2 0 3.5 1q-0.5 0.5 -1 2q-1.5 -2.5 -2.5 -3zM-50 -43.5q2 0 3 0.5q-0.5 0.5 -1 2q-0.5 -2 -2 -2.5z"/>

		<path fill="#000" stroke="#fff" stroke-width="1" stroke-linejoin="round" d="M-6 29c-16 6 -17 15 -18 18s0 8 -6 5s-9 -2 -12 -4s-2 -5 -2 -8s3 -4 5 -3s6 5 6 1s-5 -20 19 -28"/>
		<path fill="#f00" d="M-45 36q1 -1 3 1q-0.6 0.3 -1 1q-1 -2 -2 -2zM-47 38q1 -1 3.5 0q-0.8 1.3 -0.5 2q-2 -2.4 -3 -2zM-48.5 40.5q2.5 -1 4.5 0q-0.2 1 0 2q-2 -2.5 -4.5 -2zM-48 43q1.5 -1 4 -0.5q-0.2 1.5 0 2q-1.5 -1.5 -4 -1.5zM-47 45q1.5 -1 3 -0.5q0.3 1.2 0.5 2q-1.5 -1.5 -3.5 -1.5z"/>

		<path fill="none" stroke="#f00" stroke-width="1.5" stroke-linecap="round" d="M-20.5 -47c-0.5 1.5 0 3 3 3.5s8 0 11 2"/>
		<path fill="#000" stroke="#fff" stroke-width="1" stroke-linecap="round" stroke-linejoin="round" d="M-14 13c-1 -2 -2 -2 -3 -3s-4 -8 -5 -12l-2 -12c-1 -11 4 -17 11 -19c2 -1 4 -2 4 -3s-7 -0.5 -7 -2.5s0.5 -1.5 2 -1.5l6 0c0 -4.5 -1 -5 -3 -6s-8 0 -8 -8c0 -1 5 -0.5 8 -0.5c3 -3 10 -4 17 -2c5 -1 7.5 2.5 5.5 7.5q2 9 -1.5 17c0 2 1 4 1 7s-4 13 -4 16q2.5 11 4 22c2 2 3 4 3 6s-1 3.5 -2 3c1 4 0 9 1 13s2 9 2 10s-6 9 -10 11s-4 2 -6 2s-4 -4 -4 -6s0 -3 1 -4s6 -1 6 -3s-4 -2 -8 -8s-6 -15 -5 -18"/>
		<path fill="none" stroke="#fff" stroke-width="1" stroke-linecap="round" d="M6 -52c0 -2 2 -2.5 3 -2"/>
		<path fill="#fff" stroke="#fff" stroke-width="1" stroke-linejoin="round" d="M-8 -51c1 -2 1.5 -2.5 3.5 0.5z"/>
		<path fill="none" stroke="#000" stroke-width="1.3" stroke-linejoin="round" d="M-6.8 -50q-0.4 -0.7 0 -1.5q-0.2 0.7 0.2 1.6"/>
		<path fill="#fff" stroke="#000" stroke-width="0.5" stroke-linejoin="round" d="M-16.2 -48.1q-0.1 1.5 0.5 2.6q0.3 -1 1.2 -2c0 -0.3 -1.8 -1.1 -1.7 -0.6zM-12 -46.7c0 -0.3 -1.8 -0.9 -1.9 -0.5s0.3 1.3 0.4 1.5s0.9 0.5 1.4 0.2l0.1 -1.2zM-12 -46.7l-0.1 1.2c0.2 0.4 1.6 1.1 1.9 0.8s0.6 -0.6 0.5 -1s-2 -1.3 -2.3 -1zM-14.9 -39.6q0.1 -0.9 0.6 -1.7q0.2 1 0.7 1.6c0.5 0.5 -1.3 0.8 -1.3 0.1zM-13 -39.4c-0.2 -0.2 0.1 -1.2 0.4 -1.1s0.6 0.1 1 0s0.4 1 0.5 1.1s-1.7 0.2 -1.9 0zM-11.1 -39.4c-0.1 -0.1 -0.1 -1.2 0.6 -1.2s1.4 -0.2 1.6 0.4s0.4 0.8 -0.5 0.9s-1.6 0 -1.7 -0.1z"/>
		<path fill="#f00" d="M-9 49q2 -0.5 4 0q-0.5 1 -0.5 2q-1 -2 -3.5 -2zM-9.5 52q2.5 -1 4 -1q-0.2 0.5 0 2q-1.5 -1.5 -4 -1zM-9 54.5q1 -1 3.5 -1.5q0.4 1.4 1 2q-2 -1 -4.5 -0.5zM-8 56.5q1 -1 3 -2q0.2 0.6 1 1.5q-1.5 -0.4 -4 0.5zM-6 58q0.7 -1.3 2 -2q0.5 1 1.5 1.5q-2 0 -3.5 0.5z"/>

		<path fill="#000" stroke="#fff" stroke-width="1" stroke-linecap="round" stroke-linejoin="round" d="M-18 -1c-7 3 -16 4 -20 3s-13 -9 -13 -11s2 -8 5 -8s6 8 8 8s11 -5 16 -7"/>
		<path fill="#f00" d="M-49 -20q1.5 1 2.5 3q-0.5 0 -1.5 0.5q0 -1.5 -1 -3.5zM-51.5 -19q2 1 3.5 2.5q-1 0.5 -1.5 1.5q0 -1.5 -2 -4zM-53.5 -17q2 0 4 2q-0.5 0.5 -1 2q-1 -2.5 -3 -4zM-54.5 -14.5q2 0 4 1q-0.5 1.5 -0.5 2.5q-1 -2.5 -3.5 -3.5zM-55 -12q2 0 4 0.5q-0.2 1.5 0 2q-1.5 -1.5 -4 -2.5z"/>
	</g>
</svg>
