<?xml version="1.0" encoding="UTF-8"?>
<svg version="1.1" xmlns="http://www.w3.org/2000/svg" viewBox="-10 -10 440 348">
	<title xml:lang="de">Landesflagge Bremens</title>
	<metadata>
		<rdf:RDF xmlns:rdf="http://www.w3.org/1999/02/22-rdf-syntax-ns#" xmlns:dc="http://purl.org/dc/elements/1.1/" xmlns:cc="http://creativecommons.org/ns#">
			<cc:Work rdf:about="">
				<dc:title xml:lang="de">Landesflagge Bremens</dc:title>
				<dc:format>image/svg+xml</dc:format>
				<dc:type rdf:resource="http://purl.org/dc/dcmitype/StillImage" />
				<dc:creator>
					<cc:Agent>
						<dc:title>Frank Bruder</dc:title>
					</cc:Agent>
				</dc:creator>
				<cc:license rdf:resource="http://creativecommons.org/publicdomain/zero/1.0/"/>
				<cc:attributionName>Frank Bruder</cc:attributionName>
				<cc:attributionURL rdf:resource="http://frabru.de/"/>
			</cc:Work>
		</rdf:RDF>
	</metadata>
	<path fill="#c0c0c0" d="M20 34q95 -27 190 0t190 0v260q-95 27 -190 0t-190 0z"/>
	<path fill="#e00" d="M30 44q15 -4.5 30 -7.5l15 1l15 -5.5q60 -6 120 12q90 27 180 0v30l-30 30h30v30l-30 30h30v30l-30 30h30v30l-90 30l-180 -30h-90v-30l30 -30h-30v-30l30 -30h-30v-30l30 -30h-30z"/>
	<path fill="#fff" d="M30 74q90 -27 180 0t180 0v30q-90 27 -180 0t-180 0v-30zm0 60q90 -27 180 0t180 0v30q-90 27 -180 0t-180 0v-30m0 60q90 -27 180 0t180 0v30q-90 27 -180 0t-180 0v-30zm0 60q15 -4.5 30 -7.5v-210q15 -3 30 -4.5v210q60 -6 120 12q90 27 180 0v30q-90 27 -180 0q-60 -18 -120 -12l-15 -1l-15 5.5q-15 3 -30 7.5z"/>
	<path fill="#e00" d="M60 66.5q15 -3 30 -4.5v30q-15 1.5 -30 4.5v-30zm0 60q15 -3 30 -4.5v30q-15 1.5 -30 4.5v-30zm0 60q15 -3 30 -4.5v30q-15 1.5 -30 4.5v-30zm0 60q15 -3 30 -4.5v30q-15 1.5 -30 4.5v-30z"/>
</svg>
