<?xml version="1.0" encoding="UTF-8"?>
<svg version="1.1" xmlns="http://www.w3.org/2000/svg" viewBox="-10 -10 440 348">
	<title xml:lang="de">Landesflagge Mecklenburg-Vorpommerns</title>
	<metadata>
		<rdf:RDF xmlns:rdf="http://www.w3.org/1999/02/22-rdf-syntax-ns#" xmlns:dc="http://purl.org/dc/elements/1.1/" xmlns:cc="http://creativecommons.org/ns#">
			<cc:Work rdf:about="">
				<dc:title xml:lang="de">Landesflagge Mecklenburg-Vorpommerns</dc:title>
				<dc:format>image/svg+xml</dc:format>
				<dc:type rdf:resource="http://purl.org/dc/dcmitype/StillImage" />
				<dc:creator>
					<cc:Agent>
						<dc:title>Frank Bruder</dc:title>
					</cc:Agent>
				</dc:creator>
				<cc:license rdf:resource="http://creativecommons.org/publicdomain/zero/1.0/"/>
				<cc:attributionName>Frank Bruder</cc:attributionName>
				<cc:attributionURL rdf:resource="http://frabru.de/"/>
			</cc:Work>
		</rdf:RDF>
	</metadata>
	<path fill="#c0c0c0" d="M12.5  41.5q98.75 -27 197.5 0t197.5 0v245q-98.75 27 -197.5 0t-197.5 0z"/>
	<path fill="#120a8f" d="M22.5  51.5q93.75 -27 187.5 0t187.5 0v60l-93.75 50h-187.5l-93.75 -50z"/>
	<path fill="#fff"    d="M22.5 111.5q93.75 -27 187.5 0t187.5 0v45l-93.75 50h-187.5l-93.75 -50z"/>
	<path fill="#ff0"    d="M22.5 156.5q93.75 -27 187.5 0t187.5 0v15l-93.75 50h-187.5l-93.75 -50z"/>
	<path fill="#fff"    d="M22.5 171.5q93.75 -27 187.5 0t187.5 0v45l-93.75 40h-187.5l-93.75 -40z"/>
	<path fill="#f00"    d="M22.5 216.5q93.75 -27 187.5 0t187.5 0v60q-93.75 27 -187.5 0t-187.5 0z"/>
</svg>
