<?xml version="1.0" encoding="UTF-8"?>
<svg version="1.1" xmlns="http://www.w3.org/2000/svg" viewBox="-10 -10 440 348">
	<title xml:lang="so">Calanka Jabuuti</title>
	<title xml:lang="ar">علم جيبوتي</title>
	<title xml:lang="fr">Drapeau de Djibouti</title>
	<metadata>
		<rdf:RDF xmlns:rdf="http://www.w3.org/1999/02/22-rdf-syntax-ns#" xmlns:dc="http://purl.org/dc/elements/1.1/" xmlns:cc="http://creativecommons.org/ns#">
			<cc:Work rdf:about="">
				<dc:title xml:lang="so">Calanka Jabuuti</dc:title>
				<dc:title xml:lang="ar">علم جيبوتي</dc:title>
				<dc:title xml:lang="fr">Drapeau de Djibouti</dc:title>
				<dc:format>image/svg+xml</dc:format>
				<dc:type rdf:resource="http://purl.org/dc/dcmitype/StillImage" />
				<dc:creator>
					<cc:Agent>
						<dc:title>Frank Bruder</dc:title>
					</cc:Agent>
				</dc:creator>
				<cc:license rdf:resource="http://creativecommons.org/publicdomain/zero/1.0/"/>
				<cc:attributionName>Frank Bruder</cc:attributionName>
				<cc:attributionURL rdf:resource="http://frabru.de/"/>
			</cc:Work>
		</rdf:RDF>
	</metadata>
	<path fill="#c0c0c0" d="M20 49q95 -27 190 0q95 27 190 0v230q-95 27 -190 0q-95 -27 -190 0z"/>
	<path fill="#6ab2e7" d="M30  59q90 -27 180 0t180 0v105l-90 50h-180z"/>
	<path fill="#12ad2b" d="M30 269l30 -105h150q90 27 180 0v105q-90 27 -180 0t-180 0z"/>
	<path fill="#fff" d="M30  59q90 25.5 180 105q-90 25.5 -180 105z"/>
	<path fill="#d7141a" transform="matrix(1 -0.1 0 1 90 152)" d="M0 -21L4.71479 -6.48936L19.97219 -6.48936L7.6287 2.47871L12.34349 16.98936L0 8.02129L-12.34349 16.98936L-7.6287 2.478713L-19.97219 -6.48936L-4.71479 -6.48936z"/>
</svg>
