<?xml version="1.0" encoding="UTF-8"?>
<svg version="1.1" xmlns="http://www.w3.org/2000/svg" viewBox="-10 -10 440 348">
	<title xml:lang="ar">علم الصحراء الغربية</title>
	<metadata>
		<rdf:RDF xmlns:rdf="http://www.w3.org/1999/02/22-rdf-syntax-ns#" xmlns:dc="http://purl.org/dc/elements/1.1/" xmlns:cc="http://creativecommons.org/ns#">
			<cc:Work rdf:about="">
				<dc:title xml:lang="ar">علم الصحراء الغربية</dc:title>
				<dc:format>image/svg+xml</dc:format>
				<dc:type rdf:resource="http://purl.org/dc/dcmitype/StillImage" />
				<dc:creator>
					<cc:Agent>
						<dc:title>Frank Bruder</dc:title>
					</cc:Agent>
				</dc:creator>
				<cc:license rdf:resource="http://creativecommons.org/publicdomain/zero/1.0/"/>
				<cc:attributionName>Frank Bruder</cc:attributionName>
				<cc:attributionURL rdf:resource="http://frabru.de/"/>
			</cc:Work>
		</rdf:RDF>
	</metadata>
	<path fill="#c0c0c0" d="M-10 49q110 -27 220 0t220 0v230q-110 27 -220 0t-220 0z"/>
	<path fill="#000" d="M0  59q105 -27 210 0t210 0v70l-105 50h-210l-55 -50z"/>
	<path fill="#fff" d="M52.5 118.875q78.75 -10.125 157.5 10.125q105 27 210 0v70l-105 50h-210l-55 -50z"/>
	<path fill="#0c0" d="M52.5 188.875q78.75 -10.125 157.5 10.125q105 27 210 0v70q-105 27 -210 0t-210 0z"/>
	<path fill="#f00" d="M0  59q70 34.5 140 93q-70 46.5 -140 117z"/>
	<g transform="matrix(1 0.25714 0 1 210 164)">
		<path fill="#f00" d="M-4.16667 24.65033a25 25 0 1 1 0 -49.30066a25 25 0 0 0 0 49.30066z"/>
		<path fill="#f00" transform="translate(-4.16667 0)" d="M0 -19.72027L4.42748 -6.0939L18.75509 -6.0939L7.16381 2.32766L11.59128 15.95403L0 7.53247L-11.59128 15.95403L-7.16381 2.32766L-18.75509 -6.0939L-4.42748 -6.0939z"/>
	</g>
</svg>
