<?xml version="1.0" encoding="UTF-8"?>
<svg version="1.1" xmlns="http://www.w3.org/2000/svg" viewBox="-10 -10 440 348">
	<title xml:lang="fi">Suomen lippu</title>
	<metadata>
		<rdf:RDF xmlns:rdf="http://www.w3.org/1999/02/22-rdf-syntax-ns#" xmlns:dc="http://purl.org/dc/elements/1.1/" xmlns:cc="http://creativecommons.org/ns#">
			<cc:Work rdf:about="">
				<dc:title xml:lang="fi">Suomen lippu</dc:title>
				<dc:format>image/svg+xml</dc:format>
				<dc:type rdf:resource="http://purl.org/dc/dcmitype/StillImage" />
				<dc:creator>
					<cc:Agent>
						<dc:title>Frank Bruder</dc:title>
					</cc:Agent>
				</dc:creator>
				<cc:license rdf:resource="http://creativecommons.org/publicdomain/zero/1.0/"/>
				<cc:attributionName>Frank Bruder</cc:attributionName>
				<cc:attributionURL rdf:resource="http://frabru.de/"/>
			</cc:Work>
		</rdf:RDF>
	</metadata>
	<path fill="#c0c0c0" d="M20 44q95 -27 190 0t190 0v240q-95 27 -190 0t-190 0z"/>
	<path fill="#ffffff" d="M30 54q50 -15 100 -13.33333l30 38l30 -30q10 2.33333 20 5.33333q90 27 180 0v80l-60 60h60v80q-90 27 -180 0q-10 -3 -20 -5.33333l-30 -38l-30 30q-50 -1.66667 -100 13.33333v-80l60 -60h-60z"/>
	<path fill="#18447e" d="M30 134q90 -27 180 0t180 0v60q-90 27 -180 0t-180 0zM130 40.66667q30 1 60 8v220q-30 -7 -60 -8z"/>
</svg>
