<?xml version="1.0" encoding="UTF-8"?>
<svg version="1.1" xmlns="http://www.w3.org/2000/svg" viewBox="-10 -10 440 348">
	<title xml:lang="br">Gwenn-ha-du</title>
	<metadata>
		<rdf:RDF xmlns:rdf="http://www.w3.org/1999/02/22-rdf-syntax-ns#" xmlns:dc="http://purl.org/dc/elements/1.1/" xmlns:cc="http://creativecommons.org/ns#">
			<cc:Work rdf:about="">
				<dc:title xml:lang="br">Gwenn-ha-du</dc:title>
				<dc:format>image/svg+xml</dc:format>
				<dc:type rdf:resource="http://purl.org/dc/dcmitype/StillImage" />
				<dc:creator>
					<cc:Agent>
						<dc:title>Frank Bruder</dc:title>
					</cc:Agent>
				</dc:creator>
				<cc:license rdf:resource="http://creativecommons.org/publicdomain/zero/1.0/"/>
				<cc:attributionName>Frank Bruder</cc:attributionName>
				<cc:attributionURL rdf:resource="http://frabru.de/"/>
			</cc:Work>
		</rdf:RDF>
	</metadata>
	<path fill="#c0c0c0" d="M20 34q95 -27 190 0t190 0v260q-95 27 -190 0t-190 0z"/>
	<path fill="#000" d="M190 38.66667q10 2.33333 20 5.33333q90 27 180 0v26.66667l-20 20h-180l-20 -20v-12z"/>
	<path fill="#fff" d="M190 65.33333q10 2.33333 20 5.33333q90 27 180 0v26.66667l-20 20h-180l-20 -20v-12z"/>
	<path fill="#000" d="M190 92q10 2.33333 20 5.33333q90 27 180 0v26.66667l-20 20h-180l-20 -20v-12z"/>
	<path fill="#fff" d="M190 118.66667q10 2.33333 20 5.33333q90 27 180 0v26.66667l-20 20h-180l-20 -20v-12z"/>
	<path fill="#000" d="M190 145.33333q10 2.33333 20 5.33333q90 27 180 0v26.66667l-20 20h-320l-20 -20v-26.66667l30 -30h100z"/>
	<path fill="#fff" d="M30 177.33333q90 -27 180 0t180 0v26.66667l-20 20h-320l-20 -20z"/>
	<path fill="#000" d="M30 204q90 -27 180 0t180 0v26.66667l-20 20h-320l-20 -20z"/>
	<path fill="#fff" d="M30 230.66667q90 -27 180 0t180 0v26.66667l-20 20h-140l-40 -15h-155l-5 -5z"/>
	<path fill="#000" d="M30 257.33333q90 -27 180 0t180 0v26.66667q-90 27 -180 0t-180 0z"/>
	<g>
		<path fill="#fff" d="M30 44q80 -24 160 -5.33333v106.66667q-80 -18.66667 -160 5.33333z"/>
		<path fill="#000" transform="matrix(1 -0.25 0 1 45 59.875)" d="M0 -5l-5 2l-5 -2l5 -2l5 2l-2 -5l2 -5l2 5l-2 5l5 -2l5 2l-5 2l-5 -2l6 15l-3.5 -3l-2.5 8l-2.5 -8l-3.5 3l6 -15z"/>
		<path fill="#000" transform="matrix(1 -0.10556 0 1 88.33333 52.1713)" d="M0 -5l-5 2l-5 -2l5 -2l5 2l-2 -5l2 -5l2 5l-2 5l5 -2l5 2l-5 2l-5 -2l6 15l-3.5 -3l-2.5 8l-2.5 -8l-3.5 3l6 -15z"/>
		<path fill="#000" transform="matrix(1 0.038889 0 1 131.66667 50.72685)" d="M0 -5l-5 2l-5 -2l5 -2l5 2l-2 -5l2 -5l2 5l-2 5l5 -2l5 2l-5 2l-5 -2l6 15l-3.5 -3l-2.5 8l-2.5 -8l-3.5 3l6 -15z"/>
		<path fill="#000" transform="matrix(1 0.18333 0 1 175 55.54167)" d="M0 -5l-5 2l-5 -2l5 -2l5 2l-2 -5l2 -5l2 5l-2 5l5 -2l5 2l-5 2l-5 -2l6 15l-3.5 -3l-2.5 8l-2.5 -8l-3.5 3l6 -15z"/>
		<path fill="#000" transform="matrix(1 -0.17778 0 1 66.66667 88.57407)" d="M0 -5l-5 2l-5 -2l5 -2l5 2l-2 -5l2 -5l2 5l-2 5l5 -2l5 2l-5 2l-5 -2l6 15l-3.5 -3l-2.5 8l-2.5 -8l-3.5 3l6 -15z"/>
		<path fill="#000" transform="matrix(1 -0.033333 0 1 110 84)" d="M0 -5l-5 2l-5 -2l5 -2l5 2l-2 -5l2 -5l2 5l-2 5l5 -2l5 2l-5 2l-5 -2l6 15l-3.5 -3l-2.5 8l-2.5 -8l-3.5 3l6 -15z"/>
		<path fill="#000" transform="matrix(1 0.11111 0 1 153.33333 85.68519)" d="M0 -5l-5 2l-5 -2l5 -2l5 2l-2 -5l2 -5l2 5l-2 5l5 -2l5 2l-5 2l-5 -2l6 15l-3.5 -3l-2.5 8l-2.5 -8l-3.5 3l6 -15z"/>
		<path fill="#000" transform="matrix(1 -0.25 0 1 45 126.54167)" d="M0 -5l-5 2l-5 -2l5 -2l5 2l-2 -5l2 -5l2 5l-2 5l5 -2l5 2l-5 2l-5 -2l6 15l-3.5 -3l-2.5 8l-2.5 -8l-3.5 3l6 -15z"/>
		<path fill="#000" transform="matrix(1 -0.10556 0 1 88.33333 118.83796)" d="M0 -5l-5 2l-5 -2l5 -2l5 2l-2 -5l2 -5l2 5l-2 5l5 -2l5 2l-5 2l-5 -2l6 15l-3.5 -3l-2.5 8l-2.5 -8l-3.5 3l6 -15z"/>
		<path fill="#000" transform="matrix(1 0.038889 0 1 131.66667 117.39352)" d="M0 -5l-5 2l-5 -2l5 -2l5 2l-2 -5l2 -5l2 5l-2 5l5 -2l5 2l-5 2l-5 -2l6 15l-3.5 -3l-2.5 8l-2.5 -8l-3.5 3l6 -15z"/>
		<path fill="#000" transform="matrix(1 0.18333 0 1 175 122.20833)" d="M0 -5l-5 2l-5 -2l5 -2l5 2l-2 -5l2 -5l2 5l-2 5l5 -2l5 2l-5 2l-5 -2l6 15l-3.5 -3l-2.5 8l-2.5 -8l-3.5 3l6 -15z"/>
	</g>
</svg>
