<?xml version="1.0" encoding="UTF-8"?>
<svg version="1.1" xmlns="http://www.w3.org/2000/svg" viewBox="-10 -10 440 348">
	<title xml:lang="en">Flag of England</title>
	<metadata>
		<rdf:RDF xmlns:rdf="http://www.w3.org/1999/02/22-rdf-syntax-ns#" xmlns:dc="http://purl.org/dc/elements/1.1/" xmlns:cc="http://creativecommons.org/ns#">
			<cc:Work rdf:about="">
				<dc:title xml:lang="en">Flag of England</dc:title>
				<dc:format>image/svg+xml</dc:format>
				<dc:type rdf:resource="http://purl.org/dc/dcmitype/StillImage" />
				<dc:creator>
					<cc:Agent>
						<dc:title>Frank Bruder</dc:title>
					</cc:Agent>
				</dc:creator>
				<cc:license rdf:resource="http://creativecommons.org/publicdomain/zero/1.0/"/>
				<cc:attributionName>Frank Bruder</cc:attributionName>
				<cc:attributionURL rdf:resource="http://frabru.de/"/>
			</cc:Work>
		</rdf:RDF>
	</metadata>
	<path fill="#c0c0c0" d="M12.5 41.5q98.75 -27 197.5 0t197.5 0v245q-98.75 27 -197.5 0t-197.5 0z"/>
	<path fill="#fff" d="M22.5 51.5q82.5 -23.76 165 -5.7024l22.5 27.4048l22.5 -16q82.5 18.0576 165 -5.7024v90l-22.5 22.5l22.5 22.5v90q-82.5 23.76 -165 5.7024l-22.5 -27.4048l-22.5 16q-82.5 -18.0576 -165 5.7024v-90l22.5 -22.5l-22.5 -22.5z"/>
	<path fill="#cf142b" d="M187.5 45.7976q11.25 2.4624 22.5 5.7024q11.25 3.24 22.5 5.7024v225q-11.25 -2.4624 -22.5 -5.7024q-11.25 -3.24 -22.5 -5.7024z"/>
	<path fill="#cf142b" d="M22.5 141.5q93.75 -27 187.5 0t187.5 0v45q-93.75 27 -187.5 0t-187.5 0z"/>
</svg>
