<?xml version="1.0" encoding="UTF-8"?>
<svg version="1.1" xmlns="http://www.w3.org/2000/svg" viewBox="-10 -10 440 348">
	<title xml:lang="hr">Zastava Hrvatske</title>
	<metadata>
		<rdf:RDF xmlns:rdf="http://www.w3.org/1999/02/22-rdf-syntax-ns#" xmlns:dc="http://purl.org/dc/elements/1.1/" xmlns:cc="http://creativecommons.org/ns#">
			<cc:Work rdf:about="">
				<dc:title xml:lang="hr">Zastava Hrvatske</dc:title>
				<dc:format>image/svg+xml</dc:format>
				<dc:type rdf:resource="http://purl.org/dc/dcmitype/StillImage" />
				<dc:creator>
					<cc:Agent>
						<dc:title>Frank Bruder</dc:title>
					</cc:Agent>
				</dc:creator>
				<cc:license rdf:resource="http://creativecommons.org/publicdomain/zero/1.0/"/>
				<cc:attributionName>Frank Bruder</cc:attributionName>
				<cc:attributionURL rdf:resource="http://frabru.de/"/>
			</cc:Work>
		</rdf:RDF>
	</metadata>
	<path fill="#c0c0c0" d="M-10 49q110 -27 220 0t220 0v230q-110 27 -220 0t-220 0z"/>
	<path fill="#f00" d="M0  59q105 -27 210 0t210 0v70l-105 50h-210l-105 -50z"/>
	<path fill="#fff" d="M0 129q105 -27 210 0t210 0v70l-105 50h-210l-105 -50z"/>
	<path fill="#00c" d="M0 199q105 -27 210 0t210 0v70q-105 27 -210 0t-210 0z"/>
	<g transform="matrix(1 0.20357 0 1 210 164)">
		<g>
			<path fill="#f00" d="M43.75 -35v43.75a43.75 43.75 0 1 1 -87.5 0v-43.75a97.82797 97.82797 0 0 1 87.5 0z"/>
			<rect fill="#fff" x="-26.25" y="-35" width="17.5" height="17.5"/>
			<rect fill="#fff" x="8.75" y="-35" width="17.5" height="17.5"/>
			<rect fill="#fff" x="-43.75" y="-17.5" width="17.5" height="17.5"/>
			<rect fill="#fff" x="-8.75" y="-17.5" width="17.5" height="17.5"/>
			<rect fill="#fff" x="26.25" y="-17.5" width="17.5" height="17.5"/>
			<rect fill="#fff" x="-26.25" y="0" width="17.5" height="17.5"/>
			<rect fill="#fff" x="8.75" y="0" width="17.5" height="17.5"/>
			<path fill="#fff" d="M-26.25 17.5v17.5h-8.75a43.75 43.75 0 0 1 -7.86607 -17.5z"/>
			<rect fill="#fff" x="-8.75" y="17.5" width="17.5" height="17.5"/>
			<path fill="#fff" d="M26.25 17.5v17.5h8.75a43.75 43.75 0 0 0 7.86607 -17.5z"/>
			<path fill="#fff" d="M-8.75 35h-17.5v8.75a43.75 43.75 0 0 0 17.5 7.86607z"/>
			<path fill="#fff" d="M8.75 35h17.5v8.75a43.75 43.75 0 0 1 -17.5 7.86607z"/>
			<path fill="none" stroke="#f00" stroke-width="1" d="M43.75 -35v43.75a43.75 43.75 0 1 1 -87.5 0v-43.75a97.82797 97.82797 0 0 1 87.5 0z"/>
		</g>
		<g>
			<path stroke="#fff" stroke-width="2" d="M43.75 -35A97.82797 97.82797 0 0 0 -43.75 -35L-54.62039 -56.74078L-47.57435 -69.82435L-33.53999 -64.93936L-24.2022 -76.49929L-11.30929 -69.11017L0 -78.75L11.30929 -69.11017L24.2022 -76.49929L33.53999 -64.93936L47.57435 -69.82435L54.62039 -56.74078z"/>
			<g>
				<path fill="#0df" d="M-26.86496 -41.56692A97.82797 97.82797 0 0 0 -43.75 -35L-54.62039 -56.74078L-47.57435 -69.82435L-33.53999 -64.93936l12 12z"/>
				<path fill="#ee0" transform="translate(0 52.5) rotate(-21.2) translate(0 -120)" d="M0 -4.375L1.09375 -1.89443L3.78886 -2.1875L2.1875 0L3.78886 2.1875L1.09375 1.89443L0 4.375L-1.09375 1.89443L-3.78886 2.1875L-2.1875 0L-3.78886 -2.1875L-1.09375 -1.89443z"/>
				<path fill="#fff" transform="translate(0 52.5) rotate(-21.2) translate(0 -111)" d="M6 0a6 6 0 0 1 -12 0a7.5 7.5 0 0 0 12 0z"/>
			</g>
			<g>
				<path fill="#00f" d="M-9.05855 -44.90767A97.82797 97.82797 0 0 0 -26.86496 -41.56692L-28.5337175 -47.41003l3 -3L-30.202475 -53.25314L-31.8712325 -59.09625l3 -3L-33.53999 -64.93936L-24.2022 -76.49929L-11.30929 -69.11017l12 12z"/>
				<path fill="#f00" d="M-9.621235 -50.958295A103.9047 103.9047 0 0 0 -28.5337175 -47.41003L-30.202475 -53.25314A109.98144 109.98144 0 0 1 -10.18392 -57.00892l3 3zM-10.746605 -63.059545A116.05817 116.05817 0 0 0 -31.8712325 -59.09625L-33.53999 -64.93936A122.1349 122.1349 0 0 1 -11.30929 -69.11017l3 3z"/>
			</g>
			<g>
				<path fill="#0df" d="M9.05855 -44.90767A97.82797 97.82797 0 0 0 -9.05855 -44.90767L-11.30929 -69.11017L0 -78.75L11.30929 -69.11017l12 12z"/>
				<path fill="#ee0" transform="translate(-5 -64)" d="M-3 -3l-1 -2a2 2 0 0 1 2 2q1 -2 2 -2q1 0 2 2a2 2 0 0 1 2 -2l-1 2l1 1l-1 2v1l-3 3l-3 -3v-1l-1 -2l1 -1z"/>
				<path fill="#ee0" transform="translate(5 -64)" d="M-3 -3l-1 -2a2 2 0 0 1 2 2q1 -2 2 -2q1 0 2 2a2 2 0 0 1 2 -2l-1 2l1 1l-1 2v1l-3 3l-3 -3v-1l-1 -2l1 -1z"/>
				<path fill="#ee0" transform="translate(0 -53)" d="M-3 -3l-1 -2a2 2 0 0 1 2 2q1 -2 2 -2q1 0 2 2a2 2 0 0 1 2 -2l-1 2l1 1l-1 2v1l-3 3l-3 -3v-1l-1 -2l1 -1z"/>
			</g>
			<g>
				<path fill="#00f" d="M26.86496 -41.56692A97.82797 97.82797 0 0 0 9.05855 -44.90767L11.30929 -69.11017L24.2022 -76.49929L33.53999 -64.93936l12 12z"/>
				<g transform="translate(0 52.5) rotate(10.6) translate(0 -112)">
					<path fill="#ee0" d="M-5 -5h2q1 -0.5 2 0q-1 1 -2 1l3 3q2 -1 6 -1l2 -1q0 2 -1 3q1 2 0 5l-2 4l-1 1v-1l2 -4l-1 -0.5l-2 4l-1 1v-1l1.5 -3v-1l-4 1l-1 4l-1 1v-1l1 -4l-1 -1l-1 4l-1 1v-1l1 -4q-1.5 -2 -1 -4l-1 -2.5l-1 0.5l-0.5 -0.5l1.5 -2q-1 0 -1 -1"/>
					<path fill="#f00" d="M-5 -5c4 -4 6 -1 10 -3c-3 3 -7 0 -8 3z"/>
					<path fill="#f00" d="M-5 -5c4 -4 9 1 12 -1c-2 3 -8 -1 -10 1q-1 0.5 -2 0z"/>
					<path fill="#f00" d="M5 9l-0.5 1l-0.8 0.3v-0.3h-0.4l0.7 -1z"/>
					<path fill="#f00" d="M3 8.5l-0.5 1l-0.8 0.3v-0.3h-0.4l0.7 -1z"/>
					<path fill="#f00" d="M-1.5 9.5l-0.5 1l-0.8 0.3v-0.3h-0.4l0.7 -1z"/>
					<path fill="#f00" d="M-3.5 8.5l-0.5 1l-0.8 0.3v-0.3h-0.4l0.7 -1z"/>
				</g>
			</g>
			<g>
				<path fill="#0df" d="M43.75 -35A97.82797 97.82797 0 0 0 26.86496 -41.56692L28.199966 -46.241408l4 -4L31.2037295 -56.759006L33.53999 -64.93936L47.57435 -69.82435L54.62039 -56.74078L50.8157535 -49.131507l-4 4L45.924078 -39.348156z"/>
				<path fill="#f00" d="M47.011117 -41.522234L28.867469 -48.578652L30.5362265 -54.421762L41 -52L49.7287145 -46.957429z"/>
				<path fill="#fff" d="M45.924078 -39.348156A102.68936 102.68936 0 0 0 28.199966 -46.241408L28.867469 -48.578652A105.12005 105.12005 0 0 1 47.011117 -41.522234zM49.7287145 -46.957429A111.19678 111.19678 0 0 0 30.5362265 -54.421762L31.2037295 -56.759006A113.62748 113.62748 0 0 1 50.8157535 -49.131507z"/>
				<g transform="translate(0 52.5) rotate(21.2)">
					<path fill="#ee0" transform="translate(0 -122)" d="M0 -4.375L1.09375 -1.89443L3.78886 -2.1875L2.1875 0L3.78886 2.1875L1.09375 1.89443L0 4.375L-1.09375 1.89443L-3.78886 2.1875L-2.1875 0L-3.78886 -2.1875L-1.09375 -1.89443z"/>
					<g transform="translate(0 -108)">
						<path fill="#000" d="M4 1l-1.5 1l-0.2 0.3h-0.7v-0.4l0.3 -0.2l2 -2"/>
						<path fill="#fff" d="M5 0q-4 2 -7 0"/>
						<path fill="#000" d="M-9 -1q1 -0.4 2 -1q0.5 0.5 1 0v1q2 -0.5 5 0q3 -1 4 -1t3 0.2l3 -0.2q0.5 0 0.5 0.7q0 0.7 -0.5 0.7q-1 0 -3 -0.4q0.3 0.5 0.5 1.5h1l1 1l-0.5 1l-0.5 0l-0.2 -0.2l0.5 -0.5l-0.4 -0.4l-4 -0.3l-1 -1h-3l-1 1l-2 1h-1v-0.3l1 -0.3q1 -1 -1.5 -1l-3 1.5l-0.5 -0.4l1 -0.5l1 -0.8l-0.7 -0.7l-1 0"/>
					</g>
				</g>
			</g>
		</g>
	</g>
</svg>
