<?xml version="1.0" encoding="UTF-8"?>
<svg version="1.1" xmlns="http://www.w3.org/2000/svg" viewBox="-10 -10 440 292">
	<title xml:lang="fa">پرچم سه رنگ ایران</title>
	<metadata>
		<rdf:RDF xmlns:rdf="http://www.w3.org/1999/02/22-rdf-syntax-ns#" xmlns:dc="http://purl.org/dc/terms/" xmlns:voc="http://www.w3.org/1999/xhtml/vocab#" xmlns:cc="http://web.resource.org/cc/">
			<cc:Work rdf:about="">
				<dc:title xml:lang="fa">پرچم سه رنگ ایران</dc:title>
				<dc:format>image/svg+xml</dc:format>
				<dc:type rdf:resource="http://purl.org/dc/dcmitype/StillImage" />
				<dc:creator>
					<dc:Agent rdf:about="http://purl.org/net/2008,frankbruder/id">
						<dc:title>Frank Bruder</dc:title>
					</dc:Agent>
				</dc:creator>
				<voc:license rdf:resource="http://creativecommons.org/publicdomain/zero/1.0/"/>
				<voc:license rdf:resource="http://web.resource.org/cc/PublicDomain" />
			</cc:Work>
		</rdf:RDF>
	</metadata>
	<path fill="#c0c0c0" d="M1.55 12.6q104.225 -27 208.45 0t208.45 0v246.8q-104.225 27 -208.45 0t-208.45 0z"/>
	<g transform="translate(210 136) scale(0.9)">
		<path fill="#239f40" d="M-220.5 -126q110.25 -30 220.5 0t220.5 0v84l-110.25 50h-220.5l-110.25 -50z"/>
		<g>
			<path fill="#ffffff" d="M-219 -56.40539q109.5 -29.39053 219 0.40539t219 0.40539v2q-109.5 29.39053 -219 -0.40539t-219 -0.40539z"/>
			<path fill="#ffffff" d="M-219 -52.40539q109.5 -29.39053 219 0.40539t219 0.40539v2q-109.5 29.39053 -219 -0.40539t-219 -0.40539z"/>
			<path fill="#ffffff" d="M-219 -48.40539q109.5 -29.39053 219 0.40539t219 0.40539v2q-109.5 29.39053 -219 -0.40539t-219 -0.40539z"/>
			<path fill="#ffffff" d="M-219 -44.40539q109.5 -29.39053 219 0.40539t219 0.40539v33h-438z"/>

			<path fill="#ffffff" d="M-203 -56h6v4h-6v-4zm12 -6l10 -2v8h-2v-4h-2v5h-2v-4h-2v5h-2v-8z"/>
			<path fill="#ffffff" d="M-163 -63h6v4h-6v-4zm12 -5l10 -1v8h-2v-4h-2v5h-2v-4h-2v5h-2v-7z"/>
			<path fill="#ffffff" d="M-123 -66h6v4h-6v-4zm12 -4h10v8h-2v-4h-2v4h-2v-4h-2v4h-2v-8z"/>
			<path fill="#ffffff" d="M-83 -65h6v4h-6v-4zm12 -3l10 1v8h-2v-4h-2v4h-2v-5h-2v4h-2v-8z"/>
			<path fill="#ffffff" d="M-43 -60h6v4h-6v-4zm12 -2l10 2v7h-2v-4h-2v4h-2v-5h-2v4h-2v-8z"/>
			<path fill="#ffffff" d="M-3 -52l6 2v4l-6 -2v-4zm12 -1l10 3v8h-2v-5h-2v4h-2v-5h-2v4h-2v-9z"/>
			<path fill="#ffffff" d="M37 -43l6 1v4l-6 -1v-4zm12 -2l10 2v8h-2v-5h-2v5h-2v-5h-2v4h-2v-9z"/>
			<path fill="#ffffff" d="M77 -37h6v4h-6v-4zm12 -4l10 1v8h-2v-4h-2v4h-2v-4h-2v4h-2v-9z"/>
			<path fill="#ffffff" d="M117 -36h6v4h-6v-4zm12 -5h10v8h-2v-4h-2v4h-2v-4h-2v4h-2v-8z"/>
			<path fill="#ffffff" d="M157 -39h6v4h-6v-4zm12 -6l10 -1v8h-2v-4h-2v5h-2v-4h-2v4h-2v-8z"/>
			<path fill="#ffffff" d="M197 -46h6v4h-6v-4zm12 -6l10 -2v8h-2v-4h-2v5h-2v-4h-2v5h-2v-8z"/>

			<path fill="#239f40" d="M-181 -72h2v30h-2v-30zm40 0h2v30h-2v-30zm40 0h2v30h-2v-30zm40 0h2v30h-2v-30zm40 0h2v30h-2v-30zm40 0h2v45h-2v-45zm40 0h2v45h-2v-45zm40 0h2v45h-2v-45zm40 0h2v45h-2v-45zm40 0h2v45h-2v-45z"/>
			<path fill="#239f40" d="M-201 -58h2v12h-2v-12zm40 -7h2v12h-2v-12zm40 -3h2v12h-2v-12zm40 1h2v12h-2v-12zm40 5h2v12h-2v-12zm40 9h2v12h-2v-12zm40 9h2v12h-2v-12zm40 5h2v12h-2v-12zm40 1h2v12h-2v-12zm40 -3h2v12h-2v-12zm40 -7h2v12h-2v-12z"/>

			<path fill="#239f40" d="M-217 -50h2v4h-2v-4zm4 -1h2v4h-2v-4zm4 -5h2v4h-2v-4zm16 -7h2v4h-2v-4zm0 8h2v4h-2v-4zm4 -9h2v8h-2v-8zm4 -1h2v8h-2v-8z"/>
			<path fill="#239f40" d="M-177 -59h2v4h-2v-4zm4 0h2v4h-2v-4zm4 -5h2v4h-2v-4zm16 -6h2v4h-2v-4zm0 8h2v4h-2v-4zm4 -8h2v8h-2v-8zm4 0h2v8h-2v-8z"/>
			<path fill="#239f40" d="M-137 -63h2v4h-2v-4zm4 0h2v4h-2v-4zm4 -5h2v4h-2v-4zm16 -4h2v4h-2v-4zm0 8h2v4h-2v-4zm4 -8h2v8h-2v-8zm4 0h2v8h-2v-8z"/>
			<path fill="#239f40" d="M-97 -64h2v4h-2v-4zm4 0h2v4h-2v-4zm4 -3h2v4h-2v-4zm16 -3h2v4h-2v-4zm0 8h2v4h-2v-4zm4 -8h2v8h-2v-8zm4 1h2v8h-2v-8z"/>
			<path fill="#239f40" d="M-57 -60h2v4h-2v-4zm4 0h2v4h-2v-4zm4 -3h2v4h-2v-4zm16 -1h2v4h-2v-4zm0 8h2v4h-2v-4zm4 -8h2v8h-2v-8zm4 1h2v8h-2v-8z"/>
			<path fill="#239f40" d="M-17 -53h2v4h-2v-4zm4 1h2v4h-2v-4zm4 -3h2v4h-2v-4zm16 0h2v4h-2v-4zm0 8h2v4h-2v-4zm4 -7h2v8h-2v-8zm4 1h2v8h-2v-8z"/>
			<path fill="#239f40" d="M23 -43h2v4h-2v-4zm4 1h2v4h-2v-4zm4 -4h2v4h-2v-4zm16 -1h2v4h-2v-4zm0 8h2v4h-2v-4zm4 -7h2v8h-2v-8zm4 0h2v8h-2v-8z"/>
			<path fill="#239f40" d="M63 -37h2v4h-2v-4zm4 1h2v4h-2v-4zm4 -4h2v4h-2v-4zm16 -3h2v4h-2v-4zm0 8h2v4h-2v-4zm4 -8h2v8h-2v-8zm4 0h2v8h-2v-8z"/>
			<path fill="#239f40" d="M103 -34h2v4h-2v-4zm4 0h2v4h-2v-4zm4 -4h2v4h-2v-4zm16 -5h2v4h-2v-4zm0 8h2v4h-2v-4zm4 -8h2v8h-2v-8zm4 0h2v8h-2v-8z"/>
			<path fill="#239f40" d="M143 -35h2v4h-2v-4zm4 -1h2v4h-2v-4zm4 -4h2v4h-2v-4zm16 -6h2v4h-2v-4zm0 8h2v4h-2v-4zm4 -9h2v8h-2v-8zm4 0h2v8h-2v-8z"/>
			<path fill="#239f40" d="M183 -41h2v4h-2v-4zm4 -1h2v4h-2v-4zm4 -4h2v4h-2v-4zm16 -8h2v4h-2v-4zm0 8h2v4h-2v-4zm4 -9h2v8h-2v-8zm4 -1h2v8h-2v-8z"/>

			<path fill="#ffffff" d="M-219 -51h2v4h-2v-4zm8 -2h2v4h-2v-4z"/>
			<path fill="#ffffff" d="M-179 -60h2v4h-2v-4zm8 -2h2v4h-2v-4z"/>
			<path fill="#ffffff" d="M-139 -65h2v4h-2v-4zm8 -1h2v4h-2v-4z"/>
			<path fill="#ffffff" d="M-99 -66h2v4h-2v-4zm8 0h2v4h-2v-4z"/>
			<path fill="#ffffff" d="M-59 -63h2v4h-2v-4zm8 1h2v4h-2v-4z"/>
			<path fill="#ffffff" d="M-19 -56h2v4h-2v-4zm8 2h2v4h-2v-4z"/>
			<path fill="#ffffff" d="M21 -46h2v4h-2v-4zm8 2h2v4h-2v-4z"/>
			<path fill="#ffffff" d="M61 -39h2v4h-2v-4zm8 1h2v4h-2v-4z"/>
			<path fill="#ffffff" d="M101 -36h2v4h-2v-4zm8 0h2v4h-2v-4z"/>
			<path fill="#ffffff" d="M141 -37h2v4h-2v-4zm8 -1h2v4h-2v-4z"/>
			<path fill="#ffffff" d="M181 -42h2v4h-2v-4zm8 -2h2v4h-2v-4z"/>
		</g>
		<path fill="#da0000" d="M-220.5   42l110.25 -50h220.5l110.25 50v84q-110.25 30 -220.5 0t-220.5 0z"/>
		<g>
			<path fill="#ffffff" d="M-219 25.40539h438v19q-109.5 29.39053 -219 -0.40539t-219 -0.40539z"/>
			<path fill="#ffffff" d="M-219 45.59461q109.5 -29.39053 219 0.40539t219 0.40539v2q-109.5 29.39053 -219 -0.40539t-219 -0.40539z"/>
			<path fill="#ffffff" d="M-219 49.59461q109.5 -29.39053 219 0.40539t219 0.40539v2q-109.5 29.39053 -219 -0.40539t-219 -0.40539z"/>
			<path fill="#ffffff" d="M-219 53.59461q109.5 -29.39053 219 0.40539t219 0.40539v2q-109.5 29.39053 -219 -0.40539t-219 -0.40539z"/>

			<g transform="translate(0 102)">
				<path fill="#ffffff" d="M-203 -56h6v4h-6v-4zm12 -6l10 -2v8h-2v-4h-2v5h-2v-4h-2v5h-2v-8z"/>
				<path fill="#ffffff" d="M-163 -63h6v4h-6v-4zm12 -5l10 -1v8h-2v-4h-2v5h-2v-4h-2v5h-2v-7z"/>
				<path fill="#ffffff" d="M-123 -66h6v4h-6v-4zm12 -4h10v8h-2v-4h-2v4h-2v-4h-2v4h-2v-8z"/>
				<path fill="#ffffff" d="M-83 -65h6v4h-6v-4zm12 -3l10 1v8h-2v-4h-2v4h-2v-5h-2v4h-2v-8z"/>
				<path fill="#ffffff" d="M-43 -60h6v4h-6v-4zm12 -2l10 2v7h-2v-4h-2v4h-2v-5h-2v4h-2v-8z"/>
				<path fill="#ffffff" d="M-3 -52l6 2v4l-6 -2v-4zm12 -1l10 3v8h-2v-5h-2v4h-2v-5h-2v4h-2v-9z"/>
				<path fill="#ffffff" d="M37 -43l6 1v4l-6 -1v-4zm12 -2l10 2v8h-2v-5h-2v5h-2v-5h-2v4h-2v-9z"/>
				<path fill="#ffffff" d="M77 -37h6v4h-6v-4zm12 -4l10 1v8h-2v-4h-2v4h-2v-4h-2v4h-2v-9z"/>
				<path fill="#ffffff" d="M117 -36h6v4h-6v-4zm12 -5h10v8h-2v-4h-2v4h-2v-4h-2v4h-2v-8z"/>
				<path fill="#ffffff" d="M157 -39h6v4h-6v-4zm12 -6l10 -1v8h-2v-4h-2v5h-2v-4h-2v4h-2v-8z"/>
				<path fill="#ffffff" d="M197 -46h6v4h-6v-4zm12 -6l10 -2v8h-2v-4h-2v5h-2v-4h-2v5h-2v-8z"/>

				<path fill="#da0000" d="M-181 -75h2v30h-2v-30zm40 0h2v30h-2v-30zm40 0h2v30h-2v-30zm40 0h2v30h-2v-30zm40 0h2v30h-2v-30zm40 0h2v45h-2v-45zm40 0h2v45h-2v-45zm40 0h2v45h-2v-45zm40 0h2v45h-2v-45zm40 0h2v45h-2v-45z"/>
				<path fill="#da0000" d="M-201 -68h2v6h-2v-6zm40 -7h2v6h-2v-6zm40 -3h2v6h-2v-6zm40 1h2v6h-2v-6zm40 5h2v6h-2v-6zm40 9h2v6h-2v-6zm40 9h2v6h-2v-6zm40 5h2v6h-2v-6zm40 1h2v6h-2v-6zm40 -3h2v6h-2v-6zm40 -7h2v6h-2v-6z"/>
				<path fill="#da0000" d="M-201 -58h2v10h-2v-10zm40 -7h2v10h-2v-10zm40 -3h2v10h-2v-10zm40 1h2v10h-2v-10zm40 5h2v10h-2v-10zm40 9h2v10h-2v-10zm40 9h2v10h-2v-10zm40 5h2v10h-2v-10zm40 1h2v10h-2v-10zm40 -3h2v10h-2v-10zm40 -7h2v10h-2v-10z"/>

				<path fill="#da0000" d="M-217 -50h2v4h-2v-4zm4 -1h2v4h-2v-4zm4 -5h2v4h-2v-4zm16 -7h2v4h-2v-4zm0 8h2v4h-2v-4zm4 -9h2v8h-2v-8zm4 -1h2v8h-2v-8z"/>
				<path fill="#da0000" d="M-177 -59h2v4h-2v-4zm4 0h2v4h-2v-4zm4 -5h2v4h-2v-4zm16 -6h2v4h-2v-4zm0 8h2v4h-2v-4zm4 -8h2v8h-2v-8zm4 0h2v8h-2v-8z"/>
				<path fill="#da0000" d="M-137 -63h2v4h-2v-4zm4 0h2v4h-2v-4zm4 -5h2v4h-2v-4zm16 -4h2v4h-2v-4zm0 8h2v4h-2v-4zm4 -8h2v8h-2v-8zm4 0h2v8h-2v-8z"/>
				<path fill="#da0000" d="M-97 -64h2v4h-2v-4zm4 0h2v4h-2v-4zm4 -3h2v4h-2v-4zm16 -3h2v4h-2v-4zm0 8h2v4h-2v-4zm4 -8h2v8h-2v-8zm4 1h2v8h-2v-8z"/>
				<path fill="#da0000" d="M-57 -60h2v4h-2v-4zm4 0h2v4h-2v-4zm4 -3h2v4h-2v-4zm16 -1h2v4h-2v-4zm0 8h2v4h-2v-4zm4 -8h2v8h-2v-8zm4 1h2v8h-2v-8z"/>
				<path fill="#da0000" d="M-17 -53h2v4h-2v-4zm4 1h2v4h-2v-4zm4 -3h2v4h-2v-4zm16 0h2v4h-2v-4zm0 8h2v4h-2v-4zm4 -7h2v8h-2v-8zm4 1h2v8h-2v-8z"/>
				<path fill="#da0000" d="M23 -43h2v4h-2v-4zm4 1h2v4h-2v-4zm4 -4h2v4h-2v-4zm16 -1h2v4h-2v-4zm0 8h2v4h-2v-4zm4 -7h2v8h-2v-8zm4 0h2v8h-2v-8z"/>
				<path fill="#da0000" d="M63 -37h2v4h-2v-4zm4 1h2v4h-2v-4zm4 -4h2v4h-2v-4zm16 -3h2v4h-2v-4zm0 8h2v4h-2v-4zm4 -8h2v8h-2v-8zm4 0h2v8h-2v-8z"/>
				<path fill="#da0000" d="M103 -34h2v4h-2v-4zm4 0h2v4h-2v-4zm4 -4h2v4h-2v-4zm16 -5h2v4h-2v-4zm0 8h2v4h-2v-4zm4 -8h2v8h-2v-8zm4 0h2v8h-2v-8z"/>
				<path fill="#da0000" d="M143 -35h2v4h-2v-4zm4 -1h2v4h-2v-4zm4 -4h2v4h-2v-4zm16 -6h2v4h-2v-4zm0 8h2v4h-2v-4zm4 -9h2v8h-2v-8zm4 0h2v8h-2v-8z"/>
				<path fill="#da0000" d="M183 -41h2v4h-2v-4zm4 -1h2v4h-2v-4zm4 -4h2v4h-2v-4zm16 -8h2v4h-2v-4zm0 8h2v4h-2v-4zm4 -9h2v8h-2v-8zm4 -1h2v8h-2v-8z"/>

				<path fill="#ffffff" d="M-219 -51h2v4h-2v-4zm8 -2h2v4h-2v-4z"/>
				<path fill="#ffffff" d="M-179 -60h2v4h-2v-4zm8 -2h2v4h-2v-4z"/>
				<path fill="#ffffff" d="M-139 -65h2v4h-2v-4zm8 -1h2v4h-2v-4z"/>
				<path fill="#ffffff" d="M-99 -66h2v4h-2v-4zm8 0h2v4h-2v-4z"/>
				<path fill="#ffffff" d="M-59 -63h2v4h-2v-4zm8 1h2v4h-2v-4z"/>
				<path fill="#ffffff" d="M-19 -56h2v4h-2v-4zm8 2h2v4h-2v-4z"/>
				<path fill="#ffffff" d="M21 -46h2v4h-2v-4zm8 2h2v4h-2v-4z"/>
				<path fill="#ffffff" d="M61 -39h2v4h-2v-4zm8 1h2v4h-2v-4z"/>
				<path fill="#ffffff" d="M101 -36h2v4h-2v-4zm8 0h2v4h-2v-4z"/>
				<path fill="#ffffff" d="M141 -37h2v4h-2v-4zm8 -1h2v4h-2v-4z"/>
				<path fill="#ffffff" d="M181 -42h2v4h-2v-4zm8 -2h2v4h-2v-4z"/>
			</g>
		</g>
		<path fill="#ffffff" d="M-220.5  -42q110.25 -30 220.5 0t220.5 0v84q-110.25 30 -220.5 0t-220.5 0z"/>
		<g transform="matrix(1 0.23 0 1 0 0)">
			<path fill="#da0000" d="M10.34912 -22.75511A31.5 31.5 0 0 1 -17.26671 26.34598A28.72945 28.72945 0 0 0 10.34912 -22.75511z"/>
			<path fill="#da0000" d="M-10.34912 -22.75511A31.5 31.5 0 0 0 17.26671 26.34598A28.72945 28.72945 0 0 1 -10.34912 -22.75511z"/>
			<path fill="#da0000" d="M13.28179 -23.34304A24.06386 24.06386 0 0 1 19.47767 20.83437A31.5 31.5 0 0 0 13.28179 -23.34304z"/>
			<path fill="#da0000" d="M-13.28179 -23.34304A24.06386 24.06386 0 0 0 -19.47767 20.83437A31.5 31.5 0 0 1 -13.28179 -23.34304z"/>
			<path fill="#da0000" d="M0 31.5L2.45099 28.1265L3.71807 -3.16278L3.71807 -21.67802A9.76483 9.76483 0 0 1 0 -24.79927A9.76483 9.76483 0 0 1 -3.71807 -21.67802L-3.71807 -3.16278L-2.45099 28.1265z"/>
			<path fill="#da0000" d="M0 -26.18332A4.54577 4.54577 0 0 0 7.94036 -30.48279A4.29686 4.29686 0 0 1 0 -29.12598A4.29686 4.29686 0 0 1 -7.94036 -30.48279A4.54577 4.54577 0 0 0 -0 -26.18332z"/>
		</g>
	</g>
</svg>
