<?xml version="1.0" encoding="UTF-8"?>
<svg version="1.1" xmlns="http://www.w3.org/2000/svg" viewBox="-10 -10 440 348">
	<title xml:lang="ko">태극기</title>
	<metadata>
		<rdf:RDF xmlns:rdf="http://www.w3.org/1999/02/22-rdf-syntax-ns#" xmlns:dc="http://purl.org/dc/terms/" xmlns:voc="http://www.w3.org/1999/xhtml/vocab#" xmlns:cc="http://web.resource.org/cc/">
			<cc:Work rdf:about="">
				<dc:title xml:lang="ko">태극기</dc:title>
				<dc:format>image/svg+xml</dc:format>
				<dc:type rdf:resource="http://purl.org/dc/dcmitype/StillImage" />
				<dc:creator>
					<dc:Agent rdf:about="http://purl.org/net/2008,frankbruder/id">
						<dc:title>Frank Bruder</dc:title>
					</dc:Agent>
				</dc:creator>
				<voc:license rdf:resource="http://creativecommons.org/publicdomain/zero/1.0/"/>
				<voc:license rdf:resource="http://web.resource.org/cc/PublicDomain" />
			</cc:Work>
		</rdf:RDF>
	</metadata>
	<path fill="#c0c0c0" d="M20 34q95 -27 190 0t190 0v260q-95 27 -190 0t-190 0z"/>
	<path fill="#fff" d="M30 44q90 -27 180 0t180 0v240q-90 27 -180 0t-180 0z"/>
	<g transform="translate(210 164) matrix(1 0.2 0 1 0 0)">
		<g transform="rotate(33.69)">
			<path fill="#cd2e3a" d="M-60 0a60 60 0 1 1 120 0l-60 30z"/>
			<path fill="#0047a0" d="M60 0a60 60 0 0 1 -120 0z"/>
			<path fill="#cd2e3a" d="M-60 0a60 60 0 1 1 120 0a30 30 0 1 0 -60 0a30 30 0 0 1 -60 0z"/>
			<path fill="#0047a0" d="M60 0a60 60 0 0 1 -120 0a30 30 0 0 0 60 0a30 30 0 1 1 60 0z"/>
		</g>
		<g transform="rotate(33.69)">
			<rect fill="#000" x="-130" y="-30" width="10" height="60"/>
			<rect fill="#000" x="-115" y="-30" width="10" height="60"/>
			<rect fill="#000" x="-100" y="-30" width="10" height="60"/>
			<rect fill="#000" x="90" y="-30" width="10" height="27.5"/>
			<rect fill="#000" x="90" y="2.5" width="10" height="27.5"/>
			<rect fill="#000" x="105" y="-30" width="10" height="27.5"/>
			<rect fill="#000" x="105" y="2.5" width="10" height="27.5"/>
			<rect fill="#000" x="120" y="-30" width="10" height="27.5"/>
			<rect fill="#000" x="120" y="2.5" width="10" height="27.5"/>
		</g>
		<g transform="rotate(-33.69)">
			<rect fill="#000" x="-130" y="-30" width="10" height="60"/>
			<rect fill="#000" x="-115" y="-30" width="10" height="27.5"/>
			<rect fill="#000" x="-115" y="2.5" width="10" height="27.5"/>
			<rect fill="#000" x="-100" y="-30" width="10" height="60"/>
			<rect fill="#000" x="90" y="-30" width="10" height="27.5"/>
			<rect fill="#000" x="90" y="2.5" width="10" height="27.5"/>
			<rect fill="#000" x="105" y="-30" width="10" height="60"/>
			<rect fill="#000" x="120" y="-30" width="10" height="27.5"/>
			<rect fill="#000" x="120" y="2.5" width="10" height="27.5"/>
		</g>
	</g>
</svg>
