<?xml version="1.0" encoding="UTF-8"?>
<svg version="1.1" xmlns="http://www.w3.org/2000/svg" viewBox="-10 -10 440 348">
	<title xml:lang="ar">علم ليبيا</title>
	<metadata>
		<rdf:RDF xmlns:rdf="http://www.w3.org/1999/02/22-rdf-syntax-ns#" xmlns:dc="http://purl.org/dc/elements/1.1/" xmlns:cc="http://creativecommons.org/ns#">
			<cc:Work rdf:about="">
				<dc:title xml:lang="ar">علم ليبيا</dc:title>
				<dc:format>image/svg+xml</dc:format>
				<dc:type rdf:resource="http://purl.org/dc/dcmitype/StillImage" />
				<dc:creator>
					<cc:Agent>
						<dc:title>Frank Bruder</dc:title>
					</cc:Agent>
				</dc:creator>
				<cc:license rdf:resource="http://creativecommons.org/publicdomain/zero/1.0/"/>
				<cc:attributionName>Frank Bruder</cc:attributionName>
				<cc:attributionURL rdf:resource="http://frabru.de/"/>
			</cc:Work>
		</rdf:RDF>
	</metadata>
	<path fill="#c0c0c0" d="M-10 49q110 -27 220 0t220 0v230q-110 27 -220 0t-220 0z"/>
	<path fill="#da291c" d="M0 59q105 -27 210 0t210 0v52.5l-25 25h-370l-25 -25z"/>
	<path fill="#000" d="M0 111.5q105 -27 210 0t210 0v105l-25 25h-370l-25 -25z"/>
	<path fill="#00843d" d="M0 216.5q105 -27 210 0t210 0v52.5q-105 27 -210 0t-210 0z"/>
	<g transform="matrix(1 0.25714 0 1 210 164)">
		<path fill="#fff" transform="rotate(45) scale(8.75)" d="M3 0a3 3 0 1 1 -3 -3a2.6066 2.6066 0 1 0 3 3z"/>
		<path fill="#fff" transform="translate(32.281014 0)" d="M-19.516772 0L-6.031014 -4.381788L-6.031014 -18.561553L2.303642 -7.089882L15.7894 -11.471671L7.454743 0L15.7894 11.471671L2.303642 7.089882L-6.031014 18.561553L-6.031014 4.381788z"/>
	</g>
</svg>
