<?xml version="1.0" encoding="UTF-8"?>
<svg version="1.1" xmlns="http://www.w3.org/2000/svg" viewBox="-10 -10 440 348">
	<title xml:lang="mt">Bandiera ta' Malta</title>
	<metadata>
		<rdf:RDF xmlns:rdf="http://www.w3.org/1999/02/22-rdf-syntax-ns#" xmlns:dc="http://purl.org/dc/elements/1.1/" xmlns:cc="http://creativecommons.org/ns#">
			<cc:Work rdf:about="">
				<dc:title xml:lang="mt">Bandiera ta' Malta</dc:title>
				<dc:format>image/svg+xml</dc:format>
				<dc:type rdf:resource="http://purl.org/dc/dcmitype/StillImage" />
				<dc:creator>
					<cc:Agent>
						<dc:title>Frank Bruder</dc:title>
					</cc:Agent>
				</dc:creator>
				<cc:license rdf:resource="http://creativecommons.org/publicdomain/zero/1.0/"/>
				<cc:attributionName>Frank Bruder</cc:attributionName>
				<cc:attributionURL rdf:resource="http://frabru.de/"/>
			</cc:Work>
		</rdf:RDF>
	</metadata>
	<path fill="#c0c0c0" d="M20 34q95 -27 190 0t190 0v260q-95 27 -190 0t-190 0z"/>
	<path fill="#fff" d="M30 44q90 -27 180 0l120 120l-120 120q-90 -27 -180 0z"/>
	<path fill="#cf142b" d="M210 44q90 27 180 0v240q-90 27 -180 0z"/>
	<g transform="translate(30 44) translate(43.2 43.2) matrix(1 -0.156 0 1 0 -9.8496) scale(1.2)">
		<path fill="#ccc" stroke="#cf142b" stroke-width="2" d="M-27 -8h13a6 6 0 0 1 6 -6v-13h16v13a6 6 0 0 1 6 6h13v16h-13a6 6 0 0 1 -6 6v13h-16v-13a6 6 0 0 1 -6 -6h-13z"/>
		<path fill="#ccc" stroke="#999" d="M-24 -5h19v-19h10v19h19v10h-19v19h-10v-19h-19z"/>
		<g>
			<path fill="#ccc" stroke="#999" d="M-9.4 -12.8a5 5 0 0 0 -3.6 4.8a5 5 0 0 0 4.8 -3.6l-0.6 -0.6"/>
			<path fill="none" stroke="#999" d="M-12.5 -9.7l2 0.7l-0.9 -2.6M-10.5 -12.1l1.6 1.6"/>
		</g>
		<g>
			<path fill="#ccc" stroke="#999" d="M12.8 -9.4a5 5 0 0 0 -4.8 -3.6a5 5 0 0 0 3.6 4.8l0.6 -0.6"/>
			<path fill="none" stroke="#999" d="M9.7 -12.5l-0.7 2l2.6 -0.9M12.1 -10.5l-1.6 1.6"/>
		</g>
		<g>
			<path fill="#ccc" stroke="#999" d="M9.4 12.8a5 5 0 0 0 3.6 -4.8a5 5 0 0 0 -4.8 3.6l0.6 0.6"/>
			<path fill="none" stroke="#999" d="M12.5 9.7l-2 -0.7l0.9 2.6M10.5 12.1l-1.6 -1.6"/>
		</g>
		<g>
			<path fill="#ccc" stroke="#999" d="M-12.8 9.4a5 5 0 0 0 4.8 3.6a5 5 0 0 0 -3.6 -4.8l-0.6 0.6"/>
			<path fill="none" stroke="#999" d="M-9.7 12.5l0.7 -2l-2.6 0.9M-12.1 10.5l1.6 -1.6"/>
		</g>
		<circle cx="0" cy="0" r="13" fill="#ccc" stroke="#999"/>
		<circle cx="0" cy="0" r="8" fill="#ccc" stroke="#999"/>
		<g>
			<g transform="translate(0 10.625)">
				<circle fill="none" stroke="#999" cx="0" cy="0" r="1"/>
				<line x1="0" y1="-1" x2="0" y2="-1.5" fill="none" stroke="#999" stroke-linecap="round"/>
				<line transform="rotate(72)" x1="0" y1="-1" x2="0" y2="-1.5" fill="none" stroke="#999" stroke-linecap="round"/>
				<line transform="rotate(144)" x1="0" y1="-1" x2="0" y2="-1.5" fill="none" stroke="#999" stroke-linecap="round"/>
				<line transform="rotate(216)" x1="0" y1="-1" x2="0" y2="-1.5" fill="none" stroke="#999" stroke-linecap="round"/>
				<line transform="rotate(288)" x1="0" y1="-1" x2="0" y2="-1.5" fill="none" stroke="#999" stroke-linecap="round"/>
			</g>
			<circle transform="rotate(210)" cx="0" cy="-10.5" r="0.75" fill="#999"/>
			<path transform="rotate(240)" fill="none" stroke="#999" stroke-linecap="square" d="M-0.75 -9.25v-2.5h1.5m-1.5 1.5h1.25"/>
			<path transform="rotate(261)" fill="none" stroke="#999" stroke-linecap="square" d="M0 -9.25a1.25 1.25 0 1 1 0 -2.5a1.25 1.25 0 0 1 0 2.5z"/>
			<path transform="rotate(282)" fill="none" stroke="#999" stroke-linecap="square" d="M-0.75 -9.25v-2.5h0.5a0.75 0.75 0 1 1 0 1.5l1.25 1"/>
			<path transform="rotate(312)" fill="none" stroke="#999" stroke-linecap="square" d="M0.75 -11.75h-0.25a1.25 1.25 0 1 0 0 2.5h0.25v-1"/>
			<path transform="rotate(333)" fill="none" stroke="#999" stroke-linecap="square" d="M-1 -9.25l0.75 -2.5h0.5l0.75 2.5M-0.85 -9.75h1.7"/>
			<path transform="rotate(354)" fill="none" stroke="#999" stroke-linecap="square" d="M-0.75 -11.75v2.5h1.5"/>
			<path transform="rotate(15)" fill="none" stroke="#999" stroke-linecap="square" d="M-0.75 -11.75v2.5h1.5"/>
			<path transform="rotate(36)" fill="none" stroke="#999" stroke-linecap="square" d="M-1 -9.25l0.75 -2.5h0.5l0.75 2.5M-0.85 -9.75h1.7"/>
			<path transform="rotate(57)" fill="none" stroke="#999" stroke-linecap="square" d="M-1 -9.25v-2.5h0.5l1 2.5h0.5v-2.5"/>
			<path transform="rotate(78)" fill="none" stroke="#999" stroke-linecap="square" d="M0 -9.25v-2.5m-1 0h2"/>
			<path transform="rotate(99)" fill="none" stroke="#999" stroke-linecap="square" d="M-0.75 -9.25v-2.5h0.5a0.75 0.75 0 1 1 0 1.5l1.25 1"/>
			<path transform="rotate(120)" fill="none" stroke="#999" stroke-linecap="square" d="M0 -9.25v-1.25l-1 -1.25m1 1.25l1 -1.25"/>
			<circle transform="rotate(150)" cx="0" cy="-10.5" r="0.75" fill="#999"/>
		</g>
		<g>
			<path fill="#ccc" stroke="#999" stroke-width="0.5" stroke-linejoin="round" d="M-0.98 -4.95c-0.42 -0.12 -0.45 -0.13 -0.68 -0.45c-0.58 0.15 -1.23 0.10 -1.31 -0.20s0.55 -0.15 0.78 -0.17c0.55 -0.15 1.01 -0.05 1.61 -0.10"/>
			<path fill="none" stroke="#999" stroke-width="0.5" stroke-linecap="round" d="M4.97 5.5l-6.50 -0.24l-3.83 0.47"/>
			<path fill="none" stroke="#999" stroke-width="0.5" stroke-linecap="round" d="m-5 5.1l6.59 1.74"/>
			<path fill="#ccc" stroke="#999" stroke-width="0.5" stroke-linejoin="round" d="M2.76 2.97c-0.02 -0.98 0.15 -2.32 1.46 -2.64c-0.35 0.35 -0.75 0.46 -0.50 0.96c-0.37 0.43 -0.48 0.32 -0.81 2.18"/>
			<path fill="#ccc" stroke="#999" stroke-width="0.5" stroke-linejoin="round" d="M-0.73 4.52c-0.38 -0.02 -0.76 -0.24 -0.83 0.18c-0.07 0.42 -0.15 0.60 -0.52 0.68c-0.37 0.08 -0.68 0.14 -0.08 0.41c0.6 0.27 0.80 0.55 0.57 0.87c-0.23 0.32 -0.88 -0.25 -1.05 0.30c-0.40 -0.37 0.06 -0.68 0.35 -0.63c0.29 0.05 0.17 -0.08 -0.28 -0.25c-0.45 -0.17 -0.80 -0.58 -0.70 -0.80c0.1 -0.22 0.51 -0.44 0.88 -0.32c0.37 0.12 0.18 0 0.10 -0.33c-0.08 -0.33 0.10 -0.68 0.45 -0.73c0.35 -0.05 0.78 0.07 1.11 0.22"/>
			<path fill="#ccc" stroke="#999" stroke-width="0.5" stroke-linejoin="round" d="M4.25 4.75c-0.45 0.61 -0.83 0.69 -1.56 0.61c-0.73 -0.08 -2.04 -0.20 -2.49 -0.10c-0.45 0.1 -0.81 -0.16 -0.96 -0.38c-0.15 -0.22 -0.26 -0.78 0.06 -0.98c0.32 -0.2 1.73 -0.51 2.98 -0.38c0.78 -0.18 1.01 -0.28 1.29 -0.28c-0.28 -0.63 -0.13 -1.28 0.30 -1.28c0.43 -0.00 0.96 0.78 1.11 0.63c0.15 -0.15 -0.44 -0.47 -0.61 -0.67c-0.17 -0.2 -0.21 -0.54 -0.03 -0.66c0.18 -0.12 0.45 0.20 0.73 0.58c-0.15 -0.35 0.11 -0.48 -0.39 -0.68c0.18 -0.27 0.42 -0.33 0.70 -0.25c0.03 0.37 0.17 0.33 0.37 0.48c0.2 0.15 0.28 0.40 0.38 0.67c0.1 0.27 0.31 0.33 0.43 0.46c-0.27 0.12 -0.38 -0.09 -0.55 -0.06c-0.17 0.03 -0.19 0.82 -0.89 0.69c-0.7 -0.13 -1.05 -0.84 -1.18 -0.58c-0.13 0.26 0.41 0.45 0.64 0.72c0.23 0.27 0.35 1.06 -0.33 1.46z"/>
			<path fill="#ccc" stroke="#999" stroke-width="0.5" stroke-linecap="round" stroke-linejoin="round" d="M0.51 4.02c0.5 0.02 0.88 0.28 0.85 0.53c-0.03 0.25 -0.47 0.30 -0.70 0.80c-0.23 0.05 -0.83 0.06 -1.06 0.06c0.08 -0.51 0.55 -0.89 0.9 -0.86"/>
			<path fill="#ccc" stroke="#999" stroke-width="0.5" stroke-linejoin="round" d="m1.15 5.06c0.13 -0.13 0.31 -0.03 0.41 0.02c-0.03 0.08 -0.06 0.10 -0.16 0.13c0.23 0.03 0.28 0.06 0.33 0.14c-0.1 0.08 -0.21 0.14 -0.33 0.16c0.23 0.02 0.23 0.10 0.26 0.17c-0.12 0.13 -0.31 0.20 -0.61 0.13c-0.47 0.1 -1.09 -0.05 -1.32 -0.03c-0.23 0.02 -0.26 -0.16 -0.26 -0.28c0 -0.12 0.20 -0.35 0.40 -0.32c0.2 0.03 0.88 -0.29 1.28 -0.12z"/>
			<path fill="#ccc" stroke="#999" stroke-width="0.5" stroke-linecap="round" stroke-linejoin="round" d="m4.30 3.70c0.08 0.13 0.15 0.33 0.13 0.43c0.27 -0.25 0.55 -0.24 0.75 -0.31c0.1 -0.15 0.24 -0.25 0.37 -0.32c0 -0.33 0.34 -0.56 0.51 -0.63c0.17 -0.07 0.31 -0.05 0.24 0.10c0.23 -0.13 0.31 -0.07 0.38 -0.02c-0.12 0.07 -0.17 0.14 -0.22 0.19c0.17 -0.03 0.20 0 0.22 0.10c-0.33 0 -0.38 0.09 -0.48 0.21c-0.1 0.12 0 0.38 -0.25 0.50c-0.61 0.63 -1.07 1.01 -1.73 1.21c-0.38 -0.32 -0.58 -0.91 -0.58 -1.08"/>
			<path fill="#ccc" stroke="#999" stroke-width="0.5" stroke-linecap="round" stroke-linejoin="round" d="M4.80 4.48c0.15 -0.2 0.35 -0.21 0.47 -0.13c0.18 0 0.25 0.09 0.28 0.17c0.25 -0.07 0.33 0.06 0.26 0.21c-0.07 0.15 -0.41 0.53 -0.58 0.58c-0.17 0.05 -0.33 -0.07 -0.31 -0.25c-0.25 0.03 -0.30 -0.18 -0.25 -0.30c0.05 -0.12 0.43 -0.15 0.13 -0.28z"/>
			<path fill="#ccc" stroke="#999" stroke-width="0.5" stroke-linecap="round" stroke-linejoin="round" d="M2.49 3.85c-0.23 -0.12 -0.67 -0.20 -0.90 -0.22c0.08 -0.08 0.11 -0.29 -0.06 -0.34c0.02 -0.28 -0.01 -0.42 -0.67 -0.49c0.07 -0.23 0.17 -0.50 -0.73 -0.53c0.4 -0.35 0.53 -0.56 -0.23 -0.69c1.41 -0.32 2.59 0.13 3.07 0.73c0.02 0.25 -0.02 0.55 -0.05 0.73c0.45 0.12 0.73 0.49 0.83 0.56"/>
			<path fill="none" stroke="#999" stroke-width="0.5" stroke-linecap="round" d="m2.51 3.20c-0.32 0.02 -0.42 0 -0.80 0.07M2.43 2.80c-0.51 -0.07 -0.75 -0.08 -1.30 -0.01M2.46 2.41c-0.8 -0.2 -1.50 -0.30 -2.11 -0.22"/>
			<path fill="#ccc" stroke="#999" stroke-width="0.5" stroke-linejoin="round" d="M2.86 -1.02c0.53 -0.28 0.88 -0.51 1.08 -0.69c0.2 -0.18 0.60 -0.30 0.88 -0.25c0.28 0.05 1.41 0.61 1.56 0.81c0.51 0.38 0.43 0.57 0.50 1.00c-0.23 0 -0.55 -0.09 -0.83 -0.17c-0.02 -0.18 -0.04 -0.28 -0.04 -0.36c-0.38 -0.08 -1.04 -0.64 -1.31 -0.67c-0.27 -0.03 -0.44 0.05 -0.51 0.23c-0.07 0.18 -0.48 0.72 -0.93 1.00M-0.45 0.76c0.27 0.88 -0.25 1.23 -0.68 1.91c0.6 0.17 1.31 0.12 1.76 0.12c0.45 0 0.55 0.06 0.65 0.13c0.33 0.2 0.42 0.50 0.55 0.70c-0.63 0.02 -0.95 -0.05 -1.17 -0.07c-0.05 -0.1 -0.11 -0.20 -0.16 -0.20c-0.68 0.12 -1.46 0.03 -2.49 0c-0.17 -0.33 -0.19 -0.81 -0.12 -1.21c0.07 -0.4 0.30 -1.33 0.30 -1.33"/>
			<path fill="#ccc" stroke="#999" stroke-width="0.5" stroke-linejoin="round" d="m-4.12 0.41c-0.33 0.25 -0.39 0.32 -0.86 0.15c-0.47 -0.17 -0.86 -0.15 -0.88 0.25c-0.02 0.4 0.94 0.91 0.91 1.31c-0.03 0.4 -0.47 0.33 -0.45 0.55c0.02 0.22 0.37 0.34 0.32 0.72c-0.05 0.38 -0.35 0.46 -0.67 0.61c-0.17 -0.42 -0.32 -0.57 -0.20 -0.90c-0.35 -0.23 -0.08 -0.79 -0.08 -1.14c0 -0.35 -0.73 -0.51 -0.60 -1.36c0.13 -0.85 1.01 -0.79 1.33 -0.74c0.32 0.05 0.34 0.46 1.15 0.29"/>
			<path fill="#ccc" stroke="#999" stroke-width="0.5" d="m-1.53 -1.22c0.02 -0.07 1.70 -0.63 1.70 -0.63c-0.25 -1.23 -0.12 -2.39 0.73 -3.45c0.07 -0.15 0.26 -0.38 0.38 -0.43c0.1 0.2 0.12 0.31 0.15 0.46c0.35 -0.03 0.65 0.02 0.93 0.20c0.38 0.1 0.52 0.27 0.65 0.35c0.27 -0.05 0.36 -0.01 0.43 0.12c0.07 0.13 -0.10 0.33 -0.17 0.41c0.03 0.22 0.04 0.36 -0.11 0.43c-0.15 0.07 -0.60 -0.03 -0.93 -0.16c-0.27 0.1 -0.40 0.03 -0.60 -0.02c0.12 0.65 0.48 0.83 0.88 1.28c0.4 0.45 0.41 0.72 0.41 0.90c0.4 0.37 0.41 0.63 0.49 1.18c0.22 0.08 0.68 0.19 0.96 0.21c0.32 0.02 0.59 0.13 0.76 0.33c0.17 0.2 0.60 0.68 0.90 0.98c0.23 0.15 0.43 0.34 0.81 0.82c-0.3 0.02 -0.67 -0.02 -0.94 -0.05c-0.12 -0.22 -0.24 -0.25 -0.32 -0.50c-0.34 -0.18 -0.64 -0.76 -1.05 -0.91c-0.21 -0.08 -1.33 0.28 -1.79 0.25c-0.49 0.12 -0.87 0.04 -1.51 0.28c-0.55 0.21 -1.98 0.45 -4.42 0.25"/>
			<path fill="#ccc" stroke="#999" stroke-width="0.5" stroke-linecap="round" stroke-linejoin="round" d="m-1.83 0.15c0.6 0.33 0.95 0.66 0.85 0.91c-0.1 0.25 -1.00 1.54 -1.58 1.91c0.17 0.61 1.12 1.31 1.35 1.63c0.37 0.18 0.56 0.41 0.68 0.58c-0.22 0.2 -0.55 0.20 -0.82 0.18c-0.13 -0.25 -0.19 -0.36 -0.44 -0.58c-0.28 -0.05 -0.38 -0.48 -0.78 -0.81c-0.4 -0.33 -0.95 -0.64 -0.92 -0.82c0.03 -0.18 0.35 -0.56 0.52 -1.21c-1.05 -0.63 -1.41 -1.12 -1.43 -1.49c-0.02 -0.37 0.52 -1.07 0.95 -1.30c0.43 -0.23 1.22 -0.45 3.38 -0.65"/>
			<path fill="#ccc" stroke="#999" stroke-width="0.5" d="m-1.56 -4.90l-2.91 -0.02c0 0 -0.45 0.09 -0.53 0.22c-0.08 0.13 0.05 0.33 0.05 0.33c0 0 -0.59 0.30 -0.71 0.48c-0.12 0.18 -0.10 0.43 -0.10 0.43c0 0 -0.39 0.16 -0.47 0.32c-0.08 0.16 -0.05 0.53 -0.05 0.53c0 0 -0.64 0.47 -0.65 0.71c-0.01 0.24 0.10 0.30 0.29 0.39c0.19 0.09 0.68 0.22 0.84 0.41l0.22 -0.23c0.33 0.13 0.62 0.17 0.90 0.21c0.65 -0.81 1.22 -1.30 2.54 -2.34"/>
			<path fill="none" stroke="#999" stroke-width="0.5" stroke-linecap="round" stroke-linejoin="round" d="m-2.86 -3.91c-2.01 0.88 -2.36 1.19 -3.47 2.45m3.24 -2.15c-1 0.65 -1.83 1.45 -2.44 2.23m2.44 -2.59c-0.85 0.05 -1.86 0.46 -2.26 0.63c-0.17 -0.03 -0.34 -0.12 -0.81 0.13m3.37 -1.13c-0.98 0.07 -1.41 0.27 -1.79 0.32c-0.27 -0.13 -0.61 -0.22 -0.93 0m3.20 -0.58c-0.66 -0.13 -1.08 -0.05 -1.48 0.13c-0.38 -0.27 -0.71 -0.50 -1.11 -0.32"/>
			<path fill="#ccc" fill-opacity="1" stroke="#999" stroke-width="0.5" d="m-2.28 0.51l0.10 -0.28l-1.93 -1.76l-0.61 -0.43c0 0 -0.09 -0.13 -0.14 -0.19c-0.05 -0.06 -0.21 -0.03 -0.26 0.03c-0.05 0.06 -0.01 0.16 0.05 0.21c0.06 0.05 0.21 0 0.21 0c0 0 0.51 0.84 0.51 0.82c0 -0.02 1.74 1.58 1.74 1.58z"/>
			<path fill="#ccc" stroke="#999" stroke-width="0.5" d="m-3.99 -1.63l0.11 0.17l-0.35 0.21l-0.21 0.47l-0.23 -0.17l0.14 -0.54z"/>
			<path fill="#ccc" stroke="#999" stroke-width="0.5" stroke-linejoin="round" d="m-0.46 -6.27c-0.15 0.14 -0.15 0.36 -0.21 0.61c-0.06 0.25 -0.16 0.56 -0.16 0.56l-0.30 0.16c-0.4 -0.53 -1.12 0.07 -1.49 0.47c-0.93 0.5 -1.56 1.79 -1.83 2.29c-0.27 0.1 -0.50 0.36 -0.30 0.53c0.2 0.17 0.37 0.27 0.50 0.10c0.13 -0.17 0.09 -0.30 0.16 -0.53c0.4 -0.47 0.76 -0.86 0.93 -1.13c0.27 -0.13 0.53 -0.33 0.70 -0.46c-0.1 0.7 0.06 0.96 0.13 1.36c0.07 0.6 0.13 1.03 0.40 1.26c0.27 0.23 0.63 0.24 0.93 0.17c0.5 0.2 1.27 0.03 1.4 0.20c0.13 0.17 0.17 0.53 1.13 1.66c-0.03 0.3 0.13 0.59 0.40 0.66c0.27 0.07 0.56 0.07 0.83 0.17c0.27 0.1 0.66 0 0.73 -0.10c-0.22 -0.17 -0.43 -0.10 -0.63 -0.23c-0.22 -0.14 -0.34 -0.42 -0.57 -0.60c-0.47 -0.8 -1.02 -2.06 -1.19 -2.23c-0.16 -0.16 -0.81 -0.50 -1.7 -0.53c-0.03 -0.52 -0.17 -0.95 -0.12 -1.31c0.16 -0.05 0.43 -0.13 0.53 -0.21c-0.04 -0.27 0.04 -0.61 0.09 -0.88c-0.02 -0.07 0.09 -0.31 0.16 -0.44c0.16 -0.04 0.25 -0.08 0.38 -0.12c-0.03 -0.16 0.02 -0.37 0.05 -0.54c0.08 -0.09 0.15 -0.20 0.19 -0.31c0.08 -0.06 0.14 -0.14 0.22 -0.24c-0.21 -0.20 -0.45 -0.39 -0.69 -0.44c-0.24 -0.05 -0.52 -0.04 -0.67 0.10z"/>
			<path fill="none" stroke="#999" stroke-width="0.5" stroke-linecap="round" d="m0.5 -3.34c-0.08 0.17 -0.41 0.19 -0.68 0.16c-0.17 0.05 -0.07 0.50 -0.07 0.50l0.42 0.09c0.95 -0.17 1.69 -0.68 2.37 -1.23c0.1 -0.13 -0.12 -0.25 -0.02 -0.58M0.8 -5.24c0.45 0.4 0.97 0.49 1.24 0.57c0.27 0.08 0.50 0.27 0.77 0.40"/>
			<path fill="#ccc" stroke="#999" stroke-width="0.5" stroke-linejoin="round" d="m-0.43 -3.19c-0.08 0.09 -0.07 0.48 -0.04 0.55c0.03 0.07 0.45 0.01 0.45 -0.07c0 -0.08 0.11 -0.40 0.04 -0.47c-0.07 -0.07 -0.37 -0.10 -0.45 -0.01z"/>
		</g>
	</g>
</svg>
