<?xml version="1.0" encoding="UTF-8"?>
<svg version="1.1" xmlns="http://www.w3.org/2000/svg" viewBox="-10 -10 440 292">
	<title xml:lang="pt">Bandeira de Portugal</title>
	<metadata>
		<rdf:RDF xmlns:rdf="http://www.w3.org/1999/02/22-rdf-syntax-ns#" xmlns:dc="http://purl.org/dc/terms/" xmlns:voc="http://www.w3.org/1999/xhtml/vocab#" xmlns:cc="http://web.resource.org/cc/">
			<cc:Work rdf:about="">
				<dc:title xml:lang="pt">Bandeira de Portugal</dc:title>
				<dc:format>image/svg+xml</dc:format>
				<dc:type rdf:resource="http://purl.org/dc/dcmitype/StillImage" />
				<dc:creator>
					<dc:Agent rdf:about="http://purl.org/net/2008,frankbruder/id">
						<dc:title>Frank Bruder</dc:title>
					</dc:Agent>
				</dc:creator>
				<voc:license rdf:resource="http://creativecommons.org/publicdomain/zero/1.0/"/>
				<voc:license rdf:resource="http://web.resource.org/cc/PublicDomain" />
			</cc:Work>
		</rdf:RDF>
	</metadata>
	<path fill="#c0c0c0" d="M20 6q95 -27 190 0t190 0v260q-95 27 -190 0t-190 0z"/>
	<path fill="#ff0000" d="M174 7.36q18 3.24 36 8.64q90 27 180 0v240q-90 27 -180 0q-18 -5.4 -36 -8.64l-120 -120l120 -120z"/>
	<path fill="#006600" d="M30  16q72 -21.6 144 -8.64v240q-72 -12.96 -144 8.64"/>
	<g transform="translate(174 127.36) matrix(1 0.18 0 1 0 0)">
		<g fill="#ffff00" stroke="#808000" stroke-width="1">
			<path transform="rotate(23.4368)" d="M-60 -6a60 10 0 1 0 120 0v12a60 10 0 1 1 -120 0v-12z"/>
			<path d="M53.857 -26.617a53.857 14.783 0 0 1 -53.857 14.783v4.849a56.243 15.438 0 0 0 56.243 -15.438l-2.386 -5.504z"/>
			<path d="M-60 -3a60 10 0 1 0 120 0v6a60 10 0 1 1 -120 0v-6z"/>

			<path d="M-53.857 26.617a53.857 14.783 0 1 0 107.714 0l2.386 -5.504a56.243 15.438 0 1 1 -112.486 0l2.386 5.504z"/>
			<!-- 42 - 26.617 -0.6 = 42 - 27.217 = 14.783 ; 15.438 ; D=0.655 -->

			<path d="M-60 0a60 60 0 1 1 120 0a60 60 0 0 1 -120 0zm6 0a54 54 0 0 0 108 0a54 54 0 1 0 -108 0z"/>
			<path d="M-60 -3a60 16.469 0 1 1 120 0v6a60 16.469 0 1 0 -120 0v-6z"/>
			<path d="M-53.857 -26.617a53.857 14.783 0 1 1 107.714 0l2.386 5.504a56.243 15.438 0 1 0 -112.486 0l2.386 -5.504z"/>
			<path d="M-53.857 26.617a53.857 14.783 0 0 1 53.857 -14.783v-4.849a56.243 15.438 0 0 0 -56.243 15.438l2.386 5.504z"/>
			<path d="M-3 -60h6v120h-6z"/>
			<path transform="rotate(23.4368)" d="M-60 -6a60 15.11 0 1 1 120 0v12a60 15.11 0 1 0 -120 0v-12z"/>
		</g>
		<!-- -36..36 | -42..42 -->
		<path fill="#ffffff" d="M-36 -42h72v48a36 36 0 1 1 -72 0z"/>
		<path fill="#ff0000" d="M-34 -40h68v46a34 34 0 1 1 -68 0z"/>
		<path fill="#ffffff" d="M-20.4 -26.4h40.8v32.4a20.4 20.4 0 1 1 -40.8 0z"/>
		<g transform="translate(0 -15.24)">
			<path fill="#003399" d="M-4.08 -5.28h8.16v6.08a4.08 4.08 0 1 1 -8.16 0z"/>
			<g transform="translate(0 -1)">
				<circle fill="#ffffff" r="1" cx="-2" cy="-2"/>
				<circle fill="#ffffff" r="1" cx="2" cy="-2"/>
				<circle fill="#ffffff" r="1"/>
				<circle fill="#ffffff" r="1" cx="-2" cy="2"/>
				<circle fill="#ffffff" r="1" cx="2" cy="2"/>
			</g>
		</g>
		<g transform="translate(-12.24 0)">
			<path fill="#003399" d="M-4.08 -5.28h8.16v6.08a4.08 4.08 0 1 1 -8.16 0z"/>
			<g transform="translate(0 -1)">
				<circle fill="#ffffff" r="1" cx="-2" cy="-2"/>
				<circle fill="#ffffff" r="1" cx="2" cy="-2"/>
				<circle fill="#ffffff" r="1"/>
				<circle fill="#ffffff" r="1" cx="-2" cy="2"/>
				<circle fill="#ffffff" r="1" cx="2" cy="2"/>
			</g>
		</g>
		<g>
			<path fill="#003399" d="M-4.08 -5.28h8.16v6.08a4.08 4.08 0 1 1 -8.16 0z"/>
			<g transform="translate(0 -1)">
				<circle fill="#ffffff" r="1" cx="-2" cy="-2"/>
				<circle fill="#ffffff" r="1" cx="2" cy="-2"/>
				<circle fill="#ffffff" r="1"/>
				<circle fill="#ffffff" r="1" cx="-2" cy="2"/>
				<circle fill="#ffffff" r="1" cx="2" cy="2"/>
			</g>
		</g>
		<g transform="translate(12.24 0)">
			<path fill="#003399" d="M-4.08 -5.28h8.16v6.08a4.08 4.08 0 1 1 -8.16 0z"/>
			<g transform="translate(0 -1)">
				<circle fill="#ffffff" r="1" cx="-2" cy="-2"/>
				<circle fill="#ffffff" r="1" cx="2" cy="-2"/>
				<circle fill="#ffffff" r="1"/>
				<circle fill="#ffffff" r="1" cx="-2" cy="2"/>
				<circle fill="#ffffff" r="1" cx="2" cy="2"/>
			</g>
		</g>
		<g transform="translate(0 15.24)">
			<path fill="#003399" d="M-4.08 -5.28h8.16v6.08a4.08 4.08 0 1 1 -8.16 0z"/>
			<g transform="translate(0 -1)">
				<circle fill="#ffffff" r="1" cx="-2" cy="-2"/>
				<circle fill="#ffffff" r="1" cx="2" cy="-2"/>
				<circle fill="#ffffff" r="1"/>
				<circle fill="#ffffff" r="1" cx="-2" cy="2"/>
				<circle fill="#ffffff" r="1" cx="2" cy="2"/>
			</g>
		</g>
		<g fill="#ffff00" stroke="#808000" stroke-width="0.5">
			<g transform="translate(-27.2 -33.2)">
				<path d="M-4.5 4.5l0.5 -4v-4h2v4h1v-5.5h2v5.5h1v-4h2v4l0.5 4z"/>
				<path d="M-2 4q0 -2 2 -3q2 1 2 3v0.5h-3z"/>
				<path d="M-1 4q0 -1.3 1 -2q1 0.7 1 2v0.5h-2z"/>
				<path fill="#808000" stroke="none" d="M-3.25 -1.7v-0.6a0.25 0.25 0 1 1 0.5 0v0.6z"/>
				<path fill="#808000" stroke="none" d="M-0.25 -2.7v-0.6a0.25 0.25 0 1 1 0.5 0v0.6z"/>
				<path fill="#808000" stroke="none" d="M2.75 -1.7v-0.6a0.25 0.25 0 1 1 0.5 0v0.6z"/>
				<rect x="-5" y="4" width="10" height="1"/>
				<rect x="-4.5" y="0" width="9" height="1"/>
				<rect x="-5" y="-1" width="10" height="1"/>
				<path d="M-4.5 -3v-1.6h0.6v0.6h0.6v-0.6h0.6v0.6h0.6v-0.6h0.6v1.6z"/>
				<path d="M-1.5 -4.5v-1.6h0.6v0.6h0.6v-0.6h0.6v0.6h0.6v-0.6h0.6v1.6z"/>
				<path d="M1.5 -3v-1.6h0.6v0.6h0.6v-0.6h0.6v0.6h0.6v-0.6h0.6v1.6z"/>
			</g>
			<g transform="translate(0 -33.2)">
				<path d="M-4.5 4.5l0.5 -4v-4h2v4h1v-5.5h2v5.5h1v-4h2v4l0.5 4z"/>
				<path d="M-2 4q0 -2 2 -3q2 1 2 3v0.5h-3z"/>
				<path d="M-1 4q0 -1.3 1 -2q1 0.7 1 2v0.5h-2z"/>
				<path fill="#808000" stroke="none" d="M-3.25 -1.7v-0.6a0.25 0.25 0 1 1 0.5 0v0.6z"/>
				<path fill="#808000" stroke="none" d="M-0.25 -2.7v-0.6a0.25 0.25 0 1 1 0.5 0v0.6z"/>
				<path fill="#808000" stroke="none" d="M2.75 -1.7v-0.6a0.25 0.25 0 1 1 0.5 0v0.6z"/>
				<rect x="-5" y="4" width="10" height="1"/>
				<rect x="-4.5" y="0" width="9" height="1"/>
				<rect x="-5" y="-1" width="10" height="1"/>
				<path d="M-4.5 -3v-1.6h0.6v0.6h0.6v-0.6h0.6v0.6h0.6v-0.6h0.6v1.6z"/>
				<path d="M-1.5 -4.5v-1.6h0.6v0.6h0.6v-0.6h0.6v0.6h0.6v-0.6h0.6v1.6z"/>
				<path d="M1.5 -3v-1.6h0.6v0.6h0.6v-0.6h0.6v0.6h0.6v-0.6h0.6v1.6z"/>
			</g>
			<g transform="translate(27.2 -33.2)">
				<path d="M-4.5 4.5l0.5 -4v-4h2v4h1v-5.5h2v5.5h1v-4h2v4l0.5 4z"/>
				<path d="M-2 4q0 -2 2 -3q2 1 2 3v0.5h-3z"/>
				<path d="M-1 4q0 -1.3 1 -2q1 0.7 1 2v0.5h-2z"/>
				<path fill="#808000" stroke="none" d="M-3.25 -1.7v-0.6a0.25 0.25 0 1 1 0.5 0v0.6z"/>
				<path fill="#808000" stroke="none" d="M-0.25 -2.7v-0.6a0.25 0.25 0 1 1 0.5 0v0.6z"/>
				<path fill="#808000" stroke="none" d="M2.75 -1.7v-0.6a0.25 0.25 0 1 1 0.5 0v0.6z"/>
				<rect x="-5" y="4" width="10" height="1"/>
				<rect x="-4.5" y="0" width="9" height="1"/>
				<rect x="-5" y="-1" width="10" height="1"/>
				<path d="M-4.5 -3v-1.6h0.6v0.6h0.6v-0.6h0.6v0.6h0.6v-0.6h0.6v1.6z"/>
				<path d="M-1.5 -4.5v-1.6h0.6v0.6h0.6v-0.6h0.6v0.6h0.6v-0.6h0.6v1.6z"/>
				<path d="M1.5 -3v-1.6h0.6v0.6h0.6v-0.6h0.6v0.6h0.6v-0.6h0.6v1.6z"/>
			</g>
			<g transform="translate(-27.2 -5.28)">
				<path d="M-4.5 4.5l0.5 -4v-4h2v4h1v-5.5h2v5.5h1v-4h2v4l0.5 4z"/>
				<path d="M-2 4q0 -2 2 -3q2 1 2 3v0.5h-3z"/>
				<path d="M-1 4q0 -1.3 1 -2q1 0.7 1 2v0.5h-2z"/>
				<path fill="#808000" stroke="none" d="M-3.25 -1.7v-0.6a0.25 0.25 0 1 1 0.5 0v0.6z"/>
				<path fill="#808000" stroke="none" d="M-0.25 -2.7v-0.6a0.25 0.25 0 1 1 0.5 0v0.6z"/>
				<path fill="#808000" stroke="none" d="M2.75 -1.7v-0.6a0.25 0.25 0 1 1 0.5 0v0.6z"/>
				<rect x="-5" y="4" width="10" height="1"/>
				<rect x="-4.5" y="0" width="9" height="1"/>
				<rect x="-5" y="-1" width="10" height="1"/>
				<path d="M-4.5 -3v-1.6h0.6v0.6h0.6v-0.6h0.6v0.6h0.6v-0.6h0.6v1.6z"/>
				<path d="M-1.5 -4.5v-1.6h0.6v0.6h0.6v-0.6h0.6v0.6h0.6v-0.6h0.6v1.6z"/>
				<path d="M1.5 -3v-1.6h0.6v0.6h0.6v-0.6h0.6v0.6h0.6v-0.6h0.6v1.6z"/>
			</g>
			<g transform="translate(27.2 -5.28)">
				<path d="M-4.5 4.5l0.5 -4v-4h2v4h1v-5.5h2v5.5h1v-4h2v4l0.5 4z"/>
				<path d="M-2 4q0 -2 2 -3q2 1 2 3v0.5h-3z"/>
				<path d="M-1 4q0 -1.3 1 -2q1 0.7 1 2v0.5h-2z"/>
				<path fill="#808000" stroke="none" d="M-3.25 -1.7v-0.6a0.25 0.25 0 1 1 0.5 0v0.6z"/>
				<path fill="#808000" stroke="none" d="M-0.25 -2.7v-0.6a0.25 0.25 0 1 1 0.5 0v0.6z"/>
				<path fill="#808000" stroke="none" d="M2.75 -1.7v-0.6a0.25 0.25 0 1 1 0.5 0v0.6z"/>
				<rect x="-5" y="4" width="10" height="1"/>
				<rect x="-4.5" y="0" width="9" height="1"/>
				<rect x="-5" y="-1" width="10" height="1"/>
				<path d="M-4.5 -3v-1.6h0.6v0.6h0.6v-0.6h0.6v0.6h0.6v-0.6h0.6v1.6z"/>
				<path d="M-1.5 -4.5v-1.6h0.6v0.6h0.6v-0.6h0.6v0.6h0.6v-0.6h0.6v1.6z"/>
				<path d="M1.5 -3v-1.6h0.6v0.6h0.6v-0.6h0.6v0.6h0.6v-0.6h0.6v1.6z"/>
			</g>
			<g transform="translate(0 6) rotate(-45) translate(-27.2 0)">
				<path d="M-4.5 4.5l0.5 -4v-4h2v4h1v-5.5h2v5.5h1v-4h2v4l0.5 4z"/>
				<path d="M-2 4q0 -2 2 -3q2 1 2 3v0.5h-3z"/>
				<path d="M-1 4q0 -1.3 1 -2q1 0.7 1 2v0.5h-2z"/>
				<path fill="#808000" stroke="none" d="M-3.25 -1.7v-0.6a0.25 0.25 0 1 1 0.5 0v0.6z"/>
				<path fill="#808000" stroke="none" d="M-0.25 -2.7v-0.6a0.25 0.25 0 1 1 0.5 0v0.6z"/>
				<path fill="#808000" stroke="none" d="M2.75 -1.7v-0.6a0.25 0.25 0 1 1 0.5 0v0.6z"/>
				<rect x="-5" y="4" width="10" height="1"/>
				<rect x="-4.5" y="0" width="9" height="1"/>
				<rect x="-5" y="-1" width="10" height="1"/>
				<path d="M-4.5 -3v-1.6h0.6v0.6h0.6v-0.6h0.6v0.6h0.6v-0.6h0.6v1.6z"/>
				<path d="M-1.5 -4.5v-1.6h0.6v0.6h0.6v-0.6h0.6v0.6h0.6v-0.6h0.6v1.6z"/>
				<path d="M1.5 -3v-1.6h0.6v0.6h0.6v-0.6h0.6v0.6h0.6v-0.6h0.6v1.6z"/>
			</g>
			<g transform="translate(0 6) rotate(45) translate(27.2 0)">
				<path d="M-4.5 4.5l0.5 -4v-4h2v4h1v-5.5h2v5.5h1v-4h2v4l0.5 4z"/>
				<path d="M-2 4q0 -2 2 -3q2 1 2 3v0.5h-3z"/>
				<path d="M-1 4q0 -1.3 1 -2q1 0.7 1 2v0.5h-2z"/>
				<path fill="#808000" stroke="none" d="M-3.25 -1.7v-0.6a0.25 0.25 0 1 1 0.5 0v0.6z"/>
				<path fill="#808000" stroke="none" d="M-0.25 -2.7v-0.6a0.25 0.25 0 1 1 0.5 0v0.6z"/>
				<path fill="#808000" stroke="none" d="M2.75 -1.7v-0.6a0.25 0.25 0 1 1 0.5 0v0.6z"/>
				<rect x="-5" y="4" width="10" height="1"/>
				<rect x="-4.5" y="0" width="9" height="1"/>
				<rect x="-5" y="-1" width="10" height="1"/>
				<path d="M-4.5 -3v-1.6h0.6v0.6h0.6v-0.6h0.6v0.6h0.6v-0.6h0.6v1.6z"/>
				<path d="M-1.5 -4.5v-1.6h0.6v0.6h0.6v-0.6h0.6v0.6h0.6v-0.6h0.6v1.6z"/>
				<path d="M1.5 -3v-1.6h0.6v0.6h0.6v-0.6h0.6v0.6h0.6v-0.6h0.6v1.6z"/>
			</g>
		</g>
	</g>
</svg>
