<?xml version="1.0" encoding="UTF-8"?>
<svg version="1.1" xmlns="http://www.w3.org/2000/svg" viewBox="-10 -10 440 348">
	<title xml:lang="fr">Drapeau des Seychelles</title>
	<title xml:lang="en">Flag of Seychelles</title>
	<metadata>
		<rdf:RDF xmlns:rdf="http://www.w3.org/1999/02/22-rdf-syntax-ns#" xmlns:dc="http://purl.org/dc/elements/1.1/" xmlns:cc="http://creativecommons.org/ns#">
			<cc:Work rdf:about="">
				<dc:title xml:lang="fr">Drapeau des Seychelles</dc:title>
				<dc:title xml:lang="en">Flag of Seychelles</dc:title>
				<dc:format>image/svg+xml</dc:format>
				<dc:type rdf:resource="http://purl.org/dc/dcmitype/StillImage" />
				<dc:creator>
					<cc:Agent>
						<dc:title>Frank Bruder</dc:title>
					</cc:Agent>
				</dc:creator>
				<cc:license rdf:resource="http://creativecommons.org/publicdomain/zero/1.0/"/>
				<cc:attributionName>Frank Bruder</cc:attributionName>
				<cc:attributionURL rdf:resource="http://frabru.de/"/>
			</cc:Work>
		</rdf:RDF>
	</metadata>
	<path fill="#c0c0c0" d="M-10 49q110 -27 220 0t220 0v230q-110 27 -220 0t-220 0z"/>
	<path fill="#003d88" d="M0 269v -210q 70 -18 140 -12v 105z"/>
	<path fill="#fcd955" d="M0 269q70 -123 140 -222q35 3 70 12q35 9 70 12v105z"/>
	<path fill="#d72323" d="M0 269q105 -105.75 210 -157.5q35 -17.25 70 -40.5q70 6 140 -12v70l-75 110h-270z"/>
	<path fill="#fff" d="M0 269q105 -62 210 -70q105 -8 210 -70v70l-70 52h-290z"/>
	<path fill="#007b3a" d="M0 269q105 -44.5 210 -35q105 9.5 210 -35v70q-105 27 -210 0q-105 -27 -210 0z"/>
</svg>
