<?xml version="1.0" encoding="UTF-8"?>
<svg version="1.1" xmlns="http://www.w3.org/2000/svg" viewBox="-10 -10 440 348">
	<title xml:lang="se">Sámi leavga</title>
	<metadata>
		<rdf:RDF xmlns:rdf="http://www.w3.org/1999/02/22-rdf-syntax-ns#" xmlns:dc="http://purl.org/dc/elements/1.1/" xmlns:cc="http://creativecommons.org/ns#">
			<cc:Work rdf:about="">
				<dc:title xml:lang="se">Sámi leavga</dc:title>
				<dc:format>image/svg+xml</dc:format>
				<dc:type rdf:resource="http://purl.org/dc/dcmitype/StillImage" />
				<dc:creator>
					<cc:Agent>
						<dc:title>Frank Bruder</dc:title>
					</cc:Agent>
				</dc:creator>
				<cc:license rdf:resource="http://creativecommons.org/publicdomain/zero/1.0/"/>
				<cc:attributionName>Frank Bruder</cc:attributionName>
				<cc:attributionURL rdf:resource="http://frabru.de/"/>
			</cc:Work>
		</rdf:RDF>
	</metadata>
	<path fill="#c0c0c0" d="M28.3 26.5q90.85 -27 181.7 0t181.7 0v275q-90.85 27 -181.7 0t-181.7 0z"/>
	<path fill="#da291c" d="M38.3 36.5q54.825 -17.24257 109.65 -12.46245l50 50v155l-50 50q-54.825 -4.78012 -109.65 12.46245z"/>
	<path fill="#007a33" d="M147.95 24.03755q11.9 1.03754 23.8 3.11263l50 50v155l-50 50q-11.9 -2.07509 -23.8 -3.11263z"/>
	<path fill="#ffcd00" d="M171.75 27.15018q11.9 2.07509 23.8 5.18773l50 50v155l-50 50q-11.9 -3.11264 -23.8 -5.18773z"/>
	<path fill="#0033a0" d="M195.55 32.33791q7.225 1.88981 14.45 4.16209q85.85 27 171.7 0v255q-85.85 27 -171.7 0q-7.225 -2.27228 -14.45 -4.16209z"/>
	<g transform="matrix(1 0.14822 0 1 171.75 154.65018) scale(0.85)">
		<path fill="#da291c" d="M0 -96a96 96 0 1 1 0 192l-8 -8l8 -8a80 80 0 1 0 0 -160l-8 -8l8 -8z"/>
		<path fill="#0033a0" d="M0 96a96 96 0 0 1 0 -192v16a80 80 0 0 0 0 160v16z"/>
	</g>
</svg>
