<?xml version="1.0" encoding="UTF-8"?>
<svg version="1.1" xmlns="http://www.w3.org/2000/svg" viewBox="-10 -10 440 348">
	<title xml:lang="pt">Bandeira de São Tomé e Príncipe</title>
	<metadata>
		<rdf:RDF xmlns:rdf="http://www.w3.org/1999/02/22-rdf-syntax-ns#" xmlns:dc="http://purl.org/dc/elements/1.1/" xmlns:cc="http://creativecommons.org/ns#">
			<cc:Work rdf:about="">
				<dc:title xml:lang="pt">Bandeira de São Tomé e Príncipe</dc:title>
				<dc:format>image/svg+xml</dc:format>
				<dc:type rdf:resource="http://purl.org/dc/dcmitype/StillImage" />
				<dc:creator>
					<cc:Agent>
						<dc:title>Frank Bruder</dc:title>
					</cc:Agent>
				</dc:creator>
				<cc:license rdf:resource="http://creativecommons.org/publicdomain/zero/1.0/"/>
				<cc:attributionName>Frank Bruder</cc:attributionName>
				<cc:attributionURL rdf:resource="http://frabru.de/"/>
			</cc:Work>
		</rdf:RDF>
	</metadata>
	<path fill="#c0c0c0" d="M-10 49q110 -27 220 0t220 0v230q-110 27 -220 0t-220 0z"/>
	<path fill="#0d0" d="M0  59q105 -27 210 0t210 0v60l-105 30h-210l-55 -30z"/>
	<path fill="#fe0" d="M52.5 108.875q78.75 -10.125 157.5 10.125q105 27 210 0v90l-105 30h-210l-55 -30z"/>
	<path fill="#0d0" d="M52.5 198.875q78.75 -10.125 157.5 10.125q105 27 210 0v60q-105 27 -210 0t-210 0z"/>
	<path fill="#e00" d="M0 59q52.5 39 105 91.5q-52.5 52.5 -105 118.5z"/>
	<path fill="#000" transform="matrix(1 0.257 0 1 210 164)" d="M0 -30L6.73542 -9.27051L28.5317 -9.27051L10.89814 3.54102L17.63356 24.27051L0 11.45898L-17.63356 24.27051L-10.89814 3.54102L-28.5317 -9.27051L-6.73542 -9.27051z"/>
	<path fill="#000" transform="translate(315 177.5)" d="M0 -30L6.73542 -9.27051L28.5317 -9.27051L10.89814 3.54102L17.63356 24.27051L0 11.45898L-17.63356 24.27051L-10.89814 3.54102L-28.5317 -9.27051L-6.73542 -9.27051z"/>
</svg>
