<?xml version="1.0" encoding="UTF-8"?>
<svg version="1.1" xmlns="http://www.w3.org/2000/svg" viewBox="-10 -10 440 348">
	<title xml:lang="fr">Drapeau du Togo</title>
	<metadata>
		<rdf:RDF xmlns:rdf="http://www.w3.org/1999/02/22-rdf-syntax-ns#" xmlns:dc="http://purl.org/dc/elements/1.1/" xmlns:cc="http://creativecommons.org/ns#">
			<cc:Work rdf:about="">
				<dc:title xml:lang="fr">Drapeau du Togo</dc:title>
				<dc:format>image/svg+xml</dc:format>
				<dc:type rdf:resource="http://purl.org/dc/dcmitype/StillImage" />
				<dc:creator>
					<cc:Agent>
						<dc:title>Frank Bruder</dc:title>
					</cc:Agent>
				</dc:creator>
				<cc:license rdf:resource="http://creativecommons.org/publicdomain/zero/1.0/"/>
				<cc:attributionName>Frank Bruder</cc:attributionName>
				<cc:attributionURL rdf:resource="http://frabru.de/"/>
			</cc:Work>
		</rdf:RDF>
	</metadata>
	<path fill="#c0c0c0" d="M11.5 37.5q99.25 -27 198.5 0t198.5 0v253.0q-99.25 27 -198.5 0t-198.5 0z"/>
	<path fill="#093" d="M161.3 37.15317q24.35 3.37123 48.7 10.34683q94.25 27 188.5 0v46.6l-20 20h-217.2l-20 -20z"/>
	<path fill="#fe0" d="M161.3 83.75317q24.35 3.37123 48.7 10.34683q94.25 27 188.5 0v46.6l-20 20h-217.2l-20 -20z"/>
	<path fill="#093" d="M161.3 130.35317q24.35 3.37123 48.7 10.34683q94.25 27 188.5 0v46.6l-20 20h-217.2l-20 -20z"/>
	<path fill="#fe0" d="M21.5 187.3l30 -30.34683h89.8l20 20
	q24.35 3.37123 48.7 10.34683q94.25 27 188.5 0v46.6l-20 20h-337l-20 -20z"/>
	<path fill="#093" d="M21.5 233.9q94.25 -27 188.5 0t188.5 0v46.6q-94.25 27 -188.5 0t-188.5 0z"/>
	<path fill="#c00" d="M 21.5 47.5q69.9 -20.0244 139.8 -10.34683v139.8q-69.9 -9.67758 -139.8 10.34683z"/>
	<path fill="#fff" transform="matrix(1 -0.074 0 1 91.4 104.80109)" d="M0 -43.2L9.699 -13.34953L41.08564 -13.34953L15.69332 5.09907L25.39232 34.94953L0 16.50093L-25.39232 34.94953L-15.69332 5.09907L-41.08564 -13.34953L-9.699 -13.34953z"/>
</svg>
