<?xml version="1.0" encoding="UTF-8"?>
<svg version="1.1" xmlns="http://www.w3.org/2000/svg" viewBox="-10 -10 440 348">
	<title xml:lang="th">ธงชาติไทย</title>
	<metadata>
		<rdf:RDF xmlns:rdf="http://www.w3.org/1999/02/22-rdf-syntax-ns#" xmlns:dc="http://purl.org/dc/terms/" xmlns:voc="http://www.w3.org/1999/xhtml/vocab#" xmlns:cc="http://web.resource.org/cc/">
			<cc:Work rdf:about="">
				<dc:title xml:lang="th">ธงชาติไทย</dc:title>
				<dc:format>image/svg+xml</dc:format>
				<dc:type rdf:resource="http://purl.org/dc/dcmitype/StillImage" />
				<dc:creator>
					<dc:Agent rdf:about="http://purl.org/net/2008,frankbruder/id">
						<dc:title>Frank Bruder</dc:title>
					</dc:Agent>
				</dc:creator>
				<voc:license rdf:resource="http://creativecommons.org/publicdomain/zero/1.0/"/>
				<voc:license rdf:resource="http://web.resource.org/cc/PublicDomain" />
			</cc:Work>
		</rdf:RDF>
	</metadata>
	<path fill="#c0c0c0" d="M20 34q95 -27 190 0t190 0v260q-95 27 -190 0t-190 0z"/>
	<path fill="#b3303a" d="M30  44q90 -27 180 0t180 0v40l-90 40h-180l-90 -40z"/>
	<path fill="#ffffff" d="M30  84q90 -27 180 0t180 0v40l-90 40h-180l-90 -40z"/>
	<path fill="#2c2f4c" d="M30 124q90 -27 180 0t180 0v80l-90 40h-180l-90 -40z"/>
	<path fill="#ffffff" d="M30 204q90 -27 180 0t180 0v40l-90 40l-270 -40z"/>
	<path fill="#b3303a" d="M30 244q90 -27 180 0t180 0v40q-90 27 -180 0t-180 0z"/>
</svg>
