<?xml version="1.0" encoding="UTF-8"?>
<svg version="1.1" xmlns="http://www.w3.org/2000/svg" viewBox="-10 -10 440 348">
	<title xml:lang="en">Lesbian flag</title>
	<metadata>
		<rdf:RDF xmlns:rdf="http://www.w3.org/1999/02/22-rdf-syntax-ns#" xmlns:dc="http://purl.org/dc/elements/1.1/" xmlns:cc="http://creativecommons.org/ns#">
			<cc:Work rdf:about="">
				<dc:title xml:lang="en">Lesbian flag</dc:title>
				<dc:format>image/svg+xml</dc:format>
				<dc:type rdf:resource="http://purl.org/dc/dcmitype/StillImage" />
				<dc:creator>
					<cc:Agent>
						<dc:title>Frank Bruder</dc:title>
					</cc:Agent>
				</dc:creator>
				<cc:license rdf:resource="http://creativecommons.org/publicdomain/zero/1.0/"/>
				<cc:attributionName>Frank Bruder</cc:attributionName>
				<cc:attributionURL rdf:resource="http://frabru.de/"/>
			</cc:Work>
		</rdf:RDF>
	</metadata>
	<path fill="#c0c0c0" d="M20 34q95 -27 190 0t190 0v260q-95 27 -190 0t-190 0z"/>
	<path fill="#c30" d="M30  44q90 -27 180 0t180 0v34.2857l-90 30l-180 -30h-90z"/>
	<path fill="#f60" d="M30  78.2857q90 -27 180 0t180 0v34.2857l-90 30l-180 -30h-90z"/>
	<path fill="#fc9" d="M30 112.5714q90 -27 180 0t180 0v34.2857l-90 30l-180 -30h-90z"/>
	<path fill="#fff" d="M30 146.8571q90 -27 180 0t180 0v34.2858l-90 30l-180 -30h-90z"/>
	<path fill="#f9c" d="M30 181.1429q90 -27 180 0t180 0v34.2857l-90 30l-180 -30h-90z"/>
	<path fill="#f39" d="M30 215.4286q90 -27 180 0t180 0v34.2857l-90 30l-180 -30h-90z"/>
	<path fill="#c06" d="M30 249.7143q90 -27 180 0t180 0v34.2857q-90 27 -180 0t-180 0z"/>
</svg>
