<?xml version="1.0" encoding="UTF-8"?>
<svg version="1.1" xmlns="http://www.w3.org/2000/svg" viewBox="-10 -10 440 348">
	<title xml:lang="ug">شەرقىي تۈركىستان دۆلەت بايرىقى</title>
	<metadata>
		<rdf:RDF xmlns:rdf="http://www.w3.org/1999/02/22-rdf-syntax-ns#" xmlns:dc="http://purl.org/dc/elements/1.1/" xmlns:cc="http://creativecommons.org/ns#">
			<cc:Work rdf:about="">
				<dc:title xml:lang="ug">شەرقىي تۈركىستان دۆلەت بايرىقى</dc:title>
				<dc:format>image/svg+xml</dc:format>
				<dc:type rdf:resource="http://purl.org/dc/dcmitype/StillImage" />
				<dc:creator>
					<cc:Agent>
						<dc:title>Frank Bruder</dc:title>
					</cc:Agent>
				</dc:creator>
				<cc:license rdf:resource="http://creativecommons.org/publicdomain/zero/1.0/"/>
				<cc:attributionName>Frank Bruder</cc:attributionName>
				<cc:attributionURL rdf:resource="http://frabru.de/"/>
			</cc:Work>
		</rdf:RDF>
	</metadata>
	<path fill="#c0c0c0" d="M20 34q95 -27 190 0t190 0v260q-95 27 -190 0t-190 0z"/>
	<path fill="#009cde" d="M30 44q90 -27 180 0t180 0v240q-90 27 -180 0t-180 0z"/>
	<path transform="translate(173.5 151.27) matrix(1 0.03917 0 1 0 0)" fill="#fff" d="M27.2 32.085978a60 60 0 1 1 0 -64.171956a48 48 0 1 0 0 64.171956zM23.5 0l20.72949 -6.73542v-21.79628l12.81153 17.63356l20.72949 -6.73542l-12.81153 17.63356l12.81153 17.63356l-20.72949 -6.73542l-12.81153 17.63356v-21.79628z"/>
</svg>
