<?xml version="1.0" encoding="UTF-8"?>
<svg version="1.1" xmlns="http://www.w3.org/2000/svg" viewBox="-10 -10 440 292">
	<title xml:lang="de">Frankenfahne</title>
	<metadata>
		<rdf:RDF xmlns:rdf="http://www.w3.org/1999/02/22-rdf-syntax-ns#" xmlns:dc="http://purl.org/dc/terms/" xmlns:voc="http://www.w3.org/1999/xhtml/vocab#" xmlns:cc="http://web.resource.org/cc/">
			<cc:Work rdf:about="">
				<dc:title xml:lang="de">Frankenfahne</dc:title>
				<dc:format>image/svg+xml</dc:format>
				<dc:type rdf:resource="http://purl.org/dc/dcmitype/StillImage" />
				<dc:creator>
					<dc:Agent rdf:about="http://purl.org/net/2008,frankbruder/id">
						<dc:title>Frank Bruder</dc:title>
					</dc:Agent>
				</dc:creator>
				<voc:license rdf:resource="http://creativecommons.org/publicdomain/zero/1.0/"/>
				<voc:license rdf:resource="http://web.resource.org/cc/PublicDomain" />
			</cc:Work>
		</rdf:RDF>
	</metadata>
	<path fill="#c0c0c0" d="M12.5 13.5q98.75 -27 197.5 0t197.5 0v245q-98.75 27 -197.5 0t-197.5 0z"/>
	<path fill="#e3000f" d="M22.5 23.5q93.75 -27 187.5 0t187.5 0v112.5l-93.75 50h-187.5l-93.75 -50z"/>
	<path fill="#fff"    d="M22.5 136q93.75 -27 187.5 0t187.5 0v112.5q-93.75 27 -187.5 0t-187.5 0z"/>
	<g transform="translate(210 136) scale(20) matrix(1 0.19 0 1 0 0)">
		<path fill="#000" d="M-3.2 0.5v-4.2h6.4v4.2a3.2 3.2 0 1 1 -6.4 0z"/>
		<path fill="#e3000f" d="M-3 0.5v-4h6v4l-3 2l-3 -2z"/>
		<path fill="#fff" d="M-3 0.5l1 -2l1 2l1 -2l1 2l1 -2l1 2a3 3 0 1 1 -6 0z"/>
	</g>
</svg>
