<?xml version="1.0" encoding="UTF-8"?>
<svg viewBox="-10 0 170 160" xmlns="http://www.w3.org/2000/svg" xmlns:xlink="http://www.w3.org/1999/xlink">
<title>Miscellaneous Symbols and Arrows</title>
<style type="text/css"><![CDATA[
a:hover rect {
	fill: #4455ff;
}
.sub_items {
	visibility: hidden;
}
.main_item:hover .sub_items {
	visibility: visible;
}
]]></style>
<g transform="translate(0 0)" class="main_item">
	<g transform="translate(0 50)">
		<a xlink:href="U+2B05-VS16_leftwards_black_arrow.svg" xlink:title="Leftwards black arrow">
			<rect x="0" y="0" width="10" height="10" rx="2" ry="2" fill="none"/>
			<image xlink:href="U+2B05-VS16_leftwards_black_arrow.svg" x="0" y="0" width="10" height="10"/>
		</a>
	</g>
</g>
<g transform="translate(0 0)" class="main_item">
	<g transform="translate(0 60)">
		<a xlink:href="U+2B06-VS16_upwards_black_arrow.svg" xlink:title="Upwards black arrow">
			<rect x="0" y="0" width="10" height="10" rx="2" ry="2" fill="none"/>
			<image xlink:href="U+2B06-VS16_upwards_black_arrow.svg" x="0" y="0" width="10" height="10"/>
		</a>
	</g>
</g>
<g transform="translate(0 0)" class="main_item">
	<g transform="translate(0 70)">
		<a xlink:href="U+2B07-VS16_downwards_black_arrow.svg" xlink:title="Downwards black arrow">
			<rect x="0" y="0" width="10" height="10" rx="2" ry="2" fill="none"/>
			<image xlink:href="U+2B07-VS16_downwards_black_arrow.svg" x="0" y="0" width="10" height="10"/>
		</a>
	</g>
</g>
<g transform="translate(10 0)" class="main_item">
	<g transform="translate(0 110)">
		<a xlink:href="U+2B1B_black_large_square.svg" xlink:title="Black large square">
			<rect x="0" y="0" width="10" height="10" rx="2" ry="2" fill="none"/>
			<image xlink:href="U+2B1B_black_large_square.svg" x="0" y="0" width="10" height="10"/>
		</a>
	</g>
</g>
<g transform="translate(10 0)" class="main_item">
	<g transform="translate(0 120)">
		<a xlink:href="U+2B1C_white_large_square.svg" xlink:title="White large square">
			<rect x="0" y="0" width="10" height="10" rx="2" ry="2" fill="none"/>
			<image xlink:href="U+2B1C_white_large_square.svg" x="0" y="0" width="10" height="10"/>
		</a>
	</g>
</g>
<g transform="translate(50 0)" class="main_item">
	<g transform="translate(0 0)">
		<a xlink:href="U+2B50_white_medium_star.svg" xlink:title="White medium star">
			<rect x="0" y="0" width="10" height="10" rx="2" ry="2" fill="none"/>
			<image xlink:href="U+2B50_white_medium_star.svg" x="0" y="0" width="10" height="10"/>
		</a>
	</g>
</g>
<g transform="translate(50 0)" class="main_item">
	<g transform="translate(0 50)">
		<a xlink:href="U+2B55_heavy_large_circle.svg" xlink:title="Heavy large circle">
			<rect x="0" y="0" width="10" height="10" rx="2" ry="2" fill="none"/>
			<image xlink:href="U+2B55_heavy_large_circle.svg" x="0" y="0" width="10" height="10"/>
		</a>
	</g>
</g>
</svg>
