<?xml version="1.0" encoding="UTF-8"?>
<svg viewBox="-10 0 170 160" xmlns="http://www.w3.org/2000/svg" xmlns:xlink="http://www.w3.org/1999/xlink">
<title>Miscellaneous Symbols</title>
<style type="text/css"><![CDATA[
a:hover rect {
	fill: #4455ff;
}
.sub_items {
	visibility: hidden;
}
.main_item:hover .sub_items {
	visibility: visible;
}
]]></style>
<g transform="translate(0 0)" class="main_item">
	<g transform="translate(0 0)">
		<a xlink:href="U+2600-VS16_black_sun_with_rays.svg" xlink:title="Black sun with rays">
			<rect x="0" y="0" width="10" height="10" rx="2" ry="2" fill="none"/>
			<image xlink:href="U+2600-VS16_black_sun_with_rays.svg" x="0" y="0" width="10" height="10"/>
		</a>
	</g>
</g>
<g transform="translate(0 0)" class="main_item">
	<g transform="translate(0 10)">
		<a xlink:href="U+2601-VS16_cloud.svg" xlink:title="Cloud">
			<rect x="0" y="0" width="10" height="10" rx="2" ry="2" fill="none"/>
			<image xlink:href="U+2601-VS16_cloud.svg" x="0" y="0" width="10" height="10"/>
		</a>
	</g>
</g>
<g transform="translate(0 0)" class="main_item">
	<g transform="translate(0 20)">
		<path fill="#ccc" d="M1 0v4l-2 -2"/>
		<a xlink:href="U+2602-VS16_umbrella.svg" xlink:title="Umbrella">
			<rect x="0" y="0" width="10" height="10" rx="2" ry="2" fill="none"/>
			<image xlink:href="U+2602-VS16_umbrella.svg" x="0" y="0" width="10" height="10"/>
		</a>
	</g>
	<g transform="translate(-10 20)" class="sub_items">
		<rect fill="#fff" stroke="#ccc" stroke-width="1" x="-0.5" y="-0.5" width="11" height="11" rx="2.5" ry="2.5"/>
		<g transform="translate(0 0)">
			<a xlink:href="U+2602-VS16-ZWJ-U+1F7E5_red_umbrella.svg" xlink:title="Red umbrella">
				<rect x="0" y="0" width="10" height="10" rx="2" ry="2" fill="none"/>
				<image xlink:href="U+2602-VS16-ZWJ-U+1F7E5_red_umbrella.svg" x="0" y="0" width="10" height="10"/>
			</a>
		</g>
	</g>
</g>
<g transform="translate(0 0)" class="main_item">
	<g transform="translate(0 30)">
		<a xlink:href="U+2603-VS16_snowman.svg" xlink:title="Snowman">
			<rect x="0" y="0" width="10" height="10" rx="2" ry="2" fill="none"/>
			<image xlink:href="U+2603-VS16_snowman.svg" x="0" y="0" width="10" height="10"/>
		</a>
	</g>
</g>
<g transform="translate(0 0)" class="main_item">
	<g transform="translate(0 40)">
		<a xlink:href="U+2604-VS16_comet.svg" xlink:title="Comet">
			<rect x="0" y="0" width="10" height="10" rx="2" ry="2" fill="none"/>
			<image xlink:href="U+2604-VS16_comet.svg" x="0" y="0" width="10" height="10"/>
		</a>
	</g>
</g>
<g transform="translate(0 0)" class="main_item">
	<g transform="translate(0 140)">
		<a xlink:href="U+260E-VS16_black_telephone.svg" xlink:title="Black telephone">
			<rect x="0" y="0" width="10" height="10" rx="2" ry="2" fill="none"/>
			<image xlink:href="U+260E-VS16_black_telephone.svg" x="0" y="0" width="10" height="10"/>
		</a>
	</g>
</g>
<g transform="translate(10 0)" class="main_item">
	<g transform="translate(0 10)">
		<a xlink:href="U+2611-VS16_ballot_box_with_check.svg" xlink:title="Ballot box with check">
			<rect x="0" y="0" width="10" height="10" rx="2" ry="2" fill="none"/>
			<image xlink:href="U+2611-VS16_ballot_box_with_check.svg" x="0" y="0" width="10" height="10"/>
		</a>
	</g>
</g>
<g transform="translate(10 0)" class="main_item">
	<g transform="translate(0 40)">
		<a xlink:href="U+2614_umbrella_with_rain_drops.svg" xlink:title="Umbrella with rain drops">
			<rect x="0" y="0" width="10" height="10" rx="2" ry="2" fill="none"/>
			<image xlink:href="U+2614_umbrella_with_rain_drops.svg" x="0" y="0" width="10" height="10"/>
		</a>
	</g>
</g>
<g transform="translate(10 0)" class="main_item">
	<g transform="translate(0 50)">
		<a xlink:href="U+2615_hot_beverage.svg" xlink:title="Hot beverage">
			<rect x="0" y="0" width="10" height="10" rx="2" ry="2" fill="none"/>
			<image xlink:href="U+2615_hot_beverage.svg" x="0" y="0" width="10" height="10"/>
		</a>
	</g>
</g>
<g transform="translate(10 0)" class="main_item">
	<g transform="translate(0 80)">
		<a xlink:href="U+2618-VS16_shamrock.svg" xlink:title="Shamrock">
			<rect x="0" y="0" width="10" height="10" rx="2" ry="2" fill="none"/>
			<image xlink:href="U+2618-VS16_shamrock.svg" x="0" y="0" width="10" height="10"/>
		</a>
	</g>
</g>
<g transform="translate(10 0)" class="main_item">
	<g transform="translate(0 130)">
		<path fill="#ccc" d="M1 0v4l-2 -2"/>
		<a xlink:href="U+261D-VS16_white_up_pointing_index.svg" xlink:title="White up pointing index">
			<rect x="0" y="0" width="10" height="10" rx="2" ry="2" fill="none"/>
			<image xlink:href="U+261D-VS16_white_up_pointing_index.svg" x="0" y="0" width="10" height="10"/>
		</a>
	</g>
	<g transform="translate(-10 110)" class="sub_items">
		<rect fill="#fff" stroke="#ccc" stroke-width="1" x="-0.5" y="-0.5" width="11" height="51" rx="2.5" ry="2.5"/>
		<g transform="translate(0 0)">
			<a xlink:href="U+261D-U+1F3FB_white_up_pointing_index_light_skin_tone.svg" xlink:title="White up pointing index, light skin tone">
				<rect x="0" y="0" width="10" height="10" rx="2" ry="2" fill="none"/>
				<image xlink:href="U+261D-U+1F3FB_white_up_pointing_index_light_skin_tone.svg" x="0" y="0" width="10" height="10"/>
			</a>
		</g>
		<g transform="translate(0 10)">
			<a xlink:href="U+261D-U+1F3FC_white_up_pointing_index_medium-light_skin_tone.svg" xlink:title="White up pointing index, medium-light skin tone">
				<rect x="0" y="0" width="10" height="10" rx="2" ry="2" fill="none"/>
				<image xlink:href="U+261D-U+1F3FC_white_up_pointing_index_medium-light_skin_tone.svg" x="0" y="0" width="10" height="10"/>
			</a>
		</g>
		<g transform="translate(0 20)">
			<a xlink:href="U+261D-U+1F3FD_white_up_pointing_index_medium_skin_tone.svg" xlink:title="White up pointing index, medium skin tone">
				<rect x="0" y="0" width="10" height="10" rx="2" ry="2" fill="none"/>
				<image xlink:href="U+261D-U+1F3FD_white_up_pointing_index_medium_skin_tone.svg" x="0" y="0" width="10" height="10"/>
			</a>
		</g>
		<g transform="translate(0 30)">
			<a xlink:href="U+261D-U+1F3FE_white_up_pointing_index_medium-dark_skin_tone.svg" xlink:title="White up pointing index, medium-dark skin tone">
				<rect x="0" y="0" width="10" height="10" rx="2" ry="2" fill="none"/>
				<image xlink:href="U+261D-U+1F3FE_white_up_pointing_index_medium-dark_skin_tone.svg" x="0" y="0" width="10" height="10"/>
			</a>
		</g>
		<g transform="translate(0 40)">
			<a xlink:href="U+261D-U+1F3FF_white_up_pointing_index_dark_skin_tone.svg" xlink:title="White up pointing index, dark skin tone">
				<rect x="0" y="0" width="10" height="10" rx="2" ry="2" fill="none"/>
				<image xlink:href="U+261D-U+1F3FF_white_up_pointing_index_dark_skin_tone.svg" x="0" y="0" width="10" height="10"/>
			</a>
		</g>
	</g>
</g>
<g transform="translate(20 0)" class="main_item">
	<g transform="translate(0 0)">
		<a xlink:href="U+2620-VS16_skull_and_crossbones.svg" xlink:title="Skull and crossbones">
			<rect x="0" y="0" width="10" height="10" rx="2" ry="2" fill="none"/>
			<image xlink:href="U+2620-VS16_skull_and_crossbones.svg" x="0" y="0" width="10" height="10"/>
		</a>
	</g>
</g>
<g transform="translate(20 0)" class="main_item">
	<g transform="translate(0 20)">
		<a xlink:href="U+2622-VS16_radioactive_sign.svg" xlink:title="Radioactive sign">
			<rect x="0" y="0" width="10" height="10" rx="2" ry="2" fill="none"/>
			<image xlink:href="U+2622-VS16_radioactive_sign.svg" x="0" y="0" width="10" height="10"/>
		</a>
	</g>
</g>
<g transform="translate(20 0)" class="main_item">
	<g transform="translate(0 30)">
		<a xlink:href="U+2623-VS16_biohazard_sign.svg" xlink:title="Biohazard sign">
			<rect x="0" y="0" width="10" height="10" rx="2" ry="2" fill="none"/>
			<image xlink:href="U+2623-VS16_biohazard_sign.svg" x="0" y="0" width="10" height="10"/>
		</a>
	</g>
</g>
<g transform="translate(20 0)" class="main_item">
	<g transform="translate(0 50)">
		<a xlink:href="U+2625-VS16_ankh.svg" xlink:title="Ankh">
			<rect x="0" y="0" width="10" height="10" rx="2" ry="2" fill="none"/>
			<image xlink:href="U+2625-VS16_ankh.svg" x="0" y="0" width="10" height="10"/>
		</a>
	</g>
</g>
<g transform="translate(20 0)" class="main_item">
	<g transform="translate(0 60)">
		<a xlink:href="U+2626-VS16_orthodox_cross.svg" xlink:title="Orthodox cross">
			<rect x="0" y="0" width="10" height="10" rx="2" ry="2" fill="none"/>
			<image xlink:href="U+2626-VS16_orthodox_cross.svg" x="0" y="0" width="10" height="10"/>
		</a>
	</g>
</g>
<g transform="translate(20 0)" class="main_item">
	<g transform="translate(0 100)">
		<a xlink:href="U+262A-VS16_star_and_crescent.svg" xlink:title="Star and crescent">
			<rect x="0" y="0" width="10" height="10" rx="2" ry="2" fill="none"/>
			<image xlink:href="U+262A-VS16_star_and_crescent.svg" x="0" y="0" width="10" height="10"/>
		</a>
	</g>
</g>
<g transform="translate(20 0)" class="main_item">
	<g transform="translate(0 140)">
		<a xlink:href="U+262E-VS16_peace_symbol.svg" xlink:title="Peace symbol">
			<rect x="0" y="0" width="10" height="10" rx="2" ry="2" fill="none"/>
			<image xlink:href="U+262E-VS16_peace_symbol.svg" x="0" y="0" width="10" height="10"/>
		</a>
	</g>
</g>
<g transform="translate(20 0)" class="main_item">
	<g transform="translate(0 150)">
		<a xlink:href="U+262F-VS16_yin_yang.svg" xlink:title="Yin yang">
			<rect x="0" y="0" width="10" height="10" rx="2" ry="2" fill="none"/>
			<image xlink:href="U+262F-VS16_yin_yang.svg" x="0" y="0" width="10" height="10"/>
		</a>
	</g>
</g>
<g transform="translate(30 0)" class="main_item">
	<g transform="translate(0 80)">
		<a xlink:href="U+2638-VS16_wheel_of_dharma.svg" xlink:title="Wheel of dharma">
			<rect x="0" y="0" width="10" height="10" rx="2" ry="2" fill="none"/>
			<image xlink:href="U+2638-VS16_wheel_of_dharma.svg" x="0" y="0" width="10" height="10"/>
		</a>
	</g>
</g>
<g transform="translate(30 0)" class="main_item">
	<g transform="translate(0 90)">
		<path fill="#ccc" d="M1 0v4l-2 -2"/>
		<a xlink:href="U+2639-VS16_white_frowning_face.svg" xlink:title="White frowning face">
			<rect x="0" y="0" width="10" height="10" rx="2" ry="2" fill="none"/>
			<image xlink:href="U+2639-VS16_white_frowning_face.svg" x="0" y="0" width="10" height="10"/>
		</a>
	</g>
	<g transform="translate(-10 90)" class="sub_items">
		<rect fill="#fff" stroke="#ccc" stroke-width="1" x="-0.5" y="-0.5" width="11" height="11" rx="2.5" ry="2.5"/>
		<g transform="translate(0 0)">
			<a xlink:href="U+2639-VS16-ZWJ-U+1F44E_frowning_face_giving_thumbs_down.svg" xlink:title="Frowning face giving thumbs down">
				<rect x="0" y="0" width="10" height="10" rx="2" ry="2" fill="none"/>
				<image xlink:href="U+2639-VS16-ZWJ-U+1F44E_frowning_face_giving_thumbs_down.svg" x="0" y="0" width="10" height="10"/>
			</a>
		</g>
	</g>
</g>
<g transform="translate(30 0)" class="main_item">
	<g transform="translate(0 100)">
		<path fill="#ccc" d="M1 0v4l-2 -2"/>
		<a xlink:href="U+263A-VS16_white_smiling_face.svg" xlink:title="White smiling face">
			<rect x="0" y="0" width="10" height="10" rx="2" ry="2" fill="none"/>
			<image xlink:href="U+263A-VS16_white_smiling_face.svg" x="0" y="0" width="10" height="10"/>
		</a>
	</g>
	<g transform="translate(-10 100)" class="sub_items">
		<rect fill="#fff" stroke="#ccc" stroke-width="1" x="-0.5" y="-0.5" width="11" height="11" rx="2.5" ry="2.5"/>
		<g transform="translate(0 0)">
			<a xlink:href="U+263A-VS16-ZWJ-U+1F44D_smiling_face_giving_thumbs_up.svg" xlink:title="Thumbs up smiley">
				<rect x="0" y="0" width="10" height="10" rx="2" ry="2" fill="none"/>
				<image xlink:href="U+263A-VS16-ZWJ-U+1F44D_smiling_face_giving_thumbs_up.svg" x="0" y="0" width="10" height="10"/>
			</a>
		</g>
	</g>
</g>
<g transform="translate(40 0)" class="main_item">
	<g transform="translate(0 0)">
		<a xlink:href="U+2640-VS16_female_sign.svg" xlink:title="Female sign">
			<rect x="0" y="0" width="10" height="10" rx="2" ry="2" fill="none"/>
			<image xlink:href="U+2640-VS16_female_sign.svg" x="0" y="0" width="10" height="10"/>
		</a>
	</g>
</g>
<g transform="translate(40 0)" class="main_item">
	<g transform="translate(0 20)">
		<a xlink:href="U+2642-VS16_male_sign.svg" xlink:title="Male sign">
			<rect x="0" y="0" width="10" height="10" rx="2" ry="2" fill="none"/>
			<image xlink:href="U+2642-VS16_male_sign.svg" x="0" y="0" width="10" height="10"/>
		</a>
	</g>
</g>
<g transform="translate(40 0)" class="main_item">
	<g transform="translate(0 80)">
		<a xlink:href="U+2648_aries.svg" xlink:title="Aries">
			<rect x="0" y="0" width="10" height="10" rx="2" ry="2" fill="none"/>
			<image xlink:href="U+2648_aries.svg" x="0" y="0" width="10" height="10"/>
		</a>
	</g>
</g>
<g transform="translate(40 0)" class="main_item">
	<g transform="translate(0 90)">
		<a xlink:href="U+2649_taurus.svg" xlink:title="Taurus">
			<rect x="0" y="0" width="10" height="10" rx="2" ry="2" fill="none"/>
			<image xlink:href="U+2649_taurus.svg" x="0" y="0" width="10" height="10"/>
		</a>
	</g>
</g>
<g transform="translate(40 0)" class="main_item">
	<g transform="translate(0 100)">
		<a xlink:href="U+264A_gemini.svg" xlink:title="Gemini">
			<rect x="0" y="0" width="10" height="10" rx="2" ry="2" fill="none"/>
			<image xlink:href="U+264A_gemini.svg" x="0" y="0" width="10" height="10"/>
		</a>
	</g>
</g>
<g transform="translate(40 0)" class="main_item">
	<g transform="translate(0 110)">
		<a xlink:href="U+264B_cancer.svg" xlink:title="Cancer">
			<rect x="0" y="0" width="10" height="10" rx="2" ry="2" fill="none"/>
			<image xlink:href="U+264B_cancer.svg" x="0" y="0" width="10" height="10"/>
		</a>
	</g>
</g>
<g transform="translate(40 0)" class="main_item">
	<g transform="translate(0 120)">
		<a xlink:href="U+264C_leo.svg" xlink:title="Leo">
			<rect x="0" y="0" width="10" height="10" rx="2" ry="2" fill="none"/>
			<image xlink:href="U+264C_leo.svg" x="0" y="0" width="10" height="10"/>
		</a>
	</g>
</g>
<g transform="translate(40 0)" class="main_item">
	<g transform="translate(0 130)">
		<a xlink:href="U+264D_virgo.svg" xlink:title="Virgo">
			<rect x="0" y="0" width="10" height="10" rx="2" ry="2" fill="none"/>
			<image xlink:href="U+264D_virgo.svg" x="0" y="0" width="10" height="10"/>
		</a>
	</g>
</g>
<g transform="translate(40 0)" class="main_item">
	<g transform="translate(0 140)">
		<a xlink:href="U+264E_libra.svg" xlink:title="Libra">
			<rect x="0" y="0" width="10" height="10" rx="2" ry="2" fill="none"/>
			<image xlink:href="U+264E_libra.svg" x="0" y="0" width="10" height="10"/>
		</a>
	</g>
</g>
<g transform="translate(40 0)" class="main_item">
	<g transform="translate(0 150)">
		<a xlink:href="U+264F_scorpius.svg" xlink:title="Scorpius">
			<rect x="0" y="0" width="10" height="10" rx="2" ry="2" fill="none"/>
			<image xlink:href="U+264F_scorpius.svg" x="0" y="0" width="10" height="10"/>
		</a>
	</g>
</g>
<g transform="translate(50 0)" class="main_item">
	<g transform="translate(0 0)">
		<a xlink:href="U+2650_sagittarius.svg" xlink:title="Sagittarius">
			<rect x="0" y="0" width="10" height="10" rx="2" ry="2" fill="none"/>
			<image xlink:href="U+2650_sagittarius.svg" x="0" y="0" width="10" height="10"/>
		</a>
	</g>
</g>
<g transform="translate(50 0)" class="main_item">
	<g transform="translate(0 10)">
		<a xlink:href="U+2651_capricorn.svg" xlink:title="Capricorn">
			<rect x="0" y="0" width="10" height="10" rx="2" ry="2" fill="none"/>
			<image xlink:href="U+2651_capricorn.svg" x="0" y="0" width="10" height="10"/>
		</a>
	</g>
</g>
<g transform="translate(50 0)" class="main_item">
	<g transform="translate(0 20)">
		<a xlink:href="U+2652_aquarius.svg" xlink:title="Aquarius">
			<rect x="0" y="0" width="10" height="10" rx="2" ry="2" fill="none"/>
			<image xlink:href="U+2652_aquarius.svg" x="0" y="0" width="10" height="10"/>
		</a>
	</g>
</g>
<g transform="translate(50 0)" class="main_item">
	<g transform="translate(0 30)">
		<a xlink:href="U+2653_pisces.svg" xlink:title="Pisces">
			<rect x="0" y="0" width="10" height="10" rx="2" ry="2" fill="none"/>
			<image xlink:href="U+2653_pisces.svg" x="0" y="0" width="10" height="10"/>
		</a>
	</g>
</g>
<g transform="translate(50 0)" class="main_item">
	<g transform="translate(0 150)">
		<a xlink:href="U+265F-VS16_black_chess_pawn.svg" xlink:title="Black chess pawn">
			<rect x="0" y="0" width="10" height="10" rx="2" ry="2" fill="none"/>
			<image xlink:href="U+265F-VS16_black_chess_pawn.svg" x="0" y="0" width="10" height="10"/>
		</a>
	</g>
</g>
<g transform="translate(60 0)" class="main_item">
	<g transform="translate(0 0)">
		<a xlink:href="U+2660-VS16_black_spade_suit.svg" xlink:title="Black spade suit">
			<rect x="0" y="0" width="10" height="10" rx="2" ry="2" fill="none"/>
			<image xlink:href="U+2660-VS16_black_spade_suit.svg" x="0" y="0" width="10" height="10"/>
		</a>
	</g>
</g>
<g transform="translate(60 0)" class="main_item">
	<g transform="translate(0 30)">
		<a xlink:href="U+2663-VS16_black_club_suit.svg" xlink:title="Black club suit">
			<rect x="0" y="0" width="10" height="10" rx="2" ry="2" fill="none"/>
			<image xlink:href="U+2663-VS16_black_club_suit.svg" x="0" y="0" width="10" height="10"/>
		</a>
	</g>
</g>
<g transform="translate(60 0)" class="main_item">
	<g transform="translate(0 50)">
		<a xlink:href="U+2665-VS16_black_heart_suit.svg" xlink:title="Black heart suit">
			<rect x="0" y="0" width="10" height="10" rx="2" ry="2" fill="none"/>
			<image xlink:href="U+2665-VS16_black_heart_suit.svg" x="0" y="0" width="10" height="10"/>
		</a>
	</g>
</g>
<g transform="translate(60 0)" class="main_item">
	<g transform="translate(0 60)">
		<a xlink:href="U+2666-VS16_black_diamond_suit.svg" xlink:title="Black diamond suit">
			<rect x="0" y="0" width="10" height="10" rx="2" ry="2" fill="none"/>
			<image xlink:href="U+2666-VS16_black_diamond_suit.svg" x="0" y="0" width="10" height="10"/>
		</a>
	</g>
</g>
<g transform="translate(60 0)" class="main_item">
	<g transform="translate(0 80)">
		<a xlink:href="U+2668-VS16_hot_springs.svg" xlink:title="Hot springs">
			<rect x="0" y="0" width="10" height="10" rx="2" ry="2" fill="none"/>
			<image xlink:href="U+2668-VS16_hot_springs.svg" x="0" y="0" width="10" height="10"/>
		</a>
	</g>
</g>
<g transform="translate(70 0)" class="main_item">
	<g transform="translate(0 110)">
		<a xlink:href="U+267B-VS16_black_universal_recycling_symbol.svg" xlink:title="Black universal recycling symbol">
			<rect x="0" y="0" width="10" height="10" rx="2" ry="2" fill="none"/>
			<image xlink:href="U+267B-VS16_black_universal_recycling_symbol.svg" x="0" y="0" width="10" height="10"/>
		</a>
	</g>
</g>
<g transform="translate(70 0)" class="main_item">
	<g transform="translate(0 140)">
		<a xlink:href="U+267E-VS16_permanent_paper_sign.svg" xlink:title="Permanent paper sign">
			<rect x="0" y="0" width="10" height="10" rx="2" ry="2" fill="none"/>
			<image xlink:href="U+267E-VS16_permanent_paper_sign.svg" x="0" y="0" width="10" height="10"/>
		</a>
	</g>
</g>
<g transform="translate(70 0)" class="main_item">
	<g transform="translate(0 150)">
		<a xlink:href="U+267F_wheelchair_symbol.svg" xlink:title="Wheelchair symbol">
			<rect x="0" y="0" width="10" height="10" rx="2" ry="2" fill="none"/>
			<image xlink:href="U+267F_wheelchair_symbol.svg" x="0" y="0" width="10" height="10"/>
		</a>
	</g>
</g>
<g transform="translate(90 0)" class="main_item">
	<g transform="translate(0 20)">
		<a xlink:href="U+2692-VS16_hammer_and_pick.svg" xlink:title="Hammer and pick">
			<rect x="0" y="0" width="10" height="10" rx="2" ry="2" fill="none"/>
			<image xlink:href="U+2692-VS16_hammer_and_pick.svg" x="0" y="0" width="10" height="10"/>
		</a>
	</g>
</g>
<g transform="translate(90 0)" class="main_item">
	<g transform="translate(0 30)">
		<a xlink:href="U+2693_anchor.svg" xlink:title="Anchor">
			<rect x="0" y="0" width="10" height="10" rx="2" ry="2" fill="none"/>
			<image xlink:href="U+2693_anchor.svg" x="0" y="0" width="10" height="10"/>
		</a>
	</g>
</g>
<g transform="translate(90 0)" class="main_item">
	<g transform="translate(0 40)">
		<a xlink:href="U+2694-VS16_crossed_swords.svg" xlink:title="Crossed swords">
			<rect x="0" y="0" width="10" height="10" rx="2" ry="2" fill="none"/>
			<image xlink:href="U+2694-VS16_crossed_swords.svg" x="0" y="0" width="10" height="10"/>
		</a>
	</g>
</g>
<g transform="translate(90 0)" class="main_item">
	<g transform="translate(0 50)">
		<a xlink:href="U+2695-VS16_staff_of_aesculapius.svg" xlink:title="Staff of AEsculapius">
			<rect x="0" y="0" width="10" height="10" rx="2" ry="2" fill="none"/>
			<image xlink:href="U+2695-VS16_staff_of_aesculapius.svg" x="0" y="0" width="10" height="10"/>
		</a>
	</g>
</g>
<g transform="translate(90 0)" class="main_item">
	<g transform="translate(0 60)">
		<a xlink:href="U+2696-VS16_scales.svg" xlink:title="Scales">
			<rect x="0" y="0" width="10" height="10" rx="2" ry="2" fill="none"/>
			<image xlink:href="U+2696-VS16_scales.svg" x="0" y="0" width="10" height="10"/>
		</a>
	</g>
</g>
<g transform="translate(90 0)" class="main_item">
	<g transform="translate(0 70)">
		<a xlink:href="U+2697-VS16_alembic.svg" xlink:title="Alembic">
			<rect x="0" y="0" width="10" height="10" rx="2" ry="2" fill="none"/>
			<image xlink:href="U+2697-VS16_alembic.svg" x="0" y="0" width="10" height="10"/>
		</a>
	</g>
</g>
<g transform="translate(90 0)" class="main_item">
	<g transform="translate(0 90)">
		<a xlink:href="U+2699-VS16_gear.svg" xlink:title="Gear">
			<rect x="0" y="0" width="10" height="10" rx="2" ry="2" fill="none"/>
			<image xlink:href="U+2699-VS16_gear.svg" x="0" y="0" width="10" height="10"/>
		</a>
	</g>
</g>
<g transform="translate(90 0)" class="main_item">
	<g transform="translate(0 110)">
		<a xlink:href="U+269B-VS16_atom_symbol.svg" xlink:title="Atom symbol">
			<rect x="0" y="0" width="10" height="10" rx="2" ry="2" fill="none"/>
			<image xlink:href="U+269B-VS16_atom_symbol.svg" x="0" y="0" width="10" height="10"/>
		</a>
	</g>
</g>
<g transform="translate(90 0)" class="main_item">
	<g transform="translate(0 120)">
		<a xlink:href="U+269C-VS16_fleur-de-lis.svg" xlink:title="Fleur-de-lis">
			<rect x="0" y="0" width="10" height="10" rx="2" ry="2" fill="none"/>
			<image xlink:href="U+269C-VS16_fleur-de-lis.svg" x="0" y="0" width="10" height="10"/>
		</a>
	</g>
</g>
<g transform="translate(100 0)" class="main_item">
	<g transform="translate(0 0)">
		<a xlink:href="U+26A0-VS16_warning_sign.svg" xlink:title="Warning sign">
			<rect x="0" y="0" width="10" height="10" rx="2" ry="2" fill="none"/>
			<image xlink:href="U+26A0-VS16_warning_sign.svg" x="0" y="0" width="10" height="10"/>
		</a>
	</g>
</g>
<g transform="translate(100 0)" class="main_item">
	<g transform="translate(0 10)">
		<a xlink:href="U+26A1_high_voltage_sign.svg" xlink:title="High voltage sign">
			<rect x="0" y="0" width="10" height="10" rx="2" ry="2" fill="none"/>
			<image xlink:href="U+26A1_high_voltage_sign.svg" x="0" y="0" width="10" height="10"/>
		</a>
	</g>
</g>
<g transform="translate(100 0)" class="main_item">
	<g transform="translate(0 70)">
		<a xlink:href="U+26A7-VS16_male_with_stroke_and_male_and_female_sign.svg" xlink:title="Male with stroke and male and female sign">
			<rect x="0" y="0" width="10" height="10" rx="2" ry="2" fill="none"/>
			<image xlink:href="U+26A7-VS16_male_with_stroke_and_male_and_female_sign.svg" x="0" y="0" width="10" height="10"/>
		</a>
	</g>
</g>
<g transform="translate(100 0)" class="main_item">
	<g transform="translate(0 100)">
		<a xlink:href="U+26AA_medium_white_circle.svg" xlink:title="Medium white circle">
			<rect x="0" y="0" width="10" height="10" rx="2" ry="2" fill="none"/>
			<image xlink:href="U+26AA_medium_white_circle.svg" x="0" y="0" width="10" height="10"/>
		</a>
	</g>
</g>
<g transform="translate(100 0)" class="main_item">
	<g transform="translate(0 110)">
		<a xlink:href="U+26AB_medium_black_circle.svg" xlink:title="Medium black circle">
			<rect x="0" y="0" width="10" height="10" rx="2" ry="2" fill="none"/>
			<image xlink:href="U+26AB_medium_black_circle.svg" x="0" y="0" width="10" height="10"/>
		</a>
	</g>
</g>
<g transform="translate(110 0)" class="main_item">
	<g transform="translate(0 0)">
		<a xlink:href="U+26B0-VS16_coffin.svg" xlink:title="Coffin">
			<rect x="0" y="0" width="10" height="10" rx="2" ry="2" fill="none"/>
			<image xlink:href="U+26B0-VS16_coffin.svg" x="0" y="0" width="10" height="10"/>
		</a>
	</g>
</g>
<g transform="translate(110 0)" class="main_item">
	<g transform="translate(0 10)">
		<a xlink:href="U+26B1-VS16_funeral_urn.svg" xlink:title="Funeral urn">
			<rect x="0" y="0" width="10" height="10" rx="2" ry="2" fill="none"/>
			<image xlink:href="U+26B1-VS16_funeral_urn.svg" x="0" y="0" width="10" height="10"/>
		</a>
	</g>
</g>
<g transform="translate(110 0)" class="main_item">
	<g transform="translate(0 130)">
		<a xlink:href="U+26BD_soccer_ball.svg" xlink:title="Soccer ball">
			<rect x="0" y="0" width="10" height="10" rx="2" ry="2" fill="none"/>
			<image xlink:href="U+26BD_soccer_ball.svg" x="0" y="0" width="10" height="10"/>
		</a>
	</g>
</g>
<g transform="translate(110 0)" class="main_item">
	<g transform="translate(0 140)">
		<a xlink:href="U+26BE_baseball.svg" xlink:title="Baseball">
			<rect x="0" y="0" width="10" height="10" rx="2" ry="2" fill="none"/>
			<image xlink:href="U+26BE_baseball.svg" x="0" y="0" width="10" height="10"/>
		</a>
	</g>
</g>
<g transform="translate(120 0)" class="main_item">
	<g transform="translate(0 40)">
		<a xlink:href="U+26C4_snowman_without_snow.svg" xlink:title="Snowman without snow">
			<rect x="0" y="0" width="10" height="10" rx="2" ry="2" fill="none"/>
			<image xlink:href="U+26C4_snowman_without_snow.svg" x="0" y="0" width="10" height="10"/>
		</a>
	</g>
</g>
<g transform="translate(120 0)" class="main_item">
	<g transform="translate(0 50)">
		<a xlink:href="U+26C5_sun_behind_cloud.svg" xlink:title="Sun behind cloud">
			<rect x="0" y="0" width="10" height="10" rx="2" ry="2" fill="none"/>
			<image xlink:href="U+26C5_sun_behind_cloud.svg" x="0" y="0" width="10" height="10"/>
		</a>
	</g>
</g>
<g transform="translate(120 0)" class="main_item">
	<g transform="translate(0 80)">
		<a xlink:href="U+26C8-VS16_thunder_cloud_and_rain.svg" xlink:title="Thunder cloud and rain">
			<rect x="0" y="0" width="10" height="10" rx="2" ry="2" fill="none"/>
			<image xlink:href="U+26C8-VS16_thunder_cloud_and_rain.svg" x="0" y="0" width="10" height="10"/>
		</a>
	</g>
</g>
<g transform="translate(120 0)" class="main_item">
	<g transform="translate(0 140)">
		<a xlink:href="U+26CE_ophiuchus.svg" xlink:title="Ophiuchus">
			<rect x="0" y="0" width="10" height="10" rx="2" ry="2" fill="none"/>
			<image xlink:href="U+26CE_ophiuchus.svg" x="0" y="0" width="10" height="10"/>
		</a>
	</g>
</g>
<g transform="translate(120 0)" class="main_item">
	<g transform="translate(0 150)">
		<a xlink:href="U+26CF-VS16_pick.svg" xlink:title="Pick">
			<rect x="0" y="0" width="10" height="10" rx="2" ry="2" fill="none"/>
			<image xlink:href="U+26CF-VS16_pick.svg" x="0" y="0" width="10" height="10"/>
		</a>
	</g>
</g>
<g transform="translate(130 0)" class="main_item">
	<g transform="translate(0 10)">
		<a xlink:href="U+26D1-VS16_helmet_with_white_cross.svg" xlink:title="Helmet with white cross">
			<rect x="0" y="0" width="10" height="10" rx="2" ry="2" fill="none"/>
			<image xlink:href="U+26D1-VS16_helmet_with_white_cross.svg" x="0" y="0" width="10" height="10"/>
		</a>
	</g>
</g>
<g transform="translate(130 0)" class="main_item">
	<g transform="translate(0 30)">
		<a xlink:href="U+26D3-VS16_chains.svg" xlink:title="Chains">
			<rect x="0" y="0" width="10" height="10" rx="2" ry="2" fill="none"/>
			<image xlink:href="U+26D3-VS16_chains.svg" x="0" y="0" width="10" height="10"/>
		</a>
	</g>
</g>
<g transform="translate(130 0)" class="main_item">
	<g transform="translate(0 40)">
		<a xlink:href="U+26D4_no_entry.svg" xlink:title="No entry">
			<rect x="0" y="0" width="10" height="10" rx="2" ry="2" fill="none"/>
			<image xlink:href="U+26D4_no_entry.svg" x="0" y="0" width="10" height="10"/>
		</a>
	</g>
</g>
<g transform="translate(140 0)" class="main_item">
	<g transform="translate(0 90)">
		<a xlink:href="U+26E9-VS16_shinto_shrine.svg" xlink:title="Shinto shrine">
			<rect x="0" y="0" width="10" height="10" rx="2" ry="2" fill="none"/>
			<image xlink:href="U+26E9-VS16_shinto_shrine.svg" x="0" y="0" width="10" height="10"/>
		</a>
	</g>
</g>
<g transform="translate(140 0)" class="main_item">
	<g transform="translate(0 100)">
		<a xlink:href="U+26EA_church.svg" xlink:title="Church">
			<rect x="0" y="0" width="10" height="10" rx="2" ry="2" fill="none"/>
			<image xlink:href="U+26EA_church.svg" x="0" y="0" width="10" height="10"/>
		</a>
	</g>
</g>
<g transform="translate(150 0)" class="main_item">
	<g transform="translate(0 0)">
		<a xlink:href="U+26F0-VS16_mountain.svg" xlink:title="Mountain">
			<rect x="0" y="0" width="10" height="10" rx="2" ry="2" fill="none"/>
			<image xlink:href="U+26F0-VS16_mountain.svg" x="0" y="0" width="10" height="10"/>
		</a>
	</g>
</g>
<g transform="translate(150 0)" class="main_item">
	<g transform="translate(0 10)">
		<a xlink:href="U+26F1-VS16_umbrella_on_ground.svg" xlink:title="Umbrella on ground">
			<rect x="0" y="0" width="10" height="10" rx="2" ry="2" fill="none"/>
			<image xlink:href="U+26F1-VS16_umbrella_on_ground.svg" x="0" y="0" width="10" height="10"/>
		</a>
	</g>
</g>
<g transform="translate(150 0)" class="main_item">
	<g transform="translate(0 20)">
		<a xlink:href="U+26F2_fountain.svg" xlink:title="Fountain">
			<rect x="0" y="0" width="10" height="10" rx="2" ry="2" fill="none"/>
			<image xlink:href="U+26F2_fountain.svg" x="0" y="0" width="10" height="10"/>
		</a>
	</g>
</g>
<g transform="translate(150 0)" class="main_item">
	<g transform="translate(0 30)">
		<a xlink:href="U+26F3_flag_in_hole.svg" xlink:title="Flag in hole">
			<rect x="0" y="0" width="10" height="10" rx="2" ry="2" fill="none"/>
			<image xlink:href="U+26F3_flag_in_hole.svg" x="0" y="0" width="10" height="10"/>
		</a>
	</g>
</g>
<g transform="translate(150 0)" class="main_item">
	<g transform="translate(0 40)">
		<a xlink:href="U+26F4-VS16_ferry.svg" xlink:title="Ferry">
			<rect x="0" y="0" width="10" height="10" rx="2" ry="2" fill="none"/>
			<image xlink:href="U+26F4-VS16_ferry.svg" x="0" y="0" width="10" height="10"/>
		</a>
	</g>
</g>
<g transform="translate(150 0)" class="main_item">
	<g transform="translate(0 50)">
		<a xlink:href="U+26F5_sailboat.svg" xlink:title="Sailboat">
			<rect x="0" y="0" width="10" height="10" rx="2" ry="2" fill="none"/>
			<image xlink:href="U+26F5_sailboat.svg" x="0" y="0" width="10" height="10"/>
		</a>
	</g>
</g>
<g transform="translate(150 0)" class="main_item">
	<g transform="translate(0 70)">
		<a xlink:href="U+26F7-VS16_skier.svg" xlink:title="Skier">
			<rect x="0" y="0" width="10" height="10" rx="2" ry="2" fill="none"/>
			<image xlink:href="U+26F7-VS16_skier.svg" x="0" y="0" width="10" height="10"/>
		</a>
	</g>
</g>
<g transform="translate(150 0)" class="main_item">
	<g transform="translate(0 80)">
		<a xlink:href="U+26F8-VS16_ice_skate.svg" xlink:title="Ice skate">
			<rect x="0" y="0" width="10" height="10" rx="2" ry="2" fill="none"/>
			<image xlink:href="U+26F8-VS16_ice_skate.svg" x="0" y="0" width="10" height="10"/>
		</a>
	</g>
</g>
</svg>
