<?xml version="1.0" encoding="utf-8"?>
<!DOCTYPE svg PUBLIC "-//W3C//DTD SVG 1.1//EN" "http://www.w3.org/Graphics/SVG/1.1/DTD/svg11.dtd">
<svg version="1.1" xmlns="http://www.w3.org/2000/svg" xmlns:xlink="http://www.w3.org/1999/xlink" viewBox="-21 -21 42 42">
	<title>Keycap 2</title>
	<metadata>
		<rdf:RDF xmlns:rdf="http://www.w3.org/1999/02/22-rdf-syntax-ns#" xmlns:dc="http://purl.org/dc/elements/1.1/" xmlns:cc="http://creativecommons.org/ns#">
			<cc:Work rdf:about="">
				<dc:creator>
					<cc:Agent>
						<dc:title>Frank Bruder</dc:title>
					</cc:Agent>
				</dc:creator>
				<cc:license rdf:resource="http://creativecommons.org/licenses/by-nc-sa/4.0/"/>
				<cc:attributionName>Frank Bruder</cc:attributionName>
				<cc:attributionURL rdf:resource="http://frabru.de/"/>
			</cc:Work>
		</rdf:RDF>
	</metadata>
	<path d="M20 -19h-36l-4 4v30l3 3h33l4 -4z" fill="#555"/>
	<path d="M20 -20v1c-4 1 -8 1 -20 1s-16 0 -20 3v-5" fill="#777"/>
	<path d="M-20 20v-5c4 2 8 2 20 2s16 0 20 -3v6z" fill="#444"/>
	<path d="M-9 15v-6a9 11 0 0 1 9 -11a3 3.5 0 0 0 0 -7a9 9 0 0 0 -5.4 1.8l-3.6 -4.8a15 15 0 0 1 9 -3a9 9.5 0 0 1 0 19a3 4.5 0 0 0 -3 5h12v6h-18z" fill="#eee"/>
</svg>
