<?xml version="1.0" encoding="utf-8"?>
<!DOCTYPE svg PUBLIC "-//W3C//DTD SVG 1.1//EN" "http://www.w3.org/Graphics/SVG/1.1/DTD/svg11.dtd">
<svg version="1.1" xmlns="http://www.w3.org/2000/svg" xmlns:xlink="http://www.w3.org/1999/xlink" viewBox="-21 -21 42 42">
	<title>Face with medical mask</title>
	<metadata>
		<rdf:RDF xmlns:rdf="http://www.w3.org/1999/02/22-rdf-syntax-ns#" xmlns:dc="http://purl.org/dc/elements/1.1/" xmlns:cc="http://creativecommons.org/ns#">
			<cc:Work rdf:about="">
				<dc:creator>
					<cc:Agent>
						<dc:title>Frank Bruder</dc:title>
					</cc:Agent>
				</dc:creator>
				<cc:license rdf:resource="http://creativecommons.org/licenses/by-nc-sa/4.0/"/>
				<cc:attributionName>Frank Bruder</cc:attributionName>
				<cc:attributionURL rdf:resource="http://frabru.de/"/>
			</cc:Work>
		</rdf:RDF>
	</metadata>
	<circle cx="0" cy="0" r="19" fill="#efff00" stroke="#000" stroke-width="2"/>
	<path d="M3 -5C5 -9 9 -9 11 -5" fill="none" stroke="#000" stroke-width="2" stroke-linecap="round"/>
	<path d="M-3 -5C-5 -9 -9 -9 -11 -5" fill="none" stroke="#000" stroke-width="2" stroke-linecap="round"/>
	<g>
		<path d="M-11 1q11 -4 22 0l8 -2v2l-6 2q0 4 -2 9l5 -1l-2.5 2.5l-5 1q-8.5 2 -17 0l-5 -1l-2.5 -2.5l5 1q-2 -5 -2 -9l-6 -2v-2l8 2z" fill="#fff" stroke="#808080" stroke-width="0.75" stroke-linejoin="round"/>
		<path d="M-10 3q10 -3 20 0q0 5 -2 9q-8 2 -16 0q-2 -4 -2 -9z" fill="#6fc"/>
	</g>
	<circle cx="0" cy="0" r="19" fill="none" stroke="#000" stroke-width="2"/>
</svg>
