<?xml version="1.0" encoding="utf-8"?>
<!DOCTYPE svg PUBLIC "-//W3C//DTD SVG 1.1//EN" "http://www.w3.org/Graphics/SVG/1.1/DTD/svg11.dtd">
<svg version="1.1" xmlns="http://www.w3.org/2000/svg" xmlns:xlink="http://www.w3.org/1999/xlink" viewBox="-21 -21 42 42">
	<title>Face with no good gesture, medium skin tone</title>
	<metadata>
		<rdf:RDF xmlns:rdf="http://www.w3.org/1999/02/22-rdf-syntax-ns#" xmlns:dc="http://purl.org/dc/elements/1.1/" xmlns:cc="http://creativecommons.org/ns#">
			<cc:Work rdf:about="">
				<dc:creator>
					<cc:Agent>
						<dc:title>Frank Bruder</dc:title>
					</cc:Agent>
				</dc:creator>
				<cc:license rdf:resource="http://creativecommons.org/licenses/by-nc-sa/4.0/"/>
				<cc:attributionName>Frank Bruder</cc:attributionName>
				<cc:attributionURL rdf:resource="http://frabru.de/"/>
			</cc:Work>
		</rdf:RDF>
	</metadata>
	<path d="M-10 20v-5h-9c1.2 -4.3 3.4 -11.1 4 -12s1.4 -1.7 2 -2s9 -1 13 -1c4 0 12.4 0.7 13 1s1.4 1.1 2 2s2.8 7.7 4 12h-9v5" fill="#5e8" stroke="#000" stroke-width="1.5" stroke-linejoin="round"/>
	<circle cx="0" cy="-10" r="9.5" fill="#d7b19d" stroke="#000" stroke-width="1.5"/>
	<circle cx="3" cy="-12" r="1" fill="#000"/>
	<circle cx="-3" cy="-12" r="1" fill="#000"/>
	<path d="M-2.5 -6.5q2.5 -0.3 5 0" fill="none" stroke="#000" stroke-width="1.5"/>
	<g transform="scale(-1 1)">
		<path d="M9 -1c1 -0.5 2 -2.5 3 -4s2 -4 3 -6l-5 3l-4 4" fill="#bece00" stroke="#000" stroke-width="1.5"/>
		<path d="M5 -5c2 -2 3.8 -4 5 -5s5.6 -4 7 -5c1 1 1.5 2 1 3s-4 3 -6 5c-1 1.5 -2 3 -3 4l-1 1" fill="#d7b19d" stroke="#000" stroke-width="1.5"/>
		<path d="M5 -6q3 2 5 5c-6 6 -15 17 -18 19s-8 2 -9 1s-2 -3 -2 -4s3 -6 6 -8s12 -9 18 -13z" fill="#6f9" stroke="#000" stroke-width="1.5"/>
	</g>
	<g>
		<path d="M9 -1c1 -0.5 2 -2.5 3 -4s2 -4 3 -6l-5 3l-4 4" fill="#bece00" stroke="#000" stroke-width="1.5"/>
		<path d="M5 -5c2 -2 3.8 -4 5 -5s5.6 -4 7 -5c1 1 1.5 2 1 3s-4 3 -6 5c-1 1.5 -2 3 -3 4l-1 1" fill="#d7b19d" stroke="#000" stroke-width="1.5"/>
		<path d="M5 -6q3 2 5 5c-6 6 -15 17 -18 19s-8 2 -9 1s-2 -3 -2 -4s3 -6 6 -8s12 -9 18 -13z" fill="#7fa" stroke="#000" stroke-width="1.5"/>
	</g>
</svg>
