<?xml version="1.0" encoding="utf-8"?>
<!DOCTYPE svg PUBLIC "-//W3C//DTD SVG 1.1//EN" "http://www.w3.org/Graphics/SVG/1.1/DTD/svg11.dtd">
<svg version="1.1" xmlns="http://www.w3.org/2000/svg" xmlns:xlink="http://www.w3.org/1999/xlink" viewBox="-21 -21 42 42">
	<title>Smiling face with horns</title>
	<metadata>
		<rdf:RDF xmlns:rdf="http://www.w3.org/1999/02/22-rdf-syntax-ns#" xmlns:dc="http://purl.org/dc/elements/1.1/" xmlns:cc="http://creativecommons.org/ns#">
			<cc:Work rdf:about="">
				<dc:creator>
					<cc:Agent>
						<dc:title>Frank Bruder</dc:title>
					</cc:Agent>
				</dc:creator>
				<cc:license rdf:resource="http://creativecommons.org/licenses/by-nc-sa/4.0/"/>
				<cc:attributionName>Frank Bruder</cc:attributionName>
				<cc:attributionURL rdf:resource="http://frabru.de/"/>
			</cc:Work>
		</rdf:RDF>
	</metadata>
	<g fill="#ffef20" stroke="#400" stroke-width="2">
		<circle cx="0" cy="2" r="17"/>
		<path d="m6 -10c5 -3 3 -5 3 -9c5 1 5 8 1 12" stroke-linecap="round"/>
		<path d="m-6 -10c-5 -3 -3 -5 -3 -9c-5 1 -5 8 -1 12" stroke-linecap="round"/>
	</g>
	<path d="m3 -4a5 5 0 1 1 -7 1z" transform="translate(5 -3) scale(0.4)" fill="#400"/>
	<path d="m4 -3a5 5 0 1 1 -7 -1z" transform="translate(-5 -3) scale(0.4)" fill="#400"/>
	<path d="m-10 0a10.1980 10.1980 0 1 0 20 0" fill="none" stroke="#400" stroke-width="2"/>
</svg>
