<?xml version="1.0" encoding="utf-8"?>
<!DOCTYPE svg PUBLIC "-//W3C//DTD SVG 1.1//EN" "http://www.w3.org/Graphics/SVG/1.1/DTD/svg11.dtd">
<svg version="1.1" xmlns="http://www.w3.org/2000/svg" xmlns:xlink="http://www.w3.org/1999/xlink" viewBox="-21 -21 42 42">
	<title>Smiling cat face with heart-shaped eyes</title>
	<metadata>
		<rdf:RDF xmlns:rdf="http://www.w3.org/1999/02/22-rdf-syntax-ns#" xmlns:dc="http://purl.org/dc/elements/1.1/" xmlns:cc="http://creativecommons.org/ns#">
			<cc:Work rdf:about="">
				<dc:creator>
					<cc:Agent>
						<dc:title>Frank Bruder</dc:title>
					</cc:Agent>
				</dc:creator>
				<cc:license rdf:resource="http://creativecommons.org/licenses/by-nc-sa/4.0/"/>
				<cc:attributionName>Frank Bruder</cc:attributionName>
				<cc:attributionURL rdf:resource="http://frabru.de/"/>
			</cc:Work>
		</rdf:RDF>
	</metadata>
	<path d="M-4 -12q4 -1 8 0q3 -5 12 -7q2 7 0 15q7 23 -16 23t-16 -23q-2 -8 0 -15q9 2 12 7z" fill="#efff00" stroke="#000" stroke-width="2"/>
	<path d="M6 -11q2.8 -4 8.4 -5.5q1 6 -0.2 11q-3 -4.39 -8.2 -5.5z" fill="#fc9"/>
	<path d="M-6 -11q-2.8 -4 -8.4 -5.5q-1 6 0.2 11q3 -4.39 8.2 -5.5z" fill="#fc9"/>
	<g transform="translate(-6 -1) scale(0.5)">
		<path d="M10 -4 C10 0 8 2 0 9 C-8 2 -10 0 -10 -4z" fill="#a02"/>
		<path d="M0 -5 C1 -8 3 -10 5.5 -10 S10 -8 10 -4 S8 -1 0 8 C-8 -1 -10 0 -10 -4 S -8 -10 -5.5 -10 S-1 -8 0 -5z" fill="#e04"/>
		<circle fill="#fff" cx="-6" cy="-7" r="2"/>
		<circle fill="#fff" cx="5" cy="-7" r="2"/>
	</g>
	<g transform="translate(6 -1) scale(0.5)">
		<path d="M10 -4 C10 0 8 2 0 9 C-8 2 -10 0 -10 -4z" fill="#a02"/>
		<path d="M0 -5 C1 -8 3 -10 5.5 -10 S10 -8 10 -4 S8 -1 0 8 C-8 -1 -10 0 -10 -4 S -8 -10 -5.5 -10 S-1 -8 0 -5z" fill="#e04"/>
		<circle fill="#fff" cx="-6" cy="-7" r="2"/>
		<circle fill="#fff" cx="5" cy="-7" r="2"/>
	</g>
	<path d="m-10 7c3 7 10 7 10 1c0 6 7 6 10 -1" fill="none" stroke="#000" stroke-width="2" stroke-linecap="round" stroke-linejoin="round"/>
	<path d="M-2.5 3.5c0.2 -0.4 4.8 -0.4 5 0s-2 3 -2.5 3s-2.7 -2.6 -2.5 -3z" fill="#fc9"/>
</svg>
