<?xml version="1.0" encoding="utf-8"?>
<!DOCTYPE svg PUBLIC "-//W3C//DTD SVG 1.1//EN" "http://www.w3.org/Graphics/SVG/1.1/DTD/svg11.dtd">
<svg version="1.1" xmlns="http://www.w3.org/2000/svg" xmlns:xlink="http://www.w3.org/1999/xlink" viewBox="-21 -21 42 42">
	<title>B button</title>
	<metadata>
		<rdf:RDF xmlns:rdf="http://www.w3.org/1999/02/22-rdf-syntax-ns#" xmlns:dc="http://purl.org/dc/elements/1.1/" xmlns:cc="http://creativecommons.org/ns#">
			<cc:Work rdf:about="">
				<dc:creator>
					<cc:Agent>
						<dc:title>Frank Bruder</dc:title>
					</cc:Agent>
				</dc:creator>
				<cc:license rdf:resource="http://creativecommons.org/licenses/by-nc-sa/4.0/"/>
				<cc:attributionName>Frank Bruder</cc:attributionName>
				<cc:attributionURL rdf:resource="http://frabru.de/"/>
			</cc:Work>
		</rdf:RDF>
	</metadata>
	<rect fill="#f03" stroke="#eee" stroke-width="1.5" rx="5" ry="5" x="-19" y="-19" width="38" height="38"/>
	<path fill="#fff" d="M-8 15v-30h9a9 9 0 0 1 9 9a7.5 7.5 0 0 1 -3 6a7.5 7.5 0 0 1 3 6a9 9 0 0 1 -9 9zM-2 -3h3a3 3 0 0 0 0 -6h-3zM-2 9h3a3 3 0 0 0 0 -6h-3z"/>
</svg>
