<?xml version="1.0" encoding="utf-8"?>
<!DOCTYPE svg PUBLIC "-//W3C//DTD SVG 1.1//EN" "http://www.w3.org/Graphics/SVG/1.1/DTD/svg11.dtd">
<svg version="1.1" xmlns="http://www.w3.org/2000/svg" xmlns:xlink="http://www.w3.org/1999/xlink" viewBox="-21 -21 42 42">
	<title>Grimacing face</title>
	<metadata>
		<rdf:RDF xmlns:rdf="http://www.w3.org/1999/02/22-rdf-syntax-ns#" xmlns:dc="http://purl.org/dc/elements/1.1/" xmlns:xhv="http://www.w3.org/1999/xhtml/vocab#">
			<rdf:Description rdf:about="">
				<dc:creator>
					<rdf:Description rdf:about="http://purl.org/net/2008,frankbruder/id">
						<dc:title>Frank Bruder</dc:title>
					</rdf:Description>
				</dc:creator>
				<xhv:license rdf:resource="http://creativecommons.org/licenses/by-nc-sa/4.0/"/>
			</rdf:Description>
		</rdf:RDF>
	</metadata>
	<circle cx="0" cy="0" r="19" fill="#efff00" stroke="#000" stroke-width="2"/>
	<ellipse cx="6" cy="-5" rx="2" ry="2.5" fill="#000"/>
	<ellipse cx="-6" cy="-5" rx="2" ry="2.5" fill="#000"/>
	<g>
		<path d="M12 6c0 6 -3 4 -12 4s-12 2 -12 -4s3 -4 12 -4s12 -2 12 4z" fill="#fff" stroke="none"/>
		<path d="m7 6q4 -0.2 5 -2v3q-1 -0.8 -5 -1z" fill="#aa9"/>
		<path d="m-7 6q-4 -0.2 -5 -2v3q1 -0.8 5 -1z" fill="#aa9"/>
		<path d="m0.8 2l-0.8 3l-0.4 -3z" fill="#aa9"/>
		<path d="m6.2 2l-0.7 2.5l-0.3 -2.5z" fill="#aa9"/>
		<path d="m0.6 10l-0.6 -2.5l-0.4 2.5z" fill="#aa9"/>
		<!--path d="M-7 6.3l3 0.2l4 -0.2l2 0.2l3.5 -0.1l1.5 -0.1" stroke="#000" stroke-width="0.6" stroke-linecap="round" fill="none"/-->
		<path d="M12 6c0 6 -3 4 -12 4s-12 2 -12 -4s3 -4 12 -4s12 -2 12 4z" fill="none" stroke="#000" stroke-width="2" stroke-linejoin="round"/>
	</g>
</svg>
