<?xml version="1.0" encoding="utf-8"?>
<!DOCTYPE svg PUBLIC "-//W3C//DTD SVG 1.1//EN" "http://www.w3.org/Graphics/SVG/1.1/DTD/svg11.dtd">
<svg version="1.1" xmlns="http://www.w3.org/2000/svg" xmlns:xlink="http://www.w3.org/1999/xlink" viewBox="-21 -21 42 42">
	<title>Grinning face with smiling eyes</title>
	<metadata>
		<rdf:RDF xmlns:rdf="http://www.w3.org/1999/02/22-rdf-syntax-ns#" xmlns:dc="http://purl.org/dc/elements/1.1/" xmlns:cc="http://creativecommons.org/ns#">
			<cc:Work rdf:about="">
				<dc:creator>
					<cc:Agent>
						<dc:title>Frank Bruder</dc:title>
					</cc:Agent>
				</dc:creator>
				<cc:license rdf:resource="http://creativecommons.org/licenses/by-nc-sa/4.0/"/>
				<cc:attributionName>Frank Bruder</cc:attributionName>
				<cc:attributionURL rdf:resource="http://frabru.de/"/>
			</cc:Work>
		</rdf:RDF>
	</metadata>
	<circle cx="0" cy="0" r="19" fill="#efff00" stroke="#000" stroke-width="2"/>
	<path d="M3 -5C5 -9 9 -9 11 -5" fill="none" stroke="#000" stroke-width="2" stroke-linecap="round"/>
	<path d="M-3 -5C-5 -9 -9 -9 -11 -5" fill="none" stroke="#000" stroke-width="2" stroke-linecap="round"/>
	<g>
		<path d="M11.310249675906 2A11.310249675906 11.310249675906 0 0 1 -11.310249675906 2Q0 3 11.310249675906 2z" fill="#fff" stroke="none"/>
		<path d="m5 7q4 -0.2 6 -1l-2 1.5z" fill="#ccb"/>
		<path d="m-5 7q-4 -0.2 -6 -1l2 1.5z" fill="#ccb"/>
		<path d="M11.310249675906 2A11.310249675906 11.310249675906 0 0 1 -11.310249675906 2Q0 3 11.310249675906 2z" fill="none" stroke="#000" stroke-width="2" stroke-linejoin="round"/>
	</g>
</svg>
