<?xml version="1.0" encoding="utf-8"?>
<!DOCTYPE svg PUBLIC "-//W3C//DTD SVG 1.1//EN" "http://www.w3.org/Graphics/SVG/1.1/DTD/svg11.dtd">
<svg version="1.1" xmlns="http://www.w3.org/2000/svg" xmlns:xlink="http://www.w3.org/1999/xlink" viewBox="-21 -21 42 42">
	<title>Face with open mouth</title>
	<metadata>
		<rdf:RDF xmlns:rdf="http://www.w3.org/1999/02/22-rdf-syntax-ns#" xmlns:dc="http://purl.org/dc/elements/1.1/" xmlns:cc="http://creativecommons.org/ns#">
			<cc:Work rdf:about="">
				<dc:creator>
					<cc:Agent>
						<dc:title>Frank Bruder</dc:title>
					</cc:Agent>
				</dc:creator>
				<cc:license rdf:resource="http://creativecommons.org/licenses/by-nc-sa/4.0/"/>
				<cc:attributionName>Frank Bruder</cc:attributionName>
				<cc:attributionURL rdf:resource="http://frabru.de/"/>
			</cc:Work>
		</rdf:RDF>
	</metadata>
	<circle cx="0" cy="0" r="19" fill="#efff00" stroke="#000" stroke-width="2"/>

	<circle cx="-3" cy="-16" r="1.25" fill="#fff"/>
	<circle cx="-5" cy="-15" r="1" fill="#fff"/>
	<circle cx="2" cy="-15" r="0.75" fill="#fff"/>

	<path d="M-5 -13a8 8 0 0 0 -4.8 1.6" fill="none" stroke="#000" stroke-width="2" stroke-linecap="round"/>
	<path d="M5 -13a8 8 0 0 1 4.8 1.6" fill="none" stroke="#000" stroke-width="2" stroke-linecap="round"/>
	<circle cx="6" cy="-5" r="2.5" fill="#000"/>
	<circle cx="-6" cy="-5" r="2.5" fill="#000"/>

	<path d="m-12 -11c1 3 2 4 2 5.5s-1 3.5 -3 3.5s-3 -2 -3 -3.5s1 -3 4 -5.5z" fill="#87ceeb" stroke="#7f80ff" stroke-width="1" stroke-linejoin="round"/>
	<circle cx="-14" cy="-8" r="1" fill="#fff"/>

	<circle cx="0" cy="8" r="5" fill="#812" stroke="#000" stroke-width="2"/>
</svg>
