<?xml version="1.0" encoding="utf-8"?>
<!DOCTYPE svg PUBLIC "-//W3C//DTD SVG 1.1//EN" "http://www.w3.org/Graphics/SVG/1.1/DTD/svg11.dtd">
<svg version="1.1" xmlns="http://www.w3.org/2000/svg" xmlns:xlink="http://www.w3.org/1999/xlink" viewBox="-21 -21 42 42">
	<title>Dizzy face</title>
	<metadata>
		<rdf:RDF xmlns:rdf="http://www.w3.org/1999/02/22-rdf-syntax-ns#" xmlns:dc="http://purl.org/dc/elements/1.1/" xmlns:xhv="http://www.w3.org/1999/xhtml/vocab#">
			<rdf:Description rdf:about="">
				<dc:creator>
					<rdf:Description rdf:about="http://purl.org/net/2008,frankbruder/id">
						<dc:title>Frank Bruder</dc:title>
					</rdf:Description>
				</dc:creator>
				<xhv:license rdf:resource="http://creativecommons.org/licenses/by-nc-sa/4.0/"/>
			</rdf:Description>
		</rdf:RDF>
	</metadata>
	<circle cx="0" cy="0" r="19" fill="#efff00" stroke="#000" stroke-width="2"/>
	<!--circle cx="5.5" cy="-5" r="4" fill="#fff" stroke="#000" stroke-width="1.5"/-->
	<path transform="translate(7 -5) scale(0.375) rotate(90)" d="m3 -2c2 0 3 0 3 3s-1 5 -5 5s-7 -2 -7 -7s3 -9 9 -9s11 4 11 11s-5 13 -13 13s-15 -6 -15 -15" fill="none" stroke="#000" stroke-width="4" stroke-linecap="round"/>
	<!--circle cx="-5.5" cy="-5" r="4" fill="#fff" stroke="#000" stroke-width="1.5"/-->
	<path transform="translate(-7 -5) scale(0.375) rotate(270)" d="m3 -2c2 0 3 0 3 3s-1 5 -5 5s-7 -2 -7 -7s3 -9 9 -9s11 4 11 11s-5 13 -13 13s-15 -6 -15 -15" fill="none" stroke="#000" stroke-width="4" stroke-linecap="round"/>
	<path d="M-5 -14l-6 2" fill="none" stroke="#000" stroke-width="2" stroke-linecap="round"/>
	<path d="M5 -14l6 2" fill="none" stroke="#000" stroke-width="2" stroke-linecap="round"/>
	<circle cx="0" cy="8" r="5" fill="#812" stroke="#000" stroke-width="2"/>
</svg>
