<?xml version="1.0" encoding="utf-8"?>
<!DOCTYPE svg PUBLIC "-//W3C//DTD SVG 1.1//EN" "http://www.w3.org/Graphics/SVG/1.1/DTD/svg11.dtd">
<svg version="1.1" xmlns="http://www.w3.org/2000/svg" xmlns:xlink="http://www.w3.org/1999/xlink" viewBox="-21 -21 42 42">
	<title>Squared COOL</title>
	<metadata>
		<rdf:RDF xmlns:rdf="http://www.w3.org/1999/02/22-rdf-syntax-ns#" xmlns:dc="http://purl.org/dc/elements/1.1/" xmlns:cc="http://creativecommons.org/ns#">
			<cc:Work rdf:about="">
				<dc:creator>
					<cc:Agent>
						<dc:title>Frank Bruder</dc:title>
					</cc:Agent>
				</dc:creator>
				<cc:license rdf:resource="http://creativecommons.org/licenses/by-nc-sa/4.0/"/>
				<cc:attributionName>Frank Bruder</cc:attributionName>
				<cc:attributionURL rdf:resource="http://frabru.de/"/>
			</cc:Work>
		</rdf:RDF>
	</metadata>
	<rect fill="#69c" rx="5.75" ry="5.75" x="-19.75" y="-19.75" width="39.5" height="39.5"/>
	<rect fill="#6cf" x="-18.25" y="-14" width="36.5" height="28"/>
	<rect fill="#9ff" rx="4.25" ry="4.25" x="-18.25" y="-18.25" width="36.5" height="8.5"/>
	<rect fill="#9ff" rx="4.25" ry="4.25" x="-18.25" y="9.75" width="36.5" height="8.5"/>
	<path fill="#fff" d="M-17 -4a4 4 0 1 1 8 0v2h-3v-2a1 1 0 1 0 -2 0v8a1 1 0 1 0 2 0v-2h3v2a4 4 0 1 1 -8 0zM-8 -4a4 4 0 1 1 8 0v8a4 4 0 1 1 -8 0zM-5 4a1 1 0 1 0 2 0v-8a1 1 0 1 0 -2 0zM1 -4a4 4 0 1 1 8 0v8a4 4 0 1 1 -8 0zM4 4a1 1 0 1 0 2 0v-8a1 1 0 1 0 -2 0zM10 8v-16h3v13h4v3z"/>
</svg>
