<?xml version="1.0" encoding="utf-8"?>
<!DOCTYPE svg PUBLIC "-//W3C//DTD SVG 1.1//EN" "http://www.w3.org/Graphics/SVG/1.1/DTD/svg11.dtd">
<svg version="1.1" xmlns="http://www.w3.org/2000/svg" xmlns:xlink="http://www.w3.org/1999/xlink" viewBox="-21 -21 42 42">
	<title>Smiling face with sunglasses</title>
	<metadata>
		<rdf:RDF xmlns:rdf="http://www.w3.org/1999/02/22-rdf-syntax-ns#" xmlns:dc="http://purl.org/dc/elements/1.1/" xmlns:cc="http://creativecommons.org/ns#">
			<cc:Work rdf:about="">
				<dc:creator>
					<cc:Agent>
						<dc:title>Frank Bruder</dc:title>
					</cc:Agent>
				</dc:creator>
				<cc:license rdf:resource="http://creativecommons.org/licenses/by-nc-sa/4.0/"/>
				<cc:attributionName>Frank Bruder</cc:attributionName>
				<cc:attributionURL rdf:resource="http://frabru.de/"/>
			</cc:Work>
		</rdf:RDF>
	</metadata>
	<circle cx="0" cy="0" r="19" fill="#efff00" stroke="#000" stroke-width="2"/>
	<path d="M-19 -7h-1v1h1M19 -7h1v1h-1" fill="#000" stroke="#000" stroke-width="1" stroke-linejoin="round"/>
	<path d="m-19 -8h16l1 1h4l1 -1h16v2l-3 5h-13l-2 -4h-2l-2 4h-13l-3 -5v-2z" fill="#222"/>
	<path d="m-13 -8h2l-3 7h-2zM-7 -8h4l-3 7h-4zM7 -8h6l-3 7h-6z" fill="#eee"/>
	<path d="m-19 -8h16l1 1h4l1 -1h16v2l-3 5h-13l-2 -4h-2l-2 4h-13l-3 -5v-2z" fill="none" stroke="#000" stroke-width="1" stroke-linejoin="round"/>
	<path d="m-11 2a11.1803 11.1803 0 0 0 22 0" fill="none" stroke="#000" stroke-width="2"/>
</svg>
