<?xml version="1.0" encoding="utf-8"?>
<!DOCTYPE svg PUBLIC "-//W3C//DTD SVG 1.1//EN" "http://www.w3.org/Graphics/SVG/1.1/DTD/svg11.dtd">
<svg version="1.1" xmlns="http://www.w3.org/2000/svg" xmlns:xlink="http://www.w3.org/1999/xlink" viewBox="-21 -21 42 42">
	<title>Grinning cat face with smiling eyes</title>
	<metadata>
		<rdf:RDF xmlns:rdf="http://www.w3.org/1999/02/22-rdf-syntax-ns#" xmlns:dc="http://purl.org/dc/elements/1.1/" xmlns:cc="http://creativecommons.org/ns#">
			<cc:Work rdf:about="">
				<dc:creator>
					<cc:Agent>
						<dc:title>Frank Bruder</dc:title>
					</cc:Agent>
				</dc:creator>
				<cc:license rdf:resource="http://creativecommons.org/licenses/by-nc-sa/4.0/"/>
				<cc:attributionName>Frank Bruder</cc:attributionName>
				<cc:attributionURL rdf:resource="http://frabru.de/"/>
			</cc:Work>
		</rdf:RDF>
	</metadata>
	<path d="M-4 -12q4 -1 8 0q3 -5 12 -7q2 7 0 15q7 23 -16 23t-16 -23q-2 -8 0 -15q9 2 12 7z" fill="#efff00" stroke="#000" stroke-width="2"/>
	<path d="M6 -11q2.8 -4 8.4 -5.5q1 6 -0.2 11q-3 -4.39 -8.2 -5.5z" fill="#fc9"/>
	<path d="M-6 -11q-2.8 -4 -8.4 -5.5q-1 6 0.2 11q3 -4.39 8.2 -5.5z" fill="#fc9"/>
	<path d="M3 -3C5 -7 9 -7 11 -3" fill="none" stroke="#000" stroke-width="2" stroke-linecap="round"/>
	<path d="M-3 -3C-5 -7 -9 -7 -11 -3" fill="none" stroke="#000" stroke-width="2" stroke-linecap="round"/>
	<g>
		<path d="M11.310249675906 4A11.310249675906 11.310249675906 0 0 1 -11.310249675906 4Q0 5 11.310249675906 4z" fill="#fff" stroke="none"/>
		<path d="m5 9q4 -0.2 6 -1l-2 1.5z" fill="#ccb"/>
		<path d="m-5 9q-4 -0.2 -6 -1l2 1.5z" fill="#ccb"/>
		<path d="M11.310249675906 4A11.310249675906 11.310249675906 0 0 1 -11.310249675906 4Q0 5 11.310249675906 4z" fill="none" stroke="#000" stroke-width="2" stroke-linejoin="round"/>
	</g>
	<path d="M-2.5 0.5c0.2 -0.4 4.8 -0.4 5 0s-2 3 -2.5 3s-2.7 -2.6 -2.5 -3z" fill="#fc9"/>
</svg>
