<?xml version="1.0" encoding="utf-8"?>
<!DOCTYPE svg PUBLIC "-//W3C//DTD SVG 1.1//EN" "http://www.w3.org/Graphics/SVG/1.1/DTD/svg11.dtd">
<svg version="1.1" xmlns="http://www.w3.org/2000/svg" xmlns:xlink="http://www.w3.org/1999/xlink" viewBox="-21 -21 42 42">
 <title>Face with cold sweat</title>
 <metadata>
  <rdf:RDF xmlns:rdf="http://www.w3.org/1999/02/22-rdf-syntax-ns#" xmlns:dc="http://purl.org/dc/elements/1.1/" xmlns:xhv="http://www.w3.org/1999/xhtml/vocab#">
   <rdf:Description rdf:about="">
    <dc:creator>
     <rdf:Description rdf:about="http://purl.org/net/2008,frankbruder/id">
      <dc:title>Frank Bruder</dc:title>
     </rdf:Description>
    </dc:creator>
    <xhv:license rdf:resource="http://creativecommons.org/licenses/by-nc-sa/4.0/"/>
   </rdf:Description>
  </rdf:RDF>
 </metadata>
 <circle cx="0" cy="0" r="19" fill="#efff00" stroke="#000" stroke-width="2"/>
 <path d="m-4 -3a5 5 0 1 0 7 -1z" transform="translate(-6.25 -5) scale(0.42)" fill="#000"/>
 <path d="m-3 -4a5 5 0 1 0 7 1z" transform="translate(6.25 -5) scale(0.42)" fill="#000"/>
 <path d="m12 -12c-1 3 -2 4 -2 5.5s1 3.5 3 3.5s3 -2 3 -3.5s-1 -3 -4 -5.5z" fill="#87ceeb" stroke="#7f80ff" stroke-width="1" stroke-linejoin="round"/>
 <circle cx="12" cy="-9" r="1" fill="#fff"/>
 <circle cx="-6" cy="-14" r="1.25" fill="#fff"/>
 <circle cx="-7" cy="-11.5" r="1" fill="#fff"/>
 <circle cx="-9" cy="-12" r="0.75" fill="#fff"/>
 <circle cx="-5" cy="-12" r="0.75" fill="#fff"/>
 <circle cx="-2" cy="-11.5" r="0.5" fill="#fff"/>
 <circle cx="5" cy="-13" r="0.75" fill="#fff"/>
 <path d="m-6 8q6 -2 12 0" fill="none" stroke="#000" stroke-width="2"/>
</svg>
