<?xml version="1.0" encoding="utf-8"?>
<!DOCTYPE svg PUBLIC "-//W3C//DTD SVG 1.1//EN" "http://www.w3.org/Graphics/SVG/1.1/DTD/svg11.dtd">
<svg version="1.1" xmlns="http://www.w3.org/2000/svg" xmlns:xlink="http://www.w3.org/1999/xlink" viewBox="-21 -21 42 42">
	<title>Tired face</title>
	<metadata>
		<rdf:RDF xmlns:rdf="http://www.w3.org/1999/02/22-rdf-syntax-ns#" xmlns:dc="http://purl.org/dc/elements/1.1/" xmlns:xhv="http://www.w3.org/1999/xhtml/vocab#">
			<rdf:Description rdf:about="">
				<dc:creator>
					<rdf:Description rdf:about="http://purl.org/net/2008,frankbruder/id">
						<dc:title>Frank Bruder</dc:title>
					</rdf:Description>
				</dc:creator>
				<xhv:license rdf:resource="http://creativecommons.org/licenses/by-nc-sa/4.0/"/>
			</rdf:Description>
		</rdf:RDF>
	</metadata>
	<circle cx="0" cy="0" r="19" fill="#efff00" stroke="#000" stroke-width="2"/>
	<path d="m8 -7q-2 1.2 -4 2q3 0 6 1" fill="none" stroke="#000" stroke-width="1.5" stroke-linecap="round" stroke-linejoin="round"/>
	<path d="m-8 -7q2 1.2 4 2q-3 0 -6 1" fill="none" stroke="#000" stroke-width="1.5" stroke-linecap="round" stroke-linejoin="round"/>
	<path d="m-10 -10q3 -2 6 -3" fill="none" stroke="#000" stroke-width="2" stroke-linecap="round"/>
	<path d="m10 -10q-3 -2 -6 -3" fill="none" stroke="#000" stroke-width="2" stroke-linecap="round"/>
	<g>
		<path d="M-9 10c2 3 3 0 9 0s7 3 9 0q0 -10 -9 -10t-9 10z" fill="#812" stroke="none"/>
		<path d="M-3 10c-2 -2 1 -3 3 -3s5 1 3 3z" fill="#c56"/>
		<path d="m-7 3q7 -1 14 0l-3 -3h-8z" fill="#fff" stroke="none"/>
		<path d="m0.2 0l-0.2 2l-0.5 -2z" fill="#eed"/>
		<path d="M-9 10c2 3 3 0 9 0s7 3 9 0q0 -10 -9 -10t-9 10z" fill="none" stroke="#000" stroke-width="2" stroke-linejoin="round"/>
	</g>
</svg>
