<?xml version="1.0" encoding="utf-8"?>
<!DOCTYPE svg PUBLIC "-//W3C//DTD SVG 1.1//EN" "http://www.w3.org/Graphics/SVG/1.1/DTD/svg11.dtd">
<svg version="1.1" xmlns="http://www.w3.org/2000/svg" xmlns:xlink="http://www.w3.org/1999/xlink" viewBox="-21 -21 42 42">
	<title>Speak-no-evil monkey</title>
	<metadata>
		<rdf:RDF xmlns:rdf="http://www.w3.org/1999/02/22-rdf-syntax-ns#" xmlns:dc="http://purl.org/dc/elements/1.1/" xmlns:cc="http://creativecommons.org/ns#">
			<cc:Work rdf:about="">
				<dc:creator>
					<cc:Agent>
						<dc:title>Frank Bruder</dc:title>
					</cc:Agent>
				</dc:creator>
				<cc:license rdf:resource="http://creativecommons.org/licenses/by-nc-sa/4.0/"/>
				<cc:attributionName>Frank Bruder</cc:attributionName>
				<cc:attributionURL rdf:resource="http://frabru.de/"/>
			</cc:Work>
		</rdf:RDF>
	</metadata>
	<circle cx="0" cy="8" r="8.5" fill="#000" stroke="none"/>
	<circle cx="0" cy="-1" r="16" fill="#000" stroke="none"/>
	<circle cx="13" cy="-3" r="6" fill="#fa7" stroke="#000" stroke-width="2"/>
	<circle cx="-13" cy="-3" r="6" fill="#fa7" stroke="#000" stroke-width="2"/>
	<circle cx="0" cy="-1" r="15.5" fill="#000" stroke="none"/>
	<circle cx="0" cy="-1" r="14" fill="#b93" stroke="none"/>
	<path d="M5 -8a4 4 0 1 1 0 8c0 2 1.5 6 1.5 8a6.5 6.5 0 1 1 -13 0c0 -2 1.5 -6 1.5 -8a4 4 0 1 1 0 -8z" fill="#fa7" stroke="none"/>
	<circle cx="5" cy="-4" r="2" fill="#000"/>
	<circle cx="-5" cy="-4" r="2" fill="#000"/>
	<path d="M0.5 5c0 -1 1 -2 1 -3c1 1 0 2 -1 3" fill="#952"/>
	<path d="M-0.5 5c0 -1 -1 -2 -1 -3c-1 1 0 2 1 3" fill="#952"/>
	<g transform="scale(-1 1)">
		<path d="M-7 13c-2 -1 -1 -3 -1 -5s2 1 2 2M-5 8c0 -2 1 -5 2 -5s0 2 0 5h0.5c1 -1 2.5 -4 4 -4s-1 3 -2 5" fill="#ca9" stroke="#320" stroke-width="1" stroke-linejoin="round"/>
		<path d="M-9.5 20c0 -1 0 -2 1 -5s2 -6.5 3 -7s3 -0.3 4 0s4 2 4 4s-3 5 -4 6q-1 1 -1 2" fill="#b93" stroke="#000" stroke-width="2" stroke-linejoin="round"/>
	</g>
	<g>
		<path d="M-7 13c-2 -1 -1 -2 -1 -5s2 1 2 2M-5 8c0 -3 0 -5 1 -5s1 2 1 4h0.5c1 -1 2 -4 3 -4s0 3 -1 5l0.3 0.3c3 -3 3.7 -5.3 5 -5s-2 4 -3 6l0.4 0.4c2 -2 5.6 -4 6 -3s-4 3 -6 6" fill="#ca9" stroke="#320" stroke-width="1" stroke-linejoin="round"/>
		<path d="M-9.5 20c0 -1 0 -2 1 -5s2 -6.5 3 -7s3 -0.3 4 0s4 2 4 4s-3 5 -4 6q-1 1 -1 2" fill="#b93" stroke="#000" stroke-width="2" stroke-linejoin="round"/>
	</g>
</svg>
