<?xml version="1.0" encoding="utf-8"?>
<!DOCTYPE svg PUBLIC "-//W3C//DTD SVG 1.1//EN" "http://www.w3.org/Graphics/SVG/1.1/DTD/svg11.dtd">
<svg version="1.1" xmlns="http://www.w3.org/2000/svg" xmlns:xlink="http://www.w3.org/1999/xlink" viewBox="-21 -21 42 42">
 <title>Confounded face</title>
 <metadata>
  <rdf:RDF xmlns:rdf="http://www.w3.org/1999/02/22-rdf-syntax-ns#" xmlns:dc="http://purl.org/dc/elements/1.1/" xmlns:xhv="http://www.w3.org/1999/xhtml/vocab#">
   <rdf:Description rdf:about="">
    <dc:creator>
     <rdf:Description rdf:about="http://purl.org/net/2008,frankbruder/id">
      <dc:title>Frank Bruder</dc:title>
     </rdf:Description>
    </dc:creator>
    <xhv:license rdf:resource="http://creativecommons.org/licenses/by-nc-sa/4.0/"/>
   </rdf:Description>
  </rdf:RDF>
 </metadata>
 <circle cx="0" cy="0" r="19" fill="#efff00" stroke="#000" stroke-width="2"/>
 <path d="M-5 0a5 5 0 1 0 9 -3z" fill="#000" transform="translate(-7 -3.6) scale(0.48)"/>
 <path d="M-4 -3a5 5 0 1 0 9 3z" fill="#000" transform="translate(7 -3.6) scale(0.48)"/>
 <path d="m-12 -3l9 -2l1 -2M12 -3l-9 -2l-1 -2" fill="none" stroke="#000" stroke-width="2" stroke-linejoin="round"/>
 <path d="m-10 9c1 -1 4 -3 5 -3s3 1 5 1s4 -1 5 -1s4 2 5 3c-2 1 -3 0 -5 0s-3 1 -5 1s-3 -1 -5 -1s-3 1 -5 0z" fill="#c56" stroke="#000" stroke-width="2" stroke-linejoin="round"/>
</svg>
