<?xml version="1.0" encoding="utf-8"?>
<!DOCTYPE svg PUBLIC "-//W3C//DTD SVG 1.1//EN" "http://www.w3.org/Graphics/SVG/1.1/DTD/svg11.dtd">
<svg version="1.1" xmlns="http://www.w3.org/2000/svg" xmlns:xlink="http://www.w3.org/1999/xlink" viewBox="-21 -21 42 42">
	<title>Person raising both hands in celebration, dark skin tone</title>
	<metadata>
		<rdf:RDF xmlns:rdf="http://www.w3.org/1999/02/22-rdf-syntax-ns#" xmlns:dc="http://purl.org/dc/elements/1.1/" xmlns:cc="http://creativecommons.org/ns#">
			<cc:Work rdf:about="">
				<dc:creator>
					<cc:Agent>
						<dc:title>Frank Bruder</dc:title>
					</cc:Agent>
				</dc:creator>
				<cc:license rdf:resource="http://creativecommons.org/licenses/by-nc-sa/4.0/"/>
				<cc:attributionName>Frank Bruder</cc:attributionName>
				<cc:attributionURL rdf:resource="http://frabru.de/"/>
			</cc:Work>
		</rdf:RDF>
	</metadata>
	<g>
		<path d="M2 3c2 0 3 2 5 2v-11a1.5 1.5 0 1 1 3 0v-2a1.5 1.5 0 1 1 3 0v2a1.5 1.5 0 1 1 3 0v4a1.5 1.5 0 1 1 3 0v10c0 6 -4 8 -7 8s-5 -2 -6 -4s-3 -5.6 -4.9 -6.3a1.5 1.5 0 0 1 0.9 -2.7z" fill="none" stroke="#000" stroke-width="2" stroke-linejoin="round"/>
		<path d="M2 3c2 0 3 2 5 2v-11a1.5 1.5 0 1 1 3 0v6v-6v-2a1.5 1.5 0 1 1 3 0v2v6v-6a1.5 1.5 0 1 1 3 0v4v4v-4a1.5 1.5 0 1 1 3 0v10c0 6 -4 8 -7 8s-5 -2 -6 -4s-3 -5.6 -4.9 -6.3a1.5 1.5 0 0 1 0.9 -2.7z" fill="#5f3d2e" stroke="#000" stroke-width="1" stroke-linejoin="round"/>
		<path d="M11 7q1.5 0.5 3 2" fill="none" stroke="#2f1e17" stroke-width="1" stroke-linejoin="round" stroke-linecap="round"/>
	</g>
	<g transform="scale(-1 1)">
		<path d="M2 3c2 0 3 2 5 2v-11a1.5 1.5 0 1 1 3 0v-2a1.5 1.5 0 1 1 3 0v2a1.5 1.5 0 1 1 3 0v4a1.5 1.5 0 1 1 3 0v10c0 6 -4 8 -7 8s-5 -2 -6 -4s-3 -5.6 -4.9 -6.3a1.5 1.5 0 0 1 0.9 -2.7z" fill="none" stroke="#000" stroke-width="2" stroke-linejoin="round"/>
		<path d="M2 3c2 0 3 2 5 2v-11a1.5 1.5 0 1 1 3 0v6v-6v-2a1.5 1.5 0 1 1 3 0v2v6v-6a1.5 1.5 0 1 1 3 0v4v4v-4a1.5 1.5 0 1 1 3 0v10c0 6 -4 8 -7 8s-5 -2 -6 -4s-3 -5.6 -4.9 -6.3a1.5 1.5 0 0 1 0.9 -2.7z" fill="#5f3d2e" stroke="#000" stroke-width="1" stroke-linejoin="round"/>
		<path d="M11 7q1.5 0.5 3 2" fill="none" stroke="#2f1e17" stroke-width="1" stroke-linejoin="round" stroke-linecap="round"/>
	</g>
	<path d="M-5 -11l-2 -6l-4 -1l4 6zM0 -11l1 -2l1 -6l-2 0l-2 1l1 6l1 1zM5 -11l2 -6l4 -1l-4 6z" stroke="none" fill="#30f"/>
</svg>
