<?xml version="1.0" encoding="utf-8"?>
<!DOCTYPE svg PUBLIC "-//W3C//DTD SVG 1.1//EN" "http://www.w3.org/Graphics/SVG/1.1/DTD/svg11.dtd">
<svg version="1.1" xmlns="http://www.w3.org/2000/svg" xmlns:xlink="http://www.w3.org/1999/xlink" viewBox="-21 -21 42 42">
	<title>Smiling cat face with open mouth</title>
	<metadata>
		<rdf:RDF xmlns:rdf="http://www.w3.org/1999/02/22-rdf-syntax-ns#" xmlns:dc="http://purl.org/dc/elements/1.1/" xmlns:xhv="http://www.w3.org/1999/xhtml/vocab#">
			<rdf:Description rdf:about="">
				<dc:creator>
					<rdf:Description rdf:about="http://purl.org/net/2008,frankbruder/id">
						<dc:title>Frank Bruder</dc:title>
					</rdf:Description>
				</dc:creator>
				<xhv:license rdf:resource="http://creativecommons.org/licenses/by-nc-sa/4.0/"/>
			</rdf:Description>
		</rdf:RDF>
	</metadata>
	<path d="M-4 -12q4 -1 8 0q3 -5 12 -7q2 7 0 15q7 23 -16 23t-16 -23q-2 -8 0 -15q9 2 12 7z" fill="#efff00" stroke="#000" stroke-width="2"/>
	<path d="M6 -11q2.8 -4 8.4 -5.5q1 6 -0.2 11q-3 -4.39 -8.2 -5.5z" fill="#fc9"/>
	<path d="M-6 -11q-2.8 -4 -8.4 -5.5q-1 6 0.2 11q3 -4.39 8.2 -5.5z" fill="#fc9"/>
	<circle cx="6" cy="-3" r="2" fill="#000"/>
	<circle cx="-6" cy="-3" r="2" fill="#000"/>
	<g>
		<path d="M11.310249675906 4A11.310249675906 11.310249675906 0 0 1 -11.310249675906 4Q0 5 11.310249675906 4z" fill="#812" stroke="none"/>
		<path d="m0 14c2 0 5 -1 5 -3s-3 -1 -5 -1s-5 -1 -5 1s3 3 5 3z" fill="#c56"/>
		<path d="m-11 7q4 1 11 1t11 -1l1 -3h-24z" fill="#fff"/>
		<path d="m5.5 7q0.5 1 0.5 3q0.5 -0.2 1.5 -3z" fill="#fff"/>
		<path d="m-5.5 7q-0.5 1 -0.5 3q-0.5 -0.2 -1.5 -3z" fill="#fff"/>
		<path d="m0.5 5l-0.5 2l-0.2 -2z" fill="#eed"/>
		<path d="m6 4.5l-0.5 2l-0.3 -2z" fill="#eed"/>
		<path d="M11.310249675906 4A11.310249675906 11.310249675906 0 0 1 -11.310249675906 4Q0 5 11.310249675906 4z" fill="none" stroke="#000" stroke-width="2" stroke-linejoin="round"/>
	</g>
	<path d="M-2.5 0.5c0.2 -0.4 4.8 -0.4 5 0s-2 3 -2.5 3s-2.7 -2.6 -2.5 -3z" fill="#fc9"/>
</svg>
