<?xml version="1.0" encoding="utf-8"?>
<!DOCTYPE svg PUBLIC "-//W3C//DTD SVG 1.1//EN" "http://www.w3.org/Graphics/SVG/1.1/DTD/svg11.dtd">
<svg version="1.1" xmlns="http://www.w3.org/2000/svg" xmlns:xlink="http://www.w3.org/1999/xlink" viewBox="-21 -21 42 42">
	<title>Anguished face</title>
	<metadata>
		<rdf:RDF xmlns:rdf="http://www.w3.org/1999/02/22-rdf-syntax-ns#" xmlns:dc="http://purl.org/dc/elements/1.1/" xmlns:xhv="http://www.w3.org/1999/xhtml/vocab#">
			<rdf:Description rdf:about="">
				<dc:creator>
					<rdf:Description rdf:about="http://purl.org/net/2008,frankbruder/id">
						<dc:title>Frank Bruder</dc:title>
					</rdf:Description>
				</dc:creator>
				<xhv:license rdf:resource="http://creativecommons.org/licenses/by-nc-sa/4.0/"/>
			</rdf:Description>
		</rdf:RDF>
	</metadata>
	<circle cx="0" cy="0" r="19" fill="#efff00" stroke="#000" stroke-width="2"/>
	<circle cx="5" cy="-6" r="2" fill="#000"/>
	<circle cx="-5" cy="-6" r="2" fill="#000"/>
	<path d="m-8 -8q3 -1 4 -3" fill="none" stroke="#000" stroke-width="2" stroke-linecap="round"/>
	<path d="m8 -8q-3 -1 -4 -3" fill="none" stroke="#000" stroke-width="2" stroke-linecap="round"/>
	<g>
		<path d="M-9 9c2 3 3 0 9 0s7 3 9 0q-0 -7 -9 -7t-9 7z" fill="#812" stroke="none"/>
		<path d="M-3 9c-2 -2 1 -4 3 -4s5 2 3 4z" fill="#c56"/>
		<path d="M-9 9c2 3 3 0 9 0s7 3 9 0q-0 -7 -9 -7t-9 7z" fill="none" stroke="#000" stroke-width="2" stroke-linejoin="round"/>
	</g>
</svg>
