<?xml version="1.0" encoding="utf-8"?>
<!DOCTYPE svg PUBLIC "-//W3C//DTD SVG 1.1//EN" "http://www.w3.org/Graphics/SVG/1.1/DTD/svg11.dtd">
<svg version="1.1" xmlns="http://www.w3.org/2000/svg" xmlns:xlink="http://www.w3.org/1999/xlink" viewBox="-21 -21 42 42">
	<title>Crying face</title>
	<metadata>
		<rdf:RDF xmlns:rdf="http://www.w3.org/1999/02/22-rdf-syntax-ns#" xmlns:dc="http://purl.org/dc/elements/1.1/" xmlns:xhv="http://www.w3.org/1999/xhtml/vocab#">
			<rdf:Description rdf:about="">
				<dc:creator>
					<rdf:Description rdf:about="http://purl.org/net/2008,frankbruder/id">
						<dc:title>Frank Bruder</dc:title>
					</rdf:Description>
				</dc:creator>
				<xhv:license rdf:resource="http://creativecommons.org/licenses/by-nc-sa/4.0/"/>
			</rdf:Description>
		</rdf:RDF>
	</metadata>
	<circle cx="0" cy="0" r="19" fill="#efff00" stroke="#000" stroke-width="2"/>
	<path d="M3 -4c2 2 5 2 8 0" fill="none" stroke="#000" stroke-width="2" stroke-linecap="round"/>
	<path d="M-3 -4c-2 2 -5 2 -8 0" fill="none" stroke="#000" stroke-width="2" stroke-linecap="round"/>
	<g transform="translate(9 -1) scale(0.375) scale(-1 1)">
		<path d="m0 0c-4 4 -4 7 -4 10c0 4 0 10 -6 10s-7 -6 -7 -9s1 -10 17 -11z" fill="#87ceeb" stroke="#7f80ff" stroke-width="4" stroke-linejoin="round"/>
		<circle r="1" cx="-5" cy="6" fill="#fff"/>
		<circle r="2" cx="-6" cy="12" fill="#fff"/>
	</g>
	<path d="m-8 10q1 -2 8 -2t8 2" fill="none" stroke="#000" stroke-width="2" stroke-linecap="round"/>
</svg>
