<?xml version="1.0" encoding="utf-8"?>
<!DOCTYPE svg PUBLIC "-//W3C//DTD SVG 1.1//EN" "http://www.w3.org/Graphics/SVG/1.1/DTD/svg11.dtd">
<svg version="1.1" xmlns="http://www.w3.org/2000/svg" xmlns:xlink="http://www.w3.org/1999/xlink" viewBox="-21 -21 42 42">
	<title>Monkey face</title>
	<metadata>
		<rdf:RDF xmlns:rdf="http://www.w3.org/1999/02/22-rdf-syntax-ns#" xmlns:dc="http://purl.org/dc/elements/1.1/" xmlns:cc="http://creativecommons.org/ns#">
			<cc:Work rdf:about="">
				<dc:creator>
					<cc:Agent>
						<dc:title>Frank Bruder</dc:title>
					</cc:Agent>
				</dc:creator>
				<cc:license rdf:resource="http://creativecommons.org/licenses/by-nc-sa/4.0/"/>
				<cc:attributionName>Frank Bruder</cc:attributionName>
				<cc:attributionURL rdf:resource="http://frabru.de/"/>
			</cc:Work>
		</rdf:RDF>
	</metadata>
	<circle cx="0" cy="8" r="9" fill="#000" stroke="none"/>
	<circle cx="0" cy="-1" r="16" fill="#000" stroke="none"/>
	<circle cx="13" cy="-3" r="6" fill="#fa7" stroke="#000" stroke-width="2"/>
	<circle cx="-13" cy="-3" r="6" fill="#fa7" stroke="#000" stroke-width="2"/>
	<circle cx="0" cy="-1" r="15.5" fill="#000" stroke="none"/>
	<circle cx="0" cy="-1" r="14" fill="#b93" stroke="none"/>
	<path d="M5 -8a4 4 0 1 1 0 8c0 2 2 6 2 8a7 7 0 1 1 -14 0c0 -2 2 -6 2 -8a4 4 0 1 1 0 -8z" fill="#fa7" stroke="none"/>
	<circle cx="5" cy="-4" r="2" fill="#000"/>
	<circle cx="-5" cy="-4" r="2" fill="#000"/>
	<path d="M0.5 5c0 -1 1 -2 1 -3c1 1 0 2 -1 3" fill="#952"/>
	<path d="M-0.5 5c0 -1 -1 -2 -1 -3c-1 1 0 2 1 3" fill="#952"/>
	<path d="M-6 9c2 0 4 -1 6 -1c2 0 4 1 6 1" fill="none" stroke="#000" stroke-width="1.5"/>
</svg>
