<?xml version="1.0" encoding="utf-8"?>
<!DOCTYPE svg PUBLIC "-//W3C//DTD SVG 1.1//EN" "http://www.w3.org/Graphics/SVG/1.1/DTD/svg11.dtd">
<svg version="1.1" xmlns="http://www.w3.org/2000/svg" xmlns:xlink="http://www.w3.org/1999/xlink" viewBox="-21 -21 42 42">
	<title>See-no-evil monkey</title>
	<metadata>
		<rdf:RDF xmlns:rdf="http://www.w3.org/1999/02/22-rdf-syntax-ns#" xmlns:dc="http://purl.org/dc/elements/1.1/" xmlns:xhv="http://www.w3.org/1999/xhtml/vocab#">
			<rdf:Description rdf:about="">
				<dc:creator>
					<rdf:Description rdf:about="http://purl.org/net/2008,frankbruder/id">
						<dc:title>Frank Bruder</dc:title>
					</rdf:Description>
				</dc:creator>
				<xhv:license rdf:resource="http://creativecommons.org/licenses/by-nc-sa/4.0/"/>
			</rdf:Description>
		</rdf:RDF>
	</metadata>
	<circle cx="0" cy="8" r="9" fill="#000" stroke="none"/>
	<circle cx="0" cy="-1" r="16" fill="#000" stroke="none"/>
	<circle cx="13" cy="-3" r="6" fill="#fa7" stroke="#000" stroke-width="2"/>
	<circle cx="-13" cy="-3" r="6" fill="#fa7" stroke="#000" stroke-width="2"/>
	<circle cx="0" cy="-1" r="15.5" fill="#000" stroke="none"/>
	<circle cx="0" cy="-1" r="14" fill="#b93" stroke="none"/>
	<path d="M5 -8a4 4 0 1 1 0 8c0 2 2 6 2 8a7 7 0 1 1 -14 0c0 -2 2 -6 2 -8a4 4 0 1 1 0 -8z" fill="#fa7" stroke="none"/>
	<path d="M0.5 5c0 -1 1 -2 1 -3c1 1 0 2 -1 3" fill="#952"/>
	<path d="M-0.5 5c0 -1 -1 -2 -1 -3c-1 1 0 2 1 3" fill="#952"/>
	<path d="M-6 9c2 0 4 -1 6 -1c2 0 4 1 6 1" fill="none" stroke="#000" stroke-width="1.5"/>
	<g transform="scale(-1 1)">
		<path d="M-10 -5c2 -1 3 -3 4 -3s2 -0.2 3 0l2.8 6.8c0.8 0.1 1.4 0 2 0s2.2 1 2 2s-1.2 0 -2.4 -0.2q-1 0.2 -2 0.2l-2 0.2" fill="#ca9" stroke="#320" stroke-width="1" stroke-linejoin="round"/>
		<path d="M-18 20c0 -8 4 -23 5 -24s8 -3 9 -3s3 2 3 3s0 3 -2 5q-3 0 -5 1c-1 6 -1 12 -1 18" fill="#b93" stroke="#000" stroke-width="2" stroke-linejoin="round"/>
	</g>
	<g>
		<path d="M-11 -6c2 -1 3 -4 4 -4s2 0.8 3 1c0.4 0.2 -1 1 -2 1l2 0c2 0 4 -1 5 -1s4 0 4 1s-3 1 -4 1q-1 0 -2 1c2 -0.4 3 -0.5 4 -0.5s4 0 4 1s-1 1.2 -3 1c-1 0 -2 -0.4 -5 0.5c1 -0.1 2 -0.4 3 -0.4s2.2 1 2 2s-2 0.2 -2.2 0c-1 0 -2 0.2 -3 0.2c0.8 0.1 1.4 0 2 0s2 0 2 1s-1 1 -2.2 0.8q-1 0.2 -2 0.2l-2 0.2" fill="#ca9" stroke="#320" stroke-width="1" stroke-linejoin="round"/>
		<path d="M-18 20c0 -8 3 -24 4 -25s8 -3 9 -3s3 2 3 3s0 3 -2 5q-3 0 -5 1c-1 6 0 13 0 19" fill="#b93" stroke="#000" stroke-width="2" stroke-linejoin="round"/>
	</g>
</svg>
