<?xml version="1.0" encoding="utf-8"?>
<!DOCTYPE svg PUBLIC "-//W3C//DTD SVG 1.1//EN" "http://www.w3.org/Graphics/SVG/1.1/DTD/svg11.dtd">
<svg version="1.1" xmlns="http://www.w3.org/2000/svg" xmlns:xlink="http://www.w3.org/1999/xlink" viewBox="-21 -21 42 42">
	<title>Squared OK</title>
	<metadata>
		<rdf:RDF xmlns:rdf="http://www.w3.org/1999/02/22-rdf-syntax-ns#" xmlns:dc="http://purl.org/dc/elements/1.1/" xmlns:cc="http://creativecommons.org/ns#">
			<cc:Work rdf:about="">
				<dc:creator>
					<cc:Agent>
						<dc:title>Frank Bruder</dc:title>
					</cc:Agent>
				</dc:creator>
				<cc:license rdf:resource="http://creativecommons.org/licenses/by-nc-sa/4.0/"/>
				<cc:attributionName>Frank Bruder</cc:attributionName>
				<cc:attributionURL rdf:resource="http://frabru.de/"/>
			</cc:Work>
		</rdf:RDF>
	</metadata>
	<rect fill="#0f0" stroke="#393" stroke-width="1.5" rx="5" ry="5" x="-19" y="-19" width="38" height="38"/>
	<rect fill="#9f9" x="-15" y="-16" width="30" height="14" rx="6" ry="6"/>
	<rect fill="#9f9" x="-15" y="2" width="30" height="14" rx="6" ry="6"/>
	<path fill="#fff" d="M-17 0a8.5 12 0 1 1 17 0a8.5 12 0 0 1 -17 0zm4 0a4.5 8 0 0 0 9 0a4.5 8 0 1 0 -9 0zM2 -12h4v8l6 -8h5l-9 12l9 12h-5l-6 -8v8h-4z"/>
</svg>
