<?xml version="1.0" encoding="utf-8"?>
<!DOCTYPE svg PUBLIC "-//W3C//DTD SVG 1.1//EN" "http://www.w3.org/Graphics/SVG/1.1/DTD/svg11.dtd">
<svg version="1.1" xmlns="http://www.w3.org/2000/svg" xmlns:xlink="http://www.w3.org/1999/xlink" viewBox="-21 -21 42 42">
	<title>Loudly crying face</title>
	<metadata>
		<rdf:RDF xmlns:rdf="http://www.w3.org/1999/02/22-rdf-syntax-ns#" xmlns:dc="http://purl.org/dc/elements/1.1/" xmlns:xhv="http://www.w3.org/1999/xhtml/vocab#">
			<rdf:Description rdf:about="">
				<dc:creator>
					<rdf:Description rdf:about="http://purl.org/net/2008,frankbruder/id">
						<dc:title>Frank Bruder</dc:title>
					</rdf:Description>
				</dc:creator>
				<xhv:license rdf:resource="http://creativecommons.org/licenses/by-nc-sa/4.0/"/>
			</rdf:Description>
		</rdf:RDF>
	</metadata>
	<circle cx="0" cy="-1" r="18.5" fill="#efff00" stroke="#000" stroke-width="2"/>
	<g>
		<path d="M-5 10c0 3 2 0 5 0s5 3 5 0q0 -10 -5 -10t-5 10z" fill="#812" stroke="none"/>
		<path d="M-3 10c-2 -2 1 -3 3 -3s5 1 3 3z" fill="#c56"/>
		<path d="m-4 3q4 -1 8 0l-2 -3h-4z" fill="#fff" stroke="none"/>
		<path d="m0.2 0l-0.2 2l-0.5 -2z" fill="#eed"/>
		<path d="M-5 10c0 3 2 0 5 0s5 3 5 0q0 -10 -5 -10t-5 10z" fill="none" stroke="#000" stroke-width="2" stroke-linejoin="round"/>
	</g>
	<path d="m4 -7q3 -1 6 1q1 2 1 4v19a6 2 0 1 1 -5 0v-20q0 -2 -2 -4z" fill="#87ceeb"/>
	<ellipse cx="7.5" cy="-3" rx="0.8" ry="1.7" fill="#fff"/>
	<ellipse cx="9.5" cy="14" rx="0.5" ry="5" fill="#fff"/>
	<path d="m-4 -7q-3 -1 -6 1q-1 2 -1 4v19a6 2 0 1 0 5 0v-20q0 -2 2 -4z" fill="#87ceeb"/>
	<ellipse cx="-9.5" cy="-2" rx="1" ry="1.5" fill="#fff"/>
	<ellipse cx="-9" cy="0.5" rx="0.6" ry="0.9" fill="#fff"/>
	<path d="m4 -7q3 -1 6 1" fill="none" stroke="#000" stroke-width="1.5" stroke-linecap="round" stroke-linejoin="round"/>
	<path d="m-4 -7q-3 -1 -6 1" fill="none" stroke="#000" stroke-width="1.5" stroke-linecap="round" stroke-linejoin="round"/>
	<path d="m-10 -10q3 -2 6 -3" fill="none" stroke="#000" stroke-width="2" stroke-linecap="round"/>
	<path d="m10 -10q-3 -2 -6 -3" fill="none" stroke="#000" stroke-width="2" stroke-linecap="round"/>
</svg>
