<?xml version="1.0" encoding="utf-8"?>
<!DOCTYPE svg PUBLIC "-//W3C//DTD SVG 1.1//EN" "http://www.w3.org/Graphics/SVG/1.1/DTD/svg11.dtd">
<svg version="1.1" xmlns="http://www.w3.org/2000/svg" xmlns:xlink="http://www.w3.org/1999/xlink" viewBox="-21 -21 42 42">
	<title>Squared SOS</title>
	<metadata>
		<rdf:RDF xmlns:rdf="http://www.w3.org/1999/02/22-rdf-syntax-ns#" xmlns:dc="http://purl.org/dc/elements/1.1/" xmlns:cc="http://creativecommons.org/ns#">
			<cc:Work rdf:about="">
				<dc:creator>
					<cc:Agent>
						<dc:title>Frank Bruder</dc:title>
					</cc:Agent>
				</dc:creator>
				<cc:license rdf:resource="http://creativecommons.org/licenses/by-nc-sa/4.0/"/>
				<cc:attributionName>Frank Bruder</cc:attributionName>
				<cc:attributionURL rdf:resource="http://frabru.de/"/>
			</cc:Work>
		</rdf:RDF>
	</metadata>
	<rect fill="#00f" stroke="#339" stroke-width="1.5" rx="5" ry="5" x="-19" y="-19" width="38" height="38"/>
	<rect fill="#99f" x="-15" y="-16" width="30" height="12" rx="6" ry="6"/>
	<rect fill="#99f" x="-15" y="4" width="30" height="12" rx="6" ry="6"/>
	<path fill="#fff" d="M-17 3.75h4a1 1 0 1 0 1.6 -0.8l-3.6 -2.7a5 5 0 1 1 8 -4h-4a1 1 0 1 0 -1.6 0.8l3.6 2.7a5 5 0 1 1 -8 4zM-5 -3.75a5 5 0 0 1 10 0v7.5a5 5 0 0 1 -10 0v-7.5zm4 0v7.5a1 1 0 0 0 2 0v-7.5a1 1 0 0 0 -2 0zM7 3.75h4a1 1 0 1 0 1.6 -0.8l-3.6 -2.7a5 5 0 1 1 8 -4h-4a1 1 0 1 0 -1.6 0.8l3.6 2.7a5 5 0 1 1 -8 4z"/>
</svg>
