<?xml version="1.0" encoding="utf-8"?>
<!DOCTYPE svg PUBLIC "-//W3C//DTD SVG 1.1//EN" "http://www.w3.org/Graphics/SVG/1.1/DTD/svg11.dtd">
<svg version="1.1" xmlns="http://www.w3.org/2000/svg" xmlns:xlink="http://www.w3.org/1999/xlink" viewBox="-21 -21 42 42">
	<title>Face with look of triumph</title>
	<metadata>
		<rdf:RDF xmlns:rdf="http://www.w3.org/1999/02/22-rdf-syntax-ns#" xmlns:dc="http://purl.org/dc/elements/1.1/" xmlns:xhv="http://www.w3.org/1999/xhtml/vocab#">
			<rdf:Description rdf:about="">
				<dc:creator>
					<rdf:Description rdf:about="http://purl.org/net/2008,frankbruder/id">
						<dc:title>Frank Bruder</dc:title>
					</rdf:Description>
				</dc:creator>
				<xhv:license rdf:resource="http://creativecommons.org/licenses/by-nc-sa/4.0/"/>
			</rdf:Description>
		</rdf:RDF>
	</metadata>
	<circle cx="0" cy="0" r="19" fill="#efff00" stroke="#000" stroke-width="2"/>
	<circle cx="6" cy="-5" r="2" fill="#000"/>
	<circle cx="-6" cy="-5" r="2" fill="#000"/>
	<path d="m-4 -8q-2 -4 -6 -3" fill="none" stroke="#000" stroke-width="1.5" stroke-linecap="round"/>
	<path d="m4 -8q2 -4 6 -3" fill="none" stroke="#000" stroke-width="1.5" stroke-linecap="round"/>
	<path d="m-10 5q10 -4 20 0" fill="none" stroke="#000" stroke-width="2" stroke-linecap="round"/>
	<g>
		<path d="M1.5 16a2.5 2.5 0 0 0 2.5 3a4 4 0 0 0 6.5 -1a3 3 0 0 0 3 -3q-4 3 -10 -16.5q3.5 15 3 16q-2 -1 -5 -15.5q3 19 0 17z" fill="#eee" stroke="none"/>
		<path d="M1.5 16a2.5 2.5 0 0 0 2.5 3a4 4 0 0 0 6.5 -1a3 3 0 0 0 3 -3" fill="none" stroke="#888" stroke-width="1" stroke-linecap="round"/>
		<path d="M1.5 -1l3 16M3.5 -1.5l5 16" fill="none" stroke="#888" stroke-width="1" stroke-linecap="round"/>
	</g>
	<g transform="scale(-1 1)">
		<path d="M1.5 16a2.5 2.5 0 0 0 2.5 3a4 4 0 0 0 6.5 -1a3 3 0 0 0 3 -3q-4 3 -10 -16.5q3.5 15 3 16q-2 -1 -5 -15.5q3 19 0 17z" fill="#eee" stroke="none"/>
		<path d="M1.5 16a2.5 2.5 0 0 0 2.5 3a4 4 0 0 0 6.5 -1a3 3 0 0 0 3 -3" fill="none" stroke="#888" stroke-width="1" stroke-linecap="round"/>
		<path d="M1.5 -1l3 16M3.5 -1.5l5 16" fill="none" stroke="#888" stroke-width="1" stroke-linecap="round"/>
	</g>
</svg>
