<?xml version="1.0" encoding="utf-8"?>
<!DOCTYPE svg PUBLIC "-//W3C//DTD SVG 1.1//EN" "http://www.w3.org/Graphics/SVG/1.1/DTD/svg11.dtd">
<svg version="1.1" xmlns="http://www.w3.org/2000/svg" xmlns:xlink="http://www.w3.org/1999/xlink" viewBox="-23.5 -26 47 47">
 <title>Smiling face with horns</title>
 <metadata>
  <rdf:RDF xmlns:rdf="http://www.w3.org/1999/02/22-rdf-syntax-ns#" xmlns:dc="http://purl.org/dc/elements/1.1/" xmlns:xhv="http://www.w3.org/1999/xhtml/vocab#">
   <rdf:Description rdf:about="">
    <dc:creator>
     <rdf:Description rdf:about="http://purl.org/net/2008,frankbruder/id">
      <dc:title>Frank Bruder</dc:title>
     </rdf:Description>
    </dc:creator>
    <xhv:license rdf:resource="http://creativecommons.org/licenses/by-nc-sa/4.0/"/>
   </rdf:Description>
  </rdf:RDF>
 </metadata>
 <g fill="#ffef20" stroke="#400" stroke-width="2">
  <circle cx="0" cy="0" r="19"/>
  <path d="m6 -15c5 -3 3 -5 3 -9c5 1 5 8 1 12" stroke-linecap="round"/>
  <path d="m-6 -15c-5 -3 -3 -5 -3 -9c-5 1 -5 8 -1 12" stroke-linecap="round"/>
 </g>
 <path d="m3 -4a5 5 0 1 1 -7 1z" transform="translate(6 -4) scale(0.4)" fill="#400"/>
 <path d="m4 -3a5 5 0 1 1 -7 -1z" transform="translate(-6 -4) scale(0.4)" fill="#400"/>
 <path d="m-11 -2a11.1803 11.1803 0 1 0 22 0" fill="none" stroke="#400" stroke-width="2"/>
</svg>
