<?xml version="1.0" encoding="utf-8"?>
<!DOCTYPE svg PUBLIC "-//W3C//DTD SVG 1.1//EN" "http://www.w3.org/Graphics/SVG/1.1/DTD/svg11.dtd">
<svg version="1.1" xmlns="http://www.w3.org/2000/svg" xmlns:xlink="http://www.w3.org/1999/xlink" viewBox="-21 -21 42 42">
	<title>Face screaming in fear</title>
	<metadata>
		<rdf:RDF xmlns:rdf="http://www.w3.org/1999/02/22-rdf-syntax-ns#" xmlns:dc="http://purl.org/dc/elements/1.1/" xmlns:cc="http://creativecommons.org/ns#">
			<cc:Work rdf:about="">
				<dc:creator>
					<cc:Agent>
						<dc:title>Frank Bruder</dc:title>
					</cc:Agent>
				</dc:creator>
				<cc:license rdf:resource="http://creativecommons.org/licenses/by-nc-sa/4.0/"/>
				<cc:attributionName>Frank Bruder</cc:attributionName>
				<cc:attributionURL rdf:resource="http://frabru.de/"/>
			</cc:Work>
		</rdf:RDF>
	</metadata>
	<ellipse cx="0" cy="0" rx="17.5" ry="18.5" fill="#deee88"/>
	<path d="M-17.5 0q6 -10 17.5 -10t17.5 10a17.5 18.5 0 0 0 -35 0z" fill="#deeecc"/>
	<ellipse cx="0" cy="0" rx="17.5" ry="18.5" fill="none" stroke="#000" stroke-width="2"/>
	<circle cx="5" cy="-7" r="4" fill="#fff" stroke="#000" stroke-width="1.5"/>
	<circle cx="-5" cy="-7" r="4" fill="#fff" stroke="#000" stroke-width="1.5"/>
	<path d="M-10 -2q2.5 2 3.5 12M10 -2q-2.5 2 -3.5 12" fill="none" stroke="#abbb66" stroke-width="2" stroke-linecap="round"/>
	<path d="M-4 4c0 -3 1.5 -5 4 -5s4 2 4 5s-1.5 10 -4 10s-4 -7 -4 -10z" fill="#812" stroke="#000" stroke-width="2" stroke-linejoin="round"/>
	<path d="M-16 18.5l4 -9q0 -5 -2 -10q5 -1 7 8q1 4 0 6l-2 5" fill="#efff77" stroke="#000" stroke-width="2" stroke-linejoin="round" stroke-linecap="round"/>
	<path d="M16 18.5l-4 -9q0 -5 2 -10q-5 -1 -7 8q-1 4 0 6l2 5" fill="#efff77" stroke="#000" stroke-width="2" stroke-linejoin="round" stroke-linecap="round"/>
</svg>
