<?xml version="1.0" encoding="utf-8"?>
<!DOCTYPE svg PUBLIC "-//W3C//DTD SVG 1.1//EN" "http://www.w3.org/Graphics/SVG/1.1/DTD/svg11.dtd">
<svg version="1.1" xmlns="http://www.w3.org/2000/svg" xmlns:xlink="http://www.w3.org/1999/xlink" viewBox="-21 -21 42 42">
	<title>Face exhaling</title>
	<metadata>
		<rdf:RDF xmlns:rdf="http://www.w3.org/1999/02/22-rdf-syntax-ns#" xmlns:dc="http://purl.org/dc/elements/1.1/" xmlns:cc="http://creativecommons.org/ns#">
			<cc:Work rdf:about="">
				<dc:creator>
					<cc:Agent>
						<dc:title>Frank Bruder</dc:title>
					</cc:Agent>
				</dc:creator>
				<cc:license rdf:resource="http://creativecommons.org/licenses/by-nc-sa/4.0/"/>
				<cc:attributionName>Frank Bruder</cc:attributionName>
				<cc:attributionURL rdf:resource="http://frabru.de/"/>
			</cc:Work>
		</rdf:RDF>
	</metadata>
	<circle cx="0" cy="0" r="19" fill="#efff00" stroke="#000" stroke-width="2"/>
	<path d="M4 -4c2 1 5 1 8 0" fill="none" stroke="#000" stroke-width="2" stroke-linecap="round"/>
	<path d="M-2 -4c-2 1 -5 1 -8 0" fill="none" stroke="#000" stroke-width="2" stroke-linecap="round"/>
	<path d="M-10 -9q4 -2 6 -2" fill="none" stroke="#000" stroke-width="2" stroke-linecap="round"/>
	<path d="M12 -9q-4 -2 -6 -2" fill="none" stroke="#000" stroke-width="2" stroke-linecap="round"/>
	<ellipse cx="2" cy="8" rx="5" ry="3" fill="#812" stroke="#000" stroke-width="2"/>
	<g>
		<path d="M18 5a2.5 2.5 0 0 1 0.5 3.5a4 4 0 0 1 -3.2 6.4a3 3 0 0 1 -3 3q-2 -5 -8 -8q5 -1 0.7 -3.9q9 1 13 -1z" fill="#eee" stroke="none"/>
		<path d="M18 5a2.5 2.5 0 0 1 0.5 3.5a4 4 0 0 1 -3.2 6.4a3 3 0 0 1 -3 3" fill="none" stroke="#888" stroke-width="1.5" stroke-linecap="round"/>
		<path d="M7.3 10.9l6 2M8 7l7 1.4" fill="none" stroke="#888" stroke-width="1" stroke-linecap="round"/>
	</g>
</svg>
