<?xml version="1.0" encoding="utf-8"?>
<!DOCTYPE svg PUBLIC "-//W3C//DTD SVG 1.1//EN" "http://www.w3.org/Graphics/SVG/1.1/DTD/svg11.dtd">
<svg version="1.1" xmlns="http://www.w3.org/2000/svg" xmlns:xlink="http://www.w3.org/1999/xlink" viewBox="-21 -21 42 42">
	<title>Squared VS</title>
	<metadata>
		<rdf:RDF xmlns:rdf="http://www.w3.org/1999/02/22-rdf-syntax-ns#" xmlns:dc="http://purl.org/dc/elements/1.1/" xmlns:cc="http://creativecommons.org/ns#">
			<cc:Work rdf:about="">
				<dc:creator>
					<cc:Agent>
						<dc:title>Frank Bruder</dc:title>
					</cc:Agent>
				</dc:creator>
				<cc:license rdf:resource="http://creativecommons.org/licenses/by-nc-sa/4.0/"/>
				<cc:attributionName>Frank Bruder</cc:attributionName>
				<cc:attributionURL rdf:resource="http://frabru.de/"/>
			</cc:Work>
		</rdf:RDF>
	</metadata>
	<rect fill="#69c" rx="5" ry="5" x="-19" y="-19" width="38" height="38"/>
	<path fill="#069" d="M19 -14l-17 13l17 13zM-19 14l17 -13l-17 -13z"/>
	<rect fill="none" stroke="#09c" stroke-width="1.5" rx="5" ry="5" x="-19" y="-19" width="38" height="38"/>
	<path fill="#fff" d="M-17 -10h4l4 16l4 -16h4l-5 20h-6l-5 -20zM15 -10v4h-6a4 2 0 0 0 0 4a8 6 0 1 1 0 12h-9v-4h9a4 2 0 0 0 0 -4a8 6 0 1 1 0 -12z"/>
</svg>
