<?xml version="1.0" encoding="utf-8"?>
<!DOCTYPE svg PUBLIC "-//W3C//DTD SVG 1.1//EN" "http://www.w3.org/Graphics/SVG/1.1/DTD/svg11.dtd">
<svg version="1.1" xmlns="http://www.w3.org/2000/svg" xmlns:xlink="http://www.w3.org/1999/xlink" viewBox="-21 -21 42 42">
	<title>Squared FREE</title>
	<metadata>
		<rdf:RDF xmlns:rdf="http://www.w3.org/1999/02/22-rdf-syntax-ns#" xmlns:dc="http://purl.org/dc/elements/1.1/" xmlns:cc="http://creativecommons.org/ns#">
			<cc:Work rdf:about="">
				<dc:creator>
					<cc:Agent>
						<dc:title>Frank Bruder</dc:title>
					</cc:Agent>
				</dc:creator>
				<cc:license rdf:resource="http://creativecommons.org/licenses/by-nc-sa/4.0/"/>
				<cc:attributionName>Frank Bruder</cc:attributionName>
				<cc:attributionURL rdf:resource="http://frabru.de/"/>
			</cc:Work>
		</rdf:RDF>
	</metadata>
	<rect fill="#c33" rx="5.75" ry="5.75" x="-19.75" y="-19.75" width="39.5" height="39.5"/>
	<path fill="#f60" d="M-18.25 -14l5 -4h26.5l5 4v28l-5 4h-26.5l-5 -4z"/>
	<path fill="#ff0" d="M-18.25 -14a4.25 4.25 0 0 1 4.25 -4.25h28a4.25 4.25 0 0 1 4.25 4.25l-4.75 4.5l-4 -6l-5 5l-4.5 -6l-4.5 6l-5 -5l-4 6l-4.75 -4.5z"/>
	<path fill="#ff0" d="M18.25 14a4.25 4.25 0 0 1 -4.25 4.25h-28a4.25 4.25 0 0 1 -4.25 -4.25l4.75 -4.5l4 6l5 -5l4.5 6l4.5 -6l5 5l4 -6l4.75 4.5z"/>
	<path fill="#fff" d="M-17 -8h8v3h-5v4h4v3h-4v6h-3M-8 -8h4.9a4 4 0 0 1 4 4v2a4 4 0 0 1 -1.6 3.2l1.7 6.8h-3l-1.5 -6h-1.5v6h-3zM-5 -1h2a1 1 0 0 0 1 -1v-2a1 1 0 0 0 -1 -1h-2zM2 -8h7v3h-4v3.5h3v3h-3v3.5h4v3h-7zM10 -8h7v3h-4v3.5h3v3h-3v3.5h4v3h-7z"/>
</svg>
