<?xml version="1.0" encoding="utf-8"?>
<!DOCTYPE svg PUBLIC "-//W3C//DTD SVG 1.1//EN" "http://www.w3.org/Graphics/SVG/1.1/DTD/svg11.dtd">
<svg version="1.1" xmlns="http://www.w3.org/2000/svg" xmlns:xlink="http://www.w3.org/1999/xlink" viewBox="-21 -21 42 42">
	<title>Happy person raising one hand, dark skin tone</title>
	<metadata>
		<rdf:RDF xmlns:rdf="http://www.w3.org/1999/02/22-rdf-syntax-ns#" xmlns:dc="http://purl.org/dc/elements/1.1/" xmlns:cc="http://creativecommons.org/ns#">
			<cc:Work rdf:about="">
				<dc:creator>
					<cc:Agent>
						<dc:title>Frank Bruder</dc:title>
					</cc:Agent>
				</dc:creator>
				<cc:license rdf:resource="http://creativecommons.org/licenses/by-nc-sa/4.0/"/>
				<cc:attributionName>Frank Bruder</cc:attributionName>
				<cc:attributionURL rdf:resource="http://frabru.de/"/>
			</cc:Work>
		</rdf:RDF>
	</metadata>
	<path d="M-13.5 -13.5c1 -1.5 1 -3.5 2 -4.5s3 -1 4 -1s2 1.5 2 2s-1 2 -1 3c0 1 -2 2 -3.5 3" fill="#5f3d2e" stroke="#000" stroke-width="1.5" stroke-linejoin="round"/>
	<path d="M-12.5 20q0 -3 0.5 -7.5c-3 -4 -6 -11 -6 -14s2 -9 4 -12q2.5 1.5 4.5 2.5q0 3 -1 9q2 3 4 7q3 0 7 1c4 -1 9 0 12 2s5 8 5 12m-7 0q0 -4 -0.3 -6" fill="#6f9" stroke="#000" stroke-width="1.5" stroke-linejoin="miter"/>
	<circle cx="0" cy="-3" r="9.5" fill="#5f3d2e" stroke="#000" stroke-width="1.5"/>
	<circle cx="3" cy="-5" r="1" fill="#000"/>
	<circle cx="-3" cy="-5" r="1" fill="#000"/>
	<ellipse cx="0" cy="0.5" rx="2.5" ry="1.5" fill="#000"/>
</svg>
