<?xml version="1.0" encoding="utf-8"?>
<!DOCTYPE svg PUBLIC "-//W3C//DTD SVG 1.1//EN" "http://www.w3.org/Graphics/SVG/1.1/DTD/svg11.dtd">
<svg version="1.1" xmlns="http://www.w3.org/2000/svg" xmlns:xlink="http://www.w3.org/1999/xlink" viewBox="-21 -21 42 42">
	<title>Squared NEW</title>
	<metadata>
		<rdf:RDF xmlns:rdf="http://www.w3.org/1999/02/22-rdf-syntax-ns#" xmlns:dc="http://purl.org/dc/elements/1.1/" xmlns:cc="http://creativecommons.org/ns#">
			<cc:Work rdf:about="">
				<dc:creator>
					<cc:Agent>
						<dc:title>Frank Bruder</dc:title>
					</cc:Agent>
				</dc:creator>
				<cc:license rdf:resource="http://creativecommons.org/licenses/by-nc-sa/4.0/"/>
				<cc:attributionName>Frank Bruder</cc:attributionName>
				<cc:attributionURL rdf:resource="http://frabru.de/"/>
			</cc:Work>
		</rdf:RDF>
	</metadata>
	<rect fill="#3c3" rx="5.75" ry="5.75" x="-19.75" y="-19.75" width="39.5" height="39.5"/>
	<path fill="#090" d="M-18.25 -14l5 -4h26.5l5 4v28l-5 4h-26.5l-5 -4z"/>
	<path fill="#ff0" d="M-18.25 -14a4.25 4.25 0 0 1 4.25 -4.25h28a4.25 4.25 0 0 1 4.25 4.25l-4.75 4.5l-4 -6l-5 5l-4.5 -6l-4.5 6l-5 -5l-4 6l-4.75 -4.5z"/>
	<path fill="#ff0" d="M18.25 14a4.25 4.25 0 0 1 -4.25 4.25h-28a4.25 4.25 0 0 1 -4.25 -4.25l4.75 -4.5l4 6l5 -5l4.5 6l4.5 -6l5 5l4 -6l4.75 4.5z"/>
	<path fill="#fff" d="M-17 -8h1l6 8v-8h3v16h-1l-6 -8v8h-3zM-6 -8h7v3h-4v3.5h3v3h-3v3.5h4v3h-7zM2 -8h3l1.5 12l2.5 -7.5h1l2.5 7.5l1.5 -12h3l-2 16h-4l-1.5 -4.5l-1.5 4.5h-4l-2 -16z"/>
</svg>
