<?xml version="1.0" encoding="utf-8"?>
<!DOCTYPE svg PUBLIC "-//W3C//DTD SVG 1.1//EN" "http://www.w3.org/Graphics/SVG/1.1/DTD/svg11.dtd">
<svg version="1.1" xmlns="http://www.w3.org/2000/svg" xmlns:xlink="http://www.w3.org/1999/xlink" viewBox="-21 -21 42 42">
	<title>Person bowing deeply</title>
	<metadata>
		<rdf:RDF xmlns:rdf="http://www.w3.org/1999/02/22-rdf-syntax-ns#" xmlns:dc="http://purl.org/dc/elements/1.1/" xmlns:xhv="http://www.w3.org/1999/xhtml/vocab#">
			<rdf:Description rdf:about="">
				<dc:creator>
					<rdf:Description rdf:about="http://purl.org/net/2008,frankbruder/id">
						<dc:title>Frank Bruder</dc:title>
					</rdf:Description>
				</dc:creator>
				<xhv:license rdf:resource="http://creativecommons.org/licenses/by-nc-sa/4.0/"/>
			</rdf:Description>
		</rdf:RDF>
	</metadata>
	<path d="M-11 19c-6 0 -8 -3 -8 -6s2 -10 3 -13s5 -10 16 -10s15 7 16 10s3 10 3 13s-2 6 -8 6h-22z" fill="#6f9" stroke="#000" stroke-width="1.5"/>
	<path d="M-8 13q-2 -2 -5 -2" fill="none" stroke="#000" stroke-width="1.5" stroke-linecap="round"/>
	<path d="M8 13q2 -2 5 -2" fill="none" stroke="#000" stroke-width="1.5" stroke-linecap="round"/>
	<circle cx="0" cy="2" r="10" fill="#efff00" stroke="#000" stroke-width="1.5"/>
	<path d="m4 6q-1 0.8 -2 1.4q1.5 -0.25 3 0" fill="none" stroke="#000" stroke-width="1.5" stroke-linecap="round" stroke-linejoin="round"/>
	<path d="m-4 6q1 0.8 2 1.4q-1.5 -0.25 -3 0" fill="none" stroke="#000" stroke-width="1.5" stroke-linecap="round" stroke-linejoin="round"/>
	<path d="M-1 19c0 -1 0 -3 -1 -4s-5 -2 -6 -2s-4 1 -4 3s0 2 1 3s10 1 10 0" fill="#efff00" stroke="#000" stroke-width="1.5" stroke-linejoin="round"/>
	<path transform="scale(-1 1)" d="M-1 19c0 -1 0 -3 -1 -4s-5 -2 -6 -2s-4 1 -4 3s0 2 1 3s10 1 10 0" fill="#efff00" stroke="#000" stroke-width="1.5" stroke-linejoin="round"/>
	<path d="M-5 -12l-2 -6l-4 -1l4 6zM0 -12l1 -2l1 -6l-2 0l-2 1l1 6l1 1zM5 -12l2 -6l4 -1l-4 6z" stroke="none" fill="#30f"/>
</svg>
