<?xml version="1.0" encoding="utf-8"?>
<!DOCTYPE svg PUBLIC "-//W3C//DTD SVG 1.1//EN" "http://www.w3.org/Graphics/SVG/1.1/DTD/svg11.dtd">
<svg version="1.1" xmlns="http://www.w3.org/2000/svg" xmlns:xlink="http://www.w3.org/1999/xlink" viewBox="-21 -21 42 42">
	<title>Face with tears of joy</title>
	<metadata>
		<rdf:RDF xmlns:rdf="http://www.w3.org/1999/02/22-rdf-syntax-ns#" xmlns:dc="http://purl.org/dc/elements/1.1/" xmlns:xhv="http://www.w3.org/1999/xhtml/vocab#">
			<rdf:Description rdf:about="">
				<dc:creator>
					<rdf:Description rdf:about="http://purl.org/net/2008,frankbruder/id">
						<dc:title>Frank Bruder</dc:title>
					</rdf:Description>
				</dc:creator>
				<xhv:license rdf:resource="http://creativecommons.org/licenses/by-nc-sa/4.0/"/>
			</rdf:Description>
		</rdf:RDF>
	</metadata>
	<path d="M-4 -12q4 -1 8 0q3 -5 12 -7q2 7 0 15q7 23 -16 23t-16 -23q-2 -8 0 -15q9 2 12 7z" fill="#efff00" stroke="#000" stroke-width="2"/>
	<path d="M6 -11q2.8 -4 8.4 -5.5q1 6 -0.2 11q-3 -4.39 -8.2 -5.5" fill="#fc9"/>
	<path d="M-6 -11q-2.8 -4 -8.4 -5.5q-1 6 0.2 11q3 -4.39 8.2 -5.5" fill="#fc9"/>
	<path d="M3 -3C5 -7 9 -7 11 -3Z" fill="#fff" stroke="#000" stroke-width="2" stroke-linejoin="round"/>
	<path d="M-3 -3C-5 -7 -9 -7 -11 -3Z" fill="#fff" stroke="#000" stroke-width="2" stroke-linejoin="round"/>
	<circle cx="6" cy="-5" r="1.25" fill="#000"/>
	<circle cx="-6" cy="-5" r="1.25" fill="#000"/>
	<g transform="translate(-11 -3) scale(0.375)">
		<path d="m0 0c-4 4 -4 7 -4 10c0 4 0 10 -6 10s-7 -6 -7 -9s1 -10 17 -11z" fill="#87ceeb" stroke="#7f80ff" stroke-width="4" stroke-linejoin="round"/>
<!--
		<path d="m0 0c-4 4 -4 7 -4 10c0 4 0 10 -6 10s-7 -6 -6 -9s5 -10 16 -11z" fill="#87ceeb" stroke="#7f80ff" stroke-width="4" stroke-linejoin="round"/>
-->
		<circle r="1" cx="-11" cy="4" fill="#fff"/>
		<circle r="2" cx="-13" cy="6" fill="#fff"/>
	</g>
	<g transform="translate(11 -3) scale(0.375) scale(-1 1)">
		<path d="m0 0c-4 4 -4 7 -4 10c0 4 0 10 -6 10s-7 -6 -7 -9s1 -10 17 -11z" fill="#87ceeb" stroke="#7f80ff" stroke-width="4" stroke-linejoin="round"/>
		<circle r="1" cx="-5" cy="6" fill="#fff"/>
		<circle r="2" cx="-6" cy="12" fill="#fff"/>
	</g>
	<g>
		<path d="M11 4Q5 15 0 15T-11 4Q0 5 11 4z" fill="#fff" stroke="none"/>
		<path d="m3 10q4 -0.2 6 -1l-2 1.5z" fill="#ccb"/>
		<path d="m-3 10q-4 -0.2 -6 -1l2 1.5z" fill="#ccb"/>
		<path d="M11 4Q5 15 0 15T-11 4Q0 5 11 4z" fill="none" stroke="#000" stroke-width="2" stroke-linejoin="round"/>
	</g>
	<path d="M-2.5 0.5c0.2 -0.4 4.8 -0.4 5 0s-2 3 -2.5 3s-2.7 -2.6 -2.5 -3z" fill="#fc9"/>
</svg>
