<?xml version="1.0" encoding="utf-8"?>
<!DOCTYPE svg PUBLIC "-//W3C//DTD SVG 1.1//EN" "http://www.w3.org/Graphics/SVG/1.1/DTD/svg11.dtd">
<svg version="1.1" xmlns="http://www.w3.org/2000/svg" xmlns:xlink="http://www.w3.org/1999/xlink" viewBox="-21 -21 42 42">
	<title>Squared NG</title>
	<metadata>
		<rdf:RDF xmlns:rdf="http://www.w3.org/1999/02/22-rdf-syntax-ns#" xmlns:dc="http://purl.org/dc/elements/1.1/" xmlns:cc="http://creativecommons.org/ns#">
			<cc:Work rdf:about="">
				<dc:creator>
					<cc:Agent>
						<dc:title>Frank Bruder</dc:title>
					</cc:Agent>
				</dc:creator>
				<cc:license rdf:resource="http://creativecommons.org/licenses/by-nc-sa/4.0/"/>
				<cc:attributionName>Frank Bruder</cc:attributionName>
				<cc:attributionURL rdf:resource="http://frabru.de/"/>
			</cc:Work>
		</rdf:RDF>
	</metadata>
	<rect fill="#f00" stroke="#933" stroke-width="1.5" rx="5" ry="5" x="-19" y="-19" width="38" height="38"/>
	<path fill="none" stroke="#f99" stroke-width="5" stroke-linecap="round" d="M-15 -15H15M-15 15H15"/>
	<path fill="none" stroke="#fcc" stroke-width="3" stroke-linecap="round" d="M-15 -15H-3M15 -15H3M-15 15H-3M15 15H3"/>
	<path fill="#fff" d="M-17 -11.75h4l8 15v-15h4v23.5h-4l-8 -15v15h-4zM1 -2a10 10 0 0 1 16 -8l-2.4 3.2a6 6 0 0 0 -9.6 4.8v4a6 6 0 0 0 6 6a4.25 4.25 0 0 0 2 -0.5v-5.5h-3v-4h7v12a10 10 0 0 1 -16 -8z"/>
</svg>
