<?xml version="1.0" encoding="utf-8"?>
<!DOCTYPE svg PUBLIC "-//W3C//DTD SVG 1.1//EN" "http://www.w3.org/Graphics/SVG/1.1/DTD/svg11.dtd">
<svg version="1.1" xmlns="http://www.w3.org/2000/svg" xmlns:xlink="http://www.w3.org/1999/xlink" viewBox="-21 -21 42 42">
	<title>Squared UP!</title>
	<metadata>
		<rdf:RDF xmlns:rdf="http://www.w3.org/1999/02/22-rdf-syntax-ns#" xmlns:dc="http://purl.org/dc/elements/1.1/" xmlns:cc="http://creativecommons.org/ns#">
			<cc:Work rdf:about="">
				<dc:creator>
					<cc:Agent>
						<dc:title>Frank Bruder</dc:title>
					</cc:Agent>
				</dc:creator>
				<cc:license rdf:resource="http://creativecommons.org/licenses/by-nc-sa/4.0/"/>
				<cc:attributionName>Frank Bruder</cc:attributionName>
				<cc:attributionURL rdf:resource="http://frabru.de/"/>
			</cc:Work>
		</rdf:RDF>
	</metadata>
	<rect fill="#00f" rx="8" ry="8" x="-20" y="-20" width="40" height="40"/>
	<rect fill="#ff0" x="-16" y="12" width="32" height="4"/>
	<path fill="#ff0" d="M-16 -12h4v14a2 2 0 0 0 4 0v-14h4v14a6 6 0 0 1 -12 0zM-2 -12h6a6 6 0 0 1 6 6v4a6 6 0 0 1 -6 6h-2v4h-4v-20zm4 12h2a2 2 0 0 0 2 -2v-4a2 2 0 0 0 -2 -2h-2zM12 -12h4v12h-4v-12zm2 15.5a2.5 2.5 0 1 1 0 5a2.5 2.5 0 0 1 0 -5z"/>
</svg>
