<?xml version="1.0" encoding="utf-8"?>
<!DOCTYPE svg PUBLIC "-//W3C//DTD SVG 1.1//EN" "http://www.w3.org/Graphics/SVG/1.1/DTD/svg11.dtd">
<svg version="1.1" xmlns="http://www.w3.org/2000/svg" xmlns:xlink="http://www.w3.org/1999/xlink" viewBox="-21 -21 42 42">
	<title>Person frowning, medium-dark skin tone</title>
	<metadata>
		<rdf:RDF xmlns:rdf="http://www.w3.org/1999/02/22-rdf-syntax-ns#" xmlns:dc="http://purl.org/dc/elements/1.1/" xmlns:cc="http://creativecommons.org/ns#">
			<cc:Work rdf:about="">
				<dc:creator>
					<cc:Agent>
						<dc:title>Frank Bruder</dc:title>
					</cc:Agent>
				</dc:creator>
				<cc:license rdf:resource="http://creativecommons.org/licenses/by-nc-sa/4.0/"/>
				<cc:attributionName>Frank Bruder</cc:attributionName>
				<cc:attributionURL rdf:resource="http://frabru.de/"/>
			</cc:Work>
		</rdf:RDF>
	</metadata>
	<path d="M-19 20c0 -5 0 -9 2 -11s6 -2 17 -5c11 3 15 3 17 5s2 6 2 11" fill="#6f9" stroke="#000" stroke-width="1.5" stroke-linejoin="round"/>
	<path d="M12 20q-0.5 -2 -1 -5q0 3 -0.5 5M-12 20q0.5 -2 1 -5q0 3 0.5 5" fill="#3c6" stroke="none"/>
	<circle cx="0" cy="-5" r="14.25" fill="#a4775e" stroke="#000" stroke-width="1.5"/>
	<circle cx="4.5" cy="-8" r="1.5" fill="#000"/>
	<circle cx="-4.5" cy="-8" r="1.5" fill="#000"/>
	<path d="M-4.5 2.5a7.5 7.5 0 0 1 9 0" fill="none" stroke="#000" stroke-width="1.5"/>
</svg>
