<?xml version="1.0" encoding="utf-8"?>
<!DOCTYPE svg PUBLIC "-//W3C//DTD SVG 1.1//EN" "http://www.w3.org/Graphics/SVG/1.1/DTD/svg11.dtd">
<svg version="1.1" xmlns="http://www.w3.org/2000/svg" xmlns:xlink="http://www.w3.org/1999/xlink" viewBox="-21 -21 42 42">
 <title>Face throwing a kiss</title>
 <metadata>
  <rdf:RDF xmlns:rdf="http://www.w3.org/1999/02/22-rdf-syntax-ns#" xmlns:dc="http://purl.org/dc/elements/1.1/" xmlns:xhv="http://www.w3.org/1999/xhtml/vocab#">
   <rdf:Description rdf:about="">
    <dc:creator>
     <rdf:Description rdf:about="http://purl.org/net/2008,frankbruder/id">
      <dc:title>Frank Bruder</dc:title>
     </rdf:Description>
    </dc:creator>
    <xhv:license rdf:resource="http://creativecommons.org/licenses/by-nc-sa/4.0/"/>
   </rdf:Description>
  </rdf:RDF>
 </metadata>
 <circle cx="0" cy="0" r="19" fill="#efff00" stroke="#000" stroke-width="2"/>
 <path d="m6.4 -7q-1.2 1.4 -2.4 2.5c0.2 0.3 3 -0.8 6 -0.7" fill="none" stroke="#000" stroke-width="1.5" stroke-linecap="round" stroke-linejoin="round"/>
 <path d="m3 4a5 5 0 1 0 -7 -1z" transform="translate(-5 -5) scale(0.5)" fill="#000"/>
 <path d="M2 2 q 1.04 1.2 3.12 1.8 q 0 1.8 -2.1 3 q 2.5 1 2.5 2.6 q -1.9 1 -3.1 2.6" fill="none" stroke="black" stroke-width="2" stroke-linejoin="round" stroke-linecap="round"/>
 <g transform="translate(14 5) scale(0.6)">
  <path d="M10 -4 C10 0 8 2 0 9 C-8 2 -10 0 -10 -4z" fill="#a02"/>
  <path d="M0 -5 C1 -8 3 -10 5.5 -10 S10 -8 10 -4 S8 -1 0 8 C-8 -1 -10 0 -10 -4 S -8 -10 -5.5 -10 S-1 -8 0 -5z" fill="#e04"/>
  <circle fill="#fff" cx="-6" cy="-7" r="2"/>
  <circle fill="#fff" cx="5" cy="-7" r="2"/>
 </g>
</svg>
