<?xml version="1.0" encoding="utf-8"?>
<!DOCTYPE svg PUBLIC "-//W3C//DTD SVG 1.1//EN" "http://www.w3.org/Graphics/SVG/1.1/DTD/svg11.dtd">
<svg version="1.1" xmlns="http://www.w3.org/2000/svg" xmlns:xlink="http://www.w3.org/1999/xlink" viewBox="-21 -21 42 42">
	<title>Exclamation question mark</title>
	<metadata>
		<rdf:RDF xmlns:rdf="http://www.w3.org/1999/02/22-rdf-syntax-ns#" xmlns:dc="http://purl.org/dc/elements/1.1/" xmlns:cc="http://creativecommons.org/ns#">
			<cc:Work rdf:about="">
				<dc:creator>
					<cc:Agent>
						<dc:title>Frank Bruder</dc:title>
					</cc:Agent>
				</dc:creator>
				<cc:license rdf:resource="http://creativecommons.org/licenses/by-nc-sa/4.0/"/>
				<cc:attributionName>Frank Bruder</cc:attributionName>
				<cc:attributionURL rdf:resource="http://frabru.de/"/>
			</cc:Work>
		</rdf:RDF>
	</metadata>
	<path d="M-11 -12a3 3 0 0 1 3 -3h8c2 0 4 -1 6 -1a9 9 0 0 1 9 9c0 6 -3.5 6 -3.5 17a5.5 5.5 0 0 1 -5.5 5.5h-12a5.5 5.5 0 0 1 -5.5 -5.5c0 -4 1.75 -4.5 1.5 -6q-1 -6 -1 -10" fill="#eee"/>
	<path d="M-9 -13h6v6q0 4 -1 10h-4q-1 -6 -1 -10zM-6 6.5a3.5 3.5 0 1 1 0 7a3.5 3.5 0 0 1 0 -7zM-1 -7a7 7 0 1 1 14 0q0 3 -2.5 6t-2.5 4h-4q0 -3.5 1.5 -6t1.5 -4a1 1 0 0 0 -2 0v1h-6zM6 6.5a3.5 3.5 0 1 1 0 7a3.5 3.5 0 0 1 0 -7z" fill="#111"/>
</svg>
