<?xml version="1.0" encoding="utf-8"?>
<!DOCTYPE svg PUBLIC "-//W3C//DTD SVG 1.1//EN" "http://www.w3.org/Graphics/SVG/1.1/DTD/svg11.dtd">
<svg version="1.1" xmlns="http://www.w3.org/2000/svg" xmlns:xlink="http://www.w3.org/1999/xlink" viewBox="-21 -21 42 42">
	<title>Hourglass with flowing sand</title>
	<metadata>
		<rdf:RDF xmlns:rdf="http://www.w3.org/1999/02/22-rdf-syntax-ns#" xmlns:dc="http://purl.org/dc/elements/1.1/" xmlns:xhv="http://www.w3.org/1999/xhtml/vocab#">
			<rdf:Description rdf:about="">
				<dc:creator>
					<rdf:Description rdf:about="http://purl.org/net/2008,frankbruder/id">
						<dc:title>Frank Bruder</dc:title>
					</rdf:Description>
				</dc:creator>
				<xhv:license rdf:resource="http://creativecommons.org/licenses/by-nc-sa/4.0/"/>
			</rdf:Description>
		</rdf:RDF>
	</metadata>
	<rect x="-4.5" y="-17" width="1.5" height="34" fill="#630"/>
	<path d="M-10.5 -17a10.5 2 0 1 0 21 0l-0.5 4a10 1.46 0 1 1 -20 0z" fill="#a76" stroke="#630" stroke-width="1" stroke-linejoin="round"/>
	<path d="M-10.5 17a10.5 2 0 1 1 21 0l-0.5 -4a10 1.46 0 1 0 -20 0z" fill="#a76" stroke="#630" stroke-width="1" stroke-linejoin="round"/>
	<path d="M-8 12c0 -2 0.375 -3.5 0.9375 -4.6875q7.0625 -2 14.125 0c0.5625 1.1875 0.9375 2.6875 0.9375 4.6875a8 3 0 1 1 -16 0z" fill="#ffc"/>
	<path d="M-5 -4.5q5 -2 10 0c-1.5 1.5 -3 2.5 -3 4.5h-1v7.3125h-2v-7.3125h-1c0 -2 -1.5 -3 -3 -4.5z" fill="#ffc"/>
	<path d="M8 -12c0 8 -6 8 -6 12s6 4 6 12a8 3 0 1 1 -16 0c0 -8 6 -8 6 -12s-6 -4 -6 -12a8 3 0 1 1 16 0z" fill="none" stroke="#99f" stroke-width="2"/>
	<path d="M-5.4 8q0.9 -1.8 2.4 -3M-5 -8q-0.9 -1.3 -1 -3M4.8 -8q0.9 -1.2 1 -2.6" fill="none" stroke="#fff" stroke-linecap="round"/>
	<path d="M-10.5 -17a10.5 2 0 1 1 21 0l-0.5 4a10 1.46 0 1 0 -20 0z" fill="#c96" stroke="#630" stroke-width="2" stroke-linejoin="round"/>
	<path d="M-10.5 -17a10.5 2 0 1 1 21 0l-0.5 4a10 1.46 0 1 0 -20 0z" fill="#c96" stroke="#630" stroke-width="2" stroke-linejoin="round" transform="scale(1 -1)"/>
	<rect x="9.3" y="-14" width="1.7" height="28" fill="#630"/>
	<rect x="-10" y="-14" width="2" height="28" fill="#630"/>
</svg>
