<?xml version="1.0" encoding="utf-8"?>
<!DOCTYPE svg PUBLIC "-//W3C//DTD SVG 1.1//EN" "http://www.w3.org/Graphics/SVG/1.1/DTD/svg11.dtd">
<svg version="1.1" xmlns="http://www.w3.org/2000/svg" xmlns:xlink="http://www.w3.org/1999/xlink" viewBox="-21 -21 42 42">
	<title>Alarm clock</title>
	<metadata>
		<rdf:RDF xmlns:rdf="http://www.w3.org/1999/02/22-rdf-syntax-ns#" xmlns:dc="http://purl.org/dc/elements/1.1/" xmlns:cc="http://creativecommons.org/ns#">
			<cc:Work rdf:about="">
				<dc:creator>
					<cc:Agent>
						<dc:title>Frank Bruder</dc:title>
					</cc:Agent>
				</dc:creator>
				<cc:license rdf:resource="http://creativecommons.org/licenses/by-nc-sa/4.0/"/>
				<cc:attributionName>Frank Bruder</cc:attributionName>
				<cc:attributionURL rdf:resource="http://frabru.de/"/>
			</cc:Work>
		</rdf:RDF>
	</metadata>
	<circle cx="0" cy="2.5" r="17.5" fill="#040"/>
	<path transform="translate(11 19.25) rotate(-35)" d="M0 0h2.5l0.5 -3v-2h-3.5v2z" fill="#ccc" stroke="#040" stroke-width="1.5" stroke-linejoin="round"/>
	<path transform="scale(-1 1) translate(11 19.25) rotate(-35)" d="M0 0h2.5l0.5 -3v-2h-3.5v2z" fill="#ccc" stroke="#040" stroke-width="1.5" stroke-linejoin="round"/>
	<g transform="translate(0 2.5)">
		<path transform="rotate(-30)" d="M-6 -15v-2q0 -5 6 -5t6 5v2M-1 -23a0.707107 0.707107 0 1 1 2 0" fill="#040" stroke="#040" stroke-width="3" stroke-linejoin="round"/>
		<path transform="rotate(30)" d="M-6 -15v-2q0 -5 6 -5t6 5v2M-1 -23a0.707107 0.707107 0 1 1 2 0" fill="#040" stroke="#040" stroke-width="3" stroke-linejoin="round"/>
		<g transform="rotate(2.8)">
			<path d="M-0.5 -15v-3h-2q-0.7 -1 0 -2h5q0.7 1 0 2h-2v3z" fill="none" stroke="#040" stroke-width="3" stroke-linejoin="round"/>
			<path d="M-0.5 -15v-3h-2q-0.7 -1 0 -2h5q0.7 1 0 2h-2v3z" fill="#ccc"/>
		</g>
		<g transform="rotate(-30)">
			<path d="M-1 -15v-8a0.707107 0.707107 0 1 1 2 0v8z" fill="#ccc"/>
			<path d="M-6 -17q0 -5 6 -5t6 5z" fill="#6e3"/>
		</g>
		<g transform="rotate(30)">
			<path d="M-1 -15v-8a0.707107 0.707107 0 1 1 2 0v8z" fill="#ccc"/>
			<path d="M-6 -17q0 -5 6 -5t6 5z" fill="#6e3"/>
		</g>
		<circle cx="0" cy="0" r="16" fill="#6e3"/>
		<circle cx="0" cy="0" r="14.5" fill="#4c1"/>
		<circle cx="0" cy="0" r="14" fill="#6e3"/>
		<circle cx="0" cy="0" r="13" fill="#eee" stroke="none"/>
		<circle cx="1" cy="1" r="11" fill="#fff" stroke="none"/>
		<path d="M9 0l1.5 -1l1.5 1l-1.5 1l-1.5 -1zM0 9l-1 1.5l1 1.5l1 -1.5l-1 -1.5zM-9 0l-1.5 1l-1.5 -1l1.5 -1l1.5 1zM0 -9l1 -1.5l-1 -1.5l-1 1.5l1 1.5z" fill="#000"/>
		<path transform="rotate(30)" d="M10 0h2M0 10v2M-10 0h-2M0 -10v-2" fill="none" stroke="#666" stroke-width="0.75"/>
		<path transform="rotate(60)" d="M10 0h2M0 10v2M-10 0h-2M0 -10v-2" fill="none" stroke="#666" stroke-width="0.75"/>
		<circle cx="0" cy="0" r="2" fill="#d32"/>
		<path transform="rotate(211)" d="M-1.3 0l0.5 -7l0.8 -4l0.8 4l0.5 7" fill="#d32"/>
		<path transform="rotate(-55)" d="M-0.9 0l-0.1 -5.7l1 -1.3l1 1.3l-0.1 5.7z" fill="#000"/>
		<path transform="rotate(60)" d="M0.75 -1a1.25 1.25 0 1 1 -1.5 0v-9l0.75 -0.5l0.75 0.5v9z" fill="#000"/>
	</g>
</svg>
