<?xml version="1.0" encoding="utf-8"?>
<!DOCTYPE svg PUBLIC "-//W3C//DTD SVG 1.1//EN" "http://www.w3.org/Graphics/SVG/1.1/DTD/svg11.dtd">
<svg version="1.1" xmlns="http://www.w3.org/2000/svg" xmlns:xlink="http://www.w3.org/1999/xlink" viewBox="-21 -21 42 42">
	<title>Timer clock</title>
	<metadata>
		<rdf:RDF xmlns:rdf="http://www.w3.org/1999/02/22-rdf-syntax-ns#" xmlns:dc="http://purl.org/dc/elements/1.1/" xmlns:cc="http://creativecommons.org/ns#">
			<cc:Work rdf:about="">
				<dc:creator>
					<cc:Agent>
						<dc:title>Frank Bruder</dc:title>
					</cc:Agent>
				</dc:creator>
				<cc:license rdf:resource="http://creativecommons.org/licenses/by-nc-sa/4.0/"/>
				<cc:attributionName>Frank Bruder</cc:attributionName>
				<cc:attributionURL rdf:resource="http://frabru.de/"/>
			</cc:Work>
		</rdf:RDF>
	</metadata>
	<circle cx="0" cy="0" r="18" fill="#ddd" stroke="#555" stroke-width="1.5"/>
	<path d="M0 -14v-2" fill="none" stroke="#e43" stroke-width="2"/>
	<path d="M14 0h2M0 14v2M-14 0h-2" fill="none" stroke="#333" stroke-width="2"/>
	<path transform="rotate(15)" d="M0 -14v-2M14 0h2M0 14v2M-14 0h-2" fill="none" stroke="#666" stroke-width="2"/>
	<path transform="rotate(30)" d="M0 -14v-2M14 0h2M0 14v2M-14 0h-2" fill="none" stroke="#666" stroke-width="2"/>
	<path transform="rotate(45)" d="M0 -14v-2M14 0h2M0 14v2M-14 0h-2" fill="none" stroke="#333" stroke-width="2"/>
	<path transform="rotate(60)" d="M0 -14v-2M14 0h2M0 14v2" fill="none" stroke="#666" stroke-width="2"/>
	<path transform="rotate(75)" d="M0 -14v-2M14 0h2M0 14v2" fill="none" stroke="#666" stroke-width="2"/>
	<circle cx="0" cy="0" r="13" fill="#eee"/>
	<g transform="rotate(96)">
		<circle cx="0" cy="0" r="10" fill="#ddd"/>
		<path d="M0 -12h-1c-1 0 -5 3 -5 4v16c0 1 2 3 3 3h6z" fill="#fff"/>
		<path d="M0 -12h1c1 0 5 3 5 4v16c0 1 -2 3 -3 3l-2 -2z" fill="#ccc"/>
		<path d="M0 -12c1 0 4 3 4 5v14c0 2 -1 3 -3 3h-2c-2 0 -3 -1 -3 -3v-14c0 -2 3 -5 4 -5z" fill="#ddd"/>
		<path d="M0 -12l2 4h-4z" fill="#e43"/>
	</g>
</svg>
