<?xml version="1.0" encoding="utf-8"?>
<!DOCTYPE svg PUBLIC "-//W3C//DTD SVG 1.1//EN" "http://www.w3.org/Graphics/SVG/1.1/DTD/svg11.dtd">
<svg version="1.1" xmlns="http://www.w3.org/2000/svg" xmlns:xlink="http://www.w3.org/1999/xlink" viewBox="-21 -21 42 42">
	<title>Tent</title>
	<metadata>
		<rdf:RDF xmlns:rdf="http://www.w3.org/1999/02/22-rdf-syntax-ns#" xmlns:dc="http://purl.org/dc/elements/1.1/" xmlns:cc="http://creativecommons.org/ns#">
			<cc:Work rdf:about="">
				<dc:creator>
					<cc:Agent>
						<dc:title>Frank Bruder</dc:title>
					</cc:Agent>
				</dc:creator>
				<cc:license rdf:resource="http://creativecommons.org/licenses/by-nc-sa/4.0/"/>
				<cc:attributionName>Frank Bruder</cc:attributionName>
				<cc:attributionURL rdf:resource="http://frabru.de/"/>
			</cc:Work>
		</rdf:RDF>
	</metadata>
	<path fill="#668" d="M-4 -9l15 27q-15 1 -30 0z"/>
	<path fill="none" stroke="#777" stroke-width="1" stroke-linecap="round" d="M-4 19v-28"/>
	<path fill="none" stroke="#ccc" stroke-width="1" stroke-linecap="round" d="M-4 -9v-2M9 0v-2"/>
	<path fill="#bbd" stroke="#668" stroke-width="1" stroke-linejoin="round" d="M-4 -9q7 6 13 9l10 17.75q-5 -0.5 -8 0.75"/>
	<path fill="#ddf" stroke="#bbd" stroke-width="1" stroke-linejoin="round" d="M-4 -9q0 21 -6 25q1 3 -3 3h-3q-1 0 -3 -0.5M-4 -9c0 9 2 22 0 28h12q1 0 3 -0.5"/>
	<path fill="none" stroke="#000" stroke-width="1.5" stroke-linecap="round" stroke-linejoin="round" d="M-19 19l15 -28q7 6 13 9l10 18"/>
	<path fill="none" stroke="#000" stroke-width="1" stroke-linecap="round" stroke-linejoin="round" d="M-4 -9l15.13 28.25"/>
	<path fill="none" stroke="#999" stroke-width="1" stroke-linecap="round" stroke-linejoin="round" d="M-3.5 -10l-1 -0.25l-11 29.75q-0.25 -0.2 -0.5 -0.2"/>
</svg>
