<?xml version="1.0" encoding="utf-8"?>
<!DOCTYPE svg PUBLIC "-//W3C//DTD SVG 1.1//EN" "http://www.w3.org/Graphics/SVG/1.1/DTD/svg11.dtd">
<svg version="1.1" xmlns="http://www.w3.org/2000/svg" xmlns:xlink="http://www.w3.org/1999/xlink" viewBox="-21 -21 42 42">
	<title>Umbrella on ground</title>
	<metadata>
		<rdf:RDF xmlns:rdf="http://www.w3.org/1999/02/22-rdf-syntax-ns#" xmlns:dc="http://purl.org/dc/elements/1.1/" xmlns:cc="http://creativecommons.org/ns#">
			<cc:Work rdf:about="">
				<dc:creator>
					<cc:Agent>
						<dc:title>Frank Bruder</dc:title>
					</cc:Agent>
				</dc:creator>
				<cc:license rdf:resource="http://creativecommons.org/licenses/by-nc-sa/4.0/"/>
				<cc:attributionName>Frank Bruder</cc:attributionName>
				<cc:attributionURL rdf:resource="http://frabru.de/"/>
			</cc:Work>
		</rdf:RDF>
	</metadata>
	<path d="M-20 12h40a20 7 0 0 1 -40 0z" fill="#ed9"/>
	<g transform="translate(-2 0) rotate(18)">
		<path d="M0 0v-10" fill="none" stroke="#ddd" stroke-width="2"/>
		<rect x="-1.5" y="-10" width="3" height="10" fill="#ddd" stroke="#999" stroke-width="1"/>
		<path d="M2 -17q13 6 17 10a19 3 0 0 1 -38 0q4 -4 17 -10z" fill="#fff"/>
		<path d="M0 -17q14 6 19 10l-2.5 1.5q-4.4 -4.6 -16.5 -11.5zM0 -17q7 7.6 9.5 12.6l-9.5 0.4zM0 -17q-7 7.6 -9.5 12.6l-7 -1.1q4.4 -4.6 16.5 -11.5z" fill="#9f9"/>
		<path d="M2 -17q13 6 17 10a19 3 0 0 1 -38 0q4 -4 17 -10z" fill="none" stroke="#999" stroke-width="1.5" stroke-linejoin="round"/>
		<path d="M0 -18.5l8 3a8 1 0 0 1 -16 0l8 -3z" fill="#fff" stroke="#999" stroke-width="1.5" stroke-linejoin="round"/>
	</g>
	<circle cx="-2" cy="0" r="2.25" fill="#999"/>
	<rect x="-3.5" y="0" width="3" height="14.5" rx="1.5" ry="0.4" fill="#ddd" stroke="#999" stroke-width="1"/>
	<circle cx="-2" cy="0" r="1.25" fill="#ddd"/>
</svg>
