<?xml version="1.0" encoding="utf-8"?>
<!DOCTYPE svg PUBLIC "-//W3C//DTD SVG 1.1//EN" "http://www.w3.org/Graphics/SVG/1.1/DTD/svg11.dtd">
<svg version="1.1" xmlns="http://www.w3.org/2000/svg" xmlns:xlink="http://www.w3.org/1999/xlink" viewBox="-21 -21 42 42">
	<title>Black sun with rays</title>
	<metadata>
		<rdf:RDF xmlns:rdf="http://www.w3.org/1999/02/22-rdf-syntax-ns#" xmlns:dc="http://purl.org/dc/elements/1.1/" xmlns:cc="http://creativecommons.org/ns#">
			<cc:Work rdf:about="">
				<dc:creator>
					<cc:Agent>
						<dc:title>Frank Bruder</dc:title>
					</cc:Agent>
				</dc:creator>
				<cc:license rdf:resource="http://creativecommons.org/licenses/by-nc-sa/4.0/"/>
				<cc:attributionName>Frank Bruder</cc:attributionName>
				<cc:attributionURL rdf:resource="http://frabru.de/"/>
			</cc:Work>
		</rdf:RDF>
	</metadata>
	<path d="M0 -20q2.1 14.9 14 6q-8.9 11.9 6 14q-14.9 2.1 -6 14q-11.9 -8.9 -14 6q-2.1 -14.9 -14 -6q8.9 -11.9 -6 -14q14.9 -2.1 6 -14q11.9 8.9 14 -6z" fill="#dd0"/>
	<circle cx="0" cy="0" r="8" fill="#ffc"/>
	<path d="M0 -16l2 7h-4zM16 0l-7 2v-4zM0 16l-2 -7h4zM-16 0l7 -2v4z" fill="#ffc"/>
	<path d="M0 -16l2 7h-4zM16 0l-7 2v-4zM0 16l-2 -7h4zM-16 0l7 -2v4z" fill="#ffc" transform="rotate(45)"/>
</svg>
