<?xml version="1.0" encoding="utf-8"?>
<!DOCTYPE svg PUBLIC "-//W3C//DTD SVG 1.1//EN" "http://www.w3.org/Graphics/SVG/1.1/DTD/svg11.dtd">
<svg version="1.1" xmlns="http://www.w3.org/2000/svg" xmlns:xlink="http://www.w3.org/1999/xlink" viewBox="-21 -21 42 42">
	<title>Male with stroke and male and female sign</title>
	<metadata>
		<rdf:RDF xmlns:rdf="http://www.w3.org/1999/02/22-rdf-syntax-ns#" xmlns:dc="http://purl.org/dc/elements/1.1/" xmlns:cc="http://creativecommons.org/ns#">
			<cc:Work rdf:about="">
				<dc:creator>
					<cc:Agent>
						<dc:title>Frank Bruder</dc:title>
					</cc:Agent>
				</dc:creator>
				<cc:license rdf:resource="http://creativecommons.org/licenses/by-nc-sa/4.0/"/>
				<cc:attributionName>Frank Bruder</cc:attributionName>
				<cc:attributionURL rdf:resource="http://frabru.de/"/>
			</cc:Work>
		</rdf:RDF>
	</metadata>
	<path d="M0 5a7 7 0 1 1 0 -14a7 7 0 0 1 0 14zM-5 -7l-7 -7M-8 -16h-6v6M-10 -8l4 -4M5 -7l7 -7M8 -16h6v6M0 5v12M-5 12h10" fill="none" stroke="#5f3d2e" stroke-width="6" stroke-linecap="square"/>
	<path d="M0 5a7 7 0 1 1 0 -14a7 7 0 0 1 0 14zM-5 -7l-7 -7M-8 -16h-6v6M-10 -8l4 -4M5 -7l7 -7M8 -16h6v6M0 5v12M-5 12h10" fill="none" stroke="#e8e" stroke-width="3" stroke-linecap="square"/>
</svg>
