<?xml version="1.0" encoding="utf-8"?>
<!DOCTYPE svg PUBLIC "-//W3C//DTD SVG 1.1//EN" "http://www.w3.org/Graphics/SVG/1.1/DTD/svg11.dtd">
<svg version="1.1" xmlns="http://www.w3.org/2000/svg" xmlns:xlink="http://www.w3.org/1999/xlink" viewBox="-21 -21 42 42">
	<title>Scales</title>
	<metadata>
		<rdf:RDF xmlns:rdf="http://www.w3.org/1999/02/22-rdf-syntax-ns#" xmlns:dc="http://purl.org/dc/elements/1.1/" xmlns:xhv="http://www.w3.org/1999/xhtml/vocab#">
			<rdf:Description rdf:about="">
				<dc:creator>
					<rdf:Description rdf:about="http://purl.org/net/2008,frankbruder/id">
						<dc:title>Frank Bruder</dc:title>
					</rdf:Description>
				</dc:creator>
				<xhv:license rdf:resource="http://creativecommons.org/licenses/by-nc-sa/4.0/"/>
			</rdf:Description>
		</rdf:RDF>
	</metadata>
	<path d="M-18 -13h3.4l2 2l2 -2h6.6l1 -1q3 -3 6 0l1 1h6.6l2 2l2 -2h3.4v1a2 2 0 0 1 -2 2h-0.4l-1 1h-4l-1 -1h-19.2l-1 1h-4l-1 -1h-0.4a2 2 0 0 1 -2 -2z" fill="#fc3" stroke="#c90" stroke-width="1.5"/>
	<path d="M-12.5 19v-2q4 -1.4 11 -2v-1l-1 -3v-10l1 -3v-10q-1 -1 0 -3l1.5 -3l1.5 3q1 2 0 3v10l1 3v10l-1 3v1q7 0.6 11 2v2z" fill="#fc3" stroke="#c90" stroke-width="1.5"/>
	<circle cx="0" cy="-13.5" r="0.75" fill="#eb2"/>
	<path d="M-12.6 5v-18" fill="none" stroke="#ccc" stroke-width="1.5" stroke-linecap="round"/>
	<path d="M-19 5h12.8v1a8 8 0 0 1 -12.8 0z" fill="#fc3" stroke="#c90" stroke-width="1.5"/>
	<path d="M-18.1 5l5.5 -16l5.5 16" fill="none" stroke="#ccc" stroke-width="1.5" stroke-linecap="round" stroke-linejoin="round"/>

	<path d="M12.6 5v-18" fill="none" stroke="#ccc" stroke-width="1.5" stroke-linecap="round"/>
	<path d="M19 5v1a8 8 0 0 1 -12.8 0v-1z" fill="#fc3" stroke="#c90" stroke-width="1.5"/>
	<path d="M18.1 5l-5.5 -16l-5.5 16" fill="none" stroke="#ccc" stroke-width="1.5" stroke-linecap="round" stroke-linejoin="round"/>
</svg>
