<?xml version="1.0" encoding="utf-8"?>
<!DOCTYPE svg PUBLIC "-//W3C//DTD SVG 1.1//EN" "http://www.w3.org/Graphics/SVG/1.1/DTD/svg11.dtd">
<svg version="1.1" xmlns="http://www.w3.org/2000/svg" xmlns:xlink="http://www.w3.org/1999/xlink" viewBox="-21 -21 42 42">
	<title>Chains</title>
	<metadata>
		<rdf:RDF xmlns:rdf="http://www.w3.org/1999/02/22-rdf-syntax-ns#" xmlns:dc="http://purl.org/dc/elements/1.1/" xmlns:cc="http://creativecommons.org/ns#">
			<cc:Work rdf:about="">
				<dc:creator>
					<cc:Agent>
						<dc:title>Frank Bruder</dc:title>
					</cc:Agent>
				</dc:creator>
				<cc:license rdf:resource="http://creativecommons.org/licenses/by-nc-sa/4.0/"/>
				<cc:attributionName>Frank Bruder</cc:attributionName>
				<cc:attributionURL rdf:resource="http://frabru.de/"/>
			</cc:Work>
		</rdf:RDF>
	</metadata>
	<g>
		<path d="M-11.5 -16.5a1.5 1.5 0 0 1 3 0v13a1.5 1.5 0 0 1 -3 0z" fill="none" stroke="#334" stroke-width="2"/>
		<path d="M-11.5 3.5a1.5 1.5 0 0 1 3 0v13a1.5 1.5 0 0 1 -3 0z" fill="none" stroke="#334" stroke-width="2"/>
		<g>
			<path d="M-4.25 -20v2.5a5.75 5.75 0 0 1 -11.5 0v-2.5h3.5v2.5a2.25 2.25 0 0 0 4.5 0v-2.5z" fill="#bbc" stroke="none"/>
			<path d="M-4.25 -20v2.5a5.75 5.75 0 0 1 -11.5 0v-2.5m3.5 0v2.5a2.25 2.25 0 0 0 4.5 0v-2.5" fill="none" stroke="#334" stroke-width="1.5"/>
		</g>
		<path d="M-15.75 -2.5a5.75 5.75 0 0 1 11.5 0v5a5.75 5.75 0 0 1 -11.5 0v-5zm3.5 0v5a2.25 2.25 0 0 0 4.5 0v-5a2.25 2.25 0 0 0 -4.5 0z" fill="#bbc" stroke="#334" stroke-width="1.5"/>
		<g>
			<path d="M-15.75 20v-2.5a5.75 5.75 0 0 1 11.5 0v2.5h-3.5v-2.5a2.25 2.25 0 0 0 -4.5 0v2.5z" fill="#bbc" stroke="none"/>
			<path d="M-15.75 20v-2.5a5.75 5.75 0 0 1 11.5 0v2.5m-3.5 0v-2.5a2.25 2.25 0 0 0 -4.5 0v2.5" fill="none" stroke="#334" stroke-width="1.5"/>
		</g>
		<path d="M-11.5 -16.5a1.5 1.5 0 0 1 3 0v13a1.5 1.5 0 0 1 -3 0z" fill="#bbc" stroke="#334" stroke-width="1"/>
		<path d="M-11.5 3.5a1.5 1.5 0 0 1 3 0v13a1.5 1.5 0 0 1 -3 0z" fill="#bbc" stroke="#334" stroke-width="1"/>
	</g>
	<g>
		<path d="M11.5 -20v6.5a1.5 1.5 0 0 1 -3 0v-6.5" fill="none" stroke="#334" stroke-width="2"/>
		<path d="M8.5 -6.5a1.5 1.5 0 0 1 3 0v13a1.5 1.5 0 0 1 -3 0z" fill="none" stroke="#334" stroke-width="2"/>
		<path d="M8.5 20v-6.5a1.5 1.5 0 0 1 3 0v6.5" fill="none" stroke="#334" stroke-width="2"/>
		<path d="M4.25 -12.5a5.75 5.75 0 0 1 11.5 0v5a5.75 5.75 0 0 1 -11.5 0v-5zm3.5 0v5a2.25 2.25 0 0 0 4.5 0v-5a2.25 2.25 0 0 0 -4.5 0z" fill="#bbc" stroke="#334" stroke-width="1.5"/>
		<path d="M4.25 7.5a5.75 5.75 0 0 1 11.5 0v5a5.75 5.75 0 0 1 -11.5 0v-5zm3.5 0v5a2.25 2.25 0 0 0 4.5 0v-5a2.25 2.25 0 0 0 -4.5 0z" fill="#bbc" stroke="#334" stroke-width="1.5"/>
		<path d="M11.5 -20v6.5a1.5 1.5 0 0 1 -3 0v-6.5" fill="#bbc" stroke="#334" stroke-width="1"/>
		<path d="M8.5 -6.5a1.5 1.5 0 0 1 3 0v13a1.5 1.5 0 0 1 -3 0z" fill="#bbc" stroke="#334" stroke-width="1"/>
		<path d="M8.5 20v-6.5a1.5 1.5 0 0 1 3 0v6.5" fill="#bbc" stroke="#334" stroke-width="1"/>
	</g>
</svg>
