<?xml version="1.0" encoding="utf-8"?>
<!DOCTYPE svg PUBLIC "-//W3C//DTD SVG 1.1//EN" "http://www.w3.org/Graphics/SVG/1.1/DTD/svg11.dtd">
<svg version="1.1" xmlns="http://www.w3.org/2000/svg" xmlns:xlink="http://www.w3.org/1999/xlink" viewBox="-21 -21 42 42">
	<title>Helmet with white cross</title>
	<metadata>
		<rdf:RDF xmlns:rdf="http://www.w3.org/1999/02/22-rdf-syntax-ns#" xmlns:dc="http://purl.org/dc/elements/1.1/" xmlns:cc="http://creativecommons.org/ns#">
			<cc:Work rdf:about="">
				<dc:creator>
					<cc:Agent>
						<dc:title>Frank Bruder</dc:title>
					</cc:Agent>
				</dc:creator>
				<cc:license rdf:resource="http://creativecommons.org/licenses/by-nc-sa/4.0/"/>
				<cc:attributionName>Frank Bruder</cc:attributionName>
				<cc:attributionURL rdf:resource="http://frabru.de/"/>
			</cc:Work>
		</rdf:RDF>
	</metadata>
	<path d="M12 5l1 8h1l2-8M-12 5l-1 8h-1l-2-8" fill="#bbb"/>
	<path d="M17 5l-2 8v7h-2v-7l1 -8M-17 5l2 8v7h2v-7l-1 -8" fill="#ccc"/>
	<rect x="13" y="13" width="2" height="2" rx="0.5" ry="0.5" fill="#ccc" stroke="#999" stroke-width="1"/>
	<rect x="-15" y="13" width="2" height="2" rx="0.5" ry="0.5" fill="#ccc" stroke="#999" stroke-width="1"/>
	<path d="M-19 3l1 -1v-4a17 17 0 0 1 2 -8h1a17 17 0 0 1 30 0h1a17 17 0 0 1 2 8v4l1 1v1c-3 1 -5 2 -8 2s-7 -1 -11 -1s-8 1 -11 1s-5 -1 -8 -2z" fill="#eee" stroke="#888" stroke-width="1.5"/>
	<path d="M7 2q-7 -1 -14 0l2 -14h10" fill="#ddd" stroke="none" stroke-width="1.5" stroke-linecap="round"/>
	<path d="M5 -18v6l2 14M-5 -18v6l-2 14M-15 -10c2 2 2 6 3 8M15 -10c-2 2 -2 6 -3 8" fill="none" stroke="#888" stroke-width="1" stroke-linecap="round"/>
	<path d="M-5 -6h3v-3h4v3h3v4h-3v3h-4v-3h-3z" fill="#0a0"/>
</svg>
