<?xml version="1.0" encoding="utf-8"?>
<!DOCTYPE svg PUBLIC "-//W3C//DTD SVG 1.1//EN" "http://www.w3.org/Graphics/SVG/1.1/DTD/svg11.dtd">
<svg version="1.1" xmlns="http://www.w3.org/2000/svg" xmlns:xlink="http://www.w3.org/1999/xlink" viewBox="-21 -21 42 42">
	<title>Coffin</title>
	<metadata>
		<rdf:RDF xmlns:rdf="http://www.w3.org/1999/02/22-rdf-syntax-ns#" xmlns:dc="http://purl.org/dc/elements/1.1/" xmlns:cc="http://creativecommons.org/ns#">
			<cc:Work rdf:about="">
				<dc:creator>
					<cc:Agent>
						<dc:title>Frank Bruder</dc:title>
					</cc:Agent>
				</dc:creator>
				<cc:license rdf:resource="http://creativecommons.org/licenses/by-nc-sa/4.0/"/>
				<cc:attributionName>Frank Bruder</cc:attributionName>
				<cc:attributionURL rdf:resource="http://frabru.de/"/>
			</cc:Work>
		</rdf:RDF>
	</metadata>
	<path d="M-18 -3l9.9 -2.77l26.1 2.77l1 6l-28 3l-10 -3z" fill="#c96"/>
	<path d="M19 3l-1 8l-26.5 4l-0.5 -9z" fill="#a74"/>
	<path d="M-9 6l0.5 9l-9.5 -4l-1 -8z" fill="#963"/>
	<path d="M18.75 5l-27.625 3.25l-9.875 -3.25" fill="none" stroke="#852" stroke-width="1"/>
	<path d="M19 3l-28 3l-10 -3M-9 6l0.5 9" fill="none" stroke="#630" stroke-width="1.5"/>
	<path d="M-18 -3l9.9 -2.77l26.1 2.77l1 6l-1 8l-26.5 4l-9.5 -4l-1 -8z" fill="none" stroke="#630" stroke-width="2"/>
</svg>
