<?xml version="1.0" encoding="utf-8"?>
<!DOCTYPE svg PUBLIC "-//W3C//DTD SVG 1.1//EN" "http://www.w3.org/Graphics/SVG/1.1/DTD/svg11.dtd">
<svg version="1.1" xmlns="http://www.w3.org/2000/svg" xmlns:xlink="http://www.w3.org/1999/xlink" viewBox="-21 -21 42 42">
	<title>Skier</title>
	<metadata>
		<rdf:RDF xmlns:rdf="http://www.w3.org/1999/02/22-rdf-syntax-ns#" xmlns:dc="http://purl.org/dc/elements/1.1/" xmlns:cc="http://creativecommons.org/ns#">
			<cc:Work rdf:about="">
				<dc:creator>
					<cc:Agent>
						<dc:title>Frank Bruder</dc:title>
					</cc:Agent>
				</dc:creator>
				<cc:license rdf:resource="http://creativecommons.org/licenses/by-nc-sa/4.0/"/>
				<cc:attributionName>Frank Bruder</cc:attributionName>
				<cc:attributionURL rdf:resource="http://frabru.de/"/>
			</cc:Work>
		</rdf:RDF>
	</metadata>
	<g>
		<circle cx="-13" cy="-12" r="3" fill="none" stroke="#000" stroke-width="2"/>
		<circle fill="#000" cx="-10.6" cy="-15.2" r="2.25"/>
		<path fill="none" stroke="#000" stroke-width="2" stroke-linejoin="round" d="M-2 3c-1 -1 -3 -2 -3 -3s2 -3 4 -4c-2 -1 -6 -1 -8 -3s-2 -2 -2 -3q0 -0.5 1 -2c3 0 13 5 13 7s-3 3 -5 5q1 1 1 2"/>
		<path fill="none" stroke="#000" stroke-width="2" stroke-linejoin="round" d="M-2 9q-1 -2 0 -3l1 -1l-2 -2q1 -1.5 2 -2l5 5"/>
		<path fill="none" stroke="#000" stroke-width="2" stroke-linejoin="round" d="M18 -1l-30 15q-4 2 -6 0q-1.5 1 0 2q3 2 7 0l30 -15z"/>
		<path fill="none" stroke="#000" stroke-width="2" stroke-linejoin="round" d="M-9 -3c-1 0 -1.5 0.5 -2 1c-0.5 0.5 -1 1 -1 2c0 0.5 0.5 1 1 1s1.5 -0.5 2 -1s1 -1 1 -2" />
		<path fill="none" stroke="#000" stroke-width="4.5" stroke-linecap="round" d="M-11 0l22 -11m-2.5 0l1 2"/>
		<path fill="none" stroke="#000" stroke-width="2" stroke-linejoin="round" d="M-9 -3c-1 0 -1.5 0.5 -2 1c-0.5 0.5 -1 1 -1 2c0 0.5 0.5 1 1 1s1.5 -0.5 2 -1s1 -1 1 -2" />
		<path fill="none" stroke="#000" stroke-width="2" stroke-linejoin="round" stroke-linecap="round" d="M-11 -10c0 1 1 3 5 5q-2 0 -4 2q0 1 1 2c3 -1 5 -2 6 -3s0 -3 -2 -5"/>
	</g>
	<g>
		<circle cx="-13" cy="-12" r="3" fill="#efff00" stroke="#000" stroke-width="1"/>
		<path fill="#69f" stroke="#000" stroke-width="1" stroke-linejoin="round" d="M-10 -12a3 3 0 0 1 -5.4 1.8q3 0 5.4 -1.8z"/>
		<path fill="#3f6" stroke="#000" stroke-width="1" stroke-linejoin="round" d="M-16 -12a3 3 0 0 1 6 0z"/>
		<circle fill="#3f6" cx="-10.6" cy="-15.2" r="0.75"/>
		<path fill="#3f6" stroke="#000" stroke-width="1" stroke-linejoin="round" d="M-2 3c-1 -1 -3 -2 -3 -3s2 -3 4 -4c-2 -1 -6 -1 -8 -3s-2 -2 -2 -3q0 -0.5 1 -2c3 0 13 5 13 7s-3 3 -5 5q1 1 1 2"/>
		<path fill="#eee" stroke="#000" stroke-width="1" stroke-linejoin="round" d="M-2 9q-1 -2 0 -3l1 -1l-2 -2q1 -1.5 2 -2l5 5"/>
		<path fill="#c93" stroke="#000" stroke-width="1" stroke-linejoin="round" d="M18 -1l-30 15q-4 2 -6 0q-1.5 1 0 2q3 2 7 0l30 -15z"/>
		<path fill="none" stroke="#999" stroke-width="1.5" stroke-linecap="round" d="M-11 0l22 -11m-2.5 0l1 2"/>
		<path fill="#3c3" stroke="#000" stroke-width="1" stroke-linejoin="round" d="M-9 -3c-1 0 -1.5 0.5 -2 1c-0.5 0.5 -1 1 -1 2c0 0.5 0.5 1 1 1s1.5 -0.5 2 -1s1 -1 1 -2" />
		<path fill="#3f6" stroke="#000" stroke-width="1" stroke-linejoin="round" stroke-linecap="round" d="M-11 -10c0 1 1 3 5 5q-2 0 -4 2q0 1 1 2c3 -1 5 -2 6 -3s0 -3 -2 -5"/>
		<path visibility="hidden" fill="none" stroke="#00f" stroke-width="0.5" d="M2 7l-6 -6l6 -6l-12 -6l6 6l-6 3m0 1.5l20 -10"/>
	</g>
</svg>
