<?xml version="1.0" encoding="utf-8"?>
<!DOCTYPE svg PUBLIC "-//W3C//DTD SVG 1.1//EN" "http://www.w3.org/Graphics/SVG/1.1/DTD/svg11.dtd">
<svg version="1.1" xmlns="http://www.w3.org/2000/svg" xmlns:xlink="http://www.w3.org/1999/xlink" viewBox="-21 -21 42 42">
	<title>Red umbrella</title>
	<metadata>
		<rdf:RDF xmlns:rdf="http://www.w3.org/1999/02/22-rdf-syntax-ns#" xmlns:dc="http://purl.org/dc/elements/1.1/" xmlns:cc="http://creativecommons.org/ns#">
			<cc:Work rdf:about="">
				<dc:creator>
					<cc:Agent>
						<dc:title>Frank Bruder</dc:title>
					</cc:Agent>
				</dc:creator>
				<cc:license rdf:resource="http://creativecommons.org/licenses/by-nc-sa/4.0/"/>
				<cc:attributionName>Frank Bruder</cc:attributionName>
				<cc:attributionURL rdf:resource="http://frabru.de/"/>
			</cc:Work>
		</rdf:RDF>
	</metadata>
	<path d="M-18 -4q6 -11 18 -11q12 0 18 11q-4 0 -5 2q-7 -3 -13 1q-6 -4 -13 -1q-1 -2 -5 -2z" fill="none" stroke="#000" stroke-width="3" stroke-linejoin="round"/>
	<path d="M-18 -4l9 -8h18l9 8q-4 0 -5 2q-7 -3 -13 1q-6 -4 -13 -1q-1 -2 -5 -2" fill="#822"/>
	<rect x="-1" y="-7" width="2" height="11" fill="#000"/>
	<path d="M-1.5 -14l0.3 -3q1.2 -1 2.4 0l0.3 3z" fill="#888" stroke="#000" stroke-width="1.5" stroke-linejoin="round"/>
	<path d="M-18 -4q6 -11 18 -11q12 0 18 11q-3 -2 -5 -1q-8 -5 -13 -1q-5 -4 -13 1q-2 -1 -5 1z" fill="#d00"/>
	<path d="M0 -14q7 -1 13 9q-8 -5 -13 -1q-5 -4 -13 1q6 -10 13 -9z" fill="#f33"/>
	<path d="M1 3.5a1.5 1.5 0 0 1 1.5 1.5v6a5.5 5.5 0 1 1 -11 0v-1a2.5 2.5 0 1 1 5 0v1a0.5 0.5 0 0 0 1 0v-6a1.5 1.5 0 0 1 1.5 -1.5z" fill="#000"/>
	<path d="M1 5v6a4 4 0 1 1 -8 0v-1a1 1 0 1 1 2 0v1a2 2 0 0 0 4 0v-6" fill="#e33"/>
	<path d="M18 -4q-3 -2 -5 -1q-8 -5 -13 -1q-5 -4 -13 1q-2 -1 -5 1" fill="none" stroke="#000" stroke-width="1" stroke-linejoin="round"/>
</svg>
