<?xml version="1.0" encoding="utf-8"?>
<!DOCTYPE svg PUBLIC "-//W3C//DTD SVG 1.1//EN" "http://www.w3.org/Graphics/SVG/1.1/DTD/svg11.dtd">
<svg version="1.1" xmlns="http://www.w3.org/2000/svg" xmlns:xlink="http://www.w3.org/1999/xlink" viewBox="-21 -21 42 42">
	<title>Hot beverage</title>
	<metadata>
		<rdf:RDF xmlns:rdf="http://www.w3.org/1999/02/22-rdf-syntax-ns#" xmlns:dc="http://purl.org/dc/elements/1.1/" xmlns:xhv="http://www.w3.org/1999/xhtml/vocab#">
			<rdf:Description rdf:about="">
				<dc:creator>
					<rdf:Description rdf:about="http://purl.org/net/2008,frankbruder/id">
						<dc:title>Frank Bruder</dc:title>
					</rdf:Description>
				</dc:creator>
				<xhv:license rdf:resource="http://creativecommons.org/licenses/by-nc-sa/4.0/"/>
			</rdf:Description>
		</rdf:RDF>
	</metadata>
	<ellipse cx="0" cy="8.5" rx="18" ry="10" fill="#eee" stroke="#777" stroke-width="1.5"/>
	<ellipse cx="0" cy="9" rx="10" ry="5" fill="#ddd"/>
	<path d="M12 -7c4.5 0 7.5 1.5 7.5 6s-3 6 -6 6s-6 0 -9 3v-7h9c1 0 2 -0.75 2 -2s-1 -2 -4 -2" fill="#eee" stroke="#777" stroke-width="1.5" stroke-linejoin="round"/>
	<path d="M-12 -6a12 6 0 1 1 24 0q0 6 -6 13a6 3 0 1 1 -12 0q-6 -7 -6 -13z" fill="#eee" stroke="#777" stroke-width="1.5" stroke-linejoin="round"/>
	<path d="M-8.64 -4.74v-2a9 4.5 0 0 1 17.28 0v2z" fill="#ddd"/>
	<path d="M-8.64 -4.74a9 4.5 0 0 0 17.28 0a9 4.5 0 0 0 -17.28 0" fill="#ca7"/>
	<path d="M-7 -3.48a7 3.5 0 0 1 2.8 -2.8m8.4 0a7 3.5 0 0 1 2.8 2.8M-3.2 -4.68a4 2 0 0 1 6.4 0M-2 -3.48a2 1 0 0 0 4 0" fill="none" stroke="#b96" stroke-width="1" stroke-linecap="round"/>
	<path d="M-9 -6a9 4.5 0 0 0 18 0" fill="none" stroke="#777" stroke-width="1.5" stroke-linecap="round"/>
	<path d="M-5 -5c1 -1 2 -2 2 -3s-1 -2 -2 -3c-1 -1 -2 -2 -2 -4s1 -3 3 -5c-1 1 -2 2 -2 3s1 2 2 3c1 1 2 2 2 4s-1 3 -3 5z" fill="#ccc"/>
	<path d="M-1 -6c1 -1 2 -2 2 -3s-1 -2 -2 -3c-1 -1 -2 -2 -2 -4s1 -3 3 -5c-1 1 -2 2 -2 3s1 2 2 3c1 1 2 2 2 4s-1 3 -3 5z" fill="#ccc"/>
	<path d="M4 -6c1 -1 2 -2 2 -3s-1 -2 -2 -3c-1 -1 -2 -2 -2 -4s1 -3 3 -5c-1 1 -2 2 -2 3s1 2 2 3c1 1 2 2 2 4s-1 3 -3 5z" fill="#ccc"/>
</svg>
