<?xml version="1.0" encoding="utf-8"?>
<!DOCTYPE svg PUBLIC "-//W3C//DTD SVG 1.1//EN" "http://www.w3.org/Graphics/SVG/1.1/DTD/svg11.dtd">
<svg version="1.1" xmlns="http://www.w3.org/2000/svg" xmlns:xlink="http://www.w3.org/1999/xlink" viewBox="-21 -21 42 42">
	<title>Soccer ball</title>
	<metadata>
		<rdf:RDF xmlns:rdf="http://www.w3.org/1999/02/22-rdf-syntax-ns#" xmlns:dc="http://purl.org/dc/elements/1.1/" xmlns:cc="http://creativecommons.org/ns#">
			<cc:Work rdf:about="">
				<dc:creator>
					<cc:Agent>
						<dc:title>Frank Bruder</dc:title>
					</cc:Agent>
				</dc:creator>
				<cc:license rdf:resource="http://creativecommons.org/licenses/by-nc-sa/4.0/"/>
				<cc:attributionName>Frank Bruder</cc:attributionName>
				<cc:attributionURL rdf:resource="http://frabru.de/"/>
			</cc:Work>
		</rdf:RDF>
	</metadata>
	<g>
		<circle fill="#fff" stroke="#999" stroke-width="1.5" cx="0" cy="0" r="19.25"/>
		<path fill="none" stroke="#999" stroke-width="1" d="M0.06 -0.04q-3.15 2.36 -6.04 4.53M7.19 2.39q0.87 3.73 1.09 6.96M-4.88 11.44q3.51 1.75 7.13 2.43M-12.35 1.48q-0.70 -3.86 -0.34 -7.52M-0.28 -7.58q-3.34 -1.88 -6.38 -2.99M10.57 15.36q0.51 0.07 0.81 -0.15M13.42 10.28q2.68 -2.70 4.05 -6.02M3.67 17.58q-2.81 1.40 -5.68 1.27M16.91 -7.89q-1.69 -3.53 -4.61 -6.13M16.39 -2.69q-1.98 -0.60 -5.13 -0.94M7.17 -14.98q0.02 2.07 -0.53 5.19M-11.78 -14.45q0.07 -0.52 0.36 -0.74M-15.85 -8.45q-2.13 2.30 -2.81 5.10M-6.11 -15.77q3.35 -1.82 6.91 -2.20M-18.33 4.16q0.87 1.44 3.15 2.42M-9.12 16.43q-1.14 -1.23 -1.45 -3.70"/>
		<path fill="#000" stroke="#999" stroke-width="1" d="M-18.08 5.85q-0.25 -0.81 -0.25 -1.69q-0.95 -3.74 -0.33 -7.51q-0.02 -0.09 -0.01 -0.18q-0.90 4.77 0.59 9.38zM-1.84 18.91q-0.08 -0.01 -0.17 -0.06q-3.79 -0.46 -7.11 -2.42q-0.84 -0.24 -1.55 -0.71q4.01 2.72 8.83 3.19zM0.06 -0.04q3.72 1.26 7.13 2.43q2.42 -3.04 4.07 -6.02q-1.93 -3.37 -4.62 -6.16q-3.32 0.74 -6.92 2.21q0.17 3.61 0.34 7.54zM-5.98 4.49q-3.57 -1.38 -6.37 -3.01q-2.00 2.72 -2.83 5.10q1.76 3.48 4.61 6.15q2.52 -0.13 5.69 -1.29q-0.78 -3.14 -1.10 -6.95zM10.57 15.36q1.93 -1.99 2.85 -5.08q-2.11 -0.05 -5.14 -0.93q-2.80 2.76 -6.03 4.52q0.84 2.52 1.42 3.71q3.75 -0.41 6.90 -2.22zM-11.78 -14.45q-2.62 2.51 -4.07 6.00q0.97 0.90 3.16 2.41q2.61 -2.61 6.03 -4.53q0.01 -3.16 0.55 -5.20q-3.21 0.02 -5.67 1.32zM16.91 -7.89q0.45 2.37 -0.52 5.20q1.26 3.50 1.08 6.95q1.10 -0.24 1.19 -0.70q0.92 -4.84 -0.62 -9.52q-0.35 -1.05 -1.13 -1.93zM12.30 -14.02q-0.63 -1.00 -1.53 -1.63q-4.06 -2.79 -8.96 -3.26q-0.47 -0.05 -1.01 0.94q3.35 0.80 6.37 2.99q2.98 -0.14 5.13 0.96z"/>
	</g>
</svg>
