<?xml version="1.0" encoding="utf-8"?>
<!DOCTYPE svg PUBLIC "-//W3C//DTD SVG 1.1//EN" "http://www.w3.org/Graphics/SVG/1.1/DTD/svg11.dtd">
<svg version="1.1" xmlns="http://www.w3.org/2000/svg" xmlns:xlink="http://www.w3.org/1999/xlink" viewBox="-21 -21 42 42">
	<title>Black telephone</title>
	<metadata>
		<rdf:RDF xmlns:rdf="http://www.w3.org/1999/02/22-rdf-syntax-ns#" xmlns:dc="http://purl.org/dc/elements/1.1/" xmlns:cc="http://creativecommons.org/ns#">
			<cc:Work rdf:about="">
				<dc:creator>
					<cc:Agent>
						<dc:title>Frank Bruder</dc:title>
					</cc:Agent>
				</dc:creator>
				<cc:license rdf:resource="http://creativecommons.org/licenses/by-nc-sa/4.0/"/>
				<cc:attributionName>Frank Bruder</cc:attributionName>
				<cc:attributionURL rdf:resource="http://frabru.de/"/>
			</cc:Work>
		</rdf:RDF>
	</metadata>
	<path d="M-19 -4c0 -6 9 -8 19 -8s19 2 19 8l-1 1h-7l-1 -1c0 -1 0 -2 -10 -2s-10 1 -10 2l-1 1h-7z" fill="#3c3" stroke="none"/>
	<path d="M-19 -4c0 -6 9 -8 19 -8s19 2 19 8M10 -4c0 -1 0 -2 -10 -2s-10 1 -10 2" fill="none" stroke="#080" stroke-width="1.5"/>
	<path d="M-17 -5q0.6 -2 3 -3M14 -8q1.2 0.5 1.95 1.25" fill="none" stroke="#fff" stroke-width="1" stroke-linecap="round"/>
	<path d="M-19 -4q0 3 1 3h7q1 0 1 -3M10 -4q0 3 1 3h7q1 0 1 -3" fill="#aaa" stroke="#888" stroke-width="1.5"/>
	<circle cx="-8" cy="13" r="2" fill="#666"/>
	<circle cx="8" cy="13" r="2" fill="#666"/>
	<path d="M-13 11c0 -8 6 -10 6 -15v-3q0 -1 1 -1h2q1 0 1 1v3c0 1 6 1 6 0v-3q0 -1 1 -1h2q1 0 1 1v3c0 5 6 7 6 15q0 2 -1 2h-24q-1 0 -1 -2z" fill="#3c3" stroke="#080" stroke-width="1.5"/>
	<path d="M-13 11h26" fill="none" stroke="#080" stroke-width="1"/>
	<path d="M-11 9q0.8 -3.5 3 -6M8 3q1.1 1.25 1.85 2.75" fill="none" stroke="#fff" stroke-width="1" stroke-linecap="round"/>
	<ellipse cx="0" cy="3" rx="6" ry="4" fill="#bbb" stroke="#777" stroke-width="1.5"/>
	<ellipse cx="0" cy="3" rx="3" ry="2" fill="#3c3" stroke="#777" stroke-width="1.5"/>
	<path d="M3 4q1 1 2 1h1v1l-1 1v-1h-1q-1 -1 -1 -2" fill="#0a0"/>
</svg>
