<?xml version="1.0" encoding="utf-8"?>
<!DOCTYPE svg PUBLIC "-//W3C//DTD SVG 1.1//EN" "http://www.w3.org/Graphics/SVG/1.1/DTD/svg11.dtd">
<svg version="1.1" xmlns="http://www.w3.org/2000/svg" xmlns:xlink="http://www.w3.org/1999/xlink" viewBox="-21 -21 42 42">
	<title>Crossed swords</title>
	<metadata>
		<rdf:RDF xmlns:rdf="http://www.w3.org/1999/02/22-rdf-syntax-ns#" xmlns:dc="http://purl.org/dc/elements/1.1/" xmlns:cc="http://creativecommons.org/ns#">
			<cc:Work rdf:about="">
				<dc:creator>
					<cc:Agent>
						<dc:title>Frank Bruder</dc:title>
					</cc:Agent>
				</dc:creator>
				<cc:license rdf:resource="http://creativecommons.org/licenses/by-nc-sa/4.0/"/>
				<cc:attributionName>Frank Bruder</cc:attributionName>
				<cc:attributionURL rdf:resource="http://frabru.de/"/>
			</cc:Work>
		</rdf:RDF>
	</metadata>
	<g transform="translate(-1.3 0) rotate(45)">
		<rect x="-7" y="8" width="14" height="3" fill="none" stroke="#000" stroke-width="2"/>
		<circle cx="0" cy="20" r="3" fill="none" stroke="#000" stroke-width="2"/>
		<path d="M-2.2 9v-24q0 -5 2.2 -11q2.2 6 2.2 11v24" fill="#ddd" stroke="#000" stroke-width="1.5"/>
		<path d="M-1.45 0v-3l2.9 3.4v3zM-1.45 -8v-7l2.9 3.4v7z" fill="#fff"/>
		<path d="M-1.45 1.7l2.9 -0.4v-2h-2.9z" fill="#bbb"/>
		<line x1="0" y1="9" x2="0" y2="-16" stroke="#ccc" stroke-width="1" stroke-linecap="round"/>
		<rect x="-1.75" y="9" width="3.5" height="12" fill="#e74" stroke="#000" stroke-width="1.5"/>
		<rect x="-7" y="8" width="14" height="3" fill="#ccc" stroke="#000" stroke-width="1"/>
		<circle cx="0" cy="20" r="3" fill="#ccc" stroke="#000" stroke-width="1"/>
		<circle cx="0" cy="20" r="1" fill="#bbb"/>
	</g>
	<g transform="translate(1.3 0) rotate(-45)">
		<rect x="-7" y="8" width="14" height="3" fill="none" stroke="#000" stroke-width="2"/>
		<circle cx="0" cy="20" r="3" fill="none" stroke="#000" stroke-width="2"/>
		<path d="M-2.2 9v-24q0 -5 2.2 -11q2.2 6 2.2 11v24" fill="#ddd" stroke="#000" stroke-width="1.5"/>
		<path d="M-1.45 -2v-3l2.9 -2.9v3zM-1.45 5v-5l2.9 -2.9v5z" fill="#fff"/>
		<line x1="0" y1="9" x2="0" y2="-16" stroke="#ccc" stroke-width="1" stroke-linecap="round"/>
		<rect x="-1.75" y="9" width="3.5" height="12" fill="#e74" stroke="#000" stroke-width="1.5"/>
		<rect x="-7" y="8" width="14" height="3" fill="#ccc" stroke="#000" stroke-width="1"/>
		<circle cx="0" cy="20" r="3" fill="#ccc" stroke="#000" stroke-width="1"/>
		<circle cx="0" cy="20" r="1" fill="#bbb"/>
	</g>
</svg>
