<?xml version="1.0" encoding="utf-8"?>
<!DOCTYPE svg PUBLIC "-//W3C//DTD SVG 1.1//EN" "http://www.w3.org/Graphics/SVG/1.1/DTD/svg11.dtd">
<svg version="1.1" xmlns="http://www.w3.org/2000/svg" xmlns:xlink="http://www.w3.org/1999/xlink" viewBox="-21 -21 42 42">
	<title>Skull and crossbones</title>
	<metadata>
		<rdf:RDF xmlns:rdf="http://www.w3.org/1999/02/22-rdf-syntax-ns#" xmlns:dc="http://purl.org/dc/elements/1.1/" xmlns:cc="http://creativecommons.org/ns#">
			<cc:Work rdf:about="">
				<dc:creator>
					<cc:Agent>
						<dc:title>Frank Bruder</dc:title>
					</cc:Agent>
				</dc:creator>
				<cc:license rdf:resource="http://creativecommons.org/licenses/by-nc-sa/4.0/"/>
				<cc:attributionName>Frank Bruder</cc:attributionName>
				<cc:attributionURL rdf:resource="http://frabru.de/"/>
			</cc:Work>
		</rdf:RDF>
	</metadata>
	<path transform="translate(0 7) rotate(-25)" d="M0 -2c15 0 15 -1 18 -1s2 2.7 1 3c1 0.3 2 3 -1 3s-3 -1 -18 -1s-15 1 -17 1s-2 -2.7 0 -3c-2 -0.3 -2 -3 0 -3s2 1 17 1z" fill="#e9e4dc" stroke="#222" stroke-width="1.5" stroke-linejoin="round" stroke-linecap="round"/>
	<path transform="translate(0 7) rotate(205)" d="M0 -2c15 0 15 -1 18 -1s2 2.7 1 3c1 0.3 2 3 -1 3s-3 -1 -18 -1s-15 1 -17 1s-2 -2.7 0 -3c-2 -0.3 -2 -3 0 -3s2 1 17 1z" fill="#e9e4dc" stroke="#222" stroke-width="1.5" stroke-linejoin="round" stroke-linecap="round"/>
	<path d="M8 0q-1 5 -1 10c0 1 -5 4 -7 3c-2 1 -7 -2 -7 -3q0 -5 -1 -10" fill="#e9e4dc" stroke="#222" stroke-width="1.5" stroke-linejoin="round" stroke-linecap="round"/>
	<path d="M-4 7v1.8M-2 7v2M0 7.5v1.5M2 7v2M4 7v1.8" fill="none" stroke="#222" stroke-width="1" stroke-linecap="round"/>
	<path d="M-5 7c-0.5 -4 -5 -8.1 -5 -13s4.5 -9 10 -9s10 4.1 10 9s-4.5 9 -5 13q-5 1 -10 0z" fill="#e9e4dc" stroke="#222" stroke-width="1.5" stroke-linejoin="round" stroke-linecap="round"/>
	<path d="M-4 7v-2.2M-2 7v-2M0 7.5v-2.5M2 7v-2M4 7v-2.2" fill="none" stroke="#222" stroke-width="1" stroke-linecap="round"/>
	<path d="M-8 -8c1 2 -1 5 -1 8s2 3 5 3M8 -8c-1 2 1 5 1 8s-2 3 -5 3" fill="#e9e4dc" stroke="#222" stroke-width="1.5" stroke-linejoin="round" stroke-linecap="round"/>
	<circle cx="4" cy="-2" r="3" fill="#111"/>
	<circle cx="-4" cy="-2" r="3" fill="#111"/>
	<path d="M0 0c1 0 2 2 2 3s-1 1 -2 0c-1 1 -2 1 -2 0s1 -3 2 -3" fill="#111"/>
</svg>
