<?xml version="1.0" encoding="utf-8"?>
<!DOCTYPE svg PUBLIC "-//W3C//DTD SVG 1.1//EN" "http://www.w3.org/Graphics/SVG/1.1/DTD/svg11.dtd">
<svg version="1.1" xmlns="http://www.w3.org/2000/svg" xmlns:xlink="http://www.w3.org/1999/xlink" viewBox="-21 -21 42 42">
	<title>Shamrock</title>
	<metadata>
		<rdf:RDF xmlns:rdf="http://www.w3.org/1999/02/22-rdf-syntax-ns#" xmlns:dc="http://purl.org/dc/elements/1.1/" xmlns:xhv="http://www.w3.org/1999/xhtml/vocab#">
			<rdf:Description rdf:about="">
				<dc:creator>
					<rdf:Description rdf:about="http://purl.org/net/2008,frankbruder/id">
						<dc:title>Frank Bruder</dc:title>
					</rdf:Description>
				</dc:creator>
				<xhv:license rdf:resource="http://creativecommons.org/licenses/by-nc-sa/4.0/"/>
			</rdf:Description>
		</rdf:RDF>
	</metadata>
	<path d="M-0.85 -1.5c-6.8 -4.25 -8.5 -7.65 -8.5 -10.2s1.7 -5.95 9.35 -2.55c7.65 -3.4 9.35 0 9.35 2.55s-1.7 5.95 -8.5 10.2q0 1 0.8 1.5c6.95 -4 10.75 -3.9 13 -2.7s4.45 4.3 -2.15 9.45c-0.6 8.35 -4.4 8.25 -6.65 7.05s-4.45 -4.3 -5 -12.3q0 8 -1 17l-2.7 -0.5q2 -8 2 -16.5c-0.55 8 -2.75 11.1 -5 12.3s-6.05 1.3 -6.65 -7.05c-6.6 -5.15 -4.4 -8.25 -2.15 -9.45s6.05 -1.3 13 2.7q0.8 -0.5 0.8 -1.5z" fill="#0e0" stroke="#070"/>
</svg>
