<?xml version="1.0" encoding="utf-8"?>
<!DOCTYPE svg PUBLIC "-//W3C//DTD SVG 1.1//EN" "http://www.w3.org/Graphics/SVG/1.1/DTD/svg11.dtd">
<svg version="1.1" xmlns="http://www.w3.org/2000/svg" xmlns:xlink="http://www.w3.org/1999/xlink" viewBox="-21 -21 42 42">
	<title>Snowman without snow</title>
	<metadata>
		<rdf:RDF xmlns:rdf="http://www.w3.org/1999/02/22-rdf-syntax-ns#" xmlns:dc="http://purl.org/dc/elements/1.1/" xmlns:cc="http://creativecommons.org/ns#">
			<cc:Work rdf:about="">
				<dc:creator>
					<cc:Agent>
						<dc:title>Frank Bruder</dc:title>
					</cc:Agent>
				</dc:creator>
				<cc:license rdf:resource="http://creativecommons.org/licenses/by-nc-sa/4.0/"/>
				<cc:attributionName>Frank Bruder</cc:attributionName>
				<cc:attributionURL rdf:resource="http://frabru.de/"/>
			</cc:Work>
		</rdf:RDF>
	</metadata>
	<g>
		<circle cx="-4" cy="17" r="3" fill="#6df"/>
		<circle cx="0" cy="11" r="9" fill="#6df"/>
		<circle cx="0" cy="10" r="7" fill="#fff"/>
	</g>
	<g transform="translate(-6.5 -1.5) rotate(-11)">
		<line x1="0" y1="7" x2="0" y2="-7" stroke="#333" stroke-width="2" stroke-linecap="round"/>
		<path d="M-2 -4q0.6 -1 1 -3c-0.2 0 -0.2 -2 0 -2q-1 -2 -2 -6l1 -0.5l0.1 0.5l0.3 -1l1 -0.1l0.4 0.6l0.1 -0.4l1 0.1l0.1 0.5l1 -0.2l1 0.5q-1 4 -2 6c0.2 0 0.2 2 0 2q0.4 2 1 3l-0.5 0.2h-3" fill="#333"/>
	</g>
	<g>
		<circle cx="0" cy="-1" r="7" fill="#6df"/>
		<circle cx="0" cy="-2" r="5" fill="#fff"/>
		<circle cx="0" cy="-3" r="1" fill="#222"/>
		<circle cx="0" cy="0.5" r="1" fill="#222"/>
		<circle cx="0" cy="4" r="1" fill="#222"/>
	</g>
	<g>
		<circle cx="0" cy="-10" r="5" fill="#6df"/>
		<circle cx="0" cy="-10.5" r="3.6" fill="#fff"/>
		<circle cx="-1.5" cy="-11" r="0.75" fill="#222"/>
		<circle cx="1.5" cy="-11" r="0.75" fill="#222"/>
		<circle cx="-2" cy="-8.5" r="0.75" fill="#222"/>
		<circle cx="-0.8" cy="-7.5" r="0.75" fill="#222"/>
		<circle cx="0.8" cy="-7.5" r="0.75" fill="#222"/>
		<circle cx="2" cy="-8.5" r="0.75" fill="#222"/>
		<path d="M0 -10.5c0.6 0 1 0.3 1 1.1s-5 2.5 -5 2s3.4 -3.1 4 -3.1z" fill="#c93"/>
		<path d="M-4 -15h1l0.25 -5h5.5l0.25 5h1v1a1 1 0 0 1 -1 1h-6a1 1 0 0 1 -1 -1z" fill="#222"/>
		<path d="M-2 -15q1 -8 2 0h-0.5v1a1 0.5 0 1 1 -2 0v-1z" fill="#444"/>
	</g>
</svg>
