<?xml version="1.0" encoding="utf-8"?>
<!DOCTYPE svg PUBLIC "-//W3C//DTD SVG 1.1//EN" "http://www.w3.org/Graphics/SVG/1.1/DTD/svg11.dtd">
<svg version="1.1" xmlns="http://www.w3.org/2000/svg" xmlns:xlink="http://www.w3.org/1999/xlink" viewBox="-21 -21 42 42">
	<title>Man bouncing ball, medium-dark skin tone</title>
	<metadata>
		<rdf:RDF xmlns:rdf="http://www.w3.org/1999/02/22-rdf-syntax-ns#" xmlns:dc="http://purl.org/dc/elements/1.1/" xmlns:cc="http://creativecommons.org/ns#">
			<cc:Work rdf:about="">
				<dc:creator>
					<cc:Agent>
						<dc:title>Frank Bruder</dc:title>
					</cc:Agent>
				</dc:creator>
				<cc:license rdf:resource="http://creativecommons.org/licenses/by-nc-sa/4.0/"/>
				<cc:attributionName>Frank Bruder</cc:attributionName>
				<cc:attributionURL rdf:resource="http://frabru.de/"/>
			</cc:Work>
		</rdf:RDF>
	</metadata>
	<path fill="#a4775e" stroke="#000" stroke-width="1" stroke-linejoin="round" d="M0 -14c0 1 0 1.5 1 2s2 0 4.5 1s2.5 5 3 6s1.5 5 2 6l1 2q0.5 1.5 -1 2c-1.5 0 -0.5 -1.5 -2 -2q0.5 -1 0 -2c-0.5 -1.5 -2 -2 -2 -4c-1.25 -1 -1 -1 -2 -2c0.25 2 -0.5 4 -0.5 6c2 2 3 6 4 8c2 1 3 4 5 6l-3 1c-1.5 -2 -4.5 -4 -5 -5s-3 -4 -4 -7c0 2 -1 4 -2 5c0 3 -2 6 -2 9l-3 -2c1 -3 0.5 -6 1 -8s2 -5 3 -7c-0.5 -3 -1.5 -4 -2 -6c0 1 -0.5 2 -1 3s-4 4.5 -5 5q-3 0.5 -5 0c0 -0.5 0.5 -0.75 1 -1s2 -1 3 -1c1 -1 2 -3 3 -4c0.75 -2 0 -4.5 2 -6.5c0.75 -0.75 2.25 -1.25 3 -2s0 -1 0 -2z"/>
	<g>
		<circle cx="-2" cy="-16" r="3" fill="#a4775e" stroke="#000" stroke-width="1"/>
		<path fill="none" stroke="#523c2f" stroke-width="0.75" stroke-linejoin="round" stroke-linecap="round" d="M-4 -16q0.5 -0.2 1 0q0 0.5 -0.1 1M-1.5 -16q0.5 -0.2 1 0"/>
		<path fill="#a4775e" stroke="none" d="M-3 -14c-0.25 0 -0.5 0.5 -0.5 1s0.5 0.5 1 0.5s1 0 1 -0.5s-0.25 -1 -0.5 -1z"/>
		<path fill="#3cc" stroke="none" d="M-3 -14c-0.25 0 -0.5 0.5 -0.5 1s0.5 0.5 1 0.5s1 0 1 -0.5s-0.25 -1 -0.5 -1c0 0.75 -1 0.75 -1 0z"/>
		<path fill="#3cc" stroke="#399" stroke-width="0.75" stroke-linejoin="round" d="M0.5 -14.75q-0.5 3.25 -2.5 3.75q-0.5 0.125 -1 0q-1.5 -0.375 -1.5 -3.25q0.5 0.75 1.5 0.25c-0.25 0 -0.5 0.5 -0.5 1s0.5 0.5 1 0.5s1 0 1 -0.5s-0.25 -1 -0.5 -1q1.5 0.5 2.5 -0.75z"/>
	</g>
	<g>
		<path fill="#999" stroke="#000" stroke-width="1" stroke-linejoin="round" d="M-2 1q3 1 6 0c2 2 3 5 4 6q-2 2 -5 2q-0.8 -1.2 -2 -3l-1 2q-2 -2 -5 -2c1 -2 2 -4 3 -5z"/>
		<path fill="none" stroke="#000" stroke-width="1" stroke-linejoin="round" stroke-linecap="round" d="M1 6q0.25 -0.5 0.25 -1"/>
	</g>
	<path fill="#6f9" stroke="#093" stroke-width="1" stroke-linejoin="round" d="M-3 2q0.5 -2 -0.5 -6q0.5 -3 -1.5 -6.5l1 -0.5c1 1.5 2 4 3.5 4s2.5 -3 2.5 -5l2 0.25c-1 3.25 -2 7.25 0.5 8.25q0 3 1.5 5.5c-3 1.5 -5 1 -9 0z"/>
	<g>
		<path fill="#eee" stroke="#000" stroke-width="1" stroke-linejoin="round" d="M-2.5 16c-0.5 1 0 2 -0.5 3q-3 0.5 -5 0v-1c0 -1 2 -2 2 -2l0 -1c1.5 -1 2 1.5 3.5 1z"/>
		<path fill="none" stroke="#000" stroke-width="0.5" stroke-linejoin="round" stroke-linecap="round" d="M-4.2 19q0.1 -1 0 -1.5"/>
	</g>
	<g>
		<path fill="#eee" stroke="#000" stroke-width="1" stroke-linejoin="round" d="M12.5 14l1 2c-1 2 -1.5 2.8 -2.5 3s-2 0.2 -3 0v-1c0 -1 0.5 -1 1.5 -2l-1 -1c2 -1 3 0 4 -1z"/>
		<path fill="none" stroke="#000" stroke-width="0.5" stroke-linejoin="round" stroke-linecap="round" d="M9.5 16q1 0.2 1.5 0"/>
	</g>
	<ellipse stroke="#600" fill="#f93" stroke-width="1" cx="-12" cy="9" rx="3" ry="3.5"/>
</svg>
