<?xml version="1.0" encoding="utf-8"?>
<!DOCTYPE svg PUBLIC "-//W3C//DTD SVG 1.1//EN" "http://www.w3.org/Graphics/SVG/1.1/DTD/svg11.dtd">
<svg version="1.1" xmlns="http://www.w3.org/2000/svg" xmlns:xlink="http://www.w3.org/1999/xlink" viewBox="-21 -21 42 42">
	<title>Fuel pump</title>
	<metadata>
		<rdf:RDF xmlns:rdf="http://www.w3.org/1999/02/22-rdf-syntax-ns#" xmlns:dc="http://purl.org/dc/elements/1.1/" xmlns:cc="http://creativecommons.org/ns#">
			<cc:Work rdf:about="">
				<dc:creator>
					<cc:Agent>
						<dc:title>Frank Bruder</dc:title>
					</cc:Agent>
				</dc:creator>
				<cc:license rdf:resource="http://creativecommons.org/licenses/by-nc-sa/4.0/"/>
				<cc:attributionName>Frank Bruder</cc:attributionName>
				<cc:attributionURL rdf:resource="http://frabru.de/"/>
			</cc:Work>
		</rdf:RDF>
	</metadata>
	<g>
		<path fill="#aaa" stroke="#888" stroke-width="1.5" stroke-linejoin="round" d="M-10 15l2 -0.6v-2l2 -0.6l12 0.8v2l6 0.4v2.8l-4 1.2l-18 -1.2z" x="-10" y="16" width="18" height="3"/>
		<path fill="none" stroke="#888" stroke-width="1" stroke-linejoin="round" d="M-10 15l18 1.2l4 -1.2M6 14.6l-4 1.2v-2" x="-10" y="16" width="18" height="3"/>
		<path fill="#6f6" stroke="#090" stroke-width="1.5" stroke-linejoin="round" d="M-10 -16l15 -1l4 2v28l-4 1l-15 -1z"/>
		<path fill="none" stroke="#090" stroke-width="1" stroke-linejoin="round" d="M5 -17v31"/>
		<ellipse fill="#eee" stroke="#666" stroke-width="0.75" cx="2" cy="-7" rx="1" ry="1.25"/>
		<path fill="#f9a800" stroke="#666" stroke-width="0.75" stroke-linejoin="round" d="M-4 -5.9l3 0.1l-1.5 -2.6z"/>
	</g>
	<path fill="none" stroke="#333" stroke-width="2" stroke-linejoin="round" stroke-linecap="round" d="M7 -3c3 0 0 6 0 10s6 4 6 0s-1 -8 -1.5 -11"/>
	<g>
		<path fill="none" stroke="#666" stroke-width="1" stroke-linejoin="round" stroke-linecap="round" d="M11.5 -3.5l-2 -0.75l0.125 -2.25"/>
		<path fill="none" stroke="#888" stroke-width="2.1" stroke-linejoin="round" stroke-linecap="round" d="M11.5 -4l-0.375 -2.25l-3 -3"/>
		<ellipse fill="#0a0" cx="12" cy="-5.5" rx="0.625" ry="1.25"/>
	</g>
	<path fill="#bbb" d="M6 -15l1.9 0.9v1l-1.9 -0.6z"/>
	<path fill="#575" d="M6.5 -12.5a1.25 1.25 0 0 1 0 2.5a0.6 1.25 0 0 1 0 -2.5z"/>
</svg>
