<?xml version="1.0" encoding="utf-8"?>
<!DOCTYPE svg PUBLIC "-//W3C//DTD SVG 1.1//EN" "http://www.w3.org/Graphics/SVG/1.1/DTD/svg11.dtd">
<svg version="1.1" xmlns="http://www.w3.org/2000/svg" xmlns:xlink="http://www.w3.org/1999/xlink" viewBox="-21 -21 42 42">
	<title>Sun behind cloud</title>
	<metadata>
		<rdf:RDF xmlns:rdf="http://www.w3.org/1999/02/22-rdf-syntax-ns#" xmlns:dc="http://purl.org/dc/elements/1.1/" xmlns:cc="http://creativecommons.org/ns#">
			<cc:Work rdf:about="">
				<dc:creator>
					<cc:Agent>
						<dc:title>Frank Bruder</dc:title>
					</cc:Agent>
				</dc:creator>
				<cc:license rdf:resource="http://creativecommons.org/licenses/by-nc-sa/4.0/"/>
				<cc:attributionName>Frank Bruder</cc:attributionName>
				<cc:attributionURL rdf:resource="http://frabru.de/"/>
			</cc:Work>
		</rdf:RDF>
	</metadata>
	<g transform="translate(2 -9) scale(0.5)">
		<path d="M-22 0q16.36 -2.34 6.4 -15.6q13.26 9.96 15.6 -6.4q2.34 16.36 18.6 3.4q-12.96 16.26 12.4 18.6q-25.36 2.34 -12.4 18.6z" fill="#dd0"/>
		<circle cx="0" cy="0" r="8" fill="#ffc"/>
		<path d="M0 -17l2 7h-4zM25 0l-15 2v-4z" fill="#ffc"/>
		<path d="M0 -20l2 10h-4zM-17 0l7 -2v4z" fill="#ffc" transform="rotate(45)"/>
	</g>
	<path d="M-16 0a3 3 0 1 1 0 -6a2 2 0 0 1 1 -1a5 5 0 0 1 8 -4a3 3 0 0 1 4 3a3 3 0 0 1 1 1a5 5 0 0 1 3 1a4 4 0 0 1 7 1a3 3 0 0 1 2 1a3 3 0 0 1 3 0a2 2 0 0 1 0 4z" fill="#fff" stroke="#6df" stroke-width="1.5"/>
	<path d="M-9 -6a3 3 0 0 1 5 0a2 2 0 0 1 2 1" fill="none" stroke="#def" stroke-width="1.5" stroke-linecap="round"/>
</svg>
