<?xml version="1.0" encoding="utf-8"?>
<!DOCTYPE svg PUBLIC "-//W3C//DTD SVG 1.1//EN" "http://www.w3.org/Graphics/SVG/1.1/DTD/svg11.dtd">
<svg version="1.1" xmlns="http://www.w3.org/2000/svg" xmlns:xlink="http://www.w3.org/1999/xlink" viewBox="-21 -21 42 42">
	<title>Ice skate</title>
	<metadata>
		<rdf:RDF xmlns:rdf="http://www.w3.org/1999/02/22-rdf-syntax-ns#" xmlns:dc="http://purl.org/dc/elements/1.1/" xmlns:cc="http://creativecommons.org/ns#">
			<cc:Work rdf:about="">
				<dc:creator>
					<cc:Agent>
						<dc:title>Frank Bruder</dc:title>
					</cc:Agent>
				</dc:creator>
				<cc:license rdf:resource="http://creativecommons.org/licenses/by-nc-sa/4.0/"/>
				<cc:attributionName>Frank Bruder</cc:attributionName>
				<cc:attributionURL rdf:resource="http://frabru.de/"/>
			</cc:Work>
		</rdf:RDF>
	</metadata>
	<path fill="#ddd" stroke="#ccc" stroke-width="1.5" stroke-linejoin="round" stroke-linecap="round" d="M-10 -11q5 -3 12 -3c0 3 0 9 2 12z"/>
	<path fill="#ccc" stroke="#999" stroke-width="1.5" d="M-18 19l3 -3h4q2 0 2 -3v-1h3v1q0 3 3 3h7q3 0 3 -3v-1h2v1q0 3 2 3h2q2 0 2 -3v-1h2l2 3l-2 3q-3 1 -6 1z"/>
	<path fill="#111" stroke="#555" stroke-width="1.5" stroke-linejoin="round" d="M19 9q0 1 -1 3c-2 1 -10 1 -13 0s-5 -2 -9 -3v4q-4 0 -6.8 -1l-1 -5q-0.2 -1 0 -2"/>
	<path fill="#eee" stroke="#ccc" stroke-width="1.5" stroke-linejoin="round" d="M0 -15c0 3 2 10 4 13s13 7 14 8s1 2 1 3c-2 1 -11 1 -14 0s-5 -2 -9 -3s-6 -1 -8 -1q-1 -2 -1 -4c0 -3 3 -7 3 -12q5 -3 10 -4z"/>
	<g>
		<circle fill="#fff" stroke="none" r="1.5" cx="12" cy="5.8"/>
		<circle fill="#fff" stroke="none" r="1.5" cx="9" cy="4.5"/>
		<circle fill="#fff" stroke="none" r="1.5" cx="6" cy="3"/>
		<circle fill="#fff" stroke="none" r="1.5" cx="3.2" cy="1.5"/>
		<circle fill="#fff" stroke="none" r="1.5" cx="1" cy="-1.5"/>
		<path fill="none" stroke="#ccc" stroke-width="1.5" stroke-linecap="round" d="M12 5.8l2.5 -2.2M9 4.5l2.5 -2.2M6 3l2.7 -2.2M3.2 1.5l2.7 -2.2M1 -1.5l2.7 -1.8"/>
		<g>
			<circle fill="#fff" stroke="none" r="1.5" cx="-0.5" cy="-5"/>
			<circle fill="#ccc" stroke="none" r="0.75" cx="-0.5" cy="-5"/>
		</g>
		<g>
			<circle fill="#fff" stroke="none" r="1.5" cx="-1.5" cy="-8.5"/>
			<circle fill="#ccc" stroke="none" r="0.75" cx="-1.5" cy="-8.5"/>
		</g>
		<g>
			<circle fill="#fff" stroke="none" r="1.5" cx="-2.3" cy="-11.8"/>
			<circle fill="#ccc" stroke="none" r="0.75" cx="-2.3" cy="-11.8"/>
		</g>
	</g>
</svg>
