<?xml version="1.0" encoding="utf-8"?>
<!DOCTYPE svg PUBLIC "-//W3C//DTD SVG 1.1//EN" "http://www.w3.org/Graphics/SVG/1.1/DTD/svg11.dtd">
<svg version="1.1" xmlns="http://www.w3.org/2000/svg" xmlns:xlink="http://www.w3.org/1999/xlink" viewBox="-21 -21 42 42">
	<title>Yin yang</title>
	<metadata>
		<rdf:RDF xmlns:rdf="http://www.w3.org/1999/02/22-rdf-syntax-ns#" xmlns:dc="http://purl.org/dc/elements/1.1/" xmlns:cc="http://creativecommons.org/ns#">
			<cc:Work rdf:about="">
				<dc:creator>
					<cc:Agent>
						<dc:title>Frank Bruder</dc:title>
					</cc:Agent>
				</dc:creator>
				<cc:license rdf:resource="http://creativecommons.org/licenses/by-nc-sa/4.0/"/>
				<cc:attributionName>Frank Bruder</cc:attributionName>
				<cc:attributionURL rdf:resource="http://frabru.de/"/>
			</cc:Work>
		</rdf:RDF>
	</metadata>
	<circle cx="0" cy="0" r="20" fill="#808080"/>
	<path d="M0 -18a18 18 0 0 1 0 36a9 9 0 1 1 0 -18a9 9 0 1 0 0 -18zM0 -12a3 3 0 0 1 0 6a3 3 0 1 1 0 -6zM0 6a3 3 0 0 0 0 6a3 3 0 1 0 0 -6z" fill="#000"/>
	<path d="M0 18a18 18 0 1 1 0 -36a9 9 0 1 1 0 18a9 9 0 1 0 0 18zM0 -12a3 3 0 0 0 0 6a3 3 0 1 0 0 -6zM0 6a3 3 0 0 1 0 6a3 3 0 1 1 0 -6z" fill="#fff"/>
</svg>
