<?xml version="1.0" encoding="utf-8"?>
<!DOCTYPE svg PUBLIC "-//W3C//DTD SVG 1.1//EN" "http://www.w3.org/Graphics/SVG/1.1/DTD/svg11.dtd">
<svg version="1.1" xmlns="http://www.w3.org/2000/svg" xmlns:xlink="http://www.w3.org/1999/xlink" viewBox="-21 -21 42 42">
	<title>Shinto shrine</title>
	<metadata>
		<rdf:RDF xmlns:rdf="http://www.w3.org/1999/02/22-rdf-syntax-ns#" xmlns:dc="http://purl.org/dc/elements/1.1/" xmlns:cc="http://creativecommons.org/ns#">
			<cc:Work rdf:about="">
				<dc:creator>
					<cc:Agent>
						<dc:title>Frank Bruder</dc:title>
					</cc:Agent>
				</dc:creator>
				<cc:license rdf:resource="http://creativecommons.org/licenses/by-nc-sa/4.0/"/>
				<cc:attributionName>Frank Bruder</cc:attributionName>
				<cc:attributionURL rdf:resource="http://frabru.de/"/>
			</cc:Work>
		</rdf:RDF>
	</metadata>
	<path d="M-8 -6.5l2 -0.5v1h12v-1l2 0.5v4.5h-16z" fill="none" stroke="#630" stroke-width="2"/>
	<path d="M-12 20v-32h4v32M8 20v-32h4v32" fill="none" stroke="#630" stroke-width="2"/>
	<path d="M-18 -15.5q18 1 36 0l-1 4.5h-34z" fill="none" stroke="#630" stroke-width="2"/>
	<path d="M-8 -6.5l2 -0.5v1h12v-1l2 0.5v4.5h-16z" fill="#c93" stroke="#630" stroke-width="1"/>
	<path d="M-12 20v-32h4v32M8 20v-32h4v32" fill="#c93" stroke="#630" stroke-width="1"/>
	<path d="M-18 -15.5q18 1 36 0l-1 4.5h-34z" fill="#c93" stroke="#630" stroke-width="1"/>
</svg>
