<?xml version="1.0" encoding="utf-8"?>
<!DOCTYPE svg PUBLIC "-//W3C//DTD SVG 1.1//EN" "http://www.w3.org/Graphics/SVG/1.1/DTD/svg11.dtd">
<svg version="1.1" xmlns="http://www.w3.org/2000/svg" xmlns:xlink="http://www.w3.org/1999/xlink" viewBox="-21 -21 42 42">
	<title>Radioactive sign</title>
	<metadata>
		<rdf:RDF xmlns:rdf="http://www.w3.org/1999/02/22-rdf-syntax-ns#" xmlns:dc="http://purl.org/dc/elements/1.1/" xmlns:xhv="http://www.w3.org/1999/xhtml/vocab#">
			<rdf:Description rdf:about="">
				<dc:creator>
					<rdf:Description rdf:about="http://purl.org/net/2008,frankbruder/id">
						<dc:title>Frank Bruder</dc:title>
					</rdf:Description>
				</dc:creator>
				<xhv:license rdf:resource="http://creativecommons.org/licenses/by-nc-sa/4.0/"/>
			</rdf:Description>
		</rdf:RDF>
	</metadata>
	<circle cx="0" cy="0" r="19.55" fill="#f9a800" stroke="#2b2b2c" stroke-width="1.7"/>
	<path d="M-3.4 0a3.4 3.4 0 1 1 6.8 0a3.4 3.4 0 0 1 -6.8 0zM-17 0a17 17 0 0 1 9 -15l5.6 10.5a5.1 5.1 0 0 0 -2.7 4.5zM5.1 0a5.1 5.1 0 0 0 -2.7 -4.5l5.6 -10.5a17 17 0 0 1 9 15zM8 15a17 17 0 0 1 -16 0l5.6 -10.5a5.1 5.1 0 0 0 4.8 0z" fill="#2b2b2c"/>
</svg>
