<?xml version="1.0" encoding="utf-8"?>
<!DOCTYPE svg PUBLIC "-//W3C//DTD SVG 1.1//EN" "http://www.w3.org/Graphics/SVG/1.1/DTD/svg11.dtd">
<svg version="1.1" xmlns="http://www.w3.org/2000/svg" xmlns:xlink="http://www.w3.org/1999/xlink" viewBox="-21 -21 42 42">
	<title>Anchor</title>
	<metadata>
		<rdf:RDF xmlns:rdf="http://www.w3.org/1999/02/22-rdf-syntax-ns#" xmlns:dc="http://purl.org/dc/elements/1.1/" xmlns:cc="http://creativecommons.org/ns#">
			<cc:Work rdf:about="">
				<dc:creator>
					<cc:Agent>
						<dc:title>Frank Bruder</dc:title>
					</cc:Agent>
				</dc:creator>
				<cc:license rdf:resource="http://creativecommons.org/licenses/by-nc-sa/4.0/"/>
				<cc:attributionName>Frank Bruder</cc:attributionName>
				<cc:attributionURL rdf:resource="http://frabru.de/"/>
			</cc:Work>
		</rdf:RDF>
	</metadata>
	<path d="M0 -9a4 4 0 1 1 0 -8a4 4 0 0 1 0 8zM0 -9v24M-7 -3h14M-12 10a15 15 0 0 0 24 0" fill="none" stroke="#000" stroke-width="6"/>
	<circle cx="-7" cy="-3" r="4" fill="#000"/>
	<circle cx="7" cy="-3" r="4" fill="#000"/>
	<path d="M-11.1 11.2l-3.3 0.6l-1.2 -6.6l6 3z" fill="none" stroke="#000" stroke-width="3"/>
	<path d="M11.1 11.2l3.3 0.6l1.2 -6.6l-6 3z" fill="none" stroke="#000" stroke-width="3"/>
	<path d="M0 -9a4 4 0 1 1 0 -8a4 4 0 0 1 0 8zM0 -9v24M-7 -3h14M-12 10a15 15 0 0 0 24 0" fill="none" stroke="#9cf" stroke-width="3"/>
	<circle cx="-7" cy="-3" r="2.5" fill="#9cf"/>
	<circle cx="7" cy="-3" r="2.5" fill="#9cf"/>
	<path d="M-11.1 11.2l-3.3 0.6l-1.2 -6.6l6 3z" fill="#9cf"/>
	<path d="M11.1 11.2l3.3 0.6l1.2 -6.6l-6 3z" fill="#9cf"/>
</svg>
