<?xml version="1.0" encoding="utf-8"?>
<!DOCTYPE svg PUBLIC "-//W3C//DTD SVG 1.1//EN" "http://www.w3.org/Graphics/SVG/1.1/DTD/svg11.dtd">
<svg version="1.1" xmlns="http://www.w3.org/2000/svg" xmlns:xlink="http://www.w3.org/1999/xlink" viewBox="-21 -21 42 42">
	<title>Atom symbol</title>
	<metadata>
		<rdf:RDF xmlns:rdf="http://www.w3.org/1999/02/22-rdf-syntax-ns#" xmlns:dc="http://purl.org/dc/elements/1.1/" xmlns:cc="http://creativecommons.org/ns#">
			<cc:Work rdf:about="">
				<dc:creator>
					<cc:Agent>
						<dc:title>Frank Bruder</dc:title>
					</cc:Agent>
				</dc:creator>
				<cc:license rdf:resource="http://creativecommons.org/licenses/by-nc-sa/4.0/"/>
				<cc:attributionName>Frank Bruder</cc:attributionName>
				<cc:attributionURL rdf:resource="http://frabru.de/"/>
			</cc:Work>
		</rdf:RDF>
	</metadata>
	<circle cx="0" cy="0" r="2.75" fill="#f66" stroke="#633" stroke-width="1.5"/>

	<ellipse transform="rotate(3)" cx="0" cy="0" rx="18" ry="6" fill="none" stroke="#363" stroke-width="5"/>
	<ellipse transform="rotate(123)" cx="0" cy="0" rx="18" ry="6" fill="none" stroke="#363" stroke-width="5"/>
	<ellipse transform="rotate(243)" cx="0" cy="0" rx="18" ry="6" fill="none" stroke="#363" stroke-width="5"/>

	<ellipse cx="0" cy="0" rx="18" ry="6" fill="none" stroke="#6f9" stroke-width="2"/>
	<ellipse transform="rotate(120)" cx="0" cy="0" rx="18" ry="6" fill="none" stroke="#6f9" stroke-width="2"/>
	<ellipse transform="rotate(240)" cx="0" cy="0" rx="18" ry="6" fill="none" stroke="#6f9" stroke-width="2"/>

	<path d="M18 0a18 6 0 1 1 -36 0" fill="none" stroke="#363" stroke-width="4"/>
	<path transform="rotate(120)" d="M18 0a18 6 0 1 1 -36 0" fill="none" stroke="#363" stroke-width="4"/>
	<path transform="rotate(240)" d="M18 0a18 6 0 1 1 -36 0" fill="none" stroke="#363" stroke-width="4"/>

	<path d="M18 0a18 6 0 1 1 -36 0" fill="none" stroke="#6f9" stroke-width="2" stroke-linecap="round"/>
	<path transform="rotate(120)" d="M18 0a18 6 0 1 1 -36 0" fill="none" stroke="#6f9" stroke-width="2" stroke-linecap="round"/>
	<path transform="rotate(240)" d="M18 0a18 6 0 1 1 -36 0" fill="none" stroke="#6f9" stroke-width="2" stroke-linecap="round"/>
</svg>
