<?xml version="1.0" encoding="utf-8"?>
<!DOCTYPE svg PUBLIC "-//W3C//DTD SVG 1.1//EN" "http://www.w3.org/Graphics/SVG/1.1/DTD/svg11.dtd">
<svg version="1.1" xmlns="http://www.w3.org/2000/svg" xmlns:xlink="http://www.w3.org/1999/xlink" viewBox="-21 -21 42 42">
	<title>Gear</title>
	<metadata>
		<rdf:RDF xmlns:rdf="http://www.w3.org/1999/02/22-rdf-syntax-ns#" xmlns:dc="http://purl.org/dc/elements/1.1/" xmlns:cc="http://creativecommons.org/ns#">
			<cc:Work rdf:about="">
				<dc:creator>
					<cc:Agent>
						<dc:title>Frank Bruder</dc:title>
					</cc:Agent>
				</dc:creator>
				<cc:license rdf:resource="http://creativecommons.org/licenses/by-nc-sa/4.0/"/>
				<cc:attributionName>Frank Bruder</cc:attributionName>
				<cc:attributionURL rdf:resource="http://frabru.de/"/>
			</cc:Work>
		</rdf:RDF>
	</metadata>
	<path d="M-0.85 -17h1.7l0.4373 0.87461l0.61029 2.22856l1.66733 0.33165l1.41667 -1.82537l0.73872 -0.64068l1.5706 0.65056l0.06932 0.97538l-0.28899 2.29247l1.4135 0.94447l2.00737 -1.14429l0.92766 -0.30922l1.20208 1.20208l-0.30922 0.92766l-1.14429 2.00737l0.94447 1.4135l2.29247 -0.28899l0.97538 0.06932l0.65056 1.5706l-0.64068 0.73872l-1.82537 1.41667l0.33165 1.66733l2.22856 0.61029l0.87461 0.4373v1.7l-0.87461 0.4373l-2.22856 0.61029l-0.33165 1.66733l1.82537 1.41667l0.64068 0.73872l-0.65056 1.5706l-0.97538 0.06932l-2.29247 -0.28899l-0.94447 1.4135l1.14429 2.00737l0.30922 0.92766l-1.20208 1.20208l-0.92766 -0.30922l-2.00737 -1.14429l-1.4135 0.94447l0.28899 2.29247l-0.06932 0.97538l-1.5706 0.65056l-0.73872 -0.64068l-1.41667 -1.82537l-1.66733 0.33165l-0.61029 2.22856l-0.4373 0.87461h-1.7l-0.4373 -0.87461l-0.61029 -2.22856l-1.66733 -0.33165l-1.41667 1.82537l-0.73872 0.64068l-1.5706 -0.65056l-0.06932 -0.97538l0.28899 -2.29247l-1.4135 -0.94447l-2.00737 1.14429l-0.92766 0.30922l-1.20208 -1.20208l0.30922 -0.92766l1.14429 -2.00737l-0.94447 -1.4135l-2.29247 0.28899l-0.97538 -0.06932l-0.65056 -1.5706l0.64068 -0.73872l1.82537 -1.41667l-0.33165 -1.66733l-2.22856 -0.61029l-0.87461 -0.4373l-0 -1.7l0.87461 -0.4373l2.22856 -0.61029l0.33165 -1.66733l-1.82537 -1.41667l-0.64068 -0.73872l0.65056 -1.5706l0.97538 -0.06932l2.29247 0.28899l0.94447 -1.4135l-1.14429 -2.00737l-0.30922 -0.92766l1.20208 -1.20208l0.92766 0.30922l2.00737 1.14429l1.4135 -0.94447l-0.28899 -2.29247l0.06932 -0.97538l1.5706 -0.65056l0.73872 0.64068l1.41667 1.82537l1.66733 -0.33165l0.61029 -2.22856l0.4373 -0.87461zM3.84 -1.12a4 4 0 1 0 0 2.24h1v-2.24zM0 -11a2 2 0 0 0 0 4a2 2 0 1 0 0 -4zM6.36396 -8.36396a2 2 0 0 0 0 4a2 2 0 1 0 0 -4zM9 -2a2 2 0 0 0 0 4a2 2 0 1 0 0 -4zM6.36396 4.36396a2 2 0 0 0 0 4a2 2 0 1 0 0 -4zM0 7a2 2 0 0 0 0 4a2 2 0 1 0 0 -4zM-6.36396 4.36396a2 2 0 0 0 0 4a2 2 0 1 0 0 -4zM-9 -2a2 2 0 0 0 0 4a2 2 0 1 0 0 -4zM-6.36396 -8.36396a2 2 0 0 0 0 4a2 2 0 1 0 0 -4z" fill="#bbb" stroke="#555" stroke-width="1.5"/>
	<circle cx="0" cy="0" r="6.75" fill="none" stroke="#555" stroke-width="1"/>
	<circle cx="0" cy="0" r="11.25" fill="none" stroke="#555" stroke-width="1"/>
</svg>
