<?xml version="1.0" encoding="utf-8"?>
<!DOCTYPE svg PUBLIC "-//W3C//DTD SVG 1.1//EN" "http://www.w3.org/Graphics/SVG/1.1/DTD/svg11.dtd">
<svg version="1.1" xmlns="http://www.w3.org/2000/svg" xmlns:xlink="http://www.w3.org/1999/xlink" viewBox="-21 -21 42 42">
	<title>Comet</title>
	<metadata>
		<rdf:RDF xmlns:rdf="http://www.w3.org/1999/02/22-rdf-syntax-ns#" xmlns:dc="http://purl.org/dc/elements/1.1/" xmlns:xhv="http://www.w3.org/1999/xhtml/vocab#">
			<rdf:Description rdf:about="">
				<dc:creator>
					<rdf:Description rdf:about="http://purl.org/net/2008,frankbruder/id">
						<dc:title>Frank Bruder</dc:title>
					</rdf:Description>
				</dc:creator>
				<xhv:license rdf:resource="http://creativecommons.org/licenses/by-nc-sa/4.0/"/>
			</rdf:Description>
		</rdf:RDF>
	</metadata>
	<g transform="translate(-10 10)">
		<path d="M-3 -3l26 -25l-25 26l28 -27l-27 28l25 -24l-24 25" fill="#ccf"/>
		<path d="M3 3c-1.5 1.5 -4.5 1.5 -6 0s-1.5 -4.5 0 -6q4.0000 -4.0000 8.6144 -7.3856q-1.7176 2.2824 -3.4096 4.5904q6.5478 -4.9522 15.2548 -7.7452q-4.2172 2.7828 -8.1880 5.8120q7.7240 -3.7760 18.4084 -4.5916q-9.5832 2.4168 -17.2464 6.7536q7.3876 -3.1124 17.7804 -3.2196q-12.2942 1.2058 -20.5740 6.4260q4.8968 -2.1032 11.5072 -2.4928q-10.1472 1.8528 -16.1472 7.8528z" fill="#ddd"/>
		<path d="M2 2c-1 1 -3 1 -4 0s-1 -3 0 -4s6 -4 8 -4c0 2 -3 7 -4 8" fill="#f6f6f6"/>
		<circle cx="0" cy="0" r="2" fill="#fff"/>
	</g>
</svg>
