<?xml version="1.0" encoding="utf-8"?>
<!DOCTYPE svg PUBLIC "-//W3C//DTD SVG 1.1//EN" "http://www.w3.org/Graphics/SVG/1.1/DTD/svg11.dtd">
<svg version="1.1" xmlns="http://www.w3.org/2000/svg" xmlns:xlink="http://www.w3.org/1999/xlink" viewBox="-21 -21 42 42">
	<title>Biohazard sign</title>
	<metadata>
		<rdf:RDF xmlns:rdf="http://www.w3.org/1999/02/22-rdf-syntax-ns#" xmlns:dc="http://purl.org/dc/elements/1.1/" xmlns:cc="http://creativecommons.org/ns#">
			<cc:Work rdf:about="">
				<dc:creator>
					<cc:Agent>
						<dc:title>Frank Bruder</dc:title>
					</cc:Agent>
				</dc:creator>
				<cc:license rdf:resource="http://creativecommons.org/licenses/by-nc-sa/4.0/"/>
				<cc:attributionName>Frank Bruder</cc:attributionName>
				<cc:attributionURL rdf:resource="http://frabru.de/"/>
			</cc:Work>
		</rdf:RDF>
	</metadata>
	<g transform="scale(0.37)">
		<path fill="#fff" stroke="#fff" stroke-width="4" d="M-31.79172 -18.35496A32 32 0 1 1 31.79172 -18.35496A32 32 0 1 1 0 36.70992A32 32 0 1 1 -31.79172 -18.35496ZM4 0a4 4 0 1 0 -8 0a4 4 0 0 0 8 0zM17.66352 -23A19 19 0 1 0 -17.66352 -23A29 29 0 0 1 17.66352 -23ZM10.82219 -14.38333A18 18 0 0 0 -10.82219 -14.38333A19 19 0 0 0 10.82219 -14.38333ZM11.08682 26.79706A19 19 0 1 0 28.75035 -3.79706A29 29 0 0 1 11.08682 26.79706ZM7.04524 16.56396A18 18 0 0 0 17.86743 -2.18062A19 19 0 0 0 7.04524 16.56396ZM-28.75035 -3.79706A19 19 0 1 0 -11.08682 26.79706A29 29 0 0 1 -28.75035 -3.79706ZM-17.86743 -2.18062A18 18 0 0 0 -7.04524 16.56396A19 19 0 0 0 -17.86743 -2.18062Z"/>
		<g>
			<path fill="#f30" d="M16.80423 -21.13333A19 19 0 0 1 12.45301 -15.65A20 20 0 0 0 -12.45301 -15.65A19 19 0 0 1 -16.80423 -21.13333A27 27 0 0 1 16.80423 -21.13333"/>
			<path fill="#f30" d="M9.89989 25.11956A19 19 0 0 1 7.32679 18.60962A20 20 0 0 0 19.7798 -2.95962A19 19 0 0 1 26.70412 -3.98623A27 27 0 0 1 9.89989 25.11956"/>
			<path fill="#f30" d="M-26.70412 -3.98623A19 19 0 0 1 -19.7798 -2.95962A20 20 0 0 0 -7.32679 18.60962A19 19 0 0 1 -9.89989 25.11956A27 27 0 0 1 -26.70412 -3.98623"/>
			<path fill="#f30" d="M1 -9.02382A21 21 0 0 0 4 -50.61553V-51.73214A30 30 0 0 1 29.59491 -17.08663A30 30 0 0 1 46.80135 22.40197L45.83433 21.84366A21 21 0 0 0 8.31486 3.64589L5.62348 2.09201A6 6 0 0 0 1 -5.91608Z"/>
			<path fill="#f30" d="M7.31486 5.37794A21 21 0 0 0 41.83433 28.77187L42.80135 29.33017A30 30 0 0 1 0 34.17326A30 30 0 0 1 -42.80135 29.33017L-41.83433 28.77187A21 21 0 0 0 -7.31486 5.37794L-4.62348 3.82407A6 6 0 0 0 4.62348 3.82407Z"/>
			<path fill="#f30" d="M-8.31486 3.64589A21 21 0 0 0 -45.83433 21.84366L-46.80135 22.40197A30 30 0 0 1 -29.59491 -17.08663A30 30 0 0 1 -4 -51.73214V-50.61553A21 21 0 0 0 -1 -9.02382V-5.91608A6 6 0 0 0 -5.62348 2.09201Z"/>
		</g>
	</g>
</svg>
