<?xml version="1.0" encoding="utf-8"?>
<!DOCTYPE svg PUBLIC "-//W3C//DTD SVG 1.1//EN" "http://www.w3.org/Graphics/SVG/1.1/DTD/svg11.dtd">
<svg version="1.1" xmlns="http://www.w3.org/2000/svg" xmlns:xlink="http://www.w3.org/1999/xlink" viewBox="-21 -21 42 42">
	<title>Fleur-de-lis</title>
	<metadata>
		<rdf:RDF xmlns:rdf="http://www.w3.org/1999/02/22-rdf-syntax-ns#" xmlns:dc="http://purl.org/dc/elements/1.1/" xmlns:cc="http://creativecommons.org/ns#">
			<cc:Work rdf:about="">
				<dc:creator>
					<cc:Agent>
						<dc:title>Frank Bruder</dc:title>
					</cc:Agent>
				</dc:creator>
				<cc:license rdf:resource="http://creativecommons.org/licenses/by-nc-sa/4.0/"/>
				<cc:attributionName>Frank Bruder</cc:attributionName>
				<cc:attributionURL rdf:resource="http://frabru.de/"/>
			</cc:Work>
		</rdf:RDF>
	</metadata>
	<path d="M0 -17c2 3 5 4 5 8s-3 8 -3 13c0 1 1 6 1 8s-1 3 -3 5c-2 -2 -3 -3 -3 -5s1 -7 1 -8c0 -5 -3 -9 -3 -13s3 -5 5 -8zM2 4c0 -5 3 -11 8 -11c2.5 0 5 1.5 5 4.5s-3 4.5 -6 3c2 -5 -4 -3 -4 3.5c0 4 2 4 3 2.5c1 0 2 1 2 2c0 1 -1 2.5 -3 2.5c-4 0 -5 -6 -5 -7zM-2 4c0 -5 -3 -11 -8 -11c-2.5 0 -5 1.5 -5 4.5s3 4.5 6 3c-2 -5 4 -3 4 3.5c0 4 -2 4 -3 2.5c-1 0 -2 1 -2 2c0 1 1 2.5 3 2.5c4 0 5 -6 5 -7z" fill="#fd3" stroke="#980" stroke-width="1.5"/>
	<line x1="0" y1="-10" x2="0" y2="12" stroke="#db1" stroke-width="1" stroke-linecap="round"/>
	<rect x="-7" y="2" width="14" height="4" rx="2" ry="2" fill="#fd3" stroke="#980" stroke-width="1.5"/>
</svg>
