<?xml version="1.0" encoding="utf-8"?>
<!DOCTYPE svg PUBLIC "-//W3C//DTD SVG 1.1//EN" "http://www.w3.org/Graphics/SVG/1.1/DTD/svg11.dtd">
<svg version="1.1" xmlns="http://www.w3.org/2000/svg" xmlns:xlink="http://www.w3.org/1999/xlink" viewBox="-21 -21 42 42">
	<title>Mountain</title>
	<metadata>
		<rdf:RDF xmlns:rdf="http://www.w3.org/1999/02/22-rdf-syntax-ns#" xmlns:dc="http://purl.org/dc/elements/1.1/" xmlns:cc="http://creativecommons.org/ns#">
			<cc:Work rdf:about="">
				<dc:creator>
					<cc:Agent>
						<dc:title>Frank Bruder</dc:title>
					</cc:Agent>
				</dc:creator>
				<cc:license rdf:resource="http://creativecommons.org/licenses/by-nc-sa/4.0/"/>
				<cc:attributionName>Frank Bruder</cc:attributionName>
				<cc:attributionURL rdf:resource="http://frabru.de/"/>
			</cc:Work>
		</rdf:RDF>
	</metadata>
	<path d="M-20 10l4 -4l5 -10l5 -7.5l1 0.5l5 -5.5l3.5 6.5l10.5 16v4l-14 5l-12 -2l-8 -3z" fill="#ccc"/>
	<path d="M0 -17l4 7l6 5l4 7l6 8l-8 3l-12 2l8 -6l1 -2l2 -1l-1 -4l-4 -7l-6 -4l3 -1l-2 -1l-1 -4v-1h-0.5zM-6 -12l1 1l1 2l0 1l1 2l-2 2l-1 -3l1 -2l-1 -2h-0.5zM-3 0l0 4l2 3l2 1l-1 -3l-1 -2" fill="#999"/>
	<path d="M-20 10l5 -7l3 -7l6 -8v1l-5 8l-3 7l-3 4zM-5 -11l5 -6l0 1l-2 3l-2 3z" fill="#eef"/>
</svg>
