<?xml version="1.0" encoding="utf-8"?>
<!DOCTYPE svg PUBLIC "-//W3C//DTD SVG 1.1//EN" "http://www.w3.org/Graphics/SVG/1.1/DTD/svg11.dtd">
<svg version="1.1" xmlns="http://www.w3.org/2000/svg" xmlns:xlink="http://www.w3.org/1999/xlink" viewBox="-21 -21 42 42">
	<title>Fountain</title>
	<metadata>
		<rdf:RDF xmlns:rdf="http://www.w3.org/1999/02/22-rdf-syntax-ns#" xmlns:dc="http://purl.org/dc/elements/1.1/" xmlns:cc="http://creativecommons.org/ns#">
			<cc:Work rdf:about="">
				<dc:creator>
					<cc:Agent>
						<dc:title>Frank Bruder</dc:title>
					</cc:Agent>
				</dc:creator>
				<cc:license rdf:resource="http://creativecommons.org/licenses/by-nc-sa/4.0/"/>
				<cc:attributionName>Frank Bruder</cc:attributionName>
				<cc:attributionURL rdf:resource="http://frabru.de/"/>
			</cc:Work>
		</rdf:RDF>
	</metadata>
	<path d="M-7 4q2 -22 4 -22h6q2 0 4 22l-2 -1q-2 -31 -4 -9h-2q-2 -22 -4 9z" fill="#8ef"/>
	<g>
		<path d="M-16 18q6 -38 12 -15l-3 1q-3.5 -7 -7 14" fill="#8ef"/>
		<path d="M-17 18q7 -40 14 -15h-2q-5 -19 -10 15" fill="#37f"/>
	</g>
	<g>
		<path d="M16 18q-6 -38 -12 -15l3 1q3.5 -7 7 14" fill="#8ef"/>
		<path d="M17 18q-7 -40 -14 -15h2q5 -19 10 15" fill="#37f"/>
	</g>
	<path d="M-7 3q2 -22 4 -22q3 -2 6 0q2 0 4 22h-1q-1.5 -20 -3 -20q-2.5 0 -2.5 11h-1q0 -11 -2.5 -11q-1.5 0 -3 20z" fill="#37f"/>
	<path d="M-1.5 3v-6h-2v-1a3 2 0 0 1 3 -2h1a 3 2 0 0 1 3 2v1h-2v6" fill="#595" stroke="#353" stroke-width="1.5" stroke-linejoin="round"/>
	<path d="M-7.75 18v-15h15.5v15" fill="#8ef"/>
	<path d="M-2 18v-12q-3 0 -5 -2v-1h14v1q-2 2 -5 2v12" fill="#7ca" stroke="#588" stroke-width="1.5" stroke-linejoin="round"/>
	<path d="M-19 20v-1l1 -4h36l1 4v1" fill="#ccc" stroke="#555" stroke-width="1.5"/>
	<path d="" fill="#8ef"/>
	<path d="" fill="#37f"/>
</svg>
