<?xml version="1.0" encoding="utf-8"?>
<!DOCTYPE svg PUBLIC "-//W3C//DTD SVG 1.1//EN" "http://www.w3.org/Graphics/SVG/1.1/DTD/svg11.dtd">
<svg version="1.1" xmlns="http://www.w3.org/2000/svg" xmlns:xlink="http://www.w3.org/1999/xlink" viewBox="-21 -21 42 42">
	<title>Rainbow infinity sign</title>
	<metadata>
		<rdf:RDF xmlns:rdf="http://www.w3.org/1999/02/22-rdf-syntax-ns#" xmlns:dc="http://purl.org/dc/elements/1.1/" xmlns:cc="http://creativecommons.org/ns#">
			<cc:Work rdf:about="">
				<dc:creator>
					<cc:Agent>
						<dc:title>Frank Bruder</dc:title>
					</cc:Agent>
				</dc:creator>
				<cc:license rdf:resource="http://creativecommons.org/licenses/by-nc-sa/4.0/"/>
				<cc:attributionName>Frank Bruder</cc:attributionName>
				<cc:attributionURL rdf:resource="http://frabru.de/"/>
			</cc:Work>
		</rdf:RDF>
	</metadata>
	<path d="M0 0c3 -4 6 -8 10 -8s7 4 7 8s-3 8 -7 8s-7 -4 -10 -8s-6 -8 -10 -8s-7 4 -7 8s3 8 7 8s7 -4 10 -8z" fill="none" stroke="#ccc" stroke-width="6"/>
	<path d="M-10 8c4 0 7 -4 10 -8" fill="none" stroke="#f00" stroke-width="3" stroke-linecap="round"/>
	<path d="M10 -8c4 0 7 4 7 8" fill="none" stroke="#08f" stroke-width="3" stroke-linecap="round"/>
	<path d="M0 0c3 -4 6 -8 10 -8" fill="none" stroke="#a0a" stroke-width="3" stroke-linecap="butt"/>
	<path d="M10 8c-4 0 -7 -4 -10 -8" fill="none" stroke="#0f0" stroke-width="3" stroke-linecap="round"/>
	<path d="M17 0c0 4 -3 8 -7 8" fill="none" stroke="#0cf" stroke-width="3" stroke-linecap="butt"/>
	<path d="M-10 -8c-4 0 -7 4 -7 8" fill="none" stroke="#fc0" stroke-width="3" stroke-linecap="round"/>
	<path d="M0 0c-3 -4 -6 -8 -10 -8" fill="none" stroke="#ff0" stroke-width="3" stroke-linecap="butt"/>
	<path d="M-17 0c0 4 3 8 7 8" fill="none" stroke="#f80" stroke-width="3" stroke-linecap="butt"/>
</svg>
