<?xml version="1.0" encoding="utf-8"?>
<!DOCTYPE svg PUBLIC "-//W3C//DTD SVG 1.1//EN" "http://www.w3.org/Graphics/SVG/1.1/DTD/svg11.dtd">
<svg version="1.1" xmlns="http://www.w3.org/2000/svg" xmlns:xlink="http://www.w3.org/1999/xlink" viewBox="-21 -21 42 42">
	<title>Thunder cloud and rain</title>
	<metadata>
		<rdf:RDF xmlns:rdf="http://www.w3.org/1999/02/22-rdf-syntax-ns#" xmlns:dc="http://purl.org/dc/elements/1.1/" xmlns:cc="http://creativecommons.org/ns#">
			<cc:Work rdf:about="">
				<dc:creator>
					<cc:Agent>
						<dc:title>Frank Bruder</dc:title>
					</cc:Agent>
				</dc:creator>
				<cc:license rdf:resource="http://creativecommons.org/licenses/by-nc-sa/4.0/"/>
				<cc:attributionName>Frank Bruder</cc:attributionName>
				<cc:attributionURL rdf:resource="http://frabru.de/"/>
			</cc:Work>
		</rdf:RDF>
	</metadata>
	<g>
		<ellipse transform="translate(3 8) rotate(30)" cx="0" cy="0" rx="1" ry="1.5" fill="#8ef"/>
		<ellipse transform="translate(9 7) rotate(30)" cx="0" cy="0" rx="1" ry="1.5" fill="#8ef"/>
		<ellipse transform="translate(-13 9) rotate(30)" cx="0" cy="0" rx="1" ry="1.5" fill="#8ef"/>
		<ellipse transform="translate(-7 10) rotate(30)" cx="0" cy="0" rx="1" ry="1.5" fill="#8ef"/>
		<ellipse transform="translate(-2 11) rotate(30)" cx="0" cy="0" rx="1" ry="1.5" fill="#8ef"/>
		<ellipse transform="translate(2 12) rotate(30)" cx="0" cy="0" rx="1" ry="1.5" fill="#8ef"/>
		<ellipse transform="translate(7 11) rotate(30)" cx="0" cy="0" rx="1" ry="1.5" fill="#8ef"/>
		<ellipse transform="translate(12 8) rotate(30)" cx="0" cy="0" rx="1" ry="1.5" fill="#8ef"/>
		<ellipse transform="translate(-15 13) rotate(30)" cx="0" cy="0" rx="1" ry="1.5" fill="#8ef"/>
		<ellipse transform="translate(-10 13) rotate(30)" cx="0" cy="0" rx="1" ry="1.5" fill="#8ef"/>
		<ellipse transform="translate(-5 14) rotate(30)" cx="0" cy="0" rx="1" ry="1.5" fill="#8ef"/>
		<ellipse transform="translate(0 15) rotate(30)" cx="0" cy="0" rx="1" ry="1.5" fill="#8ef"/>
		<ellipse transform="translate(5 15) rotate(30)" cx="0" cy="0" rx="1" ry="1.5" fill="#8ef"/>
		<ellipse transform="translate(-18 17) rotate(30)" cx="0" cy="0" rx="1" ry="1.5" fill="#8ef"/>
		<ellipse transform="translate(-13 17) rotate(30)" cx="0" cy="0" rx="1" ry="1.5" fill="#8ef"/>
		<ellipse transform="translate(-9 17) rotate(30)" cx="0" cy="0" rx="1" ry="1.5" fill="#8ef"/>
		<ellipse transform="translate(-3.5 18) rotate(30)" cx="0" cy="0" rx="1" ry="1.5" fill="#8ef"/>
		<ellipse transform="translate(2 18) rotate(30)" cx="0" cy="0" rx="1" ry="1.5" fill="#8ef"/>
		<ellipse transform="translate(8 17) rotate(30)" cx="0" cy="0" rx="1" ry="1.5" fill="#8ef"/>
	</g>
	<g>
		<path d="M-4 7l-3 4l4 4l-1 3" fill="none" stroke="#00f" stroke-width="4.5" stroke-linecap="round"/>
		<path d="M-7 11l-3 1l-1 1v1M-5.5 9l3 2l1 0" fill="none" stroke="#00f" stroke-width="4.5" stroke-linecap="round"/>
		<path d="M-7 11l-3 1l-1 1v1M-5.5 9l3 2l1 0" fill="none" stroke="#bde" stroke-width="1.5" stroke-linecap="round"/>
		<path d="M-4 7l-3 4l4 4l-1 3v1" fill="none" stroke="#fff" stroke-width="1.5" stroke-linecap="round"/>
	</g>
	<g>
		<ellipse transform="translate(-15 8) rotate(30)" cx="0" cy="0" rx="1" ry="1.5" fill="#37f"/>
		<ellipse transform="translate(-10 9) rotate(30)" cx="0" cy="0" rx="1" ry="1.5" fill="#37f"/>
		<ellipse transform="translate(-4 10) rotate(30)" cx="0" cy="0" rx="1" ry="1.5" fill="#8cf"/>
		<ellipse transform="translate(1 10) rotate(30)" cx="0" cy="0" rx="1" ry="1.5" fill="#37f"/>
		<ellipse transform="translate(6 9) rotate(30)" cx="0" cy="0" rx="1" ry="1.5" fill="#37f"/>
		<ellipse transform="translate(10 10) rotate(30)" cx="0" cy="0" rx="1" ry="1.5" fill="#37f"/>
		<ellipse transform="translate(-18 13) rotate(30)" cx="0" cy="0" rx="1" ry="1.5" fill="#37f"/>
		<ellipse transform="translate(-13 13) rotate(30)" cx="0" cy="0" rx="1" ry="1.5" fill="#37f"/>
		<ellipse transform="translate(-8 14) rotate(30)" cx="0" cy="0" rx="1" ry="1.5" fill="#37f"/>
		<ellipse transform="translate(-2 14) rotate(30)" cx="0" cy="0" rx="1" ry="1.5" fill="#37f"/>
		<ellipse transform="translate(3 14) rotate(30)" cx="0" cy="0" rx="1" ry="1.5" fill="#37f"/>
		<ellipse transform="translate(8 14) rotate(30)" cx="0" cy="0" rx="1" ry="1.5" fill="#37f"/>
		<ellipse transform="translate(-16 18) rotate(30)" cx="0" cy="0" rx="1" ry="1.5" fill="#37f"/>
		<ellipse transform="translate(-11 19) rotate(30)" cx="0" cy="0" rx="1" ry="1.5" fill="#37f"/>
		<ellipse transform="translate(-6 18) rotate(30)" cx="0" cy="0" rx="1" ry="1.5" fill="#37f"/>
		<ellipse transform="translate(-1 18) rotate(30)" cx="0" cy="0" rx="1" ry="1.5" fill="#37f"/>
		<ellipse transform="translate(5 18) rotate(30)" cx="0" cy="0" rx="1" ry="1.5" fill="#37f"/>
	</g>
	<g>
		<path d="M-12 6a3 3 0 1 1 0 -6a2 2 0 0 1 1 -1a4 4 0 0 1 3 -3a4 4 0 0 1 1 -2a4 4 0 0 1 -2 -3a3 3 0 0 1 -2 -2a5 5 0 0 1 -5 -4a2 2 0 0 1 0 -4h32a2 2 0 0 1 0 4a3 3 0 0 1 -4 1a4 4 0 0 1 -4 2a2 2 0 0 1 -2 1a5 5 0 0 1 -4 4a2 2 0 0 1 -1 2a5 5 0 0 1 1 2a3 3 0 0 1 2 2a4 4 0 0 1 4 2a3 3 0 0 1 2 1a3 3 0 0 1 3 0a2 2 0 0 1 0 4h-7a5 5 0 0 1 -3 1h-7a5 5 0 0 1 -3 -1z" fill="#ccc" stroke="#457" stroke-width="1.5"/>
		<path d="M-3 -1l2 -2l-2 -3l1 -1M-7 -14l2 3l-2 2" fill="none" stroke="#ddd" stroke-width="2"/>
		<ellipse cx="-2" cy="3" rx="5" ry="1.5" fill="#ddd"/>
		<path d="M-7 0a3 3 0 0 1 5 0a2 2 0 0 1 2 1M-9 -14a3 3 0 0 0 3 -1a4 4 0 0 0 5 1a3 3 0 0 0 4 -1" fill="none" stroke="#aab" stroke-width="1.5" stroke-linecap="round"/>
	</g>
</svg>
