<?xml version="1.0" encoding="utf-8"?>
<!DOCTYPE svg PUBLIC "-//W3C//DTD SVG 1.1//EN" "http://www.w3.org/Graphics/SVG/1.1/DTD/svg11.dtd">
<svg version="1.1" xmlns="http://www.w3.org/2000/svg" xmlns:xlink="http://www.w3.org/1999/xlink" viewBox="-21 -21 42 42">
	<title>Staff of AEsculapius</title>
	<metadata>
		<rdf:RDF xmlns:rdf="http://www.w3.org/1999/02/22-rdf-syntax-ns#" xmlns:dc="http://purl.org/dc/elements/1.1/" xmlns:cc="http://creativecommons.org/ns#">
			<cc:Work rdf:about="">
				<dc:creator>
					<cc:Agent>
						<dc:title>Frank Bruder</dc:title>
					</cc:Agent>
				</dc:creator>
				<cc:license rdf:resource="http://creativecommons.org/licenses/by-nc-sa/4.0/"/>
				<cc:attributionName>Frank Bruder</cc:attributionName>
				<cc:attributionURL rdf:resource="http://frabru.de/"/>
			</cc:Work>
		</rdf:RDF>
	</metadata>
	<path d="M-2.4 -14a3 3 0 1 1 4.8 0q0 33 -2.4 33t-2.4 -33z" fill="none" stroke="#630" stroke-width="2" stroke-linejoin="round"/>
	<path d="M2 -8c4 0.5 7 0 7 -1.5s-3 -3 -4 -3s-1 0 -3 1c-6 -0.5 -12 -0.5 -12 5s6 5.5 8 5.5c3 0 7 0 7 1.5s-4 1.5 -5 1.5c-2 0 -8 0 -8 5.5s6 5.5 13 2.5c-7 -1 -9 -1 -9 -2.5c0 -1.5 2 -1.5 6 -1.5c1 0 7 0 7 -5.5s-6 -5.5 -8 -5.5c-2 0 -7 0 -7 -1.5s5 -1.5 8 -1.5z" fill="none" stroke="#630" stroke-width="2" stroke-linejoin="round"/>
	<g>
		<path d="M-10 -6.5c0 5.5 6 5.5 8 5.5c3 0 7 0 7 1.5l2 2l2 -2c0 -5.5 -6 -5.5 -8 -5.5c-2 0 -7 0 -7 -1.5l-2 -2z" fill="#ca8" stroke="none"/>
		<path d="M-10 -6.5c0 5.5 6 5.5 8 5.5c3 0 7 0 7 1.5m4 0c0 -5.5 -6 -5.5 -8 -5.5c-2 0 -7 0 -7 -1.5" fill="none" stroke="#630" stroke-width="1" stroke-linejoin="round" stroke-linecap="round"/>
		<path d="M-8 7.5l2 2l2 -2l-2 -2z" fill="#ca8" stroke="none"/>
		<path d="M-8 7.5c0 5.5 6 5.5 13 2.5c-7 -1 -9 -1 -9 -2.5" fill="#ca8" stroke="#630" stroke-width="1" stroke-linejoin="round" stroke-linecap="round"/>
	</g>
	<path d="M-2.4 -14a3 3 0 1 1 4.8 0q0 33 -2.4 33t-2.4 -33z" fill="#c93" stroke="#630" stroke-width="1" stroke-linejoin="round"/>
	<g>
		<path d="M-6 -6.5c0 -1.5 5 -1.5 8 -1.5c4 0.5 7 0 7 -1.5s-3 -3 -4 -3s-1 0 -3 1c-6 -0.5 -12 -0.5 -12 5" fill="#ca8" stroke="#630" stroke-width="1" stroke-linejoin="round" stroke-linecap="round"/>
		<path d="M5 0.5c0 1.5 -4 1.5 -5 1.5c-2 0 -8 0 -8 5.5h4c0 -1.5 2 -1.5 6 -1.5c1 0 7 0 7 -5.5" fill="#ca8" stroke="none"/>
		<path d="M5 0.5c0 1.5 -4 1.5 -5 1.5c-2 0 -8 0 -8 5.5m4 0c0 -1.5 2 -1.5 6 -1.5c1 0 7 0 7 -5.5" fill="none" stroke="#630" stroke-width="1" stroke-linejoin="round" stroke-linecap="round"/>
	</g>
</svg>
