<?xml version="1.0" encoding="utf-8"?>
<!DOCTYPE svg PUBLIC "-//W3C//DTD SVG 1.1//EN" "http://www.w3.org/Graphics/SVG/1.1/DTD/svg11.dtd">
<svg version="1.1" xmlns="http://www.w3.org/2000/svg" xmlns:xlink="http://www.w3.org/1999/xlink" viewBox="-21 -21 42 42">
	<title>Star and crescent</title>
	<metadata>
		<rdf:RDF xmlns:rdf="http://www.w3.org/1999/02/22-rdf-syntax-ns#" xmlns:dc="http://purl.org/dc/elements/1.1/" xmlns:xhv="http://www.w3.org/1999/xhtml/vocab#">
			<rdf:Description rdf:about="">
				<dc:creator>
					<rdf:Description rdf:about="http://purl.org/net/2008,frankbruder/id">
						<dc:title>Frank Bruder</dc:title>
					</rdf:Description>
				</dc:creator>
				<xhv:license rdf:resource="http://creativecommons.org/licenses/by-nc-sa/4.0/"/>
			</rdf:Description>
		</rdf:RDF>
	</metadata>
	<path fill="none" stroke="#191970" stroke-width="4" stroke-linejoin="round" d="M9 9a15 15 0 1 1 0 -18a12 12 0 1 0 0 18zM5 0l4.8369 -1.5716v-5.0858l2.9893 4.1145l4.8369 -1.5716l-2.9893 4.1145l2.9893 4.1145l-4.8369 -1.5716l-2.9893 4.1145v-5.0858z"/>
	<path fill="#fff" d="M9 9a15 15 0 1 1 0 -18a12 12 0 1 0 0 18zM5 0l4.8369 -1.5716v-5.0858l2.9893 4.1145l4.8369 -1.5716l-2.9893 4.1145l2.9893 4.1145l-4.8369 -1.5716l-2.9893 4.1145v-5.0858z"/>
</svg>
