<?xml version="1.0" encoding="utf-8"?>
<!DOCTYPE svg PUBLIC "-//W3C//DTD SVG 1.1//EN" "http://www.w3.org/Graphics/SVG/1.1/DTD/svg11.dtd">
<svg version="1.1" xmlns="http://www.w3.org/2000/svg" xmlns:xlink="http://www.w3.org/1999/xlink" viewBox="-21 -21 42 42">
	<title>Hot springs</title>
	<metadata>
		<rdf:RDF xmlns:rdf="http://www.w3.org/1999/02/22-rdf-syntax-ns#" xmlns:dc="http://purl.org/dc/elements/1.1/" xmlns:cc="http://creativecommons.org/ns#">
			<cc:Work rdf:about="">
				<dc:creator>
					<cc:Agent>
						<dc:title>Frank Bruder</dc:title>
					</cc:Agent>
				</dc:creator>
				<cc:license rdf:resource="http://creativecommons.org/licenses/by-nc-sa/4.0/"/>
				<cc:attributionName>Frank Bruder</cc:attributionName>
				<cc:attributionURL rdf:resource="http://frabru.de/"/>
			</cc:Work>
		</rdf:RDF>
	</metadata>
	<ellipse cx="0" cy="10" rx="18" ry="9" fill="#6ef"/>
	<path d="M-10.8 2.8a18 9 0 1 0 21.6 0" fill="none" stroke="#22f" stroke-width="1.5" stroke-linecap="round"/>
	<path d="M-10 12c2 -2 4 -4 4 -6s-2 -4 -4 -6c-2 -2 -4 -4 -4 -8s2 -6 6 -10c-2 2 -4 4 -4 6s2 4 4 6c2 2 4 4 4 8s-2 6 -6 10z" fill="#def"/>
	<path d="M -2 10c2 -2 4 -4 4 -6s-2 -4 -4 -6c-2 -2 -4 -4 -4 -8s2 -6 6 -10c-2 2 -4 4 -4 6s2 4 4 6c2 2 4 4 4 8s-2 6 -6 10z" fill="#def"/>
	<path d="M  8 10c2 -2 4 -4 4 -6s-2 -4 -4 -6c-2 -2 -4 -4 -4 -8s2 -6 6 -10c-2 2 -4 4 -4 6s2 4 4 6c2 2 4 4 4 8s-2 6 -6 10z" fill="#def"/>
</svg>
