<?xml version="1.0" encoding="utf-8"?>
<!DOCTYPE svg PUBLIC "-//W3C//DTD SVG 1.1//EN" "http://www.w3.org/Graphics/SVG/1.1/DTD/svg11.dtd">
<svg version="1.1" xmlns="http://www.w3.org/2000/svg" xmlns:xlink="http://www.w3.org/1999/xlink" viewBox="-21 -21 42 42">
	<title>Alembic</title>
	<metadata>
		<rdf:RDF xmlns:rdf="http://www.w3.org/1999/02/22-rdf-syntax-ns#" xmlns:dc="http://purl.org/dc/elements/1.1/" xmlns:cc="http://creativecommons.org/ns#">
			<cc:Work rdf:about="">
				<dc:creator>
					<cc:Agent>
						<dc:title>Frank Bruder</dc:title>
					</cc:Agent>
				</dc:creator>
				<cc:license rdf:resource="http://creativecommons.org/licenses/by-nc-sa/4.0/"/>
				<cc:attributionName>Frank Bruder</cc:attributionName>
				<cc:attributionURL rdf:resource="http://frabru.de/"/>
			</cc:Work>
		</rdf:RDF>
	</metadata>
	<path d="M1.5 8.55l-0.5 7h-2l-0.5 -7" fill="#ccc" stroke="#555" stroke-width="1.5"/>
	<path d="M-9.6 2.8l0.96 -0.28h17.28l0.96 0.28a10 10 0 0 1 -19.2 0z" fill="#c3e"/>
	<ellipse cx="0" cy="2.52" rx="8.64" ry="1.5" fill="#d4f"/>
	<path d="M-19 5c4 -12.6 15 -15 19 -15a10 10 0 1 1 -9.6 7.2q-3.5 2 -6 8.8q-1.8 -0.16 -3.4 -1z" fill="none" stroke="#9cf" stroke-width="2" stroke-linejoin="round"/>
	<ellipse transform="rotate(-16) translate(-1.5 -8)" cx="0" cy="0" rx="3" ry="1" fill="#fff"/>
	<path d="M-9.4 7.05q9.4 1 18.8 0l0.2 2l-1.3 0.13l2 7l-2 0.22l-3 -7q-5.3 0.3 -10.6 0l-3 7l-2 -0.22l2 -7l-1.3 -0.13z" fill="#ccc" stroke="#555" stroke-width="1.5"/>
</svg>
