<?xml version="1.0" encoding="utf-8"?>
<!DOCTYPE svg PUBLIC "-//W3C//DTD SVG 1.1//EN" "http://www.w3.org/Graphics/SVG/1.1/DTD/svg11.dtd">
<svg version="1.1" xmlns="http://www.w3.org/2000/svg" xmlns:xlink="http://www.w3.org/1999/xlink" viewBox="-21 -21 42 42">
	<title>Cloud</title>
	<metadata>
		<rdf:RDF xmlns:rdf="http://www.w3.org/1999/02/22-rdf-syntax-ns#" xmlns:dc="http://purl.org/dc/elements/1.1/" xmlns:xhv="http://www.w3.org/1999/xhtml/vocab#">
			<rdf:Description rdf:about="">
				<dc:creator>
					<rdf:Description rdf:about="http://purl.org/net/2008,frankbruder/id">
						<dc:title>Frank Bruder</dc:title>
					</rdf:Description>
				</dc:creator>
				<xhv:license rdf:resource="http://creativecommons.org/licenses/by-nc-sa/4.0/"/>
			</rdf:Description>
		</rdf:RDF>
	</metadata>
	<path d="M-16 0a3 3 0 1 1 0 -6a2 2 0 0 1 1 -1a5 5 0 0 1 8 -4a3 3 0 0 1 4 3a3 3 0 0 1 1 1a5 5 0 0 1 3 1a4 4 0 0 1 7 1a3 3 0 0 1 2 1a3 3 0 0 1 3 0a2 2 0 0 1 0 4z" fill="#fff" stroke="#6df" stroke-width="1.5"/>
	<path d="M-9 -6a3 3 0 0 1 5 0a2 2 0 0 1 2 1" fill="none" stroke="#def" stroke-width="1.5" stroke-linecap="round"/>
</svg>
