<?xml version="1.0" encoding="utf-8"?>
<!DOCTYPE svg PUBLIC "-//W3C//DTD SVG 1.1//EN" "http://www.w3.org/Graphics/SVG/1.1/DTD/svg11.dtd">
<svg version="1.1" xmlns="http://www.w3.org/2000/svg" xmlns:xlink="http://www.w3.org/1999/xlink" viewBox="-21 -21 42 42">
	<title>Scissors</title>
	<metadata>
		<rdf:RDF xmlns:rdf="http://www.w3.org/1999/02/22-rdf-syntax-ns#" xmlns:dc="http://purl.org/dc/elements/1.1/" xmlns:cc="http://creativecommons.org/ns#">
			<cc:Work rdf:about="">
				<dc:creator>
					<cc:Agent>
						<dc:title>Frank Bruder</dc:title>
					</cc:Agent>
				</dc:creator>
				<cc:license rdf:resource="http://creativecommons.org/licenses/by-nc-sa/4.0/"/>
				<cc:attributionName>Frank Bruder</cc:attributionName>
				<cc:attributionURL rdf:resource="http://frabru.de/"/>
			</cc:Work>
		</rdf:RDF>
	</metadata>
	<g transform="translate(0 -2)">
		<g transform="scale(-1 1) rotate(-15) translate(0.25 0)">
			<path fill="#ccc" stroke="#444" stroke-width="1.5" d="M-1.5 -6v2l4 3v16q0 4 -2.5 5.5l-3.5 -23v-3"/>
			<path fill="#6e3" stroke="#060" stroke-width="1.5" stroke-linejoin="round" d="M-1 -6v-8a5 5 0 1 0 -5 5a2 2 0 0 1 2 2v2zM-4 -14a2 2 0 1 1 -4 0a2 2 0 0 1 4 0z"/>
		</g>
		<g transform="rotate(-15) translate(0.25 0)">
			<path fill="#ccc" stroke="#444" stroke-width="1.5" d="M-1.5 -6v2l4 3v16q0 4 -2.5 5.5l-3.5 -23v-3"/>
			<path fill="#6e3" stroke="#060" stroke-width="1.5" stroke-linejoin="round" d="M-1 -6v-8a5 5 0 1 0 -5 5a2 2 0 0 1 2 2v2zM-4 -14a2 2 0 1 1 -4 0a2 2 0 0 1 4 0z"/>
		</g>
		<g>
			<circle fill="#eee" r="1.5"/>
			<rect fill="#ddd" transform="rotate(52)" x="-0.5" y="-1.3" width="1" height="2.6"/>
		</g>
	</g>
</svg>
