<?xml version="1.0" encoding="utf-8"?>
<!DOCTYPE svg PUBLIC "-//W3C//DTD SVG 1.1//EN" "http://www.w3.org/Graphics/SVG/1.1/DTD/svg11.dtd">
<svg version="1.1" xmlns="http://www.w3.org/2000/svg" xmlns:xlink="http://www.w3.org/1999/xlink" viewBox="-21 -21 42 42">
	<title>Raised fist, medium-dark skin tone</title>
	<metadata>
		<rdf:RDF xmlns:rdf="http://www.w3.org/1999/02/22-rdf-syntax-ns#" xmlns:dc="http://purl.org/dc/elements/1.1/" xmlns:cc="http://creativecommons.org/ns#">
			<cc:Work rdf:about="">
				<dc:creator>
					<cc:Agent>
						<dc:title>Frank Bruder</dc:title>
					</cc:Agent>
				</dc:creator>
				<cc:license rdf:resource="http://creativecommons.org/licenses/by-nc-sa/4.0/"/>
				<cc:attributionName>Frank Bruder</cc:attributionName>
				<cc:attributionURL rdf:resource="http://frabru.de/"/>
			</cc:Work>
		</rdf:RDF>
	</metadata>
	<path d="M11 -15c1 4 3 7 3 14c0 7 -5 20 -16 20s-16 -8 -16 -15q0 -4 2 -9" fill="#a4775e" stroke="#000" stroke-width="1.5" stroke-linejoin="round" stroke-linecap="round"/>
	<path d="M4 -15a3.5 3.5 0 1 1 7 0v11a3.5 3.5 0 1 1 -7 0z" fill="#a4775e" stroke="#000" stroke-width="1.5" stroke-linejoin="round"/>
	<path d="M-3 -15a3.5 3.5 0 1 1 7 0v12a3.5 3.5 0 1 1 -7 0z" fill="#a4775e" stroke="#000" stroke-width="1.5" stroke-linejoin="round"/>
	<path d="M-10 -13a3.5 3.5 0 1 1 7 0v10a3.5 3.5 0 1 1 -7 0z" fill="#a4775e" stroke="#000" stroke-width="1.5" stroke-linejoin="round"/>
	<path d="M-16 -9a3 3 0 1 1 6 0v7a3 3 0 1 1 -6 0z" fill="#a4775e" stroke="#000" stroke-width="1.5" stroke-linejoin="round"/>
	<path d="M-5 7q7 -5 15 -8q-3 -1 -4 -3c-1 1 -2 2 -5 2s-8 -1 -7 -4c4 -2 9 -6 12 -6s13 6 13 11c0 7 -10 20 -21 20" fill="#a4775e" stroke="#000" stroke-width="1.5" stroke-linejoin="round" stroke-linecap="round"/>
</svg>
