<?xml version="1.0" encoding="utf-8"?>
<!DOCTYPE svg PUBLIC "-//W3C//DTD SVG 1.1//EN" "http://www.w3.org/Graphics/SVG/1.1/DTD/svg11.dtd">
<svg version="1.1" xmlns="http://www.w3.org/2000/svg" xmlns:xlink="http://www.w3.org/1999/xlink" viewBox="-21 -21 42 42">
	<title>Victory hand</title>
	<metadata>
		<rdf:RDF xmlns:rdf="http://www.w3.org/1999/02/22-rdf-syntax-ns#" xmlns:dc="http://purl.org/dc/elements/1.1/" xmlns:cc="http://creativecommons.org/ns#">
			<cc:Work rdf:about="">
				<dc:creator>
					<cc:Agent>
						<dc:title>Frank Bruder</dc:title>
					</cc:Agent>
				</dc:creator>
				<cc:license rdf:resource="http://creativecommons.org/licenses/by-nc-sa/4.0/"/>
				<cc:attributionName>Frank Bruder</cc:attributionName>
				<cc:attributionURL rdf:resource="http://frabru.de/"/>
			</cc:Work>
		</rdf:RDF>
	</metadata>
	<g transform="rotate(-4)">
		<path d="M-3 -2v-14a2.5 2.5 0 1 1 5 0v14l3.92 -13.44a2.5 2.5 0 1 1 4.8 1.4l-3.92 13.44q1.2 4.6 1.2 8.6a10.5 10 0 1 1 -21 0v-4" fill="#efff00" stroke="#000" stroke-width="1.5" stroke-linejoin="round" stroke-linecap="round"/>
		<path d="M-2 14q-2 -8 7 -11" fill="none" stroke="#000" stroke-width="1" stroke-linecap="round"/>
		<path d="M-8 -3a2.5 2.5 0 1 1 5 0v9a2.5 2.5 0 1 1 -5 0z" fill="#efff00" stroke="#000" stroke-width="1.5" stroke-linejoin="round"/>
		<path d="M-13 1a2.5 2.5 0 1 1 5 0v4a2.5 2.5 0 1 1 -5 0z" fill="#efff00" stroke="#000" stroke-width="1.5" stroke-linejoin="round"/>
		<path d="M1 10l-6 -4.5a2.5 2.5 0 1 1 3 -4l7 5.25a2.5 2.5 0 0 1 0.5 0.5" fill="#efff00" stroke="#000" stroke-width="1.5" stroke-linecap="round"/>
	</g>
</svg>
