<?xml version="1.0" encoding="utf-8"?>
<!DOCTYPE svg PUBLIC "-//W3C//DTD SVG 1.1//EN" "http://www.w3.org/Graphics/SVG/1.1/DTD/svg11.dtd">
<svg version="1.1" xmlns="http://www.w3.org/2000/svg" xmlns:xlink="http://www.w3.org/1999/xlink" viewBox="-21 -21 42 42">
	<title>Heavy large circle</title>
	<metadata>
		<rdf:RDF xmlns:rdf="http://www.w3.org/1999/02/22-rdf-syntax-ns#" xmlns:dc="http://purl.org/dc/elements/1.1/" xmlns:cc="http://creativecommons.org/ns#">
			<cc:Work rdf:about="">
				<dc:creator>
					<cc:Agent>
						<dc:title>Frank Bruder</dc:title>
					</cc:Agent>
				</dc:creator>
				<cc:license rdf:resource="http://creativecommons.org/licenses/by-nc-sa/4.0/"/>
				<cc:attributionName>Frank Bruder</cc:attributionName>
				<cc:attributionURL rdf:resource="http://frabru.de/"/>
			</cc:Work>
		</rdf:RDF>
	</metadata>
	<path fill="#ccc" d="M20 0a20 20 0 1 1 -40 0a20 20 0 0 1 40 0zM17 0a17 17 0 0 0 -34 0a17 17 0 1 0 34 0z"/>
	<path fill="#fff" d="M17 0a17 17 0 1 1 -34 0a17 17 0 0 1 34 0zM12.375 0a12.375 12.375 0 0 0 -24.75 0a12.375 12.375 0 1 0 24.75 0z"/>
	<path fill="#f00" d="M18.5 0a18.5 18.5 0 1 1 -37 0a18.5 18.5 0 0 1 37 0zM13.875 0a13.875 13.875 0 0 0 -27.75 0a13.875 13.875 0 1 0 27.75 0z"/>
</svg>
